<svg xmlns="http://www.w3.org/2000/svg" xmlns:xlink="http://www.w3.org/1999/xlink" viewBox="0 0 109.89 54.6"><defs><style>.cls-1{fill:#3c3f3b;}.cls-2{fill:#b1c119;}.cls-3{fill:#fff;fill-rule:evenodd;}</style><symbol id="bd_icon" data-name="bd_icon" viewBox="0 0 109.89 54.6"><path class="cls-1" d="M109.89,14.2,108,36.7c-.1,1.8-2.2,3.4-5.5,4.3L55.19,53.9a19.52,19.52,0,0,1-5.4.7,16.56,16.56,0,0,1-5.1-.7L3.59,41c-2.8-.9-4.1-2.5-3.4-4.3l9.1-22.5c.6-1.5,3-2.9,6.2-3.7l43-10a22.36,22.36,0,0,1,4.6-.5,18.14,18.14,0,0,1,4.3.5l38.2,10c2.7.8,4.4,2.2,4.3,3.7Z"/><path class="cls-2" d="M101.19,35.4c-.2,1.5-1.9,2.8-4.6,3.6L55.29,50.3a16.42,16.42,0,0,1-8.8,0L10.49,39c-2.4-.7-3.5-2.1-2.9-3.6l7.6-20.1c.5-1.3,2.4-2.5,5.1-3.1l38-9a17.22,17.22,0,0,1,3.9-.4,14.48,14.48,0,0,1,3.7.4l33.6,9c2.4.6,3.7,1.8,3.6,3.1l-1.9,20.1ZM104,13.2a9,9,0,0,0-3.4-1.6L67,2.7a16.22,16.22,0,0,0-4.6-.5,26.26,26.26,0,0,0-4.9.5l-37.9,8.9a14.72,14.72,0,0,0-4.2,1.6,5.12,5.12,0,0,0-2.2,2.2L5.39,35.5a2.49,2.49,0,0,0,.4,2.5A6.47,6.47,0,0,0,9,39.9l35.9,11.3a17.45,17.45,0,0,0,5.3.7,26.94,26.94,0,0,0,5.7-.7l41.4-11.3a12,12,0,0,0,4.1-1.9,4.17,4.17,0,0,0,1.7-2.5l2-20.1a2.41,2.41,0,0,0-1.1-2.2Z"/><path class="cls-3" d="M73.29,25.7c-.2.9-1.9,1.7-3.9,1.7L31,32.2c-2,0-3.3-.8-3-1.7l4.1-12.7c.3-.9,2-1.6,3.9-1.6l36.5-4.3c1.9,0,3.2.7,3.1,1.5Z"/><path class="cls-2" d="M31.09,32.9h-.2c-2.8,0-4.8-1.1-4.3-2.4l4.2-12.7c.4-1.2,2.8-2.2,5.4-2.2l36.3-4.4h.2c2.6,0,4.6,1,4.4,2.2l-2.3,12.3c-.2,1.3-2.6,2.3-5.3,2.4Zm4.8-16.1c-1.1,0-2.1.4-2.3.9l-4.1,12.7c-.2.5.5.9,1.6,1l38.2-4.7h.2c1.1,0,2.1-.4,2.2-1l2.4-12.3c.1-.5-.6-.8-1.6-.9L36,16.8Z"/><path class="cls-3" d="M81.09,29.5c-.2.9-1.9,1.7-3.9,1.7l-38.7,4.9c-2,0-3.4-.8-3.1-1.7l3.9-13c.3-.9,2-1.6,3.9-1.6L80,15.4c1.9,0,3.3.7,3.2,1.6Z"/><path class="cls-2" d="M38.59,36.9h-.2c-2.9,0-4.8-1.1-4.4-2.5l3.9-13c.4-1.2,2.8-2.2,5.4-2.3L80,14.7h.2c2.7,0,4.7,1,4.5,2.2l-2,12.6c-.2,1.3-2.6,2.4-5.3,2.4Zm4.5-16.4c-1.1,0-2.1.4-2.3.9L37,34.4c-.2.5.6,1,1.6,1l38.6-4.9h.2c1.1,0,2.1-.4,2.2-1l2.1-12.6c.1-.5-.7-.9-1.7-.9l-36.8,4.4-.1.1Z"/><path class="cls-3" d="M90.29,32.8c-.1,1-1.9,1.7-3.9,1.7l-39,5c-2,0-3.5-.8-3.2-1.8l3.6-13.2c.2-.9,2-1.6,3.9-1.6l37-4.5c1.9,0,3.3.7,3.2,1.6Z"/><path class="cls-2" d="M47.49,40.3h-.2c-2.9,0-4.9-1.1-4.5-2.5l3.6-13.2c.3-1.2,2.7-2.3,5.4-2.3l37-4.5H89c2.7,0,4.8,1,4.6,2.2l-1.7,12.9c-.2,1.3-2.5,2.4-5.3,2.5Zm4.1-16.7c-1.1,0-2.1.4-2.3.9l-3.5,13.2c-.1.5.6,1,1.7,1l38.8-5h.2c1.1,0,2.1-.4,2.2-1l1.8-12.9c.1-.5-.7-.9-1.7-.9l-37.1,4.5-.1.2Z"/></symbol></defs><g id="Camada_2" data-name="Camada 2"><g id="Home_Page" data-name="Home Page"><g id="icones"><g id="bando_de_dados" data-name="bando de dados"><use width="109.89" height="54.6" xlink:href="#bd_icon"/></g></g></g></g></svg>