<svg xmlns="http://www.w3.org/2000/svg" xmlns:xlink="http://www.w3.org/1999/xlink" viewBox="0 0 90.62 37.6"><defs><style>.cls-1{fill:#3c3f3b;}.cls-2,.cls-4{fill:#b1c119;}.cls-3{fill:#fff;}.cls-3,.cls-4{fill-rule:evenodd;}</style><symbol id="chat_icon" data-name="chat_icon" viewBox="0 0 90.62 37.6"><path class="cls-1" d="M90.61,10l-1.3,15.5c-.1,1.2-1.8,2.3-4.5,2.9l-38.6,8.7a21.18,21.18,0,0,1-4.4.5,17.91,17.91,0,0,1-4.2-.5L3.21,28.4c-2.4-.6-3.6-1.7-3.1-2.9L6.31,10c.4-1.1,2.3-2,5-2.6L47,.4a23.28,23.28,0,0,1,3.8-.4,14.48,14.48,0,0,1,3.7.4l32.3,7c2.5.6,3.9,1.5,3.8,2.6Z"/><path class="cls-2" d="M83.71,24.6c-.1,1-1.5,1.9-3.8,2.4l-33.7,7.6a17.45,17.45,0,0,1-7.2,0L9,27c-2-.5-3-1.4-2.6-2.4l5.3-13.8c.3-.9,1.9-1.7,4.1-2.2l31.4-6.3a17.61,17.61,0,0,1,3.3-.3,14.82,14.82,0,0,1,3.1.3L82,8.6c2,.4,3.2,1.3,3.1,2.2l-1.4,13.8Zm2-15.3a7,7,0,0,0-2.9-1.1L54.41,1.9a15.59,15.59,0,0,0-3.9-.4,18.4,18.4,0,0,0-4.1.4L15,8.2a19.44,19.44,0,0,0-3.4,1.1,3.68,3.68,0,0,0-1.7,1.5L4.61,24.6a1.46,1.46,0,0,0,.5,1.7,6.79,6.79,0,0,0,2.7,1.3l30,7.6a19.71,19.71,0,0,0,4.4.5,22.36,22.36,0,0,0,4.6-.5l33.7-7.6a10.3,10.3,0,0,0,3.3-1.3c.8-.5,1.3-1.1,1.3-1.7l1.3-13.8c.3-.5,0-1.1-.7-1.5Z"/><path class="cls-3" d="M24.91,23.9s-6-1.4-6-3.8,3-4,5.2-4.6a43.31,43.31,0,0,1,5.9-1s5.4-2.7,7.6-3.1,17.6-1.9,25.6-.8,12.7,3.2,11.1,6.7-10,4.9-10,4.9l-.5,2.7-6-2a24.43,24.43,0,0,0-5.4.3c-3.9.4-9.7,1.5-10.7,1.5-2.1.1-10.5-.3-10.5-.3l-7.1,1.8Z"/><path class="cls-4" d="M53.11,9.8a92.16,92.16,0,0,1,13.3.7c4.2.6,7.4,1.6,8.6,3.4,1.5,2,1,4.1-2.2,6.1a21.54,21.54,0,0,1-6.9,2.2c-.6.1-.8.2-.8.5-.1.6-.2,1.3-.3,1.9,0,.2-.3.3-.4.5-.4-.1-.9-.1-1.2-.2-1.7-.5-3.4-1-5-1.5a5.18,5.18,0,0,0-2.2-.2h-.7a20.67,20.67,0,0,0-6.2.8,44,44,0,0,1-8.3.9c-2.7.1-5.3.1-7.9,0a11.18,11.18,0,0,0-4.6.6c-1.1.3-2.2.6-3.4.9a3.08,3.08,0,0,1-.9.1.32.32,0,0,1-.3-.3c0-.2.1-.3.1-.5a3.58,3.58,0,0,1,.4-1.1c.1-.2,0-.3-.5-.4-5.5-1.1-6.7-3.1-5.5-5.4.6-1.1,1.8-2.1,4-3A32.47,32.47,0,0,1,29,14.3a2.9,2.9,0,0,0,1.1-.3c2.2-1.7,6-2.7,10.5-3.3A78.27,78.27,0,0,1,53.11,9.8Zm10.4,14.5c.1-.7-.2-1.5-.1-2.1,0-.3.3-.4.9-.5a21.73,21.73,0,0,0,6.5-1.9,5.74,5.74,0,0,0,2.8-2.8,3,3,0,0,0-.7-3.1c-1.4-1.4-4.3-2.3-7.9-2.8a83.51,83.51,0,0,0-10.2-.6,118.38,118.38,0,0,0-13.3.6,28,28,0,0,0-7.3,1.7c-3.4,1.5-4.2,3.2-4,5,.3,2,3.2,3.3,7.9,4a111.37,111.37,0,0,0,18.4.6,7.08,7.08,0,0,1,1.5.1C59.61,23.1,61.71,23.8,63.51,24.3Zm-38.4,1.3c1.7-.4,3.1-1,4.7-1.3a5.7,5.7,0,0,1,1.3-.1,97.87,97.87,0,0,0,12.1-.1,39.38,39.38,0,0,0,5.8-.6c-.8,0-1.3-.1-1.9-.1a72.28,72.28,0,0,1-9.5-.6,26.09,26.09,0,0,1-7.2-1.8c-3-1.4-3.3-3.1-2.4-5a7.46,7.46,0,0,1,.7-1.2c-2.5.3-3.7.4-5.4,1.2-3.2,1.5-3.9,3.1-3.2,4.8.5,1.3,2.6,2.1,5.4,2.6.7.1.9.3.8.6A16.67,16.67,0,0,0,25.11,25.6Z"/></symbol></defs><g id="Camada_2" data-name="Camada 2"><g id="Home_Page" data-name="Home Page"><g id="icones"><g id="chat"><use width="90.62" height="37.6" xlink:href="#chat_icon"/></g></g></g></g></svg>