<svg xmlns="http://www.w3.org/2000/svg" xmlns:xlink="http://www.w3.org/1999/xlink" viewBox="0 0 81.95 31.9"><defs><style>.cls-1{fill:#3c3f3b;}.cls-2,.cls-4{fill:#b1c119;}.cls-3{fill:#fff;}.cls-3,.cls-4{fill-rule:evenodd;}</style><symbol id="download_icon" data-name="download_icon" viewBox="0 0 81.95 31.9"><path class="cls-1" d="M78.1,8.5l3.8,13.2c.3,1-.9,2-3.2,2.5L46.1,31.5a16.11,16.11,0,0,1-3.9.4,17,17,0,0,1-4-.4L3.8,24.2C1.4,23.7-.1,22.7,0,21.7L.4,8.5c0-.9,1.5-1.7,3.7-2.2L34.7.3A17.92,17.92,0,0,1,38.1,0a19.83,19.83,0,0,1,3.5.3l32.1,6c2.5.5,4.1,1.3,4.4,2.2Z"/><path class="cls-2" d="M76.3,20.9c.2.8-.8,1.6-2.7,2.1L45.1,29.4a18.3,18.3,0,0,1-6.6,0L8.4,23c-2-.4-3.2-1.2-3.2-2.1L5.4,9.1c0-.8,1.2-1.5,3.1-1.8l27-5.4a13.58,13.58,0,0,1,2.9-.3,14.53,14.53,0,0,1,3,.3L69.7,7.3c2,.4,3.3,1.1,3.5,1.8l3.1,11.8Zm-3-13a15,15,0,0,0-3-1L42,1.5a21.33,21.33,0,0,0-3.7-.3,20.16,20.16,0,0,0-3.6.3L7.8,6.9A9.13,9.13,0,0,0,5,7.9,1.67,1.67,0,0,0,4,9.2L3.8,21a2.23,2.23,0,0,0,1,1.5,11.76,11.76,0,0,0,2.9,1.1L37.8,30a18.72,18.72,0,0,0,4.2.4,17.83,17.83,0,0,0,4.1-.4l28.5-6.4a6.86,6.86,0,0,0,2.7-1.1A1.47,1.47,0,0,0,78,21L74.8,9.2a3.29,3.29,0,0,0-1.5-1.3Z"/><path class="cls-3" d="M57.8,23.2c.1.5-.9.9-2.2.9H24.8c-1.3,0-2.4-.4-2.4-.9l-.8-15c0-.4.9-.8,2.2-.8H52.7c1.2,0,2.3.3,2.4.8Z"/><path class="cls-2" d="M52.2,7.1h-28c-1.9,0-3.4.5-3.4,1l.8,15.2c0,.7,1.7,1.2,3.8,1.2h30c2,0,3.6-.5,3.5-1.2L56,8.1C55.7,7.6,54.1,7.1,52.2,7.1ZM54,8.2l.8,4.2L39.7,7.8H52.3C53.2,7.8,54,8,54,8.2Zm-2.2,4.1H42.2c-1.1,0-2-.3-2-.7l-.4-3Zm3.4,11.5H25.3c-1,0-1.8-.2-1.8-.5L22.6,8.1c0-.2.7-.4,1.6-.4H37.9l.5,3.8c.1.7,1.9,1.4,3.9,1.4H54.9l1.9,10.4C56.9,23.6,56.1,23.8,55.2,23.8Z"/><path class="cls-4" d="M61.5,21.3c.6,2.8-5.2,5.1-12.9,5.1s-14.2-2.3-14.5-5.1,5.5-4.9,13-4.9S61,18.6,61.5,21.3Z"/><polygon class="cls-3" points="53.91 22 53.1 17.4 41.3 17.4 41.91 22 37.3 22 48.51 25.9 58.51 22 53.91 22"/></symbol></defs><g id="Camada_2" data-name="Camada 2"><g id="Home_Page" data-name="Home Page"><g id="icones"><g id="download"><use width="81.95" height="31.9" xlink:href="#download_icon"/></g></g></g></g></svg>