<svg xmlns="http://www.w3.org/2000/svg" xmlns:xlink="http://www.w3.org/1999/xlink" viewBox="0 0 159.02 115.1"><defs><style>.cls-1{fill:#3c3f3b;}.cls-2{fill:#b1c119;}.cls-3{fill:#fff;}</style><symbol id="eventos_icon" data-name="eventos_icon" viewBox="0 0 159.02 115.1"><path class="cls-1" d="M144.9,28.2l13.8,47.2c1.1,3.8-.7,7.4-4.9,9.4L92.3,113.5a17.7,17.7,0,0,1-7.7,1.6,22.06,22.06,0,0,1-8.1-1.6L7.4,84.8C2.7,82.9-.1,79.3,0,75.4L1.3,28.2c.1-3.1,2.7-5.9,6.9-7.4L63.3,1a17,17,0,0,1,6.1-1,19.49,19.49,0,0,1,6.4,1l60.3,19.8c4.5,1.5,7.9,4.3,8.8,7.4Z"/><path class="cls-2" d="M147.7,72.6c.9,3.1-.7,6.1-4.2,7.7L90,105.2a16.8,16.8,0,0,1-13.2,0L16.7,80.3c-3.9-1.6-6.3-4.6-6.2-7.7l.3-42.1c0-2.6,2.2-5,5.6-6.3L65,6.2a15,15,0,0,1,5.2-.9,16.69,16.69,0,0,1,5.5.9l53.4,18c3.8,1.3,6.6,3.7,7.3,6.3l11.3,42.1ZM135.8,26a17.58,17.58,0,0,0-5.9-3.2L76.7,5a21.54,21.54,0,0,0-6.8-1.1A19.26,19.26,0,0,0,63.4,5L14.9,22.8A13.52,13.52,0,0,0,9.8,26a6.93,6.93,0,0,0-1.9,4.5L7.4,72.6a9.08,9.08,0,0,0,2,5.5,13.77,13.77,0,0,0,5.7,4.1l60.3,25.1a22.11,22.11,0,0,0,8.4,1.7,18.78,18.78,0,0,0,8-1.7l53.6-25.1a9.8,9.8,0,0,0,4.6-4.1,7.48,7.48,0,0,0,.6-5.5L138.9,30.5a9.2,9.2,0,0,0-3.1-4.5Z"/><path class="cls-2" d="M31.3,52q-.45-12.15-.9-23.4v-.7c-.1-.3.1-.5.3-.7l.6-.6c.3-.2.7-.2.9-.4h0a6.75,6.75,0,0,1,1.4-.2H44c.8,0,.6,0,.6-.4,0-.7-.1-1.5-.1-2.2,0-.1,0-.3.2-.3h0c0-.2.3-.3.4-.5s.7-.4,1-.6a1.27,1.27,0,0,1,.6-.1,10.75,10.75,0,0,1,3.1-.1H52c.1,0,.3.1.4.1h.1c.3-.1.5.2.8.2s.3.1.5.2.2.1.3.2.3.3.5.4a.1.1,0,0,0,.1.1l.2.2c0,.1.1.1.1.2.1.8.2,1.6.3,2.3,0,.1,0,.2.1.2a.85.85,0,0,0,.6.2H87.6c.4,0,.6-.1.5-.4-.1-.5-.2-1.1-.3-1.6,0-.3-.1-.6-.1-.9s.2-.3.3-.5l.1-.1c0-.2.2-.3.4-.4s.2-.1.3-.2l.9-.3a7.41,7.41,0,0,1,2.1-.1H95c.2,0,.3,0,.4.1h.1a2.93,2.93,0,0,1,1,.3c.5.1.7.4,1,.5s.3.3.4.4c.6.5.4,1,.5,1.5s.2.9.3,1.3c0,.2.1.2.4.2h10.7a2.77,2.77,0,0,1,.9.1h.1a5,5,0,0,1,1.3.3,10.91,10.91,0,0,1,1.1.6,1.52,1.52,0,0,1,.6,1c0,.2.1.4.1.6,2.4,10.5,4.8,21.5,7.4,33.1a1.16,1.16,0,0,0,.6.8c.2.1.3.3.5.4s.3.4.6.5.3.3.4.4l.7.7c.2.2.3.4.5.6s.2.6.7.8h0a4.05,4.05,0,0,1,.5.9c.2.3.3.6.5.9s.1.6.4.8a.37.37,0,0,1,.1.3l.6,2.4c0,.2-.1.4-.1.6s.1.4.1.7a2.08,2.08,0,0,1-.1,1.1,1.48,1.48,0,0,0-.1.7c0,.2-.2.4-.3.7V75c-.1.3-.1.5-.2.8s-.2.3-.2.5-.3.5-.4.7-.1.2-.2.3-.4.5-.6.7-.2.3-.3.4-.3.2-.4.3l-.3.3c-.3.2-.5.5-.8.7a2.65,2.65,0,0,1-.6.5l-.6.3c-.2.2-.5.3-.7.5h0a1,1,0,0,0-.8.4,1.06,1.06,0,0,1-.5.2c-.3.1-.5.3-.8.4a6.89,6.89,0,0,0-.8.3c-.1,0-.2.1-.3.2a2.92,2.92,0,0,1-.9.2l-1.1.3h-.1l-1.7.3c-.2,0-.3.1-.5.1H113c-.2,0-.3.1-.5.1s-.2.1-.3.1h-4.3c-.1,0-.3-.1-.4-.1s-.2-.1-.3-.1h-.9a1,1,0,0,1-.7-.2h-.3a1.34,1.34,0,0,1-.9-.2h0a3.19,3.19,0,0,1-1.4-.3,3.81,3.81,0,0,1-1-.3c-.4-.1-.8-.2-1.1-.3s-.4-.1-.6-.2a3,3,0,0,1-.8-.4h-.1c-.3-.1-.5-.2-.8-.3a4.35,4.35,0,0,1-.7-.4,3.59,3.59,0,0,0-1.1-.2H35.5a4.3,4.3,0,0,1-1.2-.2,3.46,3.46,0,0,1-1.2-.7,2.09,2.09,0,0,1-.4-.6,3.71,3.71,0,0,1-.4-2.5C31.9,68.5,31.6,60.1,31.3,52Zm3.2-13.3c.6,12.5,1.2,25.8,1.8,39.8H92.5c.1,0,.3,0,.3-.1-.2-.2-.4-.5-.6-.7a.1.1,0,0,1-.1-.1c-.2-.2-.4-.3-.6-.5l-.1-.1a2.65,2.65,0,0,0-.6-.5,2.09,2.09,0,0,1-.4-.6h-.1a2,2,0,0,1-.6-.7c-.2-.3-.3-.6-.5-.9h0a3.75,3.75,0,0,1-.7-1.2.6.6,0,0,0-.1-.4c-.3-.2-.2-.4-.3-.6s-.1-.6-.2-.9c0-.1-.1-.1-.1-.2s-.2-.2-.2-.3c0-.4-.2-.8,0-1.2a3.64,3.64,0,0,0-.2-1.4,1.42,1.42,0,0,0-.6-.2,6.89,6.89,0,0,1-.8-.3c-.3-.1-.5-.3-.8-.3a.1.1,0,0,1-.1-.1,1.49,1.49,0,0,0-.7-.3h-.2a1.14,1.14,0,0,0-.8-.3c-.1,0-.1,0-.2-.1a11.73,11.73,0,0,1-1.1-.5c-.1-.1-.3-.1-.4-.2l-.9-.3c-.3-.1-.5-.2-.8-.3a.1.1,0,0,1-.1-.1,1.49,1.49,0,0,0-.7-.3H79c-.3-.1-.5-.2-.8-.3-.1,0-.1,0-.2-.1s-.5-.2-.7-.3-.1,0-.2-.1c-.3-.1-.5-.2-.8-.3-.1,0-.1-.1-.2-.1h-.5c-.1,0-.1.1-.2.1l-.6.3c-.3.2-.7.3-1,.5s-.5.1-.6.2-.5.1-.7.3-.3.1-.4.2l-.6.3a4.88,4.88,0,0,1-.7.3,3.33,3.33,0,0,0-.6.3,3.13,3.13,0,0,1-1,.5c-.4.1-.7.4-1.2.4a.1.1,0,0,0-.1.1l-.6.3a.35.35,0,0,0-.2.1c-.2.1-.5.2-.7.3h-.1c-.2.3-.7.3-1,.5-.1.1-.2.1-.3.2a4.18,4.18,0,0,0-1,.4h-.1c0-.2.1-.4.1-.6a.37.37,0,0,1,.1-.3c0-.1.1-.2.2-.3s-.1-.4,0-.4c.3-.3,0-.6.3-.9s.1-.5.2-.7a1.8,1.8,0,0,0,.2-1c0-.3.4-.6.2-.9v-.1c.1-.1.1-.2.2-.3v-.5c0-.1.1-.2.1-.3s-.1-.3,0-.4c.3-.1.1-.3.2-.5s0-.2.1-.2.1-.2.2-.3V61c.3-.3.1-.7.3-1s.3-.6-.3-.9a3.51,3.51,0,0,1-.8-.5,10.91,10.91,0,0,1-1.1-.6c-.1-.1-.4-.1-.5-.2s-.4-.1-.5-.2c-.3-.1-.5-.3-.8-.4a2.19,2.19,0,0,0-.5-.3,1.42,1.42,0,0,0-.6-.2c-.1-.1-.2-.1-.4-.2a2.09,2.09,0,0,1-.6-.4L59,55.5l-.6-.3-.6-.3c-.1-.1-.2-.1-.3-.2s-.3-.2-.5-.3a4.18,4.18,0,0,1-1-.4,1.61,1.61,0,0,0-.7-.4c-.3-.1-.5-.3-.8-.4v-.1a1.85,1.85,0,0,1,.7-.2c1.7-.1,3.5,0,5.2-.2s3.5,0,5.2-.2c.9-.1,1.9,0,2.8-.1a.37.37,0,0,0,.3-.1c.3-.1.2-.4.4-.6s0-.3.2-.5.1-.3.2-.5.2-.5.3-.7.2-.2.2-.3.1-.5.3-.7.1-.3.2-.5a.1.1,0,0,1,.1-.1c0-.1.1-.1.1-.2v-.1c.4-.2.2-.5.4-.7s.2-.5.3-.7h0c.3-.1.2-.2.2-.4s0-.1.1-.2.3-.4.3-.5.2-.5.3-.7a1.8,1.8,0,0,0,.4-.9c0-.1.2-.1.3-.1l.2.1c0,.1.1.1.1.2l.3.3c0,.1,0,.2.1.2.4.2.3.5.5.7s.2.5.5.7a.54.54,0,0,1,.3.4l.1.1c.1.1.2.2.2.3a5.58,5.58,0,0,1,.5.8c.1.1.2.3.3.4a3,3,0,0,1,.5.7c.1.2.5.4.4.7.3.1.2.3.3.5l.1.1.2.2c0,.1,0,.1.1.2.4.2.3.5.6.7s.3.5.5.7h0a.37.37,0,0,1,.3.4.84.84,0,0,0,.7.4c1.3.1,2.6,0,3.9.1,1.7.2,3.5,0,5.3.2,1.4.1,2.9.1,4.4.1a1.85,1.85,0,0,1,.7.2v.1c-.1.1-.3.1-.4.2-.4.2-.7.5-1.1.7a3.55,3.55,0,0,1-.9.4,5.39,5.39,0,0,1-1.3.7c-.4.1-.6.4-.9.6s-.3.2-.5.3-.3.2-.5.3a4.35,4.35,0,0,1-.7.4,2.51,2.51,0,0,0-.7.4c-.1.1-.3.1-.4.2a2.19,2.19,0,0,0-.5.3l-.9.6a5.3,5.3,0,0,0-1,.6c-.2.1-.2.2-.2.3s0,.4.1.4c.3.1.2.3.3.4s.1.2.2.4.2.2.2.3a5.36,5.36,0,0,0,.5,1.1,2.51,2.51,0,0,1,.4.7.1.1,0,0,0,.1.1,1.38,1.38,0,0,1,.3.4c.1.1,0,.3.1.4.3.1.2.3.3.5a.37.37,0,0,0,.1.3c.3.1.2.3.3.5s.1.1.1.2l.2.2c.2.3.3.7.5,1l.1.1.1-.1v-.2c.3-.2.1-.5.4-.8s.2-.4.3-.6.1-.2.2-.3.2-.3.3-.5.2-.3.3-.4.2-.3.3-.4.3-.3.4-.4.2-.2.2-.3c.2-.1.3-.3.5-.4a2.09,2.09,0,0,1,.6-.4l.3-.3a2.51,2.51,0,0,1,.7-.4,4.05,4.05,0,0,1,.9-.5c.1-.1.2-.1.2-.2l.6-.3c.3-.2.6-.3.9-.5.1-.1.3-.1.5-.2s.5-.1.8-.2h0c.1,0,.2-.1.3-.1h.2c.1-.2.5-.2.7-.3.5-.2,1.1-.2,1.6-.4.3-.1.7-.1,1-.2s.9-.1,1.3-.2a21.05,21.05,0,0,1,2.5-.2,5.1,5.1,0,0,1,2.1.1c.5.1,1.1,0,1.7.1h.3c.2.2.4.1.6.1.6.1,1.2.1,1.7.2h.1c.2.2.4.1.7.2h.2c.2,0,.3.1.5.2s.7.1,1,.2.5.2.8.3.6.1.9.2h.1c.2.2.6.2.8.3a6.94,6.94,0,0,0,1.3.5v-.1c-1.5-7.1-3-14.1-4.5-20.8C86.7,38.7,60.6,38.7,34.5,38.7Zm-.1-2.4h77.9c-.6-2.7-1.2-5.3-1.7-8H100.2c-.6,0-.5,0-.5.4.1.9.6,1.9.3,2.8,0,.1-.1.1-.2.2l-.3.3a2.62,2.62,0,0,1-.9.5,1.64,1.64,0,0,1-1,.2h-.1c-.1,0-.3.1-.4.1H92.8a5,5,0,0,1-1.2-.2h-.1l-.6-.3c-.4-.2-.8-.3-.9-.6l-.1-.1c-.2-.2-.4-.3-.5-.5-.1-.4-.2-.8-.3-1.1s-.1-.9-.2-1.3-.2-.5-.7-.4H56.5c-.3,0-.5.1-.5.2v.2c0,.8.1,1.6.1,2.4,0,.1,0,.2-.1.2-.1.2-.3.3-.4.5s-.3.3-.4.4-.4.1-.5.2a1.49,1.49,0,0,1-1,.3h-.2c-.1,0-.3.1-.4.1H48.4c-.3-.2-.8,0-1.1-.3a1.49,1.49,0,0,1-.7-.3c-.2-.1-.4-.3-.6-.4s-.5-.3-.5-.5l-.1-.1a.52.52,0,0,1-.2-.4c-.1-.8-.1-1.5-.2-2.3,0-.2-.1-.3-.4-.3H34C34.1,30.9,34.3,33.6,34.4,36.3Zm89,33.9h0l-.3-1.5a6.72,6.72,0,0,0-.6-1.2.1.1,0,0,0-.1-.1c-.3-.1-.2-.2-.3-.4s0-.2-.1-.2c-.4-.2-.3-.5-.7-.8a2.65,2.65,0,0,1-.5-.6c-.1-.1-.2-.3-.4-.4a6.13,6.13,0,0,0-.6-.4c-.1-.3-.6-.5-.8-.7a4.11,4.11,0,0,0-1.3-.8l-.9-.6a.76.76,0,0,0-.4-.2l-.6-.3c-.2-.1-.4-.1-.6-.2a2.47,2.47,0,0,0-.9-.4.76.76,0,0,1-.5-.2c-.2-.3-.6-.1-.8-.3a2.51,2.51,0,0,0-1-.2h-.1c-.1-.2-.3-.1-.5-.2a.37.37,0,0,1-.3-.1,4,4,0,0,0-1.5-.3.76.76,0,0,1-.4-.1c-.1,0-.2-.1-.4-.1H108a.37.37,0,0,1-.3-.1c-.1,0-.3-.1-.4-.1h-4c-.2,0-.3.1-.5.1h-1.1c-.1.2-.3.1-.5.1h-.3a4.22,4.22,0,0,1-1.2.3l-.9.3c-.2.1-.4.1-.6.2-.4.2-.7.3-1.1.5l-.6.3c-.2.1-.3.2-.5.3a2.09,2.09,0,0,0-.6.4c-.2.1-.4.3-.6.4s-.5.4-.7.6-.2.3-.3.3c-.4.2-.4.5-.7.7s-.2.3-.3.4c-.2.3-.5.5-.6.8s-.4.4-.3.7v.1c-.2,0-.2.2-.2.3v.2c-.1.3-.3.5-.3.8a4.33,4.33,0,0,0-.1,1.6,6.16,6.16,0,0,0,.6,2.6c.2.3.1.7.5,1s.3.7.5,1a2.09,2.09,0,0,1,.4.6.1.1,0,0,1,.1.1c.1,0,.1.1.2.2s.3.4.5.6.2.3.4.4.6.5.9.7.4.3.6.5a5.58,5.58,0,0,0,.8.5c.3.2.5.4.7.5s.7.4,1,.6a2.19,2.19,0,0,1,.5.3c.2.1.5.2.7.3l.6.3.9.3h.1a6.89,6.89,0,0,1,.8.3,3.81,3.81,0,0,1,1,.3,5.77,5.77,0,0,0,1.4.3,8.58,8.58,0,0,0,1.7.3h.1c.2,0,.4.1.6.1h4.9a8.75,8.75,0,0,0,1.6-.2h.1c.1-.2.5-.1.7-.2a4.4,4.4,0,0,1,1-.2h0c.3-.1.6-.2,1-.3l.9-.3c.1,0,.2-.1.4-.2s.5-.3.7-.4.6-.3.9-.5l.9-.6c.2-.2.5-.3.6-.5s.4-.5.6-.7.4-.5.6-.7a.76.76,0,0,0,.2-.5h0a1.52,1.52,0,0,0,.6-1v-.1a2.12,2.12,0,0,0,.3-.7c.1-.3.3-.6.1-.9v-.1c0-.1.1-.2.1-.4v-.5c0-.1.1-.2.1-.3C123.7,71.4,123.5,70.8,123.4,70.2ZM65,55q.15.3.3.3c.3.2.8.3,1.1.5a.52.52,0,0,0,.4.2,1.45,1.45,0,0,0,.7.2c.1.1.3.1.4.2s.3.2.5.3a2.51,2.51,0,0,1,.7.4c.2.1.5.3.7.4s.7.3,1,.5c.1.1.2.2.1.3a.73.73,0,0,0-.2.6c0,.1,0,.1-.1.2s-.1.2-.2.3.1.3,0,.4-.1.2-.1.3.1.3,0,.4-.1.2-.2.4v.2a.42.42,0,0,0-.2.5v.2c0,.2-.1.4-.1.7l.2.1a4.88,4.88,0,0,1,.7-.3l.6-.3h.2l.6-.3c.2-.1.3-.1.5-.2l.6-.3.6-.3c.2-.1.5-.1.6-.2a4.05,4.05,0,0,1,.9-.5h.5c.1,0,.2.1.4.1s.2,0,.2.1c.4.2.7.3,1.1.5.2.1.5.1.7.2a8.43,8.43,0,0,0,1.4.6.1.1,0,0,1,.1.1c.3.1.5.2.8.3a.31.31,0,0,1,.2.1c.3.1.5.2.8.3.1,0,.1.1.2.1s.2.1.3.1l.1-.1c-.2-.4-.4-.9-.6-1.3h0c-.3-.1-.2-.2-.3-.3a.6.6,0,0,0-.1-.4c-.3-.2-.2-.3-.3-.5s0-.2-.1-.2c-.3-.1-.2-.2-.3-.4s-.1-.2-.1-.3-.2-.3-.3-.5,0-.2-.1-.2-.1-.1,0-.2a1.79,1.79,0,0,1,.7-.5c.1-.1.2-.1.3-.2.3-.2.6-.3.9-.5.1-.1.2-.1.3-.2a.71.71,0,0,1,.6-.3c.1,0,.1,0,.1-.1.3-.2.5-.3.8-.5a2.19,2.19,0,0,0,.5-.3c.2-.2.4-.3.6-.5l.1-.1c-.1,0-.2-.1-.3-.1-1.3-.1-2.6,0-3.9-.2-.9-.1-1.8,0-2.6-.1a1.07,1.07,0,0,1-.6-.2,5,5,0,0,0-.7-.8c-.2-.2-.1-.4-.4-.6s-.3-.5-.5-.7l-.1-.1-.3-.3a.31.31,0,0,1-.1-.2,2.65,2.65,0,0,1-.5-.6,5.58,5.58,0,0,1-.5-.8h-.4a.9.9,0,0,1-.1.5c-.1.2-.3.4-.4.6s-.2.5-.3.7h0c-.3.1-.2.3-.2.4v.1c-.3.1-.2.2-.2.4v.2c-.4.1-.1.4-.4.6s-.2.4-.2.6-.2.2-.4.2c-1.2.1-2.3,0-3.5.1a26.2,26.2,0,0,1-2.8.1C65.4,55,65.2,55,65,55ZM51.8,23.9H48.4c-.2,0-.3.1-.3.2.2,2,.3,4.1.5,6.2,0,.2.2.2.4.2h3.3C52.2,28.2,52,26.1,51.8,23.9Zm40.9,6.6h3.2c.4,0,.5,0,.4-.3-.4-2-.7-4-1.1-6-.1-.3-.1-.3-.6-.3H91.5C91.9,26.1,92.3,28.2,92.7,30.5Z"/><path class="cls-3" d="M34.5,38.7h78.3c1.5,6.7,3,13.7,4.5,20.8v.1c-.5-.2-.9-.3-1.3-.5s-.7-.1-.8-.3h-.1c-.3-.1-.6-.1-.9-.2s-.5-.2-.8-.3-.7-.1-1-.2-.3-.1-.5-.2h-.2a1,1,0,0,1-.7-.2h-.1c-.6-.1-1.2-.1-1.7-.2a1.27,1.27,0,0,1-.6-.1h-.3a9.7,9.7,0,0,1-1.7-.1,7.41,7.41,0,0,0-2.1-.1,19.48,19.48,0,0,0-2.5.2c-.5.1-.9.1-1.3.2s-.7.1-1,.2a9.36,9.36,0,0,1-1.6.4c-.2.1-.6,0-.7.3h-.2c-.1,0-.2.1-.3.1h0c-.3.1-.5.1-.8.2s-.3.1-.5.2-.6.3-.9.5l-.6.3a.22.22,0,0,0-.2.2,4.05,4.05,0,0,1-.9.5c-.2.1-.5.3-.7.4l-.3.3a2.09,2.09,0,0,1-.6.4c-.2.1-.3.3-.5.4s-.2.2-.2.3l-.4.4c-.1.1-.2.3-.3.4s-.2.3-.3.4-.2.3-.3.5-.2.2-.2.3-.1.5-.3.6,0,.6-.4.8c-.1,0,0,.1,0,.2l-.1.1-.1-.1c-.2-.3-.3-.7-.5-1a.22.22,0,0,0-.2-.2c-.1-.1-.1-.1-.1-.2s0-.3-.3-.5c-.1,0-.1-.2-.1-.3s0-.4-.3-.5c-.1-.1-.1-.2-.1-.4a1.38,1.38,0,0,1-.3-.4.1.1,0,0,0-.1-.1,1.61,1.61,0,0,0-.4-.7c-.3-.3-.3-.7-.5-1.1,0-.1-.2-.2-.2-.3s-.1-.2-.2-.4,0-.3-.3-.4c-.1,0-.1-.3-.1-.4s0-.2.2-.3a5.3,5.3,0,0,0,1-.6l.9-.6a2.19,2.19,0,0,0,.5-.3c.1-.1.3-.1.4-.2a1.61,1.61,0,0,1,.7-.4,4.35,4.35,0,0,0,.7-.4c.2-.1.3-.2.5-.3a2.19,2.19,0,0,0,.5-.3c.3-.2.5-.5.9-.6s.9-.5,1.3-.7a3.55,3.55,0,0,1,.9-.4c.4-.2.7-.5,1.1-.7.1-.1.3-.1.4-.2v-.1a1.85,1.85,0,0,0-.7-.2c-1.5,0-2.9,0-4.4-.1-1.8-.2-3.5,0-5.3-.2-1.3-.1-2.6-.1-3.9-.1a.84.84,0,0,1-.7-.4c-.1-.1,0-.3-.3-.4h0c-.2-.3-.2-.5-.5-.7s-.1-.5-.6-.7a.31.31,0,0,0-.1-.2c0-.1-.1-.1-.2-.2l-.1-.1c-.1-.2,0-.4-.3-.5.1-.3-.3-.5-.4-.7s-.4-.5-.5-.7-.2-.3-.3-.4a5.58,5.58,0,0,1-.5-.8c-.1-.1-.2-.2-.2-.3l-.1-.1c0-.2-.1-.3-.3-.4s-.3-.5-.5-.7-.2-.5-.5-.7c-.1,0,0-.1-.1-.2l-.3-.3c0-.1,0-.1-.1-.2s-.2-.2-.2-.1a1,1,0,0,0-.3.1c-.1.3-.3.6-.4.9s-.2.5-.3.7a2.19,2.19,0,0,1-.3.5c0,.1-.1.1-.1.2s.1.3-.2.4h0c-.1.3-.1.5-.3.7s0,.5-.4.7v.1c0,.1-.1.1-.1.2l-.1.1a.55.55,0,0,1-.2.5c-.2.2-.2.5-.3.7s-.2.2-.2.3-.1.5-.3.7-.1.4-.2.5-.1.4-.2.5-.1.5-.4.6c-.1,0-.2.1-.3.1a26.2,26.2,0,0,0-2.8.1c-1.7.2-3.5,0-5.2.2s-3.5.1-5.2.2a1.85,1.85,0,0,0-.7.2v.1a5.94,5.94,0,0,0,.8.4,1.61,1.61,0,0,1,.7.4,3,3,0,0,0,1,.4c.2.1.3.2.5.3s.2.1.3.2l.6.3.6.3,1.2.6a2.09,2.09,0,0,1,.6.4c.1.1.2.1.4.2a1.42,1.42,0,0,0,.6.2c.2.1.3.2.5.3a3,3,0,0,0,.8.4c.2.1.4.1.5.2s.3.1.5.2a10.91,10.91,0,0,0,1.1.6,3.51,3.51,0,0,1,.8.5c.6.3.4.6.3.9s0,.7-.3,1a.14.14,0,0,0,0,.2c0,.1-.1.2-.2.3a.35.35,0,0,1-.1.2c0,.2.1.4-.2.5-.1.1,0,.3,0,.4s-.1.2-.1.3V63c0,.1-.1.2-.2.3s-.1,0,0,.1c.1.3-.2.6-.2.9a1.64,1.64,0,0,1-.2,1c-.2.2,0,.6-.2.7-.3.3,0,.6-.3.9-.1.1,0,.3,0,.4s-.1.2-.2.3-.1.2-.1.3-.1.4-.1.6h.1a4.18,4.18,0,0,0,1-.4c.1,0,.2-.1.3-.2.3-.2.8-.2,1-.5h.1c.2-.1.5-.2.7-.3a.35.35,0,0,0,.2-.1l.6-.3.1-.1c.5,0,.8-.3,1.2-.4a4.67,4.67,0,0,0,1-.5l.6-.3a4.88,4.88,0,0,1,.7-.3l.6-.3c.1-.1.4-.1.4-.2s.5-.1.7-.3.4-.1.6-.2a9.29,9.29,0,0,0,1-.5l.6-.3c.1,0,.1-.1.2-.1h.5c.1,0,.1.1.2.1.3.1.5.2.8.3.1,0,.1,0,.2.1s.5.2.7.3.1,0,.2.1c.3.1.5.2.8.3h.2a1.49,1.49,0,0,1,.7.3.1.1,0,0,1,.1.1c.3.1.5.2.8.3l.9.3c.1.1.3.1.4.2a11.73,11.73,0,0,1,1.1.5.31.31,0,0,1,.2.1,1.91,1.91,0,0,1,.8.3h.2a1.49,1.49,0,0,1,.7.3l.1.1a1.91,1.91,0,0,1,.8.3,6.89,6.89,0,0,1,.8.3c.2.1.4.1.6.2a3.64,3.64,0,0,1,.2,1.4c-.2.4,0,.8,0,1.2,0,.1.1.2.2.3s.1.1.1.2c.1.3.1.6.2.9a.6.6,0,0,0,.3.6.6.6,0,0,1,.1.4,3.75,3.75,0,0,0,.7,1.2h0c.2.3.3.6.5.9s.3.5.6.7h.1c.1.2.3.4.4.6a2.65,2.65,0,0,0,.6.5l.1.1c.2.2.4.3.6.5a.1.1,0,0,1,.1.1,4.35,4.35,0,0,1,.6.7.37.37,0,0,0-.3.1H36.8C35.7,64.5,35.1,51.3,34.5,38.7Z"/><path class="cls-3" d="M34.4,36.3c-.1-2.7-.2-5.3-.4-8H44.6c.3,0,.4.1.4.3a17.85,17.85,0,0,0,.2,2.3c0,.1.1.2.2.4l.1.1c0,.2.2.4.5.5s.4.3.6.4a1.49,1.49,0,0,0,.7.3c.2.3.8,0,1.1.3h4.7c.1,0,.3-.1.4-.1h.2a1.69,1.69,0,0,0,1-.3c.2-.1.4-.1.5-.2s.4-.2.4-.4.3-.3.4-.5a.35.35,0,0,1,.1-.2c0-.8-.1-1.6-.1-2.4v-.2c.1-.2.2-.3.5-.2H88.2c.5,0,.7.2.7.4.1.4.1.9.2,1.3a3.54,3.54,0,0,0,.3,1.1c.1.2.3.3.5.5l.1.1c.2.3.6.4.9.6l.6.3h.1a5,5,0,0,0,1.2.2h4.3c.2,0,.3-.1.4-.1h.1a1.64,1.64,0,0,0,1-.2c.4-.1.6-.4.9-.5l.3-.3.2-.2c.4-.9-.2-1.9-.3-2.8,0-.3,0-.4.5-.4h10.4c.6,2.6,1.1,5.3,1.7,8Q73.3,36.25,34.4,36.3Z"/><path class="cls-3" d="M123.4,70.2c.1.6.3,1.2.4,1.7,0,.1-.1.2-.1.3v.5c0,.1-.1.2-.1.4v.1c.2.3-.1.6-.1.9a1.49,1.49,0,0,1-.3.7v.1a1.52,1.52,0,0,1-.6,1h0c-.1.2-.1.3-.2.5-.3.2-.4.5-.6.7s-.5.4-.6.7-.4.3-.6.5l-.9.6c-.3.2-.6.3-.9.5s-.5.3-.7.4-.2.1-.4.2l-.9.3c-.3.1-.6.2-1,.3h0a3.55,3.55,0,0,1-1,.2c-.2,0-.6,0-.7.2H114a8.75,8.75,0,0,1-1.6.2h-4.9c-.2,0-.4-.1-.6-.1h-.1a3.42,3.42,0,0,1-1.7-.3,7,7,0,0,1-1.4-.3l-1-.3a6.89,6.89,0,0,1-.8-.3h-.1l-.9-.3-.6-.3c-.2-.1-.5-.2-.7-.3a2.19,2.19,0,0,1-.5-.3c-.3-.2-.7-.4-1-.6s-.5-.4-.7-.5-.5-.3-.8-.5-.4-.3-.6-.5-.6-.5-.9-.7l-.4-.4c-.2-.2-.3-.4-.5-.6,0-.1-.1-.1-.2-.2a.1.1,0,0,1-.1-.1,2.09,2.09,0,0,0-.4-.6c-.3-.3-.3-.7-.5-1s-.3-.7-.5-1a5,5,0,0,1-.6-2.6,4.33,4.33,0,0,1,.1-1.6c0-.3.2-.5.3-.8v-.2c0-.1-.1-.3.2-.3v-.1c-.1-.3.2-.5.3-.7s.4-.5.6-.8c.1-.1.1-.3.3-.4s.3-.5.7-.7l.3-.3c.2-.2.5-.4.7-.6a2.09,2.09,0,0,1,.6-.4,2.09,2.09,0,0,0,.6-.4c.2-.1.3-.2.5-.3l.6-.3c.4-.2.7-.3,1.1-.5.2-.1.4-.1.6-.2s.7-.1.9-.3c.4-.2.9-.1,1.2-.3h.3a.75.75,0,0,0,.5-.1h1.1c.2,0,.3-.1.5-.1h4c.1,0,.3.1.4.1s.2.1.3.1h.8c.1,0,.2.1.4.1s.2.1.4.1a8,8,0,0,1,1.5.3.37.37,0,0,1,.3.1c.2,0,.4,0,.5.2h.1c.3.1.8.1,1,.2s.7.1.8.3a.76.76,0,0,0,.5.2,2.47,2.47,0,0,1,.9.4,1.42,1.42,0,0,0,.6.2l.6.3a.76.76,0,0,0,.4.2l.9.6c.4.3.9.5,1.3.8s.7.4.8.7.4.3.6.4l.4.4c.2.2.3.5.5.6s.2.6.7.8c.1,0,.1.1.1.2s0,.3.3.4l.1.1.6,1.2c-.5.2-.4.7-.3,1.2Zm-8.5-6.1a.35.35,0,0,0-.1.2c-.2.2-.4.3-.6.5a5.24,5.24,0,0,0-1,1.1,9,9,0,0,1-1,.9l-.3.3-.6.6c-.2.1-.3.3-.4.4s-.4.3-.6.5-.4.5-.6.7-.6.5-.9.7l-.8.8-.3.3c-.2.2-.4.3-.6.5l-.4.4-.2.2c-.1.1-.3.2-.4.3s-.6.2-.8.1a5.74,5.74,0,0,1-.7-.4l-.6-.3-.6-.3c-.2-.1-.5-.2-.7-.3l-.6-.3a4.18,4.18,0,0,0-1-.4c-.1,0-.2-.1-.3-.2l-.6-.3c-.5-.2-1-.5-1.4-.7h-.2a2.18,2.18,0,0,0-.5.4,2.65,2.65,0,0,1-.5.6,6,6,0,0,0-.8.8c-.2.2.1.5.4.6l.6.3c.4.2.7.4,1.1.6.1.1.3.1.4.2s.5.2.7.3.6.3.9.5.5.3.8.4.5.3.8.4a3.55,3.55,0,0,1,.9.4l.6.3a1.42,1.42,0,0,0,.6.2c.3.2.6.3.9.5s.9.4,1.3.6a.76.76,0,0,0,.4-.2c.4-.3.8-.7,1.2-1s.6-.7,1-1a4.35,4.35,0,0,0,.7-.6l.3-.3.5-.5.3-.3c.1-.1.3-.2.4-.3a2.65,2.65,0,0,1,.6-.5l.7-.7c.2-.2.4-.3.6-.5s.3-.5.5-.7a10.63,10.63,0,0,1,1.1-.9l.3-.3c.1-.1.2-.3.4-.4s.4-.3.6-.5.3-.3.4-.4l.3-.3a3.45,3.45,0,0,1,.9-.8c.2-.1.2-.3-.1-.4s-.3-.2-.5-.3-.5-.3-.8-.4A8.16,8.16,0,0,0,114.9,64.1Z"/><path class="cls-3" d="M65,55h.5a13.13,13.13,0,0,0,2.8-.1,20.18,20.18,0,0,1,3.5-.1.52.52,0,0,0,.4-.2c.1-.2.1-.5.2-.6.3-.2,0-.5.4-.6v-.2c0-.1-.1-.3.2-.4v-.1c0-.1-.1-.3.2-.4h0c.1-.2.2-.5.3-.7s.3-.4.4-.6a.75.75,0,0,0,.1-.5h.4c.2.3.3.5.5.8a2.65,2.65,0,0,0,.5.6.31.31,0,0,1,.1.2l.3.3.1.1a1.53,1.53,0,0,0,.5.7c.2.2.2.4.4.6s.5.5.7.8a1.07,1.07,0,0,0,.6.2,21.75,21.75,0,0,1,2.6.1c1.3.2,2.6.1,3.9.2a.37.37,0,0,1,.3.1l-.1.1c-.2.2-.4.3-.6.5s-.4.2-.5.3c-.3.2-.5.3-.8.5l-.1.1a.85.85,0,0,0-.6.3c-.1.1-.2.1-.3.2-.3.2-.6.3-.9.5-.1.1-.2.1-.3.2a1.79,1.79,0,0,1-.7.5c-.1.1-.1.1,0,.2s.1.1.1.2.2.3.3.5a.37.37,0,0,1,.1.3c.1.1,0,.3.3.4.1,0,.1.2.1.2.1.2,0,.4.3.5a.6.6,0,0,1,.1.4c0,.1,0,.3.3.3h0c.2.4.4.9.6,1.3a.1.1,0,0,1-.1.1.37.37,0,0,1-.3-.1c-.1,0-.1-.1-.2-.1-.3-.1-.5-.2-.8-.3a.31.31,0,0,1-.2-.1c-.3-.1-.5-.2-.8-.3a.1.1,0,0,1-.1-.1,8.43,8.43,0,0,1-1.4-.6c-.2-.1-.5-.1-.7-.2-.4-.2-.7-.3-1.1-.5-.1,0-.2,0-.2-.1s-.2-.1-.4-.1-.4-.1-.5,0c-.3.2-.6.3-.9.5s-.4.1-.6.2l-.6.3-.6.3c-.2.1-.3.1-.5.2l-.6.3h-.2l-.6.3a4.88,4.88,0,0,1-.7.3l-.2-.1c0-.2.1-.4.1-.7v-.2c0-.2-.1-.4.2-.5.1,0,0-.2,0-.2s0-.2.2-.4,0-.3,0-.4a.37.37,0,0,1,.1-.3c.1-.1,0-.3,0-.4s.1-.2.2-.3,0-.1.1-.2-.1-.4.2-.6c.1,0,0-.2-.1-.3-.3-.2-.7-.3-1-.5s-.5-.3-.7-.4a2.51,2.51,0,0,1-.7-.4c-.2-.1-.3-.2-.5-.3s-.3-.1-.4-.2a1.45,1.45,0,0,0-.7-.2c-.1-.1-.3-.1-.4-.2a11.73,11.73,0,0,0-1.1-.5Z"/><path class="cls-3" d="M51.8,23.9l.6,6.6H49.1c-.2,0-.4-.1-.4-.2-.2-2.1-.3-4.2-.5-6.2,0-.1.1-.2.3-.2h2.9C51.5,23.8,51.7,23.9,51.8,23.9Z"/><path class="cls-3" d="M92.7,30.5l-1.2-6.6h3.1c.5,0,.5,0,.6.3.4,2,.7,4,1.1,6,0,.3,0,.3-.4.3H92.7Z"/><path class="cls-2" d="M114.9,64.1c.6.3,1.1.5,1.6.8.3.1.5.3.8.4s.3.2.5.3.3.3.1.4a6.47,6.47,0,0,1-.9.8l-.3.3-.4.4c-.2.2-.4.3-.6.5s-.3.3-.4.4l-.3.3a10.63,10.63,0,0,0-1.1.9,4.23,4.23,0,0,0-.5.7c-.2.2-.4.3-.6.5a4.62,4.62,0,0,0-.7.7,2.65,2.65,0,0,1-.6.5c-.1.1-.3.2-.4.3l-.3.3-.5.5-.3.3a4.35,4.35,0,0,1-.7.6,9.43,9.43,0,0,0-1,1,10.59,10.59,0,0,1-1.2,1c-.1.1-.3.1-.4.2-.4-.2-.9-.4-1.3-.6a4.05,4.05,0,0,1-.9-.5,1.42,1.42,0,0,0-.6-.2l-.6-.3a2.47,2.47,0,0,0-.9-.4c-.3-.1-.5-.3-.8-.4s-.5-.3-.8-.4-.6-.3-.9-.5a4.88,4.88,0,0,0-.7-.3c-.1-.1-.3-.1-.4-.2-.4-.2-.7-.4-1.1-.6l-.6-.3c-.3-.1-.5-.4-.4-.6a6,6,0,0,1,.8-.8c.2-.2.4-.3.5-.6a1,1,0,0,1,.5-.4h.2c.5.2,1,.5,1.4.7l.6.3c.1,0,.2.1.3.2.3.1.7.3,1,.4l.6.3c.2.1.5.2.7.3l.6.3.6.3a2.51,2.51,0,0,1,.7.4c.2.1.7.1.8-.1a1.38,1.38,0,0,1,.4-.3l.2-.2.4-.4c.2-.2.4-.3.6-.5l.3-.3a6,6,0,0,1,.8-.8,5.5,5.5,0,0,0,.9-.7c.2-.2.4-.5.6-.7s.4-.3.6-.5.3-.3.4-.4l.6-.6.3-.3c.3-.3.7-.6,1-.9a5.24,5.24,0,0,0,1-1.1c.2-.2.4-.3.6-.5C114.8,64.2,114.9,64.2,114.9,64.1Z"/></symbol></defs><g id="Camada_2" data-name="Camada 2"><g id="Home_Page" data-name="Home Page"><g id="icones"><g id="eventos"><use width="159.02" height="115.1" xlink:href="#eventos_icon"/></g></g></g></g></svg>