<svg xmlns="http://www.w3.org/2000/svg" xmlns:xlink="http://www.w3.org/1999/xlink" viewBox="0 0 70.8 78.9"><defs><style>.cls-1{fill:#499a35;}.cls-2{fill:#b1c119;}.cls-3{fill:#fff;}</style><symbol id="menu_icon" data-name="menu_icon" viewBox="0 0 70.8 78.9"><g id="menu_icon-3" data-name="menu_icon"><path class="cls-1" d="M70.8,23.1V55.8a6.8,6.8,0,0,1-3.3,5.8L38.7,78a6.29,6.29,0,0,1-3.3.9,6.56,6.56,0,0,1-3.3-.9L3.3,61.6A6.59,6.59,0,0,1,0,55.8V23.1a6.8,6.8,0,0,1,3.3-5.8L32.1.9A6.29,6.29,0,0,1,35.4,0a6.56,6.56,0,0,1,3.3.9L67.5,17.3a6.8,6.8,0,0,1,3.3,5.8Z"/><path class="cls-2" d="M66.2,54a5.59,5.59,0,0,1-2.8,4.8L38.2,73.4a5.6,5.6,0,0,1-5.6,0L7.4,58.8A5.59,5.59,0,0,1,4.6,54V24.9a5.59,5.59,0,0,1,2.8-4.8L32.6,5.5a6,6,0,0,1,5.6,0L63.4,20.1a5.59,5.59,0,0,1,2.8,4.8V54Zm.4-32.6a7.47,7.47,0,0,0-2.5-2.5L38.9,4.4a6.87,6.87,0,0,0-6.8,0L6.9,19a7.47,7.47,0,0,0-2.5,2.5,6.65,6.65,0,0,0-.9,3.4V54a6.65,6.65,0,0,0,.9,3.4,7.47,7.47,0,0,0,2.5,2.5L32.1,74.5a6.92,6.92,0,0,0,3.4.9,6.65,6.65,0,0,0,3.4-.9L64.1,59.9a7.47,7.47,0,0,0,2.5-2.5,6.65,6.65,0,0,0,.9-3.4V24.9a7.3,7.3,0,0,0-.9-3.5Z"/><path class="cls-2" d="M55.1,31.4H26.5a2.9,2.9,0,0,1,0-5.8H55.1a2.9,2.9,0,0,1,0,5.8Z"/><path class="cls-3" d="M55.1,32.1H26.5a3.6,3.6,0,0,1,0-7.2H55.1a3.6,3.6,0,1,1,0,7.2ZM26.5,26.3a2.2,2.2,0,0,0,0,4.4H55.1a2.2,2.2,0,0,0,0-4.4Z"/><circle class="cls-2" cx="18.2" cy="28.5" r="3.1"/><path class="cls-3" d="M18.2,32.3A3.8,3.8,0,1,1,22,28.5,3.8,3.8,0,0,1,18.2,32.3Zm0-6.2a2.4,2.4,0,1,0,2.4,2.4A2.43,2.43,0,0,0,18.2,26.1Z"/><path class="cls-2" d="M55.1,42.6H26.5a2.9,2.9,0,1,1,0-5.8H55.1a2.9,2.9,0,0,1,0,5.8Z"/><path class="cls-3" d="M55.1,43.3H26.5a3.6,3.6,0,0,1,0-7.2H55.1a3.6,3.6,0,1,1,0,7.2ZM26.5,37.4a2.2,2.2,0,0,0,0,4.4H55.1a2.2,2.2,0,0,0,0-4.4Z"/><circle class="cls-2" cx="18.2" cy="39.6" r="3.1"/><path class="cls-3" d="M18.2,43.4A3.8,3.8,0,1,1,22,39.6,3.8,3.8,0,0,1,18.2,43.4Zm0-6.2a2.4,2.4,0,1,0,2.4,2.4A2.43,2.43,0,0,0,18.2,37.2Z"/><path class="cls-2" d="M55.1,53.7H26.5a2.9,2.9,0,1,1,0-5.8H55.1a2.9,2.9,0,0,1,0,5.8Z"/><path class="cls-3" d="M55.1,54.4H26.5a3.6,3.6,0,1,1,0-7.2H55.1a3.6,3.6,0,1,1,0,7.2ZM26.5,48.5a2.2,2.2,0,1,0,0,4.4H55.1a2.2,2.2,0,0,0,0-4.4Z"/><circle class="cls-2" cx="18.2" cy="50.8" r="3.1"/><path class="cls-3" d="M18.2,54.6A3.8,3.8,0,1,1,22,50.8,3.8,3.8,0,0,1,18.2,54.6Zm0-6.2a2.4,2.4,0,1,0,2.4,2.4A2.43,2.43,0,0,0,18.2,48.4Z"/></g></symbol></defs><g id="Camada_2" data-name="Camada 2"><g id="Tela_1_-_Nutrientes" data-name="Tela 1 - Nutrientes"><g id="icones"><g id="menu"><use width="70.8" height="78.9" xlink:href="#menu_icon"/></g></g></g></g></svg>