<svg xmlns="http://www.w3.org/2000/svg" xmlns:xlink="http://www.w3.org/1999/xlink" viewBox="0 0 120.23 67.2"><defs><style>.cls-1{fill:#3c3f3b;}.cls-2,.cls-4{fill:#fff;}.cls-3,.cls-5{fill:#b1c119;}.cls-3,.cls-4{fill-rule:evenodd;}</style><symbol id="pesquisadores_icon" data-name="pesquisadores_icon" viewBox="0 0 120.23 67.2"><path class="cls-1" d="M112,17.2l8.1,27.7c.6,2.2-1,4.2-4.2,5.3L68.8,66.3a17.65,17.65,0,0,1-5.8.9,19.81,19.81,0,0,1-6-.9L5.6,50.2C2.1,49.1-.1,47,0,44.9L.7,17.2c0-1.9,2.1-3.6,5.3-4.5L49.2.6A18,18,0,0,1,54,0a20.74,20.74,0,0,1,5,.6l46.4,12.1c3.6,1,6,2.7,6.6,4.5Z"/><path class="cls-2" d="M57.2,24.1c-8.6,0-16-3.5-16.4-7.8s6.1-7.5,14.3-7.5,15.6,3.3,16.3,7.5C72.3,20.5,65.9,24.1,57.2,24.1ZM55.4,10.2c-6.7,0-12,2.7-11.6,6.1s6.3,6.3,13.3,6.3,12.2-2.9,11.6-6.3S62.1,10.2,55.4,10.2Z"/><path class="cls-2" d="M36.8,56,35,30.5c-.1-1.2,1.7-2.2,4-2.2H76.6c2.3,0,4.3,1,4.6,2.2l4.9,25-.3.1,1.2.2,2.3-.7L84.2,30.4c-.4-2-3.9-3.7-7.9-3.7H38.8c-3.9,0-7,1.6-6.9,3.7l1.5,24.7.3.1Z"/><path class="cls-3" d="M58.7,39.3c-2.4-2.4-2.8-4.7-1.2-7.1,1.3-1.9,3.6-3.2,6.9-4.1,6.9-1.8,15.4-.7,20.8,2.7,5.1,3.3,5.3,7.9.3,10.9-5.5,3.3-15.6,3.5-22.8.2-.7.3-1.4.6-2,.9-.1,0-.1.1-.1.2.1.5-.3.8-.9,1.1-1.7.7-3.4,1.4-5.1,2.2-4.5,1.9-9.1,3.8-13.7,5.7-2.3,1-5.8.4-6.9-1.1-.7-1-.2-2.1,1.4-2.8,6.4-2.6,12.6-5.2,18.8-7.8a4.07,4.07,0,0,1,2.2-.2h.4A15.39,15.39,0,0,1,58.7,39.3ZM35,49.9c-.1.5.3,1.1,1.2,1.5a4.51,4.51,0,0,0,3.6,0c6.3-2.7,12.5-5.3,18.7-7.9.6-.2.6-.5.1-.8-.8-.5-1.6-1.1-2.4-1.6a1.64,1.64,0,0,0-1-.2,1.42,1.42,0,0,0-.6.2c-4.3,1.8-8.6,3.6-13,5.4-1.8.7-3.6,1.5-5.4,2.2A1.8,1.8,0,0,0,35,49.9Zm36.9-6.5c8.2.7,15.4-2.3,15.8-6.6s-5.8-8.1-14-8.8-15,2.2-15.7,6.3C57.3,38.6,63.4,42.7,71.9,43.4ZM59.3,40c-.4.2-1,.4-1.5.6.7.5,1.4.9,2,1.4.6-.2,1.1-.5,1.6-.7A23.92,23.92,0,0,1,59.3,40Z"/><path class="cls-4" d="M35,49.9c.1-.6.6-.9,1.3-1.2,1.8-.7,3.6-1.5,5.4-2.2,4.4-1.8,8.7-3.6,13-5.4.2-.1.4-.1.6-.2a1.16,1.16,0,0,1,1,.2c.8.5,1.6,1,2.4,1.6.5.3.5.6-.1.8-6.1,2.6-12.4,5.2-18.7,7.9a4.51,4.51,0,0,1-3.6,0C35.3,50.9,35,50.4,35,49.9Z"/><path class="cls-3" d="M71.9,43.4c-8.5-.7-14.6-4.8-13.8-9.1.7-4.1,7.6-6.9,15.7-6.3s14.4,4.5,14,8.8S80.1,44.1,71.9,43.4Zm.1-.7c7.5.6,14-2.1,14.4-6s-5.2-7.5-12.7-8.1c-7.2-.6-13.6,2-14.2,5.7C58.8,38.3,64.3,42,72,42.7Z"/><path class="cls-4" d="M59.3,40c.7.4,1.4.9,2.1,1.3-.5.2-1,.4-1.6.7a24.26,24.26,0,0,1-2-1.4A11.64,11.64,0,0,0,59.3,40Z"/><path class="cls-4" d="M72,42.7c-7.7-.6-13.2-4.3-12.5-8.3.6-3.8,7-6.3,14.2-5.7,7.4.6,13,4.1,12.7,8.1C86,40.6,79.5,43.3,72,42.7Zm.1-.7c6.7.6,12.6-1.9,12.9-5.4S80.3,30,73.6,29.4c-6.5-.5-12.3,1.8-12.8,5.1C60.2,38.1,65.2,41.4,72.1,42Z"/><path class="cls-3" d="M72.1,42c-6.9-.6-11.9-3.9-11.4-7.4.5-3.3,6.3-5.6,12.8-5.1,6.7.5,11.8,3.7,11.4,7.2C84.7,40,78.8,42.5,72.1,42Zm6.1-3.5h-.4l-3.1.3c-.8.1-1.7.1-2.5.2-.4,0-.7.2-.6.4s.4.3.9.3h.3l3.3-.3c.8-.1,1.6-.1,2.3-.2.4,0,.6-.2.6-.4S78.7,38.6,78.2,38.5ZM75.6,38h.2c1.4-.1,2.7-.2,4-.4.4,0,.6-.3.5-.5s-.5-.3-.9-.3-.7.1-1.1.1l-2.9.3c-.4,0-.6.2-.6.4S75.1,38,75.6,38Z"/><path class="cls-4" d="M78.2,38.5c.5,0,.8.2.8.4s-.2.4-.6.4c-.8.1-1.6.1-2.3.2l-3.3.3h-.3a1.56,1.56,0,0,1-.9-.3c-.1-.2.2-.4.6-.4a21.05,21.05,0,0,1,2.5-.2l3.1-.3A1,1,0,0,1,78.2,38.5Z"/><path class="cls-4" d="M75.6,38a.89.89,0,0,1-.8-.4c0-.2.2-.4.6-.4l2.9-.3c.4,0,.7-.1,1.1-.1s.8.1.9.3-.1.4-.5.5c-1.3.1-2.7.2-4,.4Z"/><path class="cls-5" d="M111.9,43.3c.5,1.8-.9,3.5-3.6,4.4l-41.1,14a16.7,16.7,0,0,1-9.9,0l-44.9-14c-2.9-.9-4.7-2.6-4.7-4.4l.1-24.7c0-1.6,1.7-3,4.4-3.8L50.3,3.9a14,14,0,0,1,4.1-.5,20.24,20.24,0,0,1,4.3.5l41,10.9c2.9.8,4.9,2.2,5.4,3.8l6.8,24.7Zm-6.8-27.4a15.64,15.64,0,0,0-4.5-2L59.7,3a22.61,22.61,0,0,0-5.3-.7,16.56,16.56,0,0,0-5.1.7l-38,10.9a9.56,9.56,0,0,0-3.9,2,3.59,3.59,0,0,0-1.5,2.7L5.6,43.3a4.55,4.55,0,0,0,1.5,3.2,9.79,9.79,0,0,0,4.3,2.3L56.3,62.9a21.32,21.32,0,0,0,6.3.9,18.89,18.89,0,0,0,6-.9l41.2-14.1a9.4,9.4,0,0,0,3.7-2.3,3.41,3.41,0,0,0,.7-3.2l-6.9-24.7a6,6,0,0,0-2.2-2.7Z"/></symbol></defs><g id="Camada_2" data-name="Camada 2"><g id="Home_Page" data-name="Home Page"><g id="icones"><g id="pesquisadores"><use width="120.23" height="67.2" xlink:href="#pesquisadores_icon"/></g></g></g></g></svg>