<svg xmlns="http://www.w3.org/2000/svg" xmlns:xlink="http://www.w3.org/1999/xlink" viewBox="0 0 118.6 132"><defs><style>.cls-1{fill:#3c3f3b;}.cls-2,.cls-4{fill:#fff;}.cls-3,.cls-5{fill:#b1c119;}.cls-3,.cls-4{fill-rule:evenodd;}</style><symbol id="pesquisado_head" data-name="pesquisado_head" viewBox="0 0 118.6 132"><path class="cls-1" d="M118.6,38.6V93.4A10.85,10.85,0,0,1,113,103L64.8,130.5a11.94,11.94,0,0,1-5.5,1.5,10.84,10.84,0,0,1-5.5-1.5L5.6,103A11.09,11.09,0,0,1,0,93.4V38.6A10.85,10.85,0,0,1,5.6,29L53.8,1.5A11.94,11.94,0,0,1,59.3,0a10.84,10.84,0,0,1,5.5,1.5L113,29a10.85,10.85,0,0,1,5.6,9.6Z"/><path class="cls-2" d="M59.3,53A16.4,16.4,0,1,1,75.7,36.6,16.41,16.41,0,0,1,59.3,53Zm0-29.7A13.3,13.3,0,1,0,72.6,36.6,13.36,13.36,0,0,0,59.3,23.3Z"/><path class="cls-2" d="M35.6,113.1V66a4.27,4.27,0,0,1,4.3-4.3H78.7A4.27,4.27,0,0,1,83,66v46.4l-.3.1,1.1.4,2.3-1.2V65.9a7.38,7.38,0,0,0-7.4-7.4H39.9a7.38,7.38,0,0,0-7.4,7.4v45.8l.2.1Z"/><path class="cls-3" d="M58.8,82.8A16.43,16.43,0,0,1,66.2,61a16.36,16.36,0,0,1,20.9,5.4A16.48,16.48,0,0,1,62.3,87.8c-.7.5-1.4,1.1-2.1,1.6a.37.37,0,0,0-.1.3,2.61,2.61,0,0,1-1,2c-1.8,1.3-3.6,2.6-5.3,3.9-4.7,3.4-9.3,6.9-14,10.3A4.29,4.29,0,1,1,34.7,99c6.4-4.8,12.9-9.5,19.3-14.3a2.49,2.49,0,0,1,2.2-.4c.1,0,.3.1.4,0A10.71,10.71,0,0,0,58.8,82.8ZM34.4,102.3a2.84,2.84,0,0,0,1.1,2.6,2.73,2.73,0,0,0,3.5-.1c6.4-4.7,12.7-9.5,19.1-14.2.6-.5.7-.9.2-1.5a31.55,31.55,0,0,0-2.2-2.9.91.91,0,0,0-1-.3,2.09,2.09,0,0,0-.6.4c-4.5,3.3-9,6.6-13.4,9.9-1.8,1.3-3.7,2.7-5.5,4.1A2.42,2.42,0,0,0,34.4,102.3ZM71.3,90.5a15,15,0,0,0,4.5-29.6,15,15,0,0,0-4.5,29.6Zm-12-6.3c-.5.3-1,.8-1.6,1.2.6.9,1.2,1.7,1.8,2.5.6-.4,1.2-.9,1.6-1.2C60.6,85.9,59.9,85.1,59.3,84.2Z"/><path class="cls-4" d="M34.4,102.3a2.77,2.77,0,0,1,1.3-2.1c1.8-1.3,3.7-2.7,5.5-4.1,4.5-3.3,9-6.6,13.4-9.9.2-.1.4-.3.6-.4a1,1,0,0,1,1,.3A31.55,31.55,0,0,0,58.4,89a.89.89,0,0,1-.2,1.5c-6.4,4.7-12.7,9.5-19.1,14.2a2.73,2.73,0,0,1-3.5.1A2.49,2.49,0,0,1,34.4,102.3Z"/><path class="cls-3" d="M71.3,90.5a15,15,0,1,1,17-12.4A14.84,14.84,0,0,1,71.3,90.5Zm.2-1.3A13.65,13.65,0,1,0,60.1,73.5,13.61,13.61,0,0,0,71.5,89.2Z"/><path class="cls-4" d="M59.3,84.2c.6.8,1.3,1.7,1.9,2.5a16.67,16.67,0,0,0-1.6,1.2c-.6-.8-1.2-1.7-1.8-2.5Z"/><path class="cls-4" d="M71.5,89.2A13.66,13.66,0,1,1,87.1,78,13.84,13.84,0,0,1,71.5,89.2Zm.3-1.3a12.18,12.18,0,1,0,3.6-24.1,12.18,12.18,0,1,0-3.6,24.1Z"/><path class="cls-3" d="M71.8,87.9A12.23,12.23,0,1,1,85.7,77.7,12.33,12.33,0,0,1,71.8,87.9Zm6.7-6.5h-.4c-1,.2-2.1.3-3.2.5-.8.1-1.7.3-2.6.4a.85.85,0,0,0-.7.8c0,.3.4.6.8.6h.3c1.1-.2,2.2-.3,3.3-.5a20,20,0,0,0,2.4-.4.85.85,0,0,0,.7-.8C79.2,81.8,78.9,81.5,78.5,81.4Zm-2.6-.9h.2c1.4-.2,2.8-.4,4.1-.7a.78.78,0,0,0,.6-.9.87.87,0,0,0-.9-.6,3.59,3.59,0,0,0-1.1.2c-1,.2-2,.3-3,.5a.85.85,0,0,0-.7.8A1,1,0,0,0,75.9,80.5Z"/><path class="cls-4" d="M78.5,81.4c.5.1.7.4.7.7a.85.85,0,0,1-.7.8,20,20,0,0,0-2.4.4c-1.1.2-2.2.3-3.3.5h-.3c-.4,0-.8-.3-.8-.6a.85.85,0,0,1,.7-.8c.9-.1,1.7-.3,2.6-.4,1.1-.2,2.1-.3,3.2-.5A.49.49,0,0,0,78.5,81.4Z"/><path class="cls-4" d="M75.9,80.5a.75.75,0,0,1,0-1.5c1-.2,2-.3,3-.5.4-.1.8-.1,1.1-.2a.87.87,0,0,1,.9.6.78.78,0,0,1-.6.9c-1.4.2-2.8.5-4.1.7Z"/><path class="cls-5" d="M110.9,90.4a9.45,9.45,0,0,1-4.7,8.1L63.9,122.9a9.12,9.12,0,0,1-9.3,0L12.3,98.5a9.33,9.33,0,0,1-4.7-8.1V41.6a9.45,9.45,0,0,1,4.7-8.1L54.6,9.1a9.39,9.39,0,0,1,4.7-1.2A10,10,0,0,1,64,9.1l42.3,24.4a9.45,9.45,0,0,1,4.7,8.1V90.4Zm.7-54.6a11.29,11.29,0,0,0-4.2-4.2L65.1,7.2a11.47,11.47,0,0,0-5.8-1.6,11,11,0,0,0-5.8,1.6L11.2,31.6A11.29,11.29,0,0,0,7,35.8a11.66,11.66,0,0,0-1.5,5.8V90.4A11.94,11.94,0,0,0,7,96.2a11.29,11.29,0,0,0,4.2,4.2l42.3,24.4a12,12,0,0,0,11.6,0l42.3-24.4a11.34,11.34,0,0,0,5.7-10V41.6a11.94,11.94,0,0,0-1.5-5.8Z"/></symbol></defs><g id="Camada_2" data-name="Camada 2"><g id="Tela_6_-_Pesquisadores" data-name="Tela 6 - Pesquisadores"><g id="Camada_35" data-name="Camada 35"><use width="118.6" height="132" xlink:href="#pesquisado_head"/></g></g></g></svg>