<svg xmlns="http://www.w3.org/2000/svg" viewBox="0 0 194.88 160.3"><defs><style>.cls-1{fill:#3c3f3b;}.cls-2,.cls-3{fill:#b1c119;}.cls-3,.cls-4{fill-rule:evenodd;}.cls-4{fill:#fff;}</style></defs><g id="Camada_2" data-name="Camada 2"><g id="Home_Page" data-name="Home Page"><g id="Camada_4" data-name="Camada 4"><g id="projetos_icon"><path class="cls-1" d="M194.86,38l-5.4,65.5c-.4,5.4-4.3,10.5-10.2,13.2L91.56,158a24.72,24.72,0,0,1-10.1,2.3,17.45,17.45,0,0,1-9-2.3L4.76,116.7c-4.5-2.8-5.9-7.9-3.8-13.2L27.36,38c1.7-4.2,6.2-8,11.8-10l73.7-26.7a21.69,21.69,0,0,1,7.6-1.3,18.84,18.84,0,0,1,6.9,1.3L188.06,28c4.4,2,7.1,5.8,6.8,10Z"/><path class="cls-2" d="M177.56,99.5c-.5,4.4-3.8,8.6-8.6,10.9L92.76,146c-5.5,2.6-11.6,2.6-15.9,0L18,110.4c-3.8-2.3-5-6.5-3.3-10.9L37,41.2c1.4-3.5,5.1-6.8,9.8-8.5l65.3-24.2a18.65,18.65,0,0,1,6.5-1.2,13.82,13.82,0,0,1,5.9,1.2l53.6,24.2c3.8,1.7,6,5,5.6,8.5l-6.1,58.3Zm7.7-64.5a12.53,12.53,0,0,0-5.4-4.4l-53.5-24a17,17,0,0,0-7.3-1.5,21.85,21.85,0,0,0-8,1.5L46,30.6a24.83,24.83,0,0,0-7.6,4.4,17.26,17.26,0,0,0-4.6,6.1L11.06,99.5a12.44,12.44,0,0,0-.5,7.8,10.09,10.09,0,0,0,4.6,5.8l59,35.9a17.64,17.64,0,0,0,9.3,2.4A24.73,24.73,0,0,0,94,149l76.5-35.9a20.37,20.37,0,0,0,7.4-5.8,14.35,14.35,0,0,0,3.2-7.8l5.7-58.3a9.74,9.74,0,0,0-1.5-6.2Z"/><path class="cls-3" d="M111.86,41.5c10,.1,17.9,2,23,7.6,4.6,5,5.2,11.1,3.2,17.8-2.5,8.4-9.5,15-17.7,21.3-2.9,2.2-5.9,4.4-7.5,7.6a4.65,4.65,0,0,1-2.6,1.4c-7.1,1.6-14.2,3-21.4,4.5-2.6.5-3.9-.1-4.2-2.1-.3-1.7-.4-3.6-.6-5.3a20.08,20.08,0,0,0-4.3-9.9,22.06,22.06,0,0,1-4-20.9C79.16,52,92,43.1,106.66,41.8,108.56,41.7,110.66,41.6,111.86,41.5ZM90.06,96.9c5.9-1.2,11.5-2.4,17-3.6a4.17,4.17,0,0,0,1.8-.8c4-3.4,7.7-7,11.7-10.2,7.5-5.9,12.2-12.3,13.2-19.9s-3.7-13.6-12.1-15.9a42.12,42.12,0,0,0-16.3-.8c-12.8,1.7-21.1,8.4-24.1,17.1-2.4,6.8-1.1,12.9,3.1,18.3a25.2,25.2,0,0,1,5.5,12.6C89.86,94.8,90,95.8,90.06,96.9Z"/><path class="cls-3" d="M81.66,122.8c-1.6,0-2.5-.7-2.4-2.1a3.28,3.28,0,0,1,2.8-2.8c2.5-.6,5-1.1,7.5-1.6,6.1-1.3,12.3-2.6,18.4-3.8,1.9-.4,3.2.3,3.3,1.7a2.83,2.83,0,0,1-2.6,2.9c-8.7,1.9-17.4,3.7-26.2,5.6C82.06,122.7,81.86,122.8,81.66,122.8Z"/><path class="cls-3" d="M110.06,105.5c1.7,0,2.6.8,2.5,2.1s-1.2,2.4-2.9,2.7c-3.7.8-7.4,1.5-11.1,2.3-4.6,1-9.1,2-13.7,2.9-2.5.5-3.9-.1-3.9-1.7s1.3-2.6,3.7-3.1c8.2-1.7,16.4-3.4,24.5-5.1A1.41,1.41,0,0,0,110.06,105.5Z"/><path class="cls-3" d="M84.46,109.3c-.6-.8-1.5-1.4-1.6-2.3-.2-1.4,1.1-2.3,2.8-2.7,2.7-.6,5.4-1.1,8.1-1.7,5.6-1.2,11.2-2.3,16.7-3.5,2.1-.4,3.5.3,3.6,1.8.1,1.2-1.2,2.4-3.2,2.8-8.1,1.7-16.3,3.4-24.5,5.1-.4.1-.8.1-1.3.2Z"/><path class="cls-3" d="M91.86,127.1c-1.9,0-2.8-.6-2.8-1.9a2.77,2.77,0,0,1,2.4-2.8c5.2-1.2,10.3-2.3,15.5-3.3,1.8-.3,2.7.7,2.7,2.1s-1.2,2.5-2.9,2.8l-12.9,2.7A10,10,0,0,1,91.86,127.1Z"/><path class="cls-3" d="M58.56,65h4.8c1.7,0,2.7.9,2.3,2a3.56,3.56,0,0,1-3.4,2.1c-3.5.1-6.9.1-10.4,0-1.6,0-2.4-.8-2.1-2.1.3-1.1,1.9-2,3.6-2.1C55.06,65,56.76,65,58.56,65Z"/><path class="cls-3" d="M113.36,30.4c.3-1.1.5-2.3.8-3.4a2.86,2.86,0,0,1,2.8-1.9c1.4,0,2.2.7,2,1.7-.5,2.4-1.1,4.9-1.7,7.4a3,3,0,0,1-3,1.8c-1.4-.1-2.1-.8-1.8-1.9C112.76,32.8,113.06,31.6,113.36,30.4Z"/><path class="cls-3" d="M65.86,85.6a10.46,10.46,0,0,1-2.1,1.5c-3.4,1.5-7,2.9-10.5,4.4-1.7.7-3.2.3-3.6-.8-.4-1.3.4-2.4,2.1-3.1,3.6-1.5,7.2-3,10.8-4.4C64.76,82.4,66.46,83.4,65.86,85.6Z"/><path class="cls-3" d="M153.66,89.2a3.17,3.17,0,0,1-4.1,2.4c-3.2-1.5-6.4-3.1-9.4-4.8-1.2-.7-1.2-1.8-.2-2.9a3,3,0,0,1,3.5-.8c3,1.5,6.1,3,9,4.6A3,3,0,0,1,153.66,89.2Z"/><path class="cls-3" d="M162.06,66.2a2.31,2.31,0,0,1-2,3.4c-3.8.2-7.6.2-11.3.2-1.5,0-2.2-.8-2-2a2.38,2.38,0,0,1,2.6-2c3.6-.1,7.3-.2,10.9-.2A3.22,3.22,0,0,1,162.06,66.2Z"/><path class="cls-3" d="M134.86,40.2c-2.2,0-3.3-1.3-2.3-2.4,2.1-2.4,4.4-4.7,6.7-7a2.74,2.74,0,0,1,3.2-.4,1.3,1.3,0,0,1,.4,2.3c-2.1,2.2-4.2,4.5-6.4,6.7A7.93,7.93,0,0,1,134.86,40.2Z"/><path class="cls-3" d="M147.36,52.2c-.6-.5-1.6-.9-1.7-1.5a2.26,2.26,0,0,1,1.1-2.1c3.3-1.5,6.8-2.9,10.2-4.2a2.22,2.22,0,0,1,2.8.8,1.51,1.51,0,0,1-.8,2.3c-3.5,1.5-7,3-10.6,4.4-.2.1-.5,0-.7.1S147.46,52.2,147.36,52.2Z"/><path class="cls-3" d="M90.86,30.1c.3.2,1.1.5,1.3,1,1.1,2,2.1,4.1,3.1,6.1.5,1,.1,1.9-1.5,2.6-1.4.6-2.8.3-3.3-.8q-1.65-3.15-3-6.3C86.86,31.5,88.46,30,90.86,30.1Z"/><path class="cls-3" d="M66.76,44.1a18.23,18.23,0,0,1,1.8.6c2.3,1.1,4.6,2.3,6.9,3.5,1.5.8,1.7,1.8.5,2.9a3.46,3.46,0,0,1-4,.5c-2.4-1.2-4.7-2.4-7-3.6-1-.5-1.4-1.3-.6-2.2A8.62,8.62,0,0,1,66.76,44.1Z"/><path class="cls-4" d="M90.06,96.9c-.1-1.1-.2-2.1-.3-3.1a24.83,24.83,0,0,0-5.5-12.6c-4.2-5.4-5.5-11.5-3.1-18.3,3.1-8.7,11.4-15.5,24.1-17.1a42.12,42.12,0,0,1,16.3.8c8.5,2.3,13.1,8.3,12.1,15.9s-5.7,14-13.2,19.9c-4.1,3.2-7.8,6.8-11.7,10.2a3.7,3.7,0,0,1-1.8.8C101.46,94.5,96,95.7,90.06,96.9Z"/></g></g></g></g></svg>