<svg xmlns="http://www.w3.org/2000/svg" xmlns:xlink="http://www.w3.org/1999/xlink" viewBox="0 0 70.8 78.9"><defs><style>.cls-1{fill:#499a35;}.cls-2,.cls-3{fill:#b1c119;}.cls-3{stroke:#fff;stroke-linecap:round;stroke-linejoin:round;stroke-width:2px;}</style><symbol id="resultados_icon" data-name="resultados_icon" viewBox="0 0 70.8 78.9"><path class="cls-1" d="M70.8,23.1V55.8a6.8,6.8,0,0,1-3.3,5.8L38.7,78a6.29,6.29,0,0,1-3.3.9,6.56,6.56,0,0,1-3.3-.9L3.3,61.6A6.59,6.59,0,0,1,0,55.8V23.1a6.8,6.8,0,0,1,3.3-5.8L32.1.9A6.29,6.29,0,0,1,35.4,0a6.56,6.56,0,0,1,3.3.9L67.5,17.3a6.8,6.8,0,0,1,3.3,5.8Z"/><path class="cls-2" d="M66.2,54a5.59,5.59,0,0,1-2.8,4.8L38.2,73.4a5.6,5.6,0,0,1-5.6,0L7.4,58.8A5.59,5.59,0,0,1,4.6,54V24.9a5.59,5.59,0,0,1,2.8-4.8L32.6,5.5a6,6,0,0,1,5.6,0L63.4,20.1a5.59,5.59,0,0,1,2.8,4.8V54Zm.4-32.5A7.47,7.47,0,0,0,64.1,19L38.9,4.4a6.87,6.87,0,0,0-6.8,0L6.9,19a7.47,7.47,0,0,0-2.5,2.5,6.65,6.65,0,0,0-.9,3.4V54a6.65,6.65,0,0,0,.9,3.4,7.47,7.47,0,0,0,2.5,2.5L32.1,74.5a6.92,6.92,0,0,0,3.4.9,6.65,6.65,0,0,0,3.4-.9L64.1,59.9a7.47,7.47,0,0,0,2.5-2.5,6.65,6.65,0,0,0,.9-3.4V24.9a6.65,6.65,0,0,0-.9-3.4Z"/><path class="cls-2" d="M14.9,45.8A14.19,14.19,0,0,0,29.1,60H39.4A14.19,14.19,0,0,0,53.6,45.8V35.5A14.19,14.19,0,0,0,39.4,21.3H29.1A14.19,14.19,0,0,0,14.9,35.5Z"/><path class="cls-3" d="M57.3,18l1,1.4q-6.15,4.65-13.5,14.1A96.76,96.76,0,0,0,33.4,51.3l-2.1,1.4q-2.55,1.8-3.6,2.7A37.38,37.38,0,0,0,26.1,51l-.8-1.8a25.49,25.49,0,0,0-3.2-5.9,6.94,6.94,0,0,0-3.3-2.5c2.1-2.2,3.9-3.2,5.6-3.2,1.5,0,3.1,2,4.9,5.9l.9,2A80.26,80.26,0,0,1,42.6,29.7,70.28,70.28,0,0,1,57.3,18Z"/></symbol></defs><g id="Camada_2" data-name="Camada 2"><g id="Tela_2_-_Resid._Confecções" data-name="Tela 2 - Resid. Confecções"><g id="icones"><g id="resultados"><use width="70.8" height="78.9" xlink:href="#resultados_icon"/></g></g></g></g></svg>