<svg xmlns="http://www.w3.org/2000/svg" xmlns:xlink="http://www.w3.org/1999/xlink" viewBox="0 0 380.03 157.39"><defs><style>.cls-1{fill:#b1c119;}.cls-2{fill:none;}.cls-3,.cls-4,.cls-5,.cls-6,.cls-7,.cls-8{isolation:isolate;font-family:ArialMT, Arial;}.cls-3{font-size:36.34px;}.cls-3,.cls-4,.cls-5,.cls-6,.cls-7,.cls-8,.cls-9{fill:#322b2e;}.cls-4{font-size:36.34px;}.cls-5{font-size:36.34px;}.cls-6{font-size:36.34px;}.cls-7{font-size:36.34px;}.cls-8{font-size:36.34px;}.cls-10{fill:#fff;}</style><symbol id="logo" data-name="logo" viewBox="0 0 380.03 157.39"><g id="logo-3" data-name="logo"><path class="cls-1" d="M348.36,156.8c-22-6.9-105-28.6-157.4-28.1-65.1.6-145.4,23-164.7,28.5-3.6,1-4.1-2.2-4.1-2.2L.36,86.1s-1.8-5.3,2.7-6.1c24.4-4.7,142.6-36.5,186.2-36.8,43.1-.3,163,29.3,187.6,38.1,4.5,1.6,2.9,6.2,2.9,6.2l-25.3,66.4S352.56,158.2,348.36,156.8Z"/><path class="cls-2" d="M25.86,129.4s108-28,164.5-26.1,171.1,28.8,171.1,28.8"/><text class="cls-3" transform="translate(22.82 129.33) rotate(-13.52)">N</text><text class="cls-4" transform="matrix(0.98, -0.22, 0.22, 0.98, 47.51, 123.42)">u</text><text class="cls-5" transform="translate(68.41 118.88) rotate(-11.66)">t</text><text class="cls-3" transform="translate(81.64 116.1) rotate(-11)">r</text><text class="cls-3" transform="matrix(0.98, -0.18, 0.18, 0.98, 94.19, 113.67)">i</text><text class="cls-3" transform="matrix(0.99, -0.16, 0.16, 0.99, 103.34, 111.94)">e</text><text class="cls-3" transform="translate(123.74 108.52) rotate(-7.75)">n</text><text class="cls-3" transform="translate(144.93 105.69) rotate(-5.84)">t</text><text class="cls-3" transform="matrix(1, -0.05, 0.05, 1, 158.13, 104.22)">e</text><text class="cls-6" transform="translate(178.51 103.17) rotate(1.32)">s</text><text class="cls-3" transform="translate(198.83 103.76) rotate(4.72)"> </text><text class="cls-7" transform="translate(206.14 104.39) rotate(6.62)">C</text><text class="cls-8" transform="matrix(0.99, 0.14, -0.14, 0.99, 231.08, 106.83)">r</text><text class="cls-3" transform="translate(243.7 108.62) rotate(8.78)">i</text><text class="cls-3" transform="translate(252.92 110) rotate(9.57)">a</text><text class="cls-3" transform="translate(272.83 113.39) rotate(10.3)">t</text><text class="cls-3" transform="matrix(0.98, 0.19, -0.19, 0.98, 286.15, 115.81)">i</text><text class="cls-3" transform="matrix(0.98, 0.19, -0.19, 0.98, 296.34, 117.53)">v</text><text class="cls-3" transform="translate(315.39 121.51) rotate(11.82)">o</text><text class="cls-3" transform="matrix(0.98, 0.21, -0.21, 0.98, 336.06, 125.84)">s</text><path class="cls-9" d="M215.56,21.2v30a6.14,6.14,0,0,1-3.1,5.3l-26.4,15.1a6,6,0,0,1-6,0l-26.3-15.1a6.14,6.14,0,0,1-3.1-5.3v-30a6.14,6.14,0,0,1,3.1-5.3L180.16.8a6,6,0,0,1,6,0l26.4,15.1a6,6,0,0,1,3,5.3Z"/><path class="cls-1" d="M207.56,47.7a4.67,4.67,0,0,1-2.2,3.9l-19.9,11.5a4.56,4.56,0,0,1-2.2.6,4,4,0,0,1-2.2-.6l-19.9-11.5a4.45,4.45,0,0,1-2.2-3.9v-23a4.67,4.67,0,0,1,2.2-3.9l19.9-11.5a4.56,4.56,0,0,1,2.2-.6,4,4,0,0,1,2.2.6l19.9,11.5a4.45,4.45,0,0,1,2.2,3.9v23Zm1.5-26.5a6.67,6.67,0,0,0-2.5-2.5L186.66,7.2a7.26,7.26,0,0,0-7,0l-19.9,11.5a6.67,6.67,0,0,0-2.5,2.5,7.3,7.3,0,0,0-.9,3.5v23a7.3,7.3,0,0,0,.9,3.5,6.67,6.67,0,0,0,2.5,2.5l19.9,11.5a6.76,6.76,0,0,0,3.5.9,7,7,0,0,0,3.5-.9l19.9-11.5a6.67,6.67,0,0,0,2.5-2.5,7.3,7.3,0,0,0,.9-3.5v-23a7.3,7.3,0,0,0-.9-3.5Z"/><path class="cls-1" d="M211.76,49.8a5.25,5.25,0,0,1-2.6,4.5l-23.5,13.6a5.34,5.34,0,0,1-5.2,0L157,54.3a5.13,5.13,0,0,1-2.6-4.5V22.7a5.25,5.25,0,0,1,2.6-4.5l23.5-13.6a5.18,5.18,0,0,1,5.2,0l23.5,13.6a5.13,5.13,0,0,1,2.6,4.5V49.8Zm.4-30.3a6.33,6.33,0,0,0-2.3-2.3L186.36,3.6a6.14,6.14,0,0,0-6.4,0l-23.5,13.5a6.33,6.33,0,0,0-2.3,2.3,6.2,6.2,0,0,0-.9,3.2V49.7a6.2,6.2,0,0,0,.9,3.2,6.33,6.33,0,0,0,2.3,2.3L180,68.8a6.14,6.14,0,0,0,6.4,0l23.5-13.6a6.33,6.33,0,0,0,2.3-2.3,6.2,6.2,0,0,0,.9-3.2v-27a6.65,6.65,0,0,0-.9-3.2Z"/><path class="cls-10" d="M195.46,40a3.33,3.33,0,0,1,3.3-3.3h2.1a3.39,3.39,0,0,1-.1,4.6l-.1.1v.2a5.7,5.7,0,0,1-5.7,5.7,3.33,3.33,0,0,1-3.3-3.3h-1a4,4,0,0,0,1.3,3,4.2,4.2,0,0,0,2.5,1.2,5.68,5.68,0,0,1-5.7,5.2,3.26,3.26,0,0,1-3.3-2.9V38.2a3.33,3.33,0,0,1,3.3-3.3,4.15,4.15,0,0,0,1.6-.3,4.19,4.19,0,0,0,1.4-.9,4.34,4.34,0,0,0,1.3-3h-1a3.3,3.3,0,0,1-6.6,0V22.3a3.33,3.33,0,0,1,3.3-3.3,5.75,5.75,0,0,1,5.7,5.2,4,4,0,0,0-2.5,1.2,4.34,4.34,0,0,0-1.3,3h1a3.33,3.33,0,0,1,3.3-3.3,5.28,5.28,0,0,1,4,1.7,5.85,5.85,0,0,1,1.7,4V31l.1.1a3.29,3.29,0,0,1,.1,4.6h-2.1a3.8,3.8,0,0,0-3,1.3,4.34,4.34,0,0,0-1.3,3Zm7.3-6.5a4.36,4.36,0,0,0-1.1-2.9,6.36,6.36,0,0,0-1.9-4.5,6.55,6.55,0,0,0-4.2-1.9,6.55,6.55,0,0,0-1.9-4.2,6.41,6.41,0,0,0-4.7-1.9,4,4,0,0,0-3,1.3,4.34,4.34,0,0,0-1.3,3v8.4a4,4,0,0,0,1.3,3,4.44,4.44,0,0,0,1.1.8,7.63,7.63,0,0,0-1.1.8,4.34,4.34,0,0,0-1.3,3V50.8a4,4,0,0,0,1.4,2.6,4.3,4.3,0,0,0,2.8,1.1,6.83,6.83,0,0,0,4.7-1.9,6.55,6.55,0,0,0,1.9-4.2,6.55,6.55,0,0,0,4.2-1.9,6.36,6.36,0,0,0,1.9-4.5,4.36,4.36,0,0,0,1.1-2.9,3.94,3.94,0,0,0-1-2.7,4.23,4.23,0,0,0,1.1-2.9Z"/><path class="cls-10" d="M173.86,19.6a5.76,5.76,0,0,1,4.4.9,5.93,5.93,0,0,1,2.5,3.7,5.76,5.76,0,0,1-.9,4.4,5.93,5.93,0,0,1-3.7,2.5l-.5.1.2.9.5-.1a6.83,6.83,0,0,0,5.4-7.5.9.9,0,0,0-.1-.5h0c0-.2-.1-.3-.1-.5a6.83,6.83,0,0,0-2.8-3.9,6.56,6.56,0,0,0-5.1-1l-.5.1.2.9Z"/><path class="cls-10" d="M173.06,47.6a6.75,6.75,0,0,1-1.4.2,5.81,5.81,0,0,0,5.8,5.5h.5v1h-.5a6.73,6.73,0,0,1-4.8-2,6.92,6.92,0,0,1-2-4.5A9.24,9.24,0,0,1,168,47a6.61,6.61,0,0,1-3.2-4.1l-.1-.5.9-.3.1.5a5.82,5.82,0,0,0,6.4,4.2l-.2-.2-.3-.3a6.62,6.62,0,0,1-1.7-4.5,7.61,7.61,0,0,1,.3-2.1,7,7,0,0,1-6.7-5.7.6.6,0,0,0-.1-.4V33a6.9,6.9,0,0,1,1.6-4.5,6.54,6.54,0,0,1,4.6-2.4h.5l.1,1h-.5a5.92,5.92,0,0,0-5.3,6.4v.1a5.76,5.76,0,0,0,6.1,5.2,7.1,7.1,0,0,1,1-1.4l.3-.3h0a5.85,5.85,0,0,0,0-8.3l-.3-.3.7-.7.3.3a6.73,6.73,0,0,1,2,4.8,6.81,6.81,0,0,1-1.7,4.5l-.3.3h0a6.57,6.57,0,0,0-1.2,1.7c0,.1-.1.2-.1.3a5.93,5.93,0,0,0,1.3,6.3,4.35,4.35,0,0,0,.7.6c.1.1.1.1.2.1a6.33,6.33,0,0,0,3.2,1,5.66,5.66,0,0,0,4.1-1.7l.3-.3.7.7-.3.3a6.73,6.73,0,0,1-4.8,2,6.83,6.83,0,0,1-3.5-1.1Z"/><path class="cls-10" d="M175.36,42.6h-.5l.1.9h.5a6.73,6.73,0,0,0,4.6-2.4,6.51,6.51,0,0,0,1.5-5v-.5l-1,.1v.5a6,6,0,0,1-1.3,4.3,5.62,5.62,0,0,1-3.9,2.1Z"/></g></symbol></defs><g id="Camada_2" data-name="Camada 2"><g id="Home_Page" data-name="Home Page"><use width="380.03" height="157.39" xlink:href="#logo"/></g></g></svg>