<svg xmlns="http://www.w3.org/2000/svg" xmlns:xlink="http://www.w3.org/1999/xlink" viewBox="0 0 136.31 151.75"><defs><style>.cls-1{fill:#322b2e;}.cls-2{fill:#b1c119;}.cls-3{fill:#fff;}</style><symbol id="icone-projeto" data-name="icone-projeto" viewBox="0 0 136.31 151.75"><path class="cls-1" d="M136.31,44.38v63a12.79,12.79,0,0,1-6.43,11.08l-55.4,31.62a12.75,12.75,0,0,1-12.65,0L6.44,118.45A12.76,12.76,0,0,1,0,107.37v-63A12.76,12.76,0,0,1,6.44,33.3L61.83,1.68a12.75,12.75,0,0,1,12.65,0l55.4,31.62a12.79,12.79,0,0,1,6.43,11.08Z"/><path class="cls-2" d="M119.39,100a9.47,9.47,0,0,1-4.71,8.17L72.87,132.31a9.45,9.45,0,0,1-9.43,0L21.63,108.18A9.47,9.47,0,0,1,16.92,100V51.74a9.47,9.47,0,0,1,4.71-8.17L63.44,19.44a9.45,9.45,0,0,1,9.43,0l41.81,24.13a9.47,9.47,0,0,1,4.71,8.17V100Zm3.17-55.55a14.52,14.52,0,0,0-5.32-5.32L75.43,15a14.55,14.55,0,0,0-14.55,0L19.07,39.14a14.54,14.54,0,0,0-7.27,12.6V100a14.54,14.54,0,0,0,7.27,12.6l41.81,24.14a14.55,14.55,0,0,0,14.55,0l41.81-24.14a14.54,14.54,0,0,0,7.27-12.6V51.74a14.54,14.54,0,0,0-2-7.28Z"/><path class="cls-2" d="M128.27,104.31a10.87,10.87,0,0,1-5.43,9.4L73.58,142.15a10.84,10.84,0,0,1-10.85,0L13.47,113.71A10.87,10.87,0,0,1,8,104.31V47.44A10.87,10.87,0,0,1,13.47,38L62.73,9.6a10.87,10.87,0,0,1,10.85,0L122.84,38a10.87,10.87,0,0,1,5.43,9.4v56.87Zm.79-63.6a13.5,13.5,0,0,0-4.92-4.92L74.88,7.35a13.46,13.46,0,0,0-13.45,0L12.17,35.79A13.44,13.44,0,0,0,5.45,47.44v56.87A13.44,13.44,0,0,0,12.17,116L61.43,144.4a13.46,13.46,0,0,0,13.45,0L124.14,116a13.44,13.44,0,0,0,6.72-11.65V47.44a13.46,13.46,0,0,0-1.8-6.73Z"/><path class="cls-3" d="M94.13,83.87a7,7,0,0,1,7-7h4.46a7,7,0,0,1-.28,9.6l-.29.29v.42A12,12,0,0,1,93.11,99.13a7,7,0,0,1-7-7h-2a9,9,0,0,0,7.92,8.93,12,12,0,0,1-11.91,11,7,7,0,0,1-6.93-6,6.15,6.15,0,0,1-.07-1V80.31a7,7,0,0,1,7-7,8.91,8.91,0,0,0,3.44-.68,8.71,8.71,0,0,0,2.91-1.95,8.94,8.94,0,0,0,2.64-6.36h-2a7,7,0,0,1-14,0V46.66a7,7,0,0,1,7-7,12,12,0,0,1,11.91,11,9,9,0,0,0-8,8.94h2a7,7,0,0,1,7-7A11.95,11.95,0,0,1,105,64.57V65l.3.29a7,7,0,0,1,.27,9.6h-4.46a9,9,0,0,0-9,9Zm15.24-13.65A8.92,8.92,0,0,0,107,64.16a13.95,13.95,0,0,0-13-13.51,13.93,13.93,0,0,0-13.91-13,9,9,0,0,0-9,9V64.32a8.93,8.93,0,0,0,2.63,6.36A8.81,8.81,0,0,0,76,72.31,9.1,9.1,0,0,0,73.78,74a8.93,8.93,0,0,0-2.63,6.36v24.78a8.55,8.55,0,0,0,.09,1.25,9,9,0,0,0,8.91,7.74,13.93,13.93,0,0,0,13.91-13,13.95,13.95,0,0,0,13-13.51,9,9,0,0,0,.35-11.71,8.93,8.93,0,0,0,2-5.66Z"/><path class="cls-3" d="M48.63,40.91A12.29,12.29,0,0,1,53.49,65l-1,.2.4,2,1-.2A14.27,14.27,0,0,0,65.23,51.12c0-.33-.09-.66-.16-1h0c-.07-.32-.14-.65-.23-1A14.3,14.3,0,0,0,48.24,39l-1,.2.39,2,1-.2Z"/><path class="cls-3" d="M47.09,99.85a14.35,14.35,0,0,1-3,.46,12.31,12.31,0,0,0,12.27,11.5h1v2h-1a14.29,14.29,0,0,1-14.28-13.54A14.27,14.27,0,0,1,29.69,90l-.28-1,1.93-.55.27,1A12.31,12.31,0,0,0,45,98.23l-.38-.39c-.24-.24-.47-.48-.69-.73a14.3,14.3,0,0,1-2.82-13.73,14.27,14.27,0,0,1-13.93-12c0-.28-.08-.56-.11-.83v-.17c0-.33-.05-.66-.06-1a14.28,14.28,0,0,1,13-14.56l1-.09.19,2-1,.09A12.31,12.31,0,0,0,29,70.24v.15a12.32,12.32,0,0,0,12.87,11,13.82,13.82,0,0,1,2-3c.22-.26.45-.5.69-.74h0a12.31,12.31,0,0,0,0-17.38l-.71-.7,1.42-1.42.7.71a14.29,14.29,0,0,1,.69,19.48c-.22.25-.45.49-.69.73h0a12.19,12.19,0,0,0-2.47,3.56c-.1.21-.19.42-.28.64A12.33,12.33,0,0,0,46,96.43a14.17,14.17,0,0,0,1.45,1.24l.43.3a12.29,12.29,0,0,0,15.5-1.54l.71-.71,1.42,1.41-.71.71a14.31,14.31,0,0,1-17.71,2Z"/><path class="cls-3" d="M52,89.22l-1,.1.19,2,1-.09A14.3,14.3,0,0,0,65,75.65l-.1-1-2,.19.09,1A12.26,12.26,0,0,1,52,89.22Z"/></symbol></defs><g id="Camada_2" data-name="Camada 2"><g id="Camada_9" data-name="Camada 9"><g id="banner-head"><use width="136.31" height="151.75" xlink:href="#icone-projeto"/></g></g></g></svg>