<svg width="1450" height="1025" viewBox="0 0 1450 1025" fill="none" xmlns="http://www.w3.org/2000/svg">
<g clip-path="url(#clip0_548_50)">
<rect width="1450" height="1025" fill="white"/>
<path d="M1449.97 0.730469H0V783.73H1449.97V0.730469Z" fill="url(#paint0_radial_548_50)"/>
<path d="M1449.97 784.73H0V1024.73H1449.97V784.73Z" fill="url(#paint1_linear_548_50)"/>
<g opacity="0.7">
<path opacity="0.7" d="M214.733 862.641L218.369 843.171C218.618 841.831 215.82 840.591 211.063 839.941L146.448 831.011C144.25 830.711 141.702 830.551 139.04 830.551C136.379 830.551 133.706 830.711 131.271 831.011L59.3833 839.941C54.1053 840.601 50.2997 841.831 49.4616 843.171L37.2633 862.641C36.3345 864.131 38.6904 865.521 43.4361 866.271L111.631 877.001C114.066 877.381 116.932 877.581 119.91 877.581C122.889 877.581 125.925 877.381 128.677 877.001L205.593 866.271C210.95 865.521 214.45 864.131 214.722 862.641H214.733Z" fill="#FFD545" stroke="#DBB10C" stroke-miterlimit="10"/>
<path opacity="0.7" d="M138.814 911.46L215.254 923.99C217.95 924.43 221.053 924.67 224.213 924.67C227.373 924.67 230.522 924.43 233.308 923.99L312.104 911.46C317.654 910.58 321.052 908.93 320.995 907.17L320.191 883.67C320.134 882.02 316.771 880.5 311.402 879.69L237.884 868.57C235.358 868.19 232.493 867.99 229.57 867.99C226.648 867.99 223.737 868.19 221.155 868.57L145.519 879.69C140.014 880.5 136.356 882.02 135.993 883.67L130.749 907.17C130.353 908.93 133.445 910.58 138.814 911.46V911.46Z" fill="#FFD545" stroke="#DBB10C" stroke-miterlimit="10"/>
<path opacity="0.7" d="M396.552 866.271C401.57 865.521 404.401 864.131 403.982 862.641L398.5 843.171C398.126 841.831 394.751 840.591 389.688 839.941L320.882 831.011C318.537 830.711 315.91 830.551 313.259 830.551C310.609 830.551 307.993 830.711 305.705 831.011L237.997 839.941C233.025 840.601 229.797 841.831 229.582 843.171L226.512 862.641C226.274 864.131 229.287 865.521 234.384 866.271L307.608 877.001C310.213 877.381 313.18 877.581 316.17 877.581C319.16 877.581 322.094 877.381 324.665 877.001L396.552 866.271V866.271Z" fill="#FFD545" stroke="#DBB10C" stroke-miterlimit="10"/>
<path opacity="0.7" d="M342.866 911.46L422.75 923.99C425.57 924.43 428.741 924.67 431.89 924.67C435.039 924.67 438.142 924.43 440.804 923.99L516.157 911.46C521.469 910.58 524.413 908.93 523.87 907.17L516.61 883.67C516.1 882.02 512.317 880.5 506.733 879.69L430.157 868.57C427.541 868.19 424.607 867.99 421.685 867.99C418.763 867.99 415.909 868.19 413.428 868.57L340.85 879.69C335.561 880.5 332.333 882.02 332.423 883.67L333.624 907.17C333.715 908.93 337.248 910.58 342.866 911.46Z" fill="#FFD545" stroke="#DBB10C" stroke-miterlimit="10"/>
<path opacity="0.7" d="M586.028 843.171C585.02 841.831 581.056 840.591 575.687 839.941L502.69 831.011C500.209 830.711 497.502 830.551 494.852 830.551C492.202 830.551 489.665 830.711 487.513 831.011L424.007 839.941C419.341 840.601 416.701 841.831 417.121 843.171L423.203 862.641C423.667 864.131 427.325 865.521 432.785 866.271L511.06 877.001C513.846 877.381 516.916 877.581 519.894 877.581C522.873 877.581 525.727 877.381 528.117 877.001L594.964 866.271C599.619 865.521 601.805 864.131 600.695 862.641L586.051 843.171H586.028Z" fill="#FFD545" stroke="#DBB10C" stroke-miterlimit="10"/>
<path opacity="0.7" d="M423.61 969.931C429.828 968.751 433.26 966.571 432.603 964.231L424.12 934.101C423.542 932.051 419.272 930.171 412.975 929.171L327.859 915.641C324.982 915.181 321.754 914.951 318.492 914.951C315.23 914.951 312.036 915.191 309.227 915.641L225.776 929.171C219.615 930.171 215.571 932.061 215.243 934.101L210.486 964.231C210.112 966.561 213.827 968.751 220.181 969.931L312.183 986.921C315.479 987.531 319.24 987.851 323 987.851C326.76 987.851 330.475 987.531 333.715 986.921L423.599 969.931H423.61Z" fill="#FFD545" stroke="#DBB10C" stroke-miterlimit="10"/>
<path opacity="0.7" d="M448.131 964.241C448.856 966.571 453.591 968.761 460.5 969.941L560.498 986.931C564.089 987.541 567.985 987.861 571.757 987.861C575.528 987.861 579.096 987.541 582.041 986.931L663.94 969.941C669.615 968.761 672.016 966.581 670.26 964.241L647.597 934.111C646.056 932.061 640.892 930.181 634.13 929.181L542.648 915.651C539.568 915.191 536.215 914.961 532.953 914.961C529.691 914.961 526.611 915.201 524.017 915.651L446.92 929.181C441.222 930.181 438.074 932.071 438.719 934.111L448.131 964.241V964.241Z" fill="#FFD545" stroke="#DBB10C" stroke-miterlimit="10"/>
<path opacity="0.7" d="M160.854 807.181C156.188 807.731 153.017 808.761 152.575 809.881L146.232 826.051C145.745 827.281 148.237 828.431 152.734 829.051L217.157 837.881C219.445 838.191 222.095 838.361 224.802 838.361C227.509 838.361 230.216 838.191 232.617 837.881L300.087 829.051C304.799 828.431 307.676 827.281 307.619 826.051L306.849 809.881C306.792 808.761 303.983 807.731 299.498 807.181L238.416 799.701C236.343 799.451 233.965 799.311 231.53 799.311C229.095 799.311 226.671 799.441 224.519 799.701L160.854 807.181V807.181Z" fill="#FFD545" stroke="#DBB10C" stroke-miterlimit="10"/>
<path opacity="0.7" d="M324.11 807.181C319.704 807.731 317.008 808.761 317.099 809.881L318.333 826.051C318.424 827.281 321.448 828.431 326.239 829.051L394.808 837.881C397.243 838.191 399.973 838.361 402.679 838.361C405.386 838.361 408.014 838.191 410.268 837.881L473.593 829.051C478.021 828.431 480.366 827.281 479.731 826.051L471.384 809.881C470.806 808.761 467.499 807.731 462.765 807.181L398.183 799.701C395.986 799.451 393.551 799.311 391.115 799.311C388.68 799.311 386.324 799.441 384.286 799.701L324.121 807.181H324.11Z" fill="#FFD545" stroke="#DBB10C" stroke-miterlimit="10"/>
<path opacity="0.7" d="M481.725 809.831L490.548 825.99C491.216 827.22 494.784 828.37 499.858 828.99L572.561 837.82C575.143 838.13 577.952 838.3 580.648 838.3C583.343 838.3 585.903 838.13 588.01 837.82L647.178 828.99C651.312 828.37 653.113 827.22 651.901 825.99L635.976 809.831C634.877 808.711 631.083 807.68 626.1 807.13L558.018 799.66C555.696 799.41 553.204 799.271 550.769 799.271C548.334 799.271 546.035 799.4 544.121 799.66L487.467 807.13C483.311 807.68 481.113 808.711 481.725 809.831V809.831Z" fill="#FFD545" stroke="#DBB10C" stroke-miterlimit="10"/>
<path opacity="0.7" d="M603.957 843.251L619.168 862.731C620.335 864.221 624.65 865.611 630.449 866.361L713.764 877.091C716.732 877.471 719.892 877.671 722.871 877.671C725.849 877.671 728.613 877.471 730.822 877.091L792.651 866.361C796.967 865.611 798.496 864.221 796.672 862.731L772.91 843.251C771.279 841.911 766.737 840.671 761.063 840.021L683.863 831.091C681.247 830.791 678.461 830.631 675.81 830.631C673.16 830.631 670.691 830.791 668.686 831.091L609.348 840.021C604.988 840.681 602.926 841.911 603.968 843.251H603.957Z" fill="#FFD545" stroke="#DBB10C" stroke-miterlimit="10"/>
<path opacity="0.7" d="M798.405 807.141L726.823 799.671C724.388 799.421 721.829 799.281 719.393 799.281C716.958 799.281 714.727 799.411 712.926 799.671L659.784 807.141C655.888 807.691 654.166 808.721 655.299 809.841L671.699 826.001C672.945 827.231 677.045 828.381 682.413 829.001L759.25 837.831C761.98 838.141 764.868 838.311 767.564 838.311C770.259 838.311 772.74 838.141 774.711 837.831L829.744 829.001C833.595 828.381 834.853 827.231 833.063 826.001L809.561 809.841C807.942 808.721 803.66 807.691 798.416 807.141H798.405Z" fill="#FFD545" stroke="#DBB10C" stroke-miterlimit="10"/>
<path opacity="0.7" d="M970.982 807.141L895.889 799.671C893.33 799.421 890.713 799.281 888.278 799.281C885.843 799.281 883.668 799.411 881.992 799.671L832.35 807.141C828.714 807.691 827.468 808.721 829.133 809.841L853.122 826.001C854.945 827.231 859.589 828.381 865.241 829.001L946.234 837.831C949.111 838.141 952.067 838.311 954.774 838.311C957.481 838.311 959.871 838.141 961.695 837.831L1012.58 829.001C1016.14 828.381 1016.86 827.231 1014.5 826.001L983.407 809.841C981.255 808.721 976.498 807.691 970.993 807.141H970.982Z" fill="#FFD545" stroke="#DBB10C" stroke-miterlimit="10"/>
<path opacity="0.7" d="M998.289 862.731L965.296 843.251C963.031 841.911 957.9 840.671 951.909 840.021L870.474 831.091C867.71 830.791 864.856 830.631 862.194 830.631C859.532 830.631 857.154 830.791 855.285 831.091L800.183 840.021C796.14 840.681 794.656 841.911 796.344 843.251L820.786 862.731C822.654 864.221 827.627 865.611 833.788 866.361L922.189 877.091C925.338 877.471 928.588 877.671 931.578 877.671C934.568 877.671 937.219 877.471 939.246 877.091L995.99 866.361C999.954 865.611 1000.82 864.221 998.301 862.731H998.289Z" fill="#FFD545" stroke="#DBB10C" stroke-miterlimit="10"/>
<path opacity="0.7" d="M1185.47 862.731L1143.45 843.251C1140.56 841.911 1134.85 840.671 1128.56 840.021L1042.98 831.091C1040.07 830.791 1037.15 830.631 1034.49 830.631C1031.83 830.631 1029.52 830.791 1027.79 831.091L976.838 840.021C973.1 840.681 972.194 841.911 974.493 843.251L1007.95 862.731C1010.51 864.221 1016.14 865.611 1022.63 866.361L1116 877.091C1119.32 877.471 1122.67 877.671 1125.65 877.671C1128.63 877.671 1131.19 877.471 1133.06 877.091L1184.83 866.361C1188.44 865.611 1188.67 864.221 1185.45 862.731H1185.47Z" fill="#FFD545" stroke="#DBB10C" stroke-miterlimit="10"/>
<path opacity="0.7" d="M1196.77 826.001L1158.1 809.841C1155.43 808.721 1150.2 807.691 1144.43 807.141L1065.84 799.671C1063.17 799.421 1060.48 799.281 1058.05 799.281C1055.61 799.281 1053.5 799.411 1051.94 799.671L1005.81 807.141C1002.42 807.691 1001.68 808.721 1003.85 809.841L1035.42 826.001C1037.82 827.231 1043 828.381 1048.94 829.001L1134.07 837.831C1137.09 838.141 1140.13 838.311 1142.83 838.311C1145.54 838.311 1147.85 838.141 1149.53 837.831L1196.27 829.001C1199.54 828.381 1199.71 827.231 1196.78 826.001H1196.77Z" fill="#FFD545" stroke="#DBB10C" stroke-miterlimit="10"/>
<path opacity="0.7" d="M1374.75 862.731L1323.6 843.251C1320.08 841.911 1313.79 840.671 1307.2 840.021L1217.44 831.091C1214.39 830.791 1211.39 830.631 1208.73 830.631C1206.07 830.631 1203.84 830.791 1202.25 831.091L1155.47 840.021C1152.04 840.681 1151.71 841.911 1154.65 843.251L1197.23 862.731C1200.48 864.221 1206.76 865.611 1213.61 866.361L1312.01 877.091C1315.51 877.471 1318.96 877.671 1321.95 877.671C1324.94 877.671 1327.41 877.471 1329.08 877.091L1375.82 866.361C1379.09 865.611 1378.66 864.221 1374.75 862.731V862.731Z" fill="#FFD545" stroke="#DBB10C" stroke-miterlimit="10"/>
<path opacity="0.7" d="M1369.43 826.001L1323.16 809.841C1319.96 808.721 1314.23 807.691 1308.21 807.141L1226.1 799.671C1223.32 799.421 1220.57 799.281 1218.13 799.281C1215.7 799.281 1213.65 799.411 1212.21 799.671L1169.59 807.141C1166.46 807.691 1166.2 808.721 1168.91 809.841L1208.07 826.001C1211.05 827.231 1216.77 828.381 1223 829.001L1312.29 837.831C1315.46 838.141 1318.57 838.311 1321.28 838.311C1323.99 838.311 1326.23 838.141 1327.75 837.831L1370.34 829.001C1373.32 828.381 1372.96 827.231 1369.45 826.001H1369.43Z" fill="#FFD545" stroke="#DBB10C" stroke-miterlimit="10"/>
<path opacity="0.7" d="M529.17 884.201L536.85 907.741C537.427 909.511 541.414 911.161 547.281 912.041L630.676 924.591C633.62 925.031 636.86 925.271 640.008 925.271C643.157 925.271 646.192 925.041 648.741 924.591L720.707 912.041C725.77 911.161 728.262 909.511 727.231 907.741L713.493 884.201C712.53 882.551 708.328 881.021 702.518 880.211L622.827 869.081C620.097 868.701 617.118 868.501 614.185 868.501C611.251 868.501 608.454 868.701 606.086 869.081L536.51 880.211C531.447 881.021 528.627 882.551 529.159 884.201H529.17Z" fill="#FFD545" stroke="#DBB10C" stroke-miterlimit="10"/>
<path opacity="0.7" d="M699.958 970.071L807.953 987.071C811.826 987.681 815.881 988.001 819.653 988.001C823.424 988.001 826.834 987.681 829.495 987.071L903.444 970.071C908.563 968.901 909.945 966.701 907.091 964.371L870.303 934.221C867.8 932.171 861.752 930.281 854.526 929.291L756.679 915.761C753.383 915.301 749.918 915.061 746.656 915.061C743.394 915.061 740.415 915.301 738.036 915.761L667.259 929.291C662.026 930.291 659.761 932.181 661.358 934.221L684.894 964.371C686.717 966.701 692.471 968.891 699.946 970.071H699.958Z" fill="#FFD545" stroke="#DBB10C" stroke-miterlimit="10"/>
<path opacity="0.7" d="M907.068 880.221L824.319 869.091C821.488 868.711 818.452 868.511 815.519 868.511C812.585 868.511 809.844 868.711 807.579 869.091L741.06 880.221C736.213 881.031 733.823 882.561 734.808 884.211L748.955 907.751C750.019 909.521 754.459 911.171 760.564 912.051L847.413 924.601C850.483 925.041 853.778 925.281 856.938 925.281C860.098 925.281 863.066 925.051 865.49 924.601L934.002 912.051C938.827 911.171 940.865 909.521 939.348 907.751L919.142 884.211C917.726 882.561 913.094 881.031 907.068 880.221Z" fill="#FFD545" stroke="#DBB10C" stroke-miterlimit="10"/>
<path opacity="0.7" d="M965.296 907.741C966.893 909.511 971.979 911.161 978.548 912.041L1072.02 924.591C1075.32 925.031 1078.81 925.271 1082.07 925.271C1085.33 925.271 1088.33 925.041 1090.72 924.591L1158.07 912.041C1162.81 911.161 1164.46 909.511 1162.38 907.741L1134.77 884.201C1132.83 882.551 1127.61 881.021 1121.13 880.211L1032.3 869.081C1029.26 868.701 1026.06 868.501 1023.03 868.501C1019.99 868.501 1017.2 868.701 1014.97 869.081L949.292 880.211C944.513 881.021 942.463 882.551 943.958 884.201L965.296 907.741Z" fill="#FFD545" stroke="#DBB10C" stroke-miterlimit="10"/>
<path opacity="0.7" d="M942.236 970.071L1058.28 987.071C1062.44 987.681 1066.65 988.001 1070.43 988.001C1074.2 988.001 1077.45 987.681 1079.83 987.071L1145.72 970.071C1150.29 968.901 1150.63 966.701 1146.67 964.371L1095.59 934.221C1092.13 932.171 1085.18 930.281 1077.47 929.291L973.213 915.761C969.691 915.301 966.123 915.061 962.861 915.061C959.599 915.061 956.745 915.301 954.582 915.761L890.215 929.291C885.458 930.291 884.088 932.181 886.659 934.221L924.488 964.371C927.41 966.701 934.217 968.891 942.236 970.071Z" fill="#FFD545" stroke="#DBB10C" stroke-miterlimit="10"/>
<path opacity="0.7" d="M1179.16 970.071L1303.09 987.071C1307.53 987.681 1311.89 988.001 1315.66 988.001C1319.43 988.001 1322.54 987.681 1324.63 987.071L1382.64 970.071C1386.66 968.901 1385.98 966.701 1380.96 964.371L1315.91 934.221C1311.49 932.171 1303.67 930.281 1295.5 929.291L1184.97 915.761C1181.23 915.301 1177.55 915.061 1174.29 915.061C1171.03 915.061 1168.27 915.301 1166.32 915.761L1108.23 929.291C1103.94 930.291 1103.44 932.181 1106.96 934.221L1158.76 964.371C1162.77 966.701 1170.58 968.891 1179.15 970.071H1179.16Z" fill="#FFD545" stroke="#DBB10C" stroke-miterlimit="10"/>
<path opacity="0.7" d="M1372.55 907.741L1338.24 884.201C1335.84 882.551 1330.19 881.021 1323.49 880.211L1231.5 869.081C1228.35 868.701 1225.08 868.501 1222.05 868.501C1219.01 868.501 1216.28 868.701 1214.15 869.081L1151.63 880.211C1147.08 881.021 1145.46 882.551 1147.43 884.201L1175.46 907.741C1177.57 909.511 1183.11 911.161 1189.94 912.041L1286.98 924.591C1290.4 925.031 1293.96 925.271 1297.22 925.271C1300.48 925.271 1303.42 925.041 1305.68 924.591L1369.46 912.041C1373.96 911.161 1375.12 909.511 1372.54 907.741H1372.55Z" fill="#FFD545" stroke="#DBB10C" stroke-miterlimit="10"/>
<path opacity="0.7" d="M75.0586 987.861C78.8415 987.861 82.6924 987.541 86.2148 986.931L184.062 969.941C190.835 968.761 195.297 966.581 195.728 964.241L201.357 934.111C201.742 932.061 198.344 930.181 192.522 929.181L113.737 915.651C111.076 915.191 107.961 914.961 104.699 914.961C101.437 914.961 98.13 915.201 95.1059 915.651L5.31196 929.181C3.4658 929.461 1.75554 929.811 0.203857 930.211V973.901L64.6611 986.931C67.6739 987.541 71.2756 987.861 75.0472 987.861H75.0586Z" fill="#FFD545" stroke="#DBB10C" stroke-miterlimit="10"/>
<path opacity="0.7" d="M18.8581 924.67C22.0294 924.67 25.2347 924.43 28.1342 923.99L110.34 911.46C116.127 910.58 119.967 908.93 120.386 907.17L125.958 883.67C126.355 882.02 123.399 880.5 118.257 879.69L47.7511 868.57C45.3387 868.19 42.5298 867.99 39.5963 867.99C36.6628 867.99 33.7067 868.19 31.0224 868.57L0.203857 872.93V922.3L10.069 923.99C12.6513 924.43 15.6867 924.67 18.8467 924.67H18.8581Z" fill="#FFD545" stroke="#DBB10C" stroke-miterlimit="10"/>
<path opacity="0.7" d="M25.1664 862.641L37.9424 843.171C38.8258 841.831 36.5946 840.591 32.1547 839.941L0.226196 835.221V868.111L14.3273 866.261C20.0357 865.511 24.1924 864.121 25.1664 862.631V862.641Z" fill="#FFD545" stroke="#DBB10C" stroke-miterlimit="10"/>
<path opacity="0.7" d="M48.9288 838.361C51.647 838.361 54.422 838.191 56.9703 837.881L128.529 829.051C133.535 828.431 136.944 827.281 137.454 826.051L144.182 809.881C144.646 808.761 142.302 807.731 138.077 807.181L80.4608 799.701C78.5014 799.451 76.1909 799.311 73.7557 799.311C71.3206 799.311 68.8402 799.441 66.5636 799.701L0.226196 807.091V831.831L41.5101 837.871C43.6508 838.181 46.2218 838.351 48.9288 838.351V838.361Z" fill="#FFD545" stroke="#DBB10C" stroke-miterlimit="10"/>
<path opacity="0.7" d="M69.2819 795.431L78.2296 781.791C78.4788 781.421 78.2975 781.051 77.7765 780.721H0.226196V804.621L60.5947 797.941C65.2838 797.421 68.6023 796.461 69.2819 795.421V795.431Z" fill="#FFD545" stroke="#DBB10C" stroke-miterlimit="10"/>
<path opacity="0.7" d="M84.8218 797.951L142.234 805.351C144.273 805.611 146.663 805.751 149.132 805.751C151.601 805.751 154.104 805.611 156.369 805.351L219.796 797.951C224.236 797.431 227.113 796.471 227.305 795.431L229.854 781.791C229.921 781.421 229.582 781.051 228.902 780.721H89.726C88.786 781.051 88.1404 781.411 87.9139 781.791L79.3739 795.431C78.7283 796.461 80.8123 797.431 84.8331 797.951H84.8218Z" fill="#FFD545" stroke="#DBB10C" stroke-miterlimit="10"/>
<path opacity="0.7" d="M243.751 797.951L304.629 805.351C306.792 805.611 309.25 805.751 311.719 805.751C314.188 805.751 316.635 805.611 318.764 805.351L378.725 797.951C382.927 797.431 385.339 796.471 385.045 795.431L381.205 781.791C381.103 781.421 380.582 781.051 379.755 780.721H240.579C239.787 781.051 239.322 781.411 239.266 781.791L237.114 795.431C236.955 796.461 239.492 797.431 243.751 797.951V797.951Z" fill="#FFD545" stroke="#DBB10C" stroke-miterlimit="10"/>
<path opacity="0.7" d="M395.386 795.431C395.714 796.461 398.693 797.431 403.201 797.951L467.567 805.351C469.855 805.611 472.37 805.751 474.839 805.751C477.308 805.751 479.686 805.611 481.691 805.351L538.175 797.951C542.128 797.431 544.098 796.471 543.317 795.431L533.067 781.791C532.784 781.421 532.104 781.051 531.119 780.721H391.943C391.308 781.051 391.014 781.411 391.127 781.791L395.386 795.431V795.431Z" fill="#FFD545" stroke="#DBB10C" stroke-miterlimit="10"/>
<path opacity="0.7" d="M729.61 795.5C730.912 796.53 734.808 797.5 739.803 798.02L811.147 805.42C813.673 805.68 816.334 805.82 818.803 805.82C821.273 805.82 823.515 805.68 825.282 805.42L874.8 798.02C878.266 797.5 879.319 796.54 877.564 795.5L854.458 781.86C853.79 781.46 852.669 781.08 851.264 780.74H712.371C711.986 781.09 711.998 781.47 712.496 781.86L729.61 795.5V795.5Z" fill="#FFD545" stroke="#DBB10C" stroke-miterlimit="10"/>
<path opacity="0.7" d="M557.588 795.5C558.392 796.53 561.835 797.5 566.581 798.02L634.425 805.42C636.826 805.68 639.419 805.82 641.889 805.82C644.358 805.82 646.668 805.68 648.56 805.42L701.589 798.02C705.304 797.5 706.81 796.54 705.553 795.5L688.904 781.86C688.416 781.46 687.488 781.08 686.242 780.74H547.349C546.794 781.09 546.624 781.47 546.941 781.86L557.588 795.5Z" fill="#FFD545" stroke="#DBB10C" stroke-miterlimit="10"/>
<path opacity="0.7" d="M893.556 795.5C895.335 796.53 899.684 797.5 904.917 798.02L979.692 805.42C982.342 805.68 985.061 805.82 987.53 805.82C989.999 805.82 992.173 805.68 993.816 805.42L1039.9 798.02C1043.13 797.5 1043.73 796.54 1041.5 795.5L1012.06 781.86C1011.2 781.46 1009.91 781.08 1008.35 780.74H869.454C869.228 781.09 869.409 781.47 870.1 781.86L893.534 795.5H893.556Z" fill="#FFD545" stroke="#DBB10C" stroke-miterlimit="10"/>
<path opacity="0.7" d="M1051.34 795.5C1053.61 796.53 1058.4 797.5 1063.88 798.02L1142.12 805.42C1144.9 805.68 1147.68 805.82 1150.15 805.82C1152.62 805.82 1154.74 805.68 1156.26 805.42L1198.88 798.02C1201.87 797.5 1202.01 796.54 1199.29 795.5L1163.47 781.86C1162.43 781.46 1160.96 781.08 1159.22 780.74H1020.33C1020.26 781.09 1020.64 781.47 1021.5 781.86L1051.33 795.5H1051.34Z" fill="#FFD545" stroke="#DBB10C" stroke-miterlimit="10"/>
<path opacity="0.7" d="M1210.32 795.9C1213.07 796.94 1218.33 797.9 1224.07 798.42L1305.91 805.84C1308.81 806.1 1311.66 806.24 1314.14 806.24C1316.62 806.24 1318.66 806.1 1320.07 805.84L1359.23 798.42C1361.97 797.9 1361.67 796.93 1358.46 795.9L1316.14 782.23C1314.45 781.69 1311.99 781.17 1309.16 780.74H1172.36C1172.02 781.17 1172.57 781.69 1174 782.23L1210.32 795.9Z" fill="#FFD545" stroke="#DBB10C" stroke-miterlimit="10"/>
<path opacity="0.7" d="M1388.11 915.061C1384.86 915.061 1382.21 915.301 1380.48 915.761L1328.73 929.291C1324.9 930.291 1325.3 932.181 1329.77 934.221L1395.7 964.371C1400.8 966.701 1409.65 968.891 1418.76 970.071L1449.98 974.091V921.641L1399.11 915.751C1395.17 915.291 1391.38 915.051 1388.11 915.051V915.061Z" fill="#FFD545" stroke="#DBB10C" stroke-miterlimit="10"/>
<path opacity="0.7" d="M1384.52 831.121C1381.87 831.121 1379.7 831.281 1378.26 831.581L1335.65 840.541C1332.52 841.201 1332.79 842.441 1336.35 843.781L1388.23 863.311C1392.19 864.801 1399.15 866.201 1406.35 866.951L1421.37 868.511C1418.49 868.531 1415.94 868.721 1414.01 869.091L1354.67 880.221C1350.34 881.031 1349.17 882.561 1351.61 884.211L1386.36 907.751C1388.96 909.521 1394.98 911.171 1402.06 912.051L1450 918.031V836.971L1393.49 831.591C1390.3 831.291 1387.22 831.131 1384.56 831.131L1384.52 831.121Z" fill="#FFD545" stroke="#DBB10C" stroke-miterlimit="10"/>
<path opacity="0.7" d="M1380.82 799.69C1378.4 799.69 1376.39 799.82 1375.07 800.08L1335.92 807.57C1333.06 808.12 1333.27 809.15 1336.51 810.27L1383.36 826.48C1386.92 827.71 1393.2 828.87 1399.72 829.49L1449.98 834.25V805.42L1389 800.09C1386.08 799.84 1383.27 799.7 1380.83 799.7L1380.82 799.69Z" fill="#FFD545" stroke="#DBB10C" stroke-miterlimit="10"/>
<path opacity="0.7" d="M1323.21 780.731C1323.08 781.161 1323.86 781.681 1325.56 782.221L1368.28 795.891C1371.52 796.931 1377.24 797.891 1383.21 798.411L1449.98 804.221V780.721H1323.21V780.731Z" fill="#FFD545" stroke="#DBB10C" stroke-miterlimit="10"/>
<path opacity="0.7" d="M1305.87 991.27L1180.91 974C1176.71 973.42 1172.57 973.11 1168.88 973.11C1165.2 973.11 1162.11 973.41 1159.9 974L1093.95 991.27C1089.06 992.55 1088.42 994.97 1092.34 997.6L1132.73 1024.73H1381.44L1329.13 997.6C1324.05 994.97 1315.15 992.55 1305.87 991.27Z" fill="#FFD545" stroke="#DBB10C" stroke-miterlimit="10"/>
<path opacity="0.7" d="M304.402 991.201L211.947 973.941C208.832 973.361 205.264 973.051 201.583 973.051C197.902 973.051 194.233 973.351 190.937 973.941L92.5123 991.201C85.2183 992.481 80.0309 994.901 79.0002 997.531L68.3309 1024.74H317.054L315.763 997.531C315.638 994.901 311.277 992.481 304.414 991.201H304.402Z" fill="#FFD545" stroke="#DBB10C" stroke-miterlimit="10"/>
<path opacity="0.7" d="M553.895 991.201L453.342 973.941C449.966 973.361 446.24 973.051 442.57 973.051C438.901 973.051 435.367 973.351 432.332 973.941L341.994 991.201C335.289 992.481 331.245 994.901 331.449 997.531L333.533 1024.74H582.245L568.2 997.531C566.841 994.901 561.359 992.481 553.884 991.201H553.895Z" fill="#FFD545" stroke="#DBB10C" stroke-miterlimit="10"/>
<path opacity="0.7" d="M804.057 991.12L695.405 973.86C691.758 973.28 687.895 972.98 684.214 972.98C680.533 972.98 677.147 973.28 674.395 973.86L592.189 991.12C586.096 992.4 583.185 994.821 584.612 997.451L599.529 1024.74H848.24L821.329 997.451C818.735 994.821 812.11 992.4 804.045 991.12H804.057Z" fill="#FFD545" stroke="#DBB10C" stroke-miterlimit="10"/>
<path opacity="0.7" d="M1053.54 991.27L936.766 974C932.847 973.42 928.837 973.11 925.168 973.11C921.498 973.11 918.247 973.41 915.767 974L841.626 991.27C836.121 992.55 834.343 994.97 837.016 997.6L864.55 1024.73H1113.26L1073.8 997.6C1069.97 994.97 1062.21 992.55 1053.55 991.27H1053.54Z" fill="#FFD545" stroke="#DBB10C" stroke-miterlimit="10"/>
<path opacity="0.7" d="M1407.22 973.121C1403.56 973.121 1400.58 973.421 1398.65 974.011L1340.69 991.281C1336.4 992.561 1336.87 994.981 1342 997.611L1394.97 1024.74H1449.98V977.951L1419.66 974.011C1415.18 973.431 1410.89 973.121 1407.22 973.121Z" fill="#FFD545" stroke="#DBB10C" stroke-miterlimit="10"/>
<path opacity="0.7" d="M0.226196 979.451V1024.73H54.7844L66.0992 997.521C67.1979 994.891 63.9586 992.471 57.6839 991.191L0.226196 979.451Z" fill="#FFD545" stroke="#DBB10C" stroke-miterlimit="10"/>
</g>
<path d="M996.21 754.48L451.469 756.4L451.322 749.92L996.063 748L996.21 754.48Z" fill="#382E18"/>
<path d="M169.982 659.08C177 623.94 180.814 586.27 180.814 547.08C180.814 368.51 101.726 221.45 0 202.15V892C42.8435 883.87 81.6799 853.07 112.276 806.79C103.107 795.92 86.7849 773.97 72.9867 741.53C52.5328 693.44 59.9696 628.62 59.9696 628.62L169.982 659.07V659.08Z" fill="url(#paint2_linear_548_50)"/>
<path d="M234.309 1025L50.9368 1024C50.9368 1024 135.831 931 177.713 893C200.34 872.47 225.254 799 225.254 799L372.404 842C372.404 842 358.821 875 333.919 896C309.016 917 234.309 1025 234.309 1025Z" fill="url(#paint3_linear_548_50)"/>
<path d="M208.026 658.92C208.026 658.92 190.243 627.63 228.559 614.03C266.875 600.43 315.842 592.82 339.25 605.37C362.67 617.92 381.822 639.29 388.206 643.18C394.59 647.07 415.882 685.92 420.138 695.64C424.394 705.35 443.557 753.93 413.754 792.79C383.95 831.65 379.694 854.96 345.634 858.85C339.024 859.6 332.481 859.81 326.199 859.7C300.153 859.25 278.839 853.38 277.515 858.85C271.651 883.01 234.264 893.31 212.972 866.11C211.761 864.56 210.641 862.88 209.622 861.1C208.467 859.08 218.756 806.92 217.828 804.65C205.23 773.76 212.395 721.62 207.007 705.84C200.872 687.88 208.014 658.94 208.014 658.94L208.026 658.92Z" fill="url(#paint4_radial_548_50)"/>
<path d="M441.112 828.441H197.555C197.555 828.441 203.838 771.231 204.992 753.171C207.777 709.581 198.427 642.791 197.555 650.721H441.112C441.112 650.721 446.693 696.011 446.693 738.541C446.693 781.071 441.112 828.451 441.112 828.451V828.441Z" fill="url(#paint5_linear_548_50)"/>
<path d="M421.587 832.62C420.047 832.62 418.802 831.21 418.802 829.48C418.802 829.48 420.296 827.9 420.658 820.07C421.711 797.32 422.515 747.28 422.515 730.16C422.515 713.04 421.711 674.32 420.658 656.98C420.307 651.11 418.802 649.66 418.802 649.66C418.802 647.94 420.058 646.521 421.587 646.521C423.126 646.521 424.371 647.93 424.371 649.66C424.371 649.66 426.227 714.3 426.227 737.91C426.227 761.52 424.371 829.47 424.371 829.47C424.371 831.19 423.115 832.61 421.587 832.61V832.62Z" fill="url(#paint6_linear_548_50)"/>
<path d="M408.569 832.62C407.03 832.62 405.785 831.21 405.785 829.48C405.785 829.48 407.279 827.9 407.641 820.07C408.694 797.32 409.498 747.28 409.498 730.16C409.498 713.04 408.694 674.32 407.641 656.98C407.29 651.11 405.785 649.66 405.785 649.66C405.785 647.94 407.041 646.521 408.569 646.521C410.109 646.521 411.354 647.93 411.354 649.66C411.354 649.66 413.21 714.3 413.21 737.91C413.21 761.52 411.354 829.47 411.354 829.47C411.354 831.19 410.098 832.61 408.569 832.61V832.62Z" fill="url(#paint7_linear_548_50)"/>
<path d="M395.564 832.62C394.024 832.62 392.779 831.21 392.779 829.48C392.779 829.48 394.273 827.9 394.635 820.07C395.688 797.32 396.492 747.28 396.492 730.16C396.492 713.04 395.688 674.32 394.635 656.98C394.285 651.11 392.779 649.66 392.779 649.66C392.779 647.94 394.036 646.521 395.564 646.521C397.103 646.521 398.348 647.93 398.348 649.66C398.348 649.66 400.205 714.3 400.205 737.91C400.205 761.52 398.348 829.47 398.348 829.47C398.348 831.19 397.092 832.61 395.564 832.61V832.62Z" fill="url(#paint8_linear_548_50)"/>
<path d="M246.817 832.62C245.277 832.62 244.032 831.21 244.032 829.48C244.032 829.48 245.526 827.9 245.889 820.07C246.941 797.32 247.745 747.28 247.745 730.16C247.745 713.04 246.941 674.32 245.889 656.98C245.538 651.11 244.032 649.66 244.032 649.66C244.032 647.94 245.289 646.521 246.817 646.521C248.356 646.521 249.601 647.93 249.601 649.66C249.601 649.66 251.458 714.3 251.458 737.91C251.458 761.52 249.601 829.47 249.601 829.47C249.601 831.19 248.345 832.61 246.817 832.61V832.62Z" fill="url(#paint9_linear_548_50)"/>
<path d="M233.811 832.62C232.272 832.62 231.027 831.21 231.027 829.48C231.027 829.48 232.521 827.9 232.883 820.07C233.936 797.32 234.739 747.28 234.739 730.16C234.739 713.04 233.936 674.32 232.883 656.98C232.532 651.11 231.027 649.66 231.027 649.66C231.027 647.94 232.283 646.521 233.811 646.521C235.35 646.521 236.596 647.93 236.596 649.66C236.596 649.66 238.452 714.3 238.452 737.91C238.452 761.52 236.596 829.47 236.596 829.47C236.596 831.19 235.339 832.61 233.811 832.61V832.62Z" fill="url(#paint10_linear_548_50)"/>
<path d="M220.794 832.62C219.254 832.62 218.009 831.21 218.009 829.48C218.009 829.48 219.504 827.9 219.866 820.07C220.918 797.32 221.722 747.28 221.722 730.16C221.722 713.04 220.918 674.32 219.866 656.98C219.515 651.11 218.009 649.66 218.009 649.66C218.009 647.94 219.266 646.521 220.794 646.521C222.333 646.521 223.578 647.93 223.578 649.66C223.578 649.66 225.435 714.3 225.435 737.91C225.435 761.52 223.578 829.47 223.578 829.47C223.578 831.19 222.322 832.61 220.794 832.61V832.62Z" fill="url(#paint11_linear_548_50)"/>
<path d="M203.125 828.441C201.585 828.441 197.544 828.071 197.544 826.351C197.544 826.351 202.762 811.181 203.125 803.351C204.177 780.601 206.849 743.101 206.849 725.991C206.849 708.881 204.992 673.721 201.268 661.171C199.616 655.581 197.544 650.721 197.544 650.721C197.544 649.001 204.981 649.001 204.981 650.721C204.981 650.721 206.475 650.621 206.837 654.901C208.275 671.591 210.561 714.951 210.561 733.741C210.561 753.781 208.467 795.751 206.837 811.711C206.543 814.561 203.113 828.441 203.113 828.441H203.125Z" fill="url(#paint12_linear_548_50)"/>
<path d="M441.112 828.441C439.573 828.441 435.532 828.071 435.532 826.351C435.532 826.351 440.75 811.181 441.112 803.351C442.165 780.601 444.837 743.101 444.837 725.991C444.837 708.881 442.98 673.721 439.256 661.171C437.603 655.581 435.532 650.721 435.532 650.721C435.532 649.001 442.969 649.001 442.969 650.721C442.969 650.721 444.463 650.621 444.825 654.901C446.263 671.591 448.549 714.951 448.549 733.741C448.549 753.781 446.455 795.751 444.825 811.711C444.531 814.561 441.101 828.441 441.101 828.441L441.112 828.441Z" fill="url(#paint13_linear_548_50)"/>
<path d="M206.849 730.171C206.849 779.251 201.053 828.441 198.484 828.441C195.914 828.441 193.831 788.661 193.831 739.581C193.831 690.501 195.914 650.721 198.484 650.721C201.053 650.721 206.849 681.101 206.849 730.171Z" fill="url(#paint14_linear_548_50)"/>
<path d="M310.601 544.08H288.098C281.222 544.08 275.647 549.005 275.647 555.08V675.26C275.647 681.335 281.222 686.26 288.098 686.26H310.601C317.478 686.26 323.052 681.335 323.052 675.26V555.08C323.052 549.005 317.478 544.08 310.601 544.08Z" fill="#FDD7B7"/>
<path d="M361.651 573.351H336.964C331.025 573.351 326.21 577.604 326.21 582.851V685.121C326.21 690.367 331.025 694.621 336.964 694.621H361.651C367.59 694.621 372.404 690.367 372.404 685.121V582.851C372.404 577.604 367.59 573.351 361.651 573.351Z" fill="url(#paint15_linear_548_50)"/>
<path d="M241.848 891.39L232.509 888.88C220.307 885.6 212.123 874.22 214.319 863.58L230.676 784.2C232.871 773.57 244.644 767.55 256.834 770.82L266.173 773.33C278.375 776.61 286.559 787.99 284.363 798.63L268.007 878.01C265.811 888.64 254.039 894.66 241.848 891.39Z" fill="url(#paint16_linear_548_50)"/>
<path d="M260.887 573.351H236.2C230.261 573.351 225.446 577.604 225.446 582.851V685.121C225.446 690.367 230.261 694.621 236.2 694.621H260.887C266.826 694.621 271.64 690.367 271.64 685.121V582.851C271.64 577.604 266.826 573.351 260.887 573.351Z" fill="url(#paint17_linear_548_50)"/>
<path d="M233.109 659.71C233.109 659.71 238.837 656 246.76 657C254.684 658 261.475 657 262.607 660C263.739 663 264.871 681 264.871 684C264.871 687 263.739 689 255.816 690C247.892 691 238.565 690 234.739 690C230.913 690 228.649 684 228.649 680C228.649 676 233.109 659.71 233.109 659.71Z" fill="#FFF7EE"/>
<path d="M267.056 810.74C267.056 810.74 259.257 812.75 250.235 809.6C241.214 806.45 232.951 805.55 232.487 802.34C232.023 799.13 235.917 781.42 236.788 778.52C237.66 775.62 239.573 774 249.171 775.21C258.77 776.42 269.444 779.96 273.938 781.01C278.432 782.06 279.349 788.48 278.194 792.35C277.039 796.22 267.067 810.74 267.067 810.74H267.056Z" fill="#FFF7EE"/>
<path d="M285.178 652.71C285.178 652.71 290.906 649 298.829 650C306.753 651 313.544 650 314.676 653C315.808 656 316.94 674 316.94 677C316.94 680 315.808 682 307.885 683C299.961 684 290.634 683 286.808 683C282.982 683 280.718 677 280.718 673C280.718 669 285.178 652.71 285.178 652.71Z" fill="#FFF7EE"/>
<path d="M333.851 659.71C333.851 659.71 339.578 656 347.502 657C355.425 658 362.217 657 363.349 660C364.481 663 365.613 681 365.613 684C365.613 687 364.481 689 356.557 690C348.634 691 339.307 690 335.481 690C331.655 690 329.391 684 329.391 680C329.391 676 333.851 659.71 333.851 659.71Z" fill="#FFF7EE"/>
<path d="M1328.86 1025H1450V937.171C1418.16 929.781 1373.36 918.571 1354.27 910.001C1323.12 896.001 1182.86 819.001 1182.86 819.001L1101.37 873.001C1101.37 873.001 1224.51 959.001 1251.91 980.001C1265.51 990.421 1298.79 1008.96 1328.86 1025Z" fill="url(#paint18_linear_548_50)"/>
<path d="M1027.16 686.991L998.949 709.691C987.166 719.181 970.617 716.091 962.184 702.841L960.395 700.031C951.963 686.781 954.702 668.171 966.485 658.691L994.693 635.991C1006.48 626.501 1023.03 629.591 1031.46 642.841L1033.25 645.651C1041.68 658.901 1038.94 677.511 1027.16 686.991Z" fill="#FFDBAE"/>
<path d="M1229.27 800.371C1229.27 800.371 1227.02 848.461 1193.17 861.001C1159.31 873.551 1084.84 879.821 1053.24 861.001C1021.64 842.181 1000.05 781.721 1021 768.041C1041.95 754.371 1123.2 750.181 1159.31 754.371C1195.42 758.551 1229.27 800.371 1229.27 800.371Z" fill="#FFDBAE"/>
<path d="M1003.66 831.731H1257.88C1257.88 831.731 1251.32 774.521 1250.11 756.461C1247.2 712.871 1256.97 646.081 1257.88 654.011H1003.66C1003.66 654.011 997.84 699.301 997.84 741.831C997.84 784.361 1003.66 831.741 1003.66 831.741V831.731Z" fill="url(#paint19_linear_548_50)"/>
<path d="M1024.03 835.921C1025.63 835.921 1026.94 834.511 1026.94 832.781C1026.94 832.781 1025.38 831.201 1025.01 823.371C1023.91 800.621 1023.07 750.581 1023.07 733.461C1023.07 716.341 1023.92 677.621 1025.01 660.281C1025.38 654.411 1026.94 652.961 1026.94 652.961C1026.94 651.241 1025.63 649.821 1024.03 649.821C1022.44 649.821 1021.12 651.231 1021.12 652.961C1021.12 652.961 1019.19 717.601 1019.19 741.211C1019.19 764.821 1021.12 832.771 1021.12 832.771C1021.12 834.491 1022.44 835.911 1024.03 835.911V835.921Z" fill="url(#paint20_linear_548_50)"/>
<path d="M1037.63 835.921C1039.22 835.921 1040.54 834.511 1040.54 832.781C1040.54 832.781 1038.97 831.201 1038.6 823.371C1037.5 800.621 1036.66 750.581 1036.66 733.461C1036.66 716.341 1037.51 677.621 1038.6 660.281C1038.97 654.411 1040.54 652.961 1040.54 652.961C1040.54 651.241 1039.22 649.821 1037.63 649.821C1036.03 649.821 1034.72 651.231 1034.72 652.961C1034.72 652.961 1032.78 717.601 1032.78 741.211C1032.78 764.821 1034.72 832.771 1034.72 832.771C1034.72 834.491 1036.03 835.911 1037.63 835.911V835.921Z" fill="url(#paint21_linear_548_50)"/>
<path d="M1051.21 835.921C1052.81 835.921 1054.12 834.511 1054.12 832.781C1054.12 832.781 1052.56 831.201 1052.18 823.371C1051.09 800.621 1050.25 750.581 1050.25 733.461C1050.25 716.341 1051.1 677.621 1052.18 660.281C1052.56 654.411 1054.12 652.961 1054.12 652.961C1054.12 651.241 1052.81 649.821 1051.21 649.821C1049.61 649.821 1048.3 651.231 1048.3 652.961C1048.3 652.961 1046.37 717.601 1046.37 741.211C1046.37 764.821 1048.3 832.771 1048.3 832.771C1048.3 834.491 1049.61 835.911 1051.21 835.911V835.921Z" fill="url(#paint22_linear_548_50)"/>
<path d="M1206.45 835.921C1208.05 835.921 1209.36 834.511 1209.36 832.781C1209.36 832.781 1207.8 831.201 1207.43 823.371C1206.33 800.621 1205.49 750.581 1205.49 733.461C1205.49 716.341 1206.34 677.621 1207.43 660.281C1207.8 654.411 1209.36 652.961 1209.36 652.961C1209.36 651.241 1208.05 649.821 1206.45 649.821C1204.86 649.821 1203.55 651.231 1203.55 652.961C1203.55 652.961 1201.61 717.601 1201.61 741.211C1201.61 764.821 1203.55 832.771 1203.55 832.771C1203.55 834.491 1204.86 835.911 1206.45 835.911V835.921Z" fill="url(#paint23_linear_548_50)"/>
<path d="M1220.04 835.921C1221.63 835.921 1222.95 834.511 1222.95 832.781C1222.95 832.781 1221.38 831.201 1221.01 823.371C1219.91 800.621 1219.07 750.581 1219.07 733.461C1219.07 716.341 1219.92 677.621 1221.01 660.281C1221.38 654.411 1222.95 652.961 1222.95 652.961C1222.95 651.241 1221.63 649.821 1220.04 649.821C1218.44 649.821 1217.13 651.231 1217.13 652.961C1217.13 652.961 1215.19 717.601 1215.19 741.211C1215.19 764.821 1217.13 832.771 1217.13 832.771C1217.13 834.491 1218.44 835.911 1220.04 835.911V835.921Z" fill="url(#paint24_linear_548_50)"/>
<path d="M1233.62 835.921C1235.22 835.921 1236.53 834.511 1236.53 832.781C1236.53 832.781 1234.97 831.201 1234.59 823.371C1233.5 800.621 1232.66 750.581 1232.66 733.461C1232.66 716.341 1233.51 677.621 1234.59 660.281C1234.97 654.411 1236.53 652.961 1236.53 652.961C1236.53 651.241 1235.22 649.821 1233.62 649.821C1232.02 649.821 1230.71 651.231 1230.71 652.961C1230.71 652.961 1228.78 717.601 1228.78 741.211C1228.78 764.821 1230.71 832.771 1230.71 832.771C1230.71 834.491 1232.02 835.911 1233.62 835.911V835.921Z" fill="url(#paint25_linear_548_50)"/>
<path d="M1252.06 831.732C1253.66 831.732 1257.88 831.362 1257.88 829.642C1257.88 829.642 1252.43 814.472 1252.06 806.642C1250.96 783.892 1248.18 746.392 1248.18 729.282C1248.18 712.172 1250.11 677.012 1253.99 664.462C1255.73 658.872 1257.88 654.011 1257.88 654.011C1257.88 652.291 1250.11 652.292 1250.11 654.012C1250.11 654.012 1248.56 653.912 1248.18 658.192C1246.67 674.882 1244.29 718.242 1244.29 737.032C1244.29 757.072 1246.48 799.042 1248.18 815.002C1248.48 817.852 1252.06 831.732 1252.06 831.732Z" fill="url(#paint26_linear_548_50)"/>
<path d="M1003.66 831.731C1005.25 831.731 1009.48 831.362 1009.48 829.642C1009.48 829.642 1004.03 814.472 1003.66 806.642C1002.56 783.892 999.775 746.392 999.775 729.282C999.775 712.172 1001.71 677.012 1005.59 664.462C1007.33 658.872 1009.48 654.012 1009.48 654.012C1009.48 652.292 1001.71 652.292 1001.71 654.012C1001.71 654.012 1000.16 653.912 999.775 658.192C998.27 674.882 995.893 718.242 995.893 737.032C995.893 757.072 998.077 799.042 999.775 815.002C1000.08 817.852 1003.66 831.731 1003.66 831.731Z" fill="url(#paint27_linear_548_50)"/>
<path d="M1248.18 733.462C1248.18 782.542 1254.23 831.732 1256.92 831.732C1259.6 831.732 1261.77 791.952 1261.77 742.872C1261.77 693.792 1259.6 654.012 1256.92 654.012C1254.23 654.012 1248.18 684.392 1248.18 733.462Z" fill="url(#paint28_linear_548_50)"/>
<path d="M1178.1 614.291H1146.5C1139.31 614.291 1133.48 619.44 1133.48 625.791V650.881C1133.48 657.232 1139.31 662.381 1146.5 662.381H1178.1C1185.29 662.381 1191.12 657.232 1191.12 650.881V625.791C1191.12 619.44 1185.29 614.291 1178.1 614.291Z" fill="#FFDBAE"/>
<path d="M1114.32 582.921H1094.57C1087.07 582.921 1080.99 588.293 1080.99 594.921V650.371C1080.99 656.998 1087.07 662.371 1094.57 662.371H1114.32C1121.82 662.371 1127.9 656.998 1127.9 650.371V594.921C1127.9 588.293 1121.82 582.921 1114.32 582.921Z" fill="#FFDBAE"/>
<path d="M1061.14 601.741H1042.22C1034.1 601.741 1027.51 607.562 1027.51 614.741V659.831C1027.51 667.011 1034.1 672.831 1042.22 672.831H1061.14C1069.26 672.831 1075.85 667.011 1075.85 659.831V614.741C1075.85 607.562 1069.26 601.741 1061.14 601.741Z" fill="#FFDBAE"/>
<path d="M1089.98 628.711C1089.98 628.711 1095.71 625.001 1103.63 626.001C1111.55 627.001 1118.34 626.001 1119.48 629.001C1120.61 632.001 1121.74 650.001 1121.74 653.001C1121.74 656.001 1120.61 658.001 1112.69 659.001C1104.76 660.001 1095.43 659.001 1091.61 659.001C1087.78 659.001 1085.52 653.001 1085.52 649.001C1085.52 645.001 1089.98 628.711 1089.98 628.711Z" fill="#FFF7EE"/>
<path d="M1040.17 634.711C1040.17 634.711 1045.9 631.001 1053.83 632.001C1061.75 633.001 1068.54 632.001 1069.67 635.001C1070.8 638.001 1071.94 656.001 1071.94 659.001C1071.94 662.001 1070.8 664.001 1062.88 665.001C1054.96 666.001 1045.63 665.001 1041.8 665.001C1037.98 665.001 1035.71 659.001 1035.71 655.001C1035.71 651.001 1040.17 634.711 1040.17 634.711Z" fill="#FFF7EE"/>
<path d="M1146.56 624.711C1146.56 624.711 1153.72 621.001 1163.62 622.001C1173.53 623.001 1182.02 622.001 1183.43 625.001C1184.85 628.001 1186.26 646.001 1186.26 649.001C1186.26 652.001 1184.85 654.001 1174.94 655.001C1165.04 656.001 1153.37 655.001 1148.59 655.001C1143.81 655.001 1140.98 649.001 1140.98 645.001C1140.98 641.001 1146.56 624.711 1146.56 624.711Z" fill="#FFF7EE"/>
<path d="M1007.18 629.221L995.689 633.931L976.243 648.861C978.733 652.091 981.45 653.791 981.45 653.791C981.45 653.791 1000.64 652.641 1004.89 651.391C1009.15 650.141 1014.6 646.251 1013.03 642.871C1011.83 640.291 1009.93 634.711 1007.18 629.231V629.221Z" fill="#FFF7EE"/>
<path d="M1373.03 665.001L1309.64 649.001C1309.64 649.001 1292.66 673.001 1288.13 686.001C1283.61 699.001 1281.34 727.001 1288.13 732.001C1294.93 737.001 1328.88 751.001 1334.54 766.001C1340.2 781.001 1392.27 799.001 1392.27 799.001C1392.27 799.001 1375.29 766.001 1374.16 759.001C1373.03 752.001 1356.05 689.001 1356.05 684.001C1356.05 679.001 1373.03 665.001 1373.03 665.001Z" fill="url(#paint29_linear_548_50)"/>
<path d="M1450 412.641C1405.16 468.071 1372.83 547.881 1360.85 639.581C1360.58 625.001 1330.63 608.851 1322.09 611.001C1298.82 616.861 1283.98 629.541 1275.25 664.701C1266.53 699.861 1272.34 740.881 1286.89 761.381C1301.43 781.891 1326.33 822.191 1361.23 816.331C1361.99 816.201 1362.72 816.091 1363.45 815.981C1377.1 900.151 1408.1 973.221 1449.99 1025.01V412.641H1450ZM1343.56 749.141C1333.41 738.551 1323.82 728.541 1318.66 718.131C1313.76 708.261 1310.84 697.911 1309.17 690.401C1305.4 697.211 1298 717.371 1298 717.371C1292.2 696.921 1302.31 683.821 1310.42 673.301C1311.38 672.051 1312.33 670.821 1313.25 669.581C1315.12 667.081 1317.86 665.551 1321.19 665.161C1335.43 663.481 1360.37 684.071 1363.18 686.421L1355.74 683.801C1346.26 675.851 1330.12 673.031 1322.21 673.891C1321.01 674.031 1320.54 674.461 1320.25 674.861C1319.3 676.131 1318.31 677.411 1317.33 678.701C1316.93 679.211 1316.53 679.721 1316.15 680.231C1316.92 685.251 1319.67 700.471 1326.48 714.201C1331.06 723.401 1340.19 732.941 1349.86 743.031C1357.83 751.341 1358.02 753.831 1364.64 763.171L1375.76 781.851C1369.51 773.041 1351.31 757.231 1343.56 749.141Z" fill="url(#paint30_linear_548_50)"/>
<path opacity="0.3" d="M1379.17 156.765H82.9194C75.8314 156.765 70.0853 162.266 70.0853 169.052V966.713C70.0853 973.499 75.8314 979 82.9194 979H1379.17C1386.25 979 1392 973.499 1392 966.713V169.052C1392 162.266 1386.25 156.765 1379.17 156.765Z" fill="white" fill-opacity="0.8"/>
<path opacity="0.7" d="M1381.85 54H72.0641C68.715 54 66 56.5994 66 59.8058V126.015C66 129.221 68.715 131.821 72.0641 131.821H1381.85C1385.2 131.821 1387.91 129.221 1387.91 126.015V59.8058C1387.91 56.5994 1385.2 54 1381.85 54Z" fill="white" fill-opacity="0.8"/>
</g>
<defs>
<radialGradient id="paint0_radial_548_50" cx="0" cy="0" r="1" gradientUnits="userSpaceOnUse" gradientTransform="translate(716.78 392.779) scale(646.443 453.244)">
<stop stop-color="white"/>
<stop offset="1" stop-color="#A4D8E6"/>
</radialGradient>
<linearGradient id="paint1_linear_548_50" x1="724.989" y1="1024.73" x2="724.989" y2="784.73" gradientUnits="userSpaceOnUse">
<stop offset="0.13" stop-color="#FFDD80"/>
<stop offset="0.36" stop-color="#F6C55B"/>
<stop offset="0.64" stop-color="#EDAE36"/>
<stop offset="0.86" stop-color="#E7A020"/>
<stop offset="1" stop-color="#E69B18"/>
</linearGradient>
<linearGradient id="paint2_linear_548_50" x1="448.549" y1="613.569" x2="0" y2="613.569" gradientUnits="userSpaceOnUse">
<stop stop-color="#FFE9C4"/>
<stop offset="1" stop-color="#CFA782"/>
</linearGradient>
<linearGradient id="paint3_linear_548_50" x1="36.3262" y1="1105.1" x2="655.764" y2="836.394" gradientUnits="userSpaceOnUse">
<stop stop-color="#FFE9C4"/>
<stop offset="0.74" stop-color="#DBB893"/>
<stop offset="1" stop-color="#CFA782"/>
</linearGradient>
<radialGradient id="paint4_radial_548_50" cx="0" cy="0" r="1" gradientUnits="userSpaceOnUse" gradientTransform="translate(224.282 613.544) scale(275.094 356.011)">
<stop stop-color="#FFE9C4"/>
<stop offset="0.68" stop-color="#DBB893"/>
<stop offset="0.99" stop-color="#CFA782"/>
</radialGradient>
<linearGradient id="paint5_linear_548_50" x1="224.275" y1="202.135" x2="224.275" y2="1024.95" gradientUnits="userSpaceOnUse">
<stop stop-color="#D1DF8C"/>
<stop offset="0.59" stop-color="#096B30"/>
<stop offset="1" stop-color="#0F2919"/>
</linearGradient>
<linearGradient id="paint6_linear_548_50" x1="224.274" y1="202.195" x2="224.274" y2="1025" gradientUnits="userSpaceOnUse">
<stop offset="0.02" stop-color="#CEE6D6"/>
<stop offset="0.2" stop-color="#D1DF8C"/>
<stop offset="0.83" stop-color="#096B30"/>
<stop offset="1" stop-color="#0F2919"/>
</linearGradient>
<linearGradient id="paint7_linear_548_50" x1="224.275" y1="-2652.05" x2="224.275" y2="-2652.05" gradientUnits="userSpaceOnUse">
<stop offset="0.02" stop-color="#CEE6D6"/>
<stop offset="0.2" stop-color="#D1DF8C"/>
<stop offset="0.83" stop-color="#096B30"/>
<stop offset="1" stop-color="#0F2919"/>
</linearGradient>
<linearGradient id="paint8_linear_548_50" x1="224.275" y1="-2652.05" x2="224.275" y2="-2652.05" gradientUnits="userSpaceOnUse">
<stop offset="0.02" stop-color="#CEE6D6"/>
<stop offset="0.2" stop-color="#D1DF8C"/>
<stop offset="0.83" stop-color="#096B30"/>
<stop offset="1" stop-color="#0F2919"/>
</linearGradient>
<linearGradient id="paint9_linear_548_50" x1="224.958" y1="-2652.05" x2="224.958" y2="-2652.05" gradientUnits="userSpaceOnUse">
<stop offset="0.02" stop-color="#CEE6D6"/>
<stop offset="0.2" stop-color="#D1DF8C"/>
<stop offset="0.83" stop-color="#096B30"/>
<stop offset="1" stop-color="#0F2919"/>
</linearGradient>
<linearGradient id="paint10_linear_548_50" x1="224.275" y1="-2652.05" x2="224.275" y2="-2652.05" gradientUnits="userSpaceOnUse">
<stop offset="0.02" stop-color="#CEE6D6"/>
<stop offset="0.2" stop-color="#D1DF8C"/>
<stop offset="0.83" stop-color="#096B30"/>
<stop offset="1" stop-color="#0F2919"/>
</linearGradient>
<linearGradient id="paint11_linear_548_50" x1="224.275" y1="-2652.05" x2="224.275" y2="-2652.05" gradientUnits="userSpaceOnUse">
<stop offset="0.02" stop-color="#CEE6D6"/>
<stop offset="0.2" stop-color="#D1DF8C"/>
<stop offset="0.83" stop-color="#096B30"/>
<stop offset="1" stop-color="#0F2919"/>
</linearGradient>
<linearGradient id="paint12_linear_548_50" x1="224.665" y1="202.104" x2="224.665" y2="1025" gradientUnits="userSpaceOnUse">
<stop offset="0.02" stop-color="#CEE6D6"/>
<stop offset="0.2" stop-color="#D1DF8C"/>
<stop offset="0.83" stop-color="#3A712E"/>
<stop offset="1" stop-color="#382E18"/>
</linearGradient>
<linearGradient id="paint13_linear_548_50" x1="224.275" y1="-2778.47" x2="224.275" y2="-2778.47" gradientUnits="userSpaceOnUse">
<stop offset="0.02" stop-color="#CEE6D6"/>
<stop offset="0.2" stop-color="#D1DF8C"/>
<stop offset="0.83" stop-color="#3A712E"/>
<stop offset="1" stop-color="#382E18"/>
</linearGradient>
<linearGradient id="paint14_linear_548_50" x1="0" y1="613.575" x2="448.549" y2="613.575" gradientUnits="userSpaceOnUse">
<stop stop-color="#D1DF8C"/>
<stop offset="0.59" stop-color="#096B30"/>
<stop offset="1" stop-color="#0F2919"/>
</linearGradient>
<linearGradient id="paint15_linear_548_50" x1="0" y1="613.609" x2="448.549" y2="613.609" gradientUnits="userSpaceOnUse">
<stop stop-color="#FFE9C4"/>
<stop offset="1" stop-color="#D8AD88"/>
</linearGradient>
<linearGradient id="paint16_linear_548_50" x1="0.034565" y1="613.609" x2="448.515" y2="613.609" gradientUnits="userSpaceOnUse">
<stop stop-color="#FFE9C4"/>
<stop offset="1" stop-color="#D8AD88"/>
</linearGradient>
<linearGradient id="paint17_linear_548_50" x1="0" y1="-3681.4" x2="448.439" y2="-3681.4" gradientUnits="userSpaceOnUse">
<stop stop-color="#FFE9C4"/>
<stop offset="1" stop-color="#D8AD88"/>
</linearGradient>
<linearGradient id="paint18_linear_548_50" x1="955.5" y1="718.826" x2="1450" y2="718.826" gradientUnits="userSpaceOnUse">
<stop stop-color="#FFE9C4"/>
<stop offset="0.69" stop-color="#F3CBA3"/>
<stop offset="1" stop-color="#BF9A79"/>
</linearGradient>
<linearGradient id="paint19_linear_548_50" x1="1227.6" y1="412.663" x2="1227.6" y2="1024.98" gradientUnits="userSpaceOnUse">
<stop stop-color="#FFA439"/>
<stop offset="0.59" stop-color="#E97505"/>
<stop offset="1" stop-color="#522810"/>
</linearGradient>
<linearGradient id="paint20_linear_548_50" x1="2060.12" y1="412.674" x2="2060.12" y2="1025.01" gradientUnits="userSpaceOnUse">
<stop stop-color="#F3CEAB"/>
<stop offset="0.77" stop-color="#E97505"/>
<stop offset="1" stop-color="#7F3211"/>
</linearGradient>
<linearGradient id="paint21_linear_548_50" x1="2056.51" y1="-1722.33" x2="2056.51" y2="-1722.33" gradientUnits="userSpaceOnUse">
<stop stop-color="#F3F0AB"/>
<stop offset="0.77" stop-color="#E97505"/>
<stop offset="1" stop-color="#7F3211"/>
</linearGradient>
<linearGradient id="paint22_linear_548_50" x1="2053.62" y1="-1722.33" x2="2053.62" y2="-1722.33" gradientUnits="userSpaceOnUse">
<stop stop-color="#F3F0AB"/>
<stop offset="0.77" stop-color="#E97505"/>
<stop offset="1" stop-color="#7F3211"/>
</linearGradient>
<linearGradient id="paint23_linear_548_50" x1="2017.96" y1="-1722.33" x2="2017.96" y2="-1722.33" gradientUnits="userSpaceOnUse">
<stop stop-color="#F3F0AB"/>
<stop offset="0.661458" stop-color="#F7800D"/>
<stop offset="1" stop-color="#7F3211"/>
</linearGradient>
<linearGradient id="paint24_linear_548_50" x1="2014.32" y1="-1722.33" x2="2014.32" y2="-1722.33" gradientUnits="userSpaceOnUse">
<stop stop-color="#F3F0AB"/>
<stop offset="0.77" stop-color="#E97505"/>
<stop offset="1" stop-color="#7F3211"/>
</linearGradient>
<linearGradient id="paint25_linear_548_50" x1="2011.43" y1="-1722.33" x2="2011.43" y2="-1722.33" gradientUnits="userSpaceOnUse">
<stop stop-color="#F3F0AB"/>
<stop offset="0.77" stop-color="#E97505"/>
<stop offset="1" stop-color="#7F3211"/>
</linearGradient>
<linearGradient id="paint26_linear_548_50" x1="1662.29" y1="412.641" x2="1662.29" y2="1025.01" gradientUnits="userSpaceOnUse">
<stop stop-color="#F3F0AB"/>
<stop offset="0.77" stop-color="#E97505"/>
<stop offset="1" stop-color="#7F3211"/>
</linearGradient>
<linearGradient id="paint27_linear_548_50" x1="1694.84" y1="412.641" x2="1694.84" y2="1025.01" gradientUnits="userSpaceOnUse">
<stop stop-color="#F3F0AB"/>
<stop offset="0.619792" stop-color="#EF7301"/>
<stop offset="1" stop-color="#7F3211"/>
</linearGradient>
<linearGradient id="paint28_linear_548_50" x1="1907.15" y1="718.826" x2="1414.71" y2="718.826" gradientUnits="userSpaceOnUse">
<stop stop-color="#F3F0AB"/>
<stop offset="0.427083" stop-color="#E97505"/>
<stop offset="1" stop-color="#522810"/>
</linearGradient>
<linearGradient id="paint29_linear_548_50" x1="955.484" y1="718.826" x2="1450" y2="718.826" gradientUnits="userSpaceOnUse">
<stop stop-color="#F3F0AB"/>
<stop offset="0.59" stop-color="#9D4331"/>
<stop offset="1" stop-color="#522810"/>
</linearGradient>
<linearGradient id="paint30_linear_548_50" x1="1271.16" y1="718.821" x2="1450" y2="718.821" gradientUnits="userSpaceOnUse">
<stop stop-color="#FFE9C4"/>
<stop offset="1" stop-color="#EDBD94"/>
</linearGradient>
<clipPath id="clip0_548_50">
<rect width="1450" height="1025" fill="white"/>
</clipPath>
</defs>
</svg>
