<svg width="753" height="1334" viewBox="0 0 753 1334" fill="none" xmlns="http://www.w3.org/2000/svg">
<g clip-path="url(#clip0_548_47)">
<rect width="753" height="1334" fill="white"/>
<path d="M0 0V1026H754V0" fill="url(#paint0_radial_548_47)"/>
<path d="M753.154 1022.12H0V1333.82H753.154V1022.12Z" fill="url(#paint1_linear_548_47)"/>
<g opacity="0.7">
<path opacity="0.7" d="M114.702 1126.94L116.645 1102.07C116.779 1100.36 115.283 1098.78 112.74 1097.94L78.2007 1086.54C77.0261 1086.15 75.6639 1085.95 74.2412 1085.95C72.8184 1085.95 71.3896 1086.16 70.0879 1086.54L31.6614 1097.94C28.8401 1098.77 26.8059 1100.36 26.3578 1102.07L19.8374 1126.94C19.3409 1128.84 20.6002 1130.62 23.137 1131.58L59.5898 1145.28C60.8915 1145.77 62.4232 1146.02 64.0155 1146.02C65.6078 1146.02 67.2303 1145.76 68.7015 1145.28L109.816 1131.58C112.68 1130.62 114.551 1128.84 114.696 1126.94H114.702Z" fill="#FFD545" stroke="#DBB10C" stroke-miterlimit="10"/>
<path opacity="0.7" d="M74.1201 1189.29L114.98 1205.31C116.421 1205.86 118.08 1206.16 119.769 1206.16C121.459 1206.16 123.142 1205.86 124.631 1205.31L166.751 1189.29C169.717 1188.16 171.534 1186.06 171.503 1183.81L171.073 1153.8C171.043 1151.69 169.245 1149.74 166.375 1148.72L127.077 1134.52C125.727 1134.04 124.195 1133.78 122.633 1133.78C121.071 1133.78 119.515 1134.04 118.135 1134.52L77.7042 1148.72C74.7618 1149.76 72.8063 1151.69 72.6126 1153.8L69.8094 1183.81C69.5975 1186.06 71.2504 1188.16 74.1201 1189.29V1189.29Z" fill="#FFD545" stroke="#DBB10C" stroke-miterlimit="10"/>
<path opacity="0.7" d="M211.891 1131.58C214.573 1130.62 216.087 1128.84 215.863 1126.94L212.933 1102.07C212.733 1100.36 210.929 1098.78 208.223 1097.94L171.443 1086.54C170.19 1086.15 168.785 1085.95 167.368 1085.95C165.952 1085.95 164.553 1086.16 163.33 1086.54L127.138 1097.94C124.48 1098.77 122.754 1100.36 122.639 1102.07L120.998 1126.94C120.871 1128.84 122.482 1130.62 125.206 1131.58L164.347 1145.28C165.74 1145.77 167.326 1146.02 168.924 1146.02C170.522 1146.02 172.091 1145.76 173.465 1145.28L211.891 1131.58Z" fill="#FFD545" stroke="#DBB10C" stroke-miterlimit="10"/>
<path opacity="0.7" d="M183.194 1189.29L225.895 1205.31C227.402 1205.86 229.097 1206.16 230.781 1206.16C232.464 1206.16 234.123 1205.86 235.545 1205.31L275.824 1189.29C278.664 1188.16 280.238 1186.06 279.947 1183.81L276.067 1153.8C275.794 1151.69 273.772 1149.74 270.787 1148.72L229.854 1134.52C228.456 1134.04 226.888 1133.78 225.326 1133.78C223.764 1133.78 222.238 1134.04 220.912 1134.52L182.116 1148.72C179.289 1149.76 177.563 1151.69 177.612 1153.8L178.254 1183.81C178.302 1186.06 180.191 1188.16 183.194 1189.29Z" fill="#FFD545" stroke="#DBB10C" stroke-miterlimit="10"/>
<path opacity="0.7" d="M313.173 1102.07C312.634 1100.36 310.515 1098.78 307.646 1097.94L268.626 1086.54C267.3 1086.15 265.853 1085.95 264.436 1085.95C263.02 1085.95 261.663 1086.16 260.513 1086.54L226.567 1097.94C224.072 1098.77 222.662 1100.36 222.886 1102.07L226.137 1126.94C226.385 1128.84 228.341 1130.62 231.259 1131.58L273.1 1145.28C274.589 1145.77 276.23 1146.02 277.822 1146.02C279.415 1146.02 280.94 1145.76 282.218 1145.28L317.95 1131.58C320.438 1130.62 321.607 1128.84 321.014 1126.94L313.185 1102.07H313.173Z" fill="#FFD545" stroke="#DBB10C" stroke-miterlimit="10"/>
<path opacity="0.7" d="M226.355 1264C229.679 1262.49 231.513 1259.7 231.162 1256.72L226.627 1218.23C226.318 1215.62 224.036 1213.2 220.67 1211.93L175.172 1194.66C173.634 1194.07 171.909 1193.77 170.165 1193.77C168.421 1193.77 166.714 1194.07 165.213 1194.66L120.605 1211.93C117.311 1213.2 115.15 1215.62 114.974 1218.23L112.431 1256.72C112.231 1259.71 114.217 1262.5 117.614 1264L166.793 1285.7C168.554 1286.48 170.564 1286.89 172.574 1286.89C174.585 1286.89 176.57 1286.48 178.302 1285.7L226.349 1264H226.355Z" fill="#FFD545" stroke="#DBB10C" stroke-miterlimit="10"/>
<path opacity="0.7" d="M239.463 1256.72C239.85 1259.71 242.381 1262.5 246.074 1264L299.527 1285.7C301.446 1286.48 303.529 1286.89 305.545 1286.89C307.561 1286.89 309.468 1286.48 311.042 1285.7L354.821 1264C357.854 1262.49 359.138 1259.7 358.199 1256.72L346.085 1218.23C345.261 1215.62 342.5 1213.2 338.886 1211.93L289.986 1194.66C288.339 1194.07 286.547 1193.77 284.803 1193.77C283.059 1193.77 281.413 1194.07 280.026 1194.66L238.815 1211.93C235.769 1213.2 234.086 1215.62 234.431 1218.23L239.463 1256.72V1256.72Z" fill="#FFD545" stroke="#DBB10C" stroke-miterlimit="10"/>
<path opacity="0.7" d="M85.9018 1056.09C83.4074 1056.79 81.7122 1058.11 81.4761 1059.53L78.0857 1080.18C77.8253 1081.76 79.1573 1083.22 81.5608 1084.02L115.998 1095.3C117.221 1095.7 118.637 1095.91 120.084 1095.91C121.531 1095.91 122.978 1095.7 124.262 1095.3L160.327 1084.02C162.846 1083.22 164.383 1081.76 164.353 1080.18L163.941 1059.53C163.911 1058.11 162.41 1056.79 160.012 1056.09L127.361 1046.55C126.254 1046.22 124.982 1046.05 123.68 1046.05C122.379 1046.05 121.083 1046.22 119.933 1046.55L85.9018 1056.09V1056.09Z" fill="#FFD545" stroke="#DBB10C" stroke-miterlimit="10"/>
<path opacity="0.7" d="M173.162 1056.09C170.807 1056.79 169.366 1058.11 169.414 1059.53L170.074 1080.18C170.123 1081.76 171.739 1083.22 174.3 1084.02L210.953 1095.3C212.254 1095.7 213.713 1095.91 215.16 1095.91C216.607 1095.91 218.012 1095.7 219.217 1095.3L253.066 1084.02C255.434 1083.22 256.687 1081.76 256.348 1080.18L251.886 1059.53C251.577 1058.11 249.809 1056.79 247.278 1056.09L212.757 1046.55C211.582 1046.22 210.281 1046.05 208.979 1046.05C207.677 1046.05 206.418 1046.22 205.328 1046.55L173.168 1056.09H173.162Z" fill="#FFD545" stroke="#DBB10C" stroke-miterlimit="10"/>
<path opacity="0.7" d="M257.413 1059.47L262.13 1080.12C262.487 1081.69 264.394 1083.16 267.106 1083.95L305.969 1095.24C307.349 1095.64 308.851 1095.85 310.291 1095.85C311.732 1095.85 313.101 1095.64 314.227 1095.24L345.854 1083.95C348.064 1083.16 349.027 1081.69 348.379 1080.12L339.867 1059.47C339.279 1058.04 337.251 1056.73 334.587 1056.03L298.195 1046.48C296.954 1046.16 295.622 1045.99 294.32 1045.99C293.019 1045.99 291.79 1046.16 290.766 1046.48L260.483 1056.03C258.261 1056.73 257.086 1058.04 257.413 1059.47V1059.47Z" fill="#FFD545" stroke="#DBB10C" stroke-miterlimit="10"/>
<path opacity="0.7" d="M322.757 1102.17L330.888 1127.06C331.512 1128.95 333.819 1130.75 336.918 1131.69L381.454 1145.41C383.04 1145.89 384.729 1146.15 386.321 1146.15C387.914 1146.15 389.391 1145.89 390.571 1145.41L423.622 1131.69C425.928 1130.75 426.746 1128.95 425.771 1127.06L413.069 1102.17C412.197 1100.46 409.77 1098.87 406.736 1098.04L365.47 1086.63C364.072 1086.24 362.582 1086.04 361.166 1086.04C359.749 1086.04 358.429 1086.25 357.358 1086.63L325.639 1098.04C323.308 1098.87 322.206 1100.46 322.763 1102.17H322.757Z" fill="#FFD545" stroke="#DBB10C" stroke-miterlimit="10"/>
<path opacity="0.7" d="M426.697 1056.03L388.434 1046.48C387.132 1046.16 385.764 1045.99 384.462 1045.99C383.161 1045.99 381.968 1046.16 381.005 1046.48L352.599 1056.03C350.516 1056.73 349.596 1058.04 350.201 1059.47L358.968 1080.12C359.634 1081.69 361.825 1083.16 364.695 1083.95L405.767 1095.24C407.226 1095.64 408.77 1095.85 410.211 1095.85C411.652 1095.85 412.978 1095.64 414.031 1095.24L443.449 1083.95C445.508 1083.16 446.18 1081.69 445.223 1080.12L432.661 1059.47C431.795 1058.04 429.506 1056.73 426.703 1056.03H426.697Z" fill="#FFD545" stroke="#DBB10C" stroke-miterlimit="10"/>
<path opacity="0.7" d="M518.946 1056.03L478.806 1046.48C477.438 1046.16 476.04 1045.99 474.738 1045.99C473.436 1045.99 472.274 1046.16 471.378 1046.48L444.842 1056.03C442.898 1056.73 442.232 1058.04 443.122 1059.47L455.945 1080.12C456.92 1081.69 459.402 1083.16 462.424 1083.95L505.718 1095.24C507.255 1095.64 508.836 1095.85 510.283 1095.85C511.73 1095.85 513.007 1095.64 513.982 1095.24L541.184 1083.95C543.085 1083.16 543.472 1081.69 542.207 1080.12L525.588 1059.47C524.438 1058.04 521.895 1056.73 518.952 1056.03H518.946Z" fill="#FFD545" stroke="#DBB10C" stroke-miterlimit="10"/>
<path opacity="0.7" d="M533.543 1127.04L515.907 1102.16C514.696 1100.45 511.954 1098.86 508.751 1098.03L465.22 1086.61C463.743 1086.22 462.218 1086.03 460.795 1086.03C459.372 1086.03 458.101 1086.24 457.102 1086.61L427.648 1098.03C425.486 1098.86 424.693 1100.45 425.595 1102.16L438.66 1127.04C439.659 1128.94 442.317 1130.73 445.611 1131.68L492.864 1145.4C494.547 1145.88 496.285 1146.14 497.883 1146.14C499.482 1146.14 500.898 1145.88 501.982 1145.4L532.314 1131.68C534.433 1130.73 534.893 1128.94 533.549 1127.04H533.543Z" fill="#FFD545" stroke="#DBB10C" stroke-miterlimit="10"/>
<path opacity="0.7" d="M633.597 1127.04L611.135 1102.16C609.591 1100.45 606.54 1098.86 603.18 1098.03L557.434 1086.61C555.878 1086.22 554.316 1086.03 552.893 1086.03C551.47 1086.03 550.235 1086.24 549.315 1086.61L522.077 1098.03C520.079 1098.86 519.595 1100.45 520.824 1102.16L538.708 1127.04C540.076 1128.94 543.085 1130.73 546.554 1131.68L596.466 1145.4C598.24 1145.88 600.032 1146.14 601.624 1146.14C603.216 1146.14 604.585 1145.88 605.584 1145.4L633.258 1131.68C635.189 1130.73 635.31 1128.94 633.591 1127.04H633.597Z" fill="#FFD545" stroke="#DBB10C" stroke-miterlimit="10"/>
<path opacity="0.7" d="M639.638 1080.12L618.969 1059.47C617.54 1058.04 614.743 1056.73 611.661 1056.03L569.651 1046.48C568.222 1046.16 566.787 1045.99 565.485 1045.99C564.184 1045.99 563.058 1046.16 562.222 1046.48L537.563 1056.03C535.753 1056.73 535.353 1058.04 536.516 1059.47L553.389 1080.12C554.672 1081.69 557.445 1083.16 560.618 1083.95L606.122 1095.24C607.738 1095.64 609.361 1095.85 610.808 1095.85C612.255 1095.85 613.49 1095.64 614.386 1095.24L639.372 1083.95C641.122 1083.16 641.212 1081.69 639.644 1080.12H639.638Z" fill="#FFD545" stroke="#DBB10C" stroke-miterlimit="10"/>
<path opacity="0.7" d="M734.776 1127.04L707.435 1102.16C705.552 1100.45 702.192 1098.86 698.668 1098.03L650.688 1086.61C649.059 1086.22 647.455 1086.03 646.032 1086.03C644.609 1086.03 643.417 1086.24 642.569 1086.61L617.565 1098.03C615.73 1098.86 615.555 1100.45 617.123 1102.16L639.887 1127.04C641.625 1128.94 644.979 1130.73 648.641 1131.68L701.241 1145.4C703.112 1145.88 704.952 1146.14 706.551 1146.14C708.149 1146.14 709.469 1145.88 710.365 1145.4L735.351 1131.68C737.094 1130.73 736.864 1128.94 734.776 1127.04V1127.04Z" fill="#FFD545" stroke="#DBB10C" stroke-miterlimit="10"/>
<path opacity="0.7" d="M731.93 1080.12L707.198 1059.47C705.491 1058.04 702.427 1056.73 699.206 1056.03L655.319 1046.48C653.829 1046.16 652.358 1045.99 651.057 1045.99C649.755 1045.99 648.659 1046.16 647.89 1046.48L625.108 1056.03C623.437 1056.73 623.298 1058.04 624.745 1059.47L645.68 1080.12C647.273 1081.69 650.33 1083.16 653.66 1083.95L701.386 1095.24C703.081 1095.64 704.746 1095.85 706.193 1095.85C707.64 1095.85 708.839 1095.64 709.65 1095.24L732.42 1083.95C734.012 1083.16 733.819 1081.69 731.942 1080.12H731.93Z" fill="#FFD545" stroke="#DBB10C" stroke-miterlimit="10"/>
<path opacity="0.7" d="M282.781 1154.47L286.886 1184.54C287.195 1186.8 289.326 1188.9 292.462 1190.03L337.039 1206.07C338.614 1206.64 340.345 1206.94 342.028 1206.94C343.711 1206.94 345.334 1206.64 346.696 1206.07L385.165 1190.03C387.871 1188.9 389.203 1186.8 388.652 1184.54L381.308 1154.47C380.794 1152.37 378.548 1150.42 375.442 1149.38L332.844 1135.16C331.385 1134.68 329.792 1134.42 328.224 1134.42C326.656 1134.42 325.161 1134.68 323.896 1135.16L286.704 1149.38C283.998 1150.42 282.49 1152.37 282.775 1154.47H282.781Z" fill="#FFD545" stroke="#DBB10C" stroke-miterlimit="10"/>
<path opacity="0.7" d="M374.074 1264.18L431.801 1285.91C433.872 1286.69 436.039 1287.1 438.055 1287.1C440.071 1287.1 441.894 1286.69 443.316 1285.91L482.845 1264.18C485.581 1262.69 486.32 1259.88 484.794 1256.91L465.13 1218.4C463.792 1215.79 460.559 1213.37 456.696 1212.1L404.393 1194.81C402.632 1194.23 400.779 1193.92 399.035 1193.92C397.292 1193.92 395.699 1194.23 394.428 1194.81L356.595 1212.1C353.798 1213.37 352.587 1215.79 353.441 1218.4L366.021 1256.91C366.996 1259.88 370.072 1262.69 374.067 1264.18H374.074Z" fill="#FFD545" stroke="#DBB10C" stroke-miterlimit="10"/>
<path opacity="0.7" d="M484.782 1149.38L440.549 1135.16C439.036 1134.68 437.413 1134.42 435.845 1134.42C434.277 1134.42 432.812 1134.68 431.601 1135.16L396.044 1149.38C393.453 1150.42 392.176 1152.37 392.702 1154.47L400.264 1184.54C400.833 1186.8 403.207 1188.9 406.47 1190.03L452.894 1206.07C454.535 1206.64 456.297 1206.94 457.986 1206.94C459.675 1206.94 461.261 1206.64 462.557 1206.07L499.179 1190.03C501.758 1188.9 502.848 1186.8 502.037 1184.54L491.236 1154.47C490.479 1152.37 488.003 1150.42 484.782 1149.38V1149.38Z" fill="#FFD545" stroke="#DBB10C" stroke-miterlimit="10"/>
<path opacity="0.7" d="M515.907 1184.54C516.761 1186.8 519.479 1188.9 522.99 1190.03L572.956 1206.07C574.718 1206.64 576.583 1206.94 578.327 1206.94C580.07 1206.94 581.675 1206.64 582.952 1206.07L618.951 1190.03C621.488 1188.9 622.365 1186.8 621.258 1184.54L606.497 1154.47C605.462 1152.37 602.671 1150.42 599.208 1149.38L551.724 1135.16C550.095 1134.68 548.388 1134.42 546.766 1134.42C545.143 1134.42 543.654 1134.68 542.461 1135.16L507.352 1149.38C504.797 1150.42 503.701 1152.37 504.501 1154.47L515.907 1184.54V1184.54Z" fill="#FFD545" stroke="#DBB10C" stroke-miterlimit="10"/>
<path opacity="0.7" d="M503.581 1264.18L565.613 1285.91C567.835 1286.69 570.087 1287.1 572.103 1287.1C574.119 1287.1 575.857 1286.69 577.128 1285.91L612.352 1264.18C614.792 1262.69 614.974 1259.88 612.861 1256.91L585.556 1218.4C583.703 1215.79 579.992 1213.37 575.869 1212.1L520.139 1194.81C518.256 1194.23 516.349 1193.92 514.606 1193.92C512.862 1193.92 511.336 1194.23 510.18 1194.81L475.773 1212.1C473.231 1213.37 472.498 1215.79 473.872 1218.4L494.094 1256.91C495.656 1259.88 499.294 1262.69 503.581 1264.18Z" fill="#FFD545" stroke="#DBB10C" stroke-miterlimit="10"/>
<path opacity="0.7" d="M630.224 1264.18L696.47 1285.91C698.843 1286.69 701.174 1287.1 703.19 1287.1C705.207 1287.1 706.865 1286.69 707.985 1285.91L738.995 1264.18C741.145 1262.69 740.781 1259.88 738.093 1256.91L703.324 1218.4C700.962 1215.79 696.779 1213.37 692.414 1212.1L633.33 1194.81C631.332 1194.23 629.365 1193.92 627.621 1193.92C625.877 1193.92 624.406 1194.23 623.365 1194.81L592.312 1212.1C590.018 1213.37 589.751 1215.79 591.634 1218.4L619.32 1256.91C621.464 1259.88 625.641 1262.69 630.218 1264.18H630.224Z" fill="#FFD545" stroke="#DBB10C" stroke-miterlimit="10"/>
<path opacity="0.7" d="M733.601 1184.54L715.262 1154.47C713.979 1152.37 710.958 1150.42 707.374 1149.38L658.201 1135.16C656.518 1134.68 654.774 1134.42 653.152 1134.42C651.529 1134.42 650.07 1134.68 648.932 1135.16L615.512 1149.38C613.078 1150.42 612.212 1152.37 613.266 1154.47L628.25 1184.54C629.376 1186.8 632.337 1188.9 635.988 1190.03L687.861 1206.07C689.689 1206.64 691.59 1206.94 693.334 1206.94C695.077 1206.94 696.646 1206.64 697.856 1206.07L731.948 1190.03C734.352 1188.9 734.975 1186.8 733.595 1184.54H733.601Z" fill="#FFD545" stroke="#DBB10C" stroke-miterlimit="10"/>
<path opacity="0.7" d="M40.0403 1286.89C42.0625 1286.89 44.1209 1286.48 46.0038 1285.7L98.3068 1264C101.927 1262.49 104.313 1259.7 104.543 1256.72L107.552 1218.23C107.758 1215.62 105.941 1213.2 102.829 1211.93L60.7157 1194.66C59.293 1194.07 57.628 1193.77 55.8844 1193.77C54.1408 1193.77 52.3729 1194.07 50.7564 1194.66L2.75807 1211.93C1.77122 1212.28 0.857025 1212.74 0.0275879 1213.24V1269.06L34.4825 1285.71C36.093 1286.49 38.0182 1286.91 40.0343 1286.91L40.0403 1286.89Z" fill="#FFD545" stroke="#DBB10C" stroke-miterlimit="10"/>
<path opacity="0.7" d="M9.99885 1206.18C11.694 1206.18 13.4074 1205.88 14.9573 1205.32L58.8993 1189.31C61.993 1188.18 64.0454 1186.07 64.2694 1183.83L67.2482 1153.81C67.4601 1151.71 65.8799 1149.76 63.1312 1148.73L25.4433 1134.54C24.1538 1134.06 22.6523 1133.8 21.0842 1133.8C19.5162 1133.8 17.936 1134.06 16.5011 1134.54L0.0395508 1140.07V1203.14L5.31283 1205.29C6.69321 1205.85 8.31576 1206.15 10.0049 1206.15L9.99885 1206.18Z" fill="#FFD545" stroke="#DBB10C" stroke-miterlimit="10"/>
<path opacity="0.7" d="M13.3711 1126.94L20.2003 1102.07C20.6725 1100.35 19.4799 1098.78 17.1066 1097.94L0.0395508 1091.91V1133.93L7.57713 1131.56C10.6285 1130.6 12.8504 1128.82 13.3711 1126.93V1126.94Z" fill="#FFD545" stroke="#DBB10C" stroke-miterlimit="10"/>
<path opacity="0.7" d="M26.073 1095.92C27.526 1095.92 29.0093 1095.72 30.3715 1095.31L68.6225 1084.03C71.2985 1083.24 73.1208 1081.77 73.3932 1080.2L76.9895 1059.55C77.2377 1058.12 75.9845 1056.81 73.7262 1056.1L42.9281 1046.56C41.8807 1046.23 40.6456 1046.07 39.344 1046.07C38.0423 1046.07 36.7164 1046.23 35.4995 1046.56L0.0395508 1055.97V1087.59L22.1074 1095.31C23.2517 1095.72 24.626 1095.92 26.073 1095.92V1095.92Z" fill="#FFD545" stroke="#DBB10C" stroke-miterlimit="10"/>
<path opacity="0.7" d="M36.9525 1041.08L41.7354 1023.66C41.8686 1023.18 41.7717 1022.73 41.4932 1022.3H0.0395508V1052.82L32.3089 1044.29C34.8154 1043.62 36.5893 1042.39 36.9525 1041.07V1041.08Z" fill="#FFD545" stroke="#DBB10C" stroke-miterlimit="10"/>
<path opacity="0.7" d="M45.2592 1044.3L75.9484 1053.75C77.0381 1054.09 78.3156 1054.27 79.6354 1054.27C80.9552 1054.27 82.2932 1054.09 83.5041 1053.75L117.408 1044.3C119.781 1043.64 121.319 1042.4 121.422 1041.08L122.784 1023.66C122.821 1023.18 122.639 1022.73 122.276 1022.3H47.8807C47.3782 1022.73 47.0331 1023.18 46.912 1023.66L42.3471 1041.08C42.002 1042.4 43.116 1043.64 45.2653 1044.3H45.2592Z" fill="#FFD545" stroke="#DBB10C" stroke-miterlimit="10"/>
<path opacity="0.7" d="M130.213 1044.3L162.754 1053.75C163.911 1054.09 165.225 1054.27 166.544 1054.27C167.864 1054.27 169.172 1054.09 170.31 1053.75L202.362 1044.3C204.608 1043.64 205.897 1042.4 205.74 1041.08L203.687 1023.66C203.633 1023.18 203.354 1022.73 202.913 1022.3H128.517C128.094 1022.73 127.845 1023.18 127.815 1023.66L126.665 1041.08C126.58 1042.4 127.936 1043.64 130.213 1044.3V1044.3Z" fill="#FFD545" stroke="#DBB10C" stroke-miterlimit="10"/>
<path opacity="0.7" d="M211.268 1041.08C211.443 1042.4 213.035 1043.64 215.445 1044.3L249.852 1053.75C251.075 1054.09 252.419 1054.27 253.738 1054.27C255.058 1054.27 256.33 1054.09 257.401 1053.75L287.594 1044.3C289.707 1043.64 290.76 1042.4 290.343 1041.08L284.863 1023.66C284.712 1023.18 284.349 1022.73 283.822 1022.3H209.427C209.088 1022.73 208.931 1023.18 208.991 1023.66L211.268 1041.08V1041.08Z" fill="#FFD545" stroke="#DBB10C" stroke-miterlimit="10"/>
<path opacity="0.7" d="M389.924 1041.16C390.62 1042.48 392.703 1043.72 395.373 1044.38L433.508 1053.83C434.859 1054.17 436.281 1054.35 437.601 1054.35C438.921 1054.35 440.12 1054.17 441.064 1053.83L467.534 1044.38C469.386 1043.72 469.949 1042.48 469.011 1041.16L456.66 1023.73C456.303 1023.22 455.703 1022.74 454.953 1022.29H380.709C380.503 1022.73 380.509 1023.22 380.776 1023.73L389.924 1041.16V1041.16Z" fill="#FFD545" stroke="#DBB10C" stroke-miterlimit="10"/>
<path opacity="0.7" d="M297.971 1041.16C298.401 1042.48 300.241 1043.72 302.778 1044.38L339.043 1053.83C340.327 1054.17 341.713 1054.35 343.033 1054.35C344.353 1054.35 345.588 1054.17 346.599 1053.83L374.945 1044.38C376.931 1043.72 377.736 1042.48 377.064 1041.16L368.164 1023.73C367.904 1023.22 367.408 1022.74 366.742 1022.29H292.498C292.201 1022.73 292.111 1023.22 292.28 1023.73L297.971 1041.16V1041.16Z" fill="#FFD545" stroke="#DBB10C" stroke-miterlimit="10"/>
<path opacity="0.7" d="M477.559 1041.16C478.51 1042.48 480.835 1043.72 483.632 1044.38L523.602 1053.83C525.019 1054.17 526.472 1054.35 527.792 1054.35C529.112 1054.35 530.274 1054.17 531.152 1053.83L555.787 1044.38C557.512 1043.72 557.833 1042.48 556.64 1041.16L540.905 1023.73C540.445 1023.22 539.755 1022.74 538.919 1022.29H464.676C464.555 1022.73 464.652 1023.22 465.021 1023.73L477.547 1041.16H477.559Z" fill="#FFD545" stroke="#DBB10C" stroke-miterlimit="10"/>
<path opacity="0.7" d="M561.902 1041.16C563.112 1042.48 565.673 1043.72 568.604 1044.38L610.427 1053.83C611.91 1054.17 613.399 1054.35 614.719 1054.35C616.039 1054.35 617.171 1054.17 617.982 1053.83L640.765 1044.38C642.363 1043.72 642.442 1042.48 640.989 1041.16L621.839 1023.73C621.282 1023.22 620.495 1022.74 619.569 1022.29H545.325C545.289 1022.73 545.488 1023.22 545.949 1023.73L561.896 1041.16H561.902Z" fill="#FFD545" stroke="#DBB10C" stroke-miterlimit="10"/>
<path opacity="0.7" d="M646.879 1041.68C648.351 1043 651.166 1044.23 654.229 1044.9L697.977 1054.38C699.527 1054.72 701.053 1054.9 702.379 1054.9C703.705 1054.9 704.795 1054.72 705.545 1054.38L726.481 1044.9C727.946 1044.23 727.783 1043 726.069 1041.68L703.445 1024.21C702.542 1023.51 701.229 1022.86 699.715 1022.3H626.591C626.41 1022.86 626.7 1023.52 627.469 1024.21L646.879 1041.68Z" fill="#FFD545" stroke="#DBB10C" stroke-miterlimit="10"/>
<path opacity="0.7" d="M741.919 1193.9C740.181 1193.9 738.765 1194.22 737.838 1194.8L710.176 1212.09C708.13 1213.36 708.342 1215.77 710.733 1218.39L745.975 1256.89C748.7 1259.87 753.428 1262.67 758.302 1264.17L774.988 1269.31V1202.31L747.798 1194.79C745.691 1194.2 743.663 1193.89 741.919 1193.89V1193.9Z" fill="#FFD545" stroke="#DBB10C" stroke-miterlimit="10"/>
<path opacity="0.7" d="M740.001 1086.67C738.584 1086.67 737.421 1086.87 736.653 1087.26L713.876 1098.71C712.205 1099.55 712.345 1101.13 714.252 1102.85L741.98 1127.8C744.099 1129.71 747.817 1131.49 751.667 1132.45L759.695 1134.43C758.157 1134.46 756.795 1134.71 755.76 1135.17L724.042 1149.4C721.729 1150.43 721.105 1152.38 722.407 1154.49L740.981 1184.55C742.374 1186.81 745.589 1188.92 749.373 1190.05L775 1197.68V1094.13L744.796 1087.26C743.088 1086.87 741.442 1086.67 740.019 1086.67H740.001Z" fill="#FFD545" stroke="#DBB10C" stroke-miterlimit="10"/>
<path opacity="0.7" d="M738.021 1046.51C736.725 1046.51 735.653 1046.68 734.945 1047L714.021 1056.57C712.49 1057.28 712.605 1058.6 714.336 1060.03L739.377 1080.73C741.284 1082.3 744.638 1083.78 748.125 1084.58L774.988 1090.65V1053.82L742.392 1047.02C740.83 1046.69 739.328 1046.52 738.027 1046.52L738.021 1046.51Z" fill="#FFD545" stroke="#DBB10C" stroke-miterlimit="10"/>
<path opacity="0.7" d="M707.229 1022.3C707.156 1022.86 707.574 1023.52 708.482 1024.21L731.318 1041.68C733.05 1043 736.107 1044.23 739.298 1044.9L774.988 1052.31V1022.3H707.229V1022.3Z" fill="#FFD545" stroke="#DBB10C" stroke-miterlimit="10"/>
<path opacity="0.7" d="M697.96 1291.26L631.163 1269.19C628.917 1268.45 626.701 1268.06 624.733 1268.06C622.765 1268.06 621.113 1268.45 619.932 1269.19L584.678 1291.26C582.062 1292.89 581.723 1295.99 583.818 1299.35L605.408 1334H738.354L710.389 1299.35C707.677 1295.99 702.918 1292.89 697.96 1291.26V1291.26Z" fill="#FFD545" stroke="#DBB10C" stroke-miterlimit="10"/>
<path opacity="0.7" d="M162.634 1291.17L113.213 1269.11C111.548 1268.37 109.641 1267.98 107.673 1267.98C105.705 1267.98 103.744 1268.37 101.982 1269.11L49.3702 1291.17C45.4713 1292.8 42.6984 1295.89 42.1475 1299.24L36.4443 1334H169.396L168.706 1299.24C168.64 1295.88 166.309 1292.79 162.64 1291.17H162.634Z" fill="#FFD545" stroke="#DBB10C" stroke-miterlimit="10"/>
<path opacity="0.7" d="M295.997 1291.17L242.247 1269.11C240.443 1268.37 238.451 1267.98 236.49 1267.98C234.528 1267.98 232.639 1268.37 231.017 1269.11L182.728 1291.17C179.143 1292.8 176.982 1295.89 177.091 1299.24L178.205 1334H311.151L303.644 1299.24C302.917 1295.88 299.987 1292.79 295.991 1291.17H295.997Z" fill="#FFD545" stroke="#DBB10C" stroke-miterlimit="10"/>
<path opacity="0.7" d="M429.718 1291.06L371.639 1269.01C369.69 1268.27 367.625 1267.88 365.658 1267.88C363.69 1267.88 361.88 1268.27 360.409 1269.01L316.467 1291.06C313.209 1292.7 311.654 1295.79 312.416 1299.14L320.39 1334H453.336L438.951 1299.14C437.564 1295.79 434.023 1292.7 429.712 1291.06H429.718Z" fill="#FFD545" stroke="#DBB10C" stroke-miterlimit="10"/>
<path opacity="0.7" d="M563.076 1291.26L500.656 1269.19C498.562 1268.45 496.418 1268.06 494.457 1268.06C492.495 1268.06 490.758 1268.45 489.432 1269.19L449.8 1291.26C446.858 1292.89 445.907 1295.99 447.336 1299.35L462.054 1334H595L573.907 1299.35C571.861 1295.99 567.714 1292.89 563.082 1291.26H563.076Z" fill="#FFD545" stroke="#DBB10C" stroke-miterlimit="10"/>
<path opacity="0.7" d="M752.133 1268.06C750.177 1268.06 748.585 1268.45 747.55 1269.19L716.57 1291.26C714.275 1292.89 714.53 1295.99 717.272 1299.35L745.582 1334H774.988V1274.23L758.78 1269.21C756.389 1268.47 754.094 1268.08 752.133 1268.08V1268.06Z" fill="#FFD545" stroke="#DBB10C" stroke-miterlimit="10"/>
<path opacity="0.7" d="M0.0395508 1276.15V1334H29.203L35.2513 1299.25C35.8385 1295.88 34.107 1292.79 30.7529 1291.17L0.0395508 1276.15Z" fill="#FFD545" stroke="#DBB10C" stroke-miterlimit="10"/>
</g>
<path opacity="0.7" d="M383.5 1315C553.88 1315 692 1290.6 692 1260.5C692 1230.4 553.88 1206 383.5 1206C213.12 1206 75 1230.4 75 1260.5C75 1290.6 213.12 1315 383.5 1315Z" fill="#B87813"/>
<path opacity="0.8" d="M158.81 1286.62L392.24 1214.06L383.68 1206.45L144.25 1274.65L158.81 1286.62Z" fill="#6C6267"/>
<path opacity="0.8" d="M609.53 1279.77L375.04 1214.06L383.6 1206.45L624.09 1267.8L609.53 1279.77Z" fill="#6C6267"/>
<path d="M502.5 1244.17L395.63 645.425L390.45 647.362V154H379.39V648.475L371.2 645.425L264.37 1245.37C264.37 1245.7 266.92 1245.98 270.07 1245.98C273.22 1245.98 275.77 1245.7 275.77 1245.37H275.78L379.38 663.579V1214.7C379.38 1214.7 379.37 1214.71 379.37 1214.73C379.37 1215.06 381.85 1215.33 384.9 1215.33C387.95 1215.33 390.43 1215.06 390.43 1214.73V680.403L491.07 1244.2H491.24C491.08 1244.26 490.99 1244.31 490.99 1244.37C490.99 1244.7 493.63 1244.98 496.88 1244.98C500.13 1244.98 502.77 1244.7 502.77 1244.37C502.77 1244.3 502.66 1244.24 502.48 1244.18L502.5 1244.17Z" fill="#6C6267"/>
<path d="M725 536.8H17V1074.18H725V536.8Z" fill="#617376"/>
<path d="M743 189H10V1049H743V189Z" fill="white"/>
<path d="M744.3 172H10.7001C6.99974 172 4 179.387 4 188.5C4 197.613 6.99974 205 10.7001 205H744.3C748 205 751 197.613 751 188.5C751 179.387 748 172 744.3 172Z" fill="#342B59"/>
<path d="M740.853 178.665H15.4929C14.3897 178.665 13.4954 180.869 13.4954 183.587C13.4954 186.305 14.3897 188.509 15.4929 188.509H740.853C741.956 188.509 742.85 186.305 742.85 183.587C742.85 180.869 741.956 178.665 740.853 178.665Z" fill="#8CA3D4"/>
<path d="M744.3 1049H10.7001C6.99974 1049 4 1053.25 4 1058.5C4 1063.75 6.99974 1068 10.7001 1068H744.3C748 1068 751 1063.75 751 1058.5C751 1053.25 748 1049 744.3 1049Z" fill="#342B59"/>
<path d="M740.853 1052.84H15.4929C14.3897 1052.84 13.4954 1054.11 13.4954 1055.67C13.4954 1057.24 14.3897 1058.5 15.4929 1058.5H740.853C741.956 1058.5 742.85 1057.24 742.85 1055.67C742.85 1054.11 741.956 1052.84 740.853 1052.84Z" fill="#8CA3D4"/>
<path opacity="0.9" d="M708.926 70H45.0735C43.3761 70 42 72.5385 42 75.67V140.33C42 143.461 43.3761 146 45.0735 146H708.926C710.624 146 712 143.461 712 140.33V75.67C712 72.5385 710.624 70 708.926 70Z" fill="white"/>
</g>
<defs>
<radialGradient id="paint0_radial_548_47" cx="0" cy="0" r="1" gradientUnits="userSpaceOnUse" gradientTransform="translate(371.979 513.731) scale(336.156 593.905)">
<stop stop-color="white"/>
<stop offset="1" stop-color="#A4D8E6"/>
</radialGradient>
<linearGradient id="paint1_linear_548_47" x1="376.58" y1="1333.82" x2="376.58" y2="1022.12" gradientUnits="userSpaceOnUse">
<stop offset="0.13" stop-color="#FFDD80"/>
<stop offset="0.36" stop-color="#F6C55B"/>
<stop offset="0.64" stop-color="#EDAE36"/>
<stop offset="0.86" stop-color="#E7A020"/>
<stop offset="1" stop-color="#E69B18"/>
</linearGradient>
<clipPath id="clip0_548_47">
<rect width="753" height="1334" fill="white"/>
</clipPath>
</defs>
</svg>
