<svg width="1450" height="1025" viewBox="0 0 1450 1025" fill="none" xmlns="http://www.w3.org/2000/svg">
<g clip-path="url(#clip0_548_46)">
<rect width="1450" height="1025" fill="white"/>
<path d="M0 0V788H1450V0" fill="url(#paint0_radial_548_46)"/>
<path d="M1448 787H0V1027H1448V787Z" fill="url(#paint1_linear_548_46)"/>
<g opacity="0.7">
<path d="M220.523 867.71L224.26 848.56C224.516 847.24 221.641 846.03 216.752 845.38L150.347 836.6C148.089 836.3 145.47 836.15 142.734 836.15C139.999 836.15 137.252 836.31 134.749 836.6L60.8713 845.38C55.4471 846.02 51.5362 847.24 50.6748 848.56L38.1387 867.71C37.1842 869.17 39.6053 870.54 44.4824 871.28L114.566 881.83C117.069 882.21 120.013 882.4 123.075 882.4C126.136 882.4 129.255 882.2 132.084 881.83L211.13 871.28C216.636 870.54 220.232 869.17 220.512 867.71H220.523Z" fill="#FFD545"/>
<path d="M142.502 915.719L221.059 928.049C223.829 928.479 227.019 928.71 230.266 928.71C233.514 928.71 236.749 928.479 239.613 928.049L320.591 915.719C326.295 914.849 329.787 913.23 329.729 911.5L328.902 888.39C328.844 886.77 325.387 885.269 319.87 884.479L244.315 873.549C241.72 873.179 238.775 872.979 235.772 872.979C232.769 872.979 229.777 873.179 227.123 873.549L149.392 884.479C143.735 885.279 139.976 886.77 139.603 888.39L134.214 911.5C133.807 913.23 136.984 914.849 142.502 915.719Z" fill="#FFD545"/>
<path d="M407.378 871.28C412.535 870.54 415.444 869.17 415.014 867.71L409.38 848.56C408.996 847.24 405.527 846.03 400.324 845.38L329.612 836.6C327.203 836.3 324.502 836.15 321.779 836.15C319.055 836.15 316.366 836.31 314.015 836.6L244.432 845.38C239.322 846.02 236.005 847.24 235.783 848.56L232.629 867.71C232.385 869.17 235.481 870.54 240.719 871.28L315.97 881.83C318.647 882.21 321.697 882.4 324.77 882.4C327.843 882.4 330.858 882.2 333.5 881.83L407.378 871.28Z" fill="#FFD545"/>
<path d="M352.205 915.719L434.301 928.049C437.199 928.479 440.458 928.71 443.694 928.71C446.93 928.71 450.119 928.479 452.855 928.049L530.295 915.719C535.754 914.849 538.78 913.23 538.221 911.5L530.76 888.39C530.236 886.77 526.349 885.269 520.61 884.479L441.913 873.549C439.224 873.179 436.21 872.979 433.207 872.979C430.204 872.979 427.27 873.179 424.721 873.549L350.133 884.479C344.697 885.279 341.38 886.77 341.473 888.39L342.707 911.5C342.8 913.23 346.432 914.849 352.205 915.719Z" fill="#FFD545"/>
<path d="M602.101 848.56C601.065 847.24 596.991 846.03 591.474 845.38L516.455 836.6C513.906 836.3 511.124 836.15 508.4 836.15C505.676 836.15 503.069 836.31 500.857 836.6L435.593 845.38C430.797 846.02 428.085 847.24 428.516 848.56L434.766 867.71C435.244 869.17 439.003 870.54 444.614 871.28L525.057 881.83C527.92 882.21 531.074 882.4 534.136 882.4C537.197 882.4 540.13 882.2 542.586 881.83L611.285 871.28C616.069 870.54 618.315 869.17 617.174 867.71L602.124 848.56H602.101Z" fill="#FFD545"/>
<path d="M435.185 973.24C441.576 972.08 445.103 969.93 444.427 967.64L435.709 938C435.116 935.99 430.727 934.13 424.256 933.15L336.782 919.85C333.826 919.4 330.508 919.17 327.156 919.17C323.804 919.17 320.521 919.4 317.635 919.85L231.872 933.15C225.54 934.13 221.385 935.99 221.047 938L216.158 967.64C215.774 969.94 219.592 972.09 226.122 973.24L320.673 989.95C324.06 990.55 327.924 990.87 331.789 990.87C335.653 990.87 339.471 990.55 342.8 989.95L435.174 973.24H435.185Z" fill="#FFD545"/>
<path d="M460.386 967.64C461.131 969.94 465.996 972.09 473.096 973.24L575.865 989.95C579.555 990.55 583.559 990.87 587.435 990.87C591.311 990.87 594.977 990.55 598.004 989.95L682.171 973.24C688.003 972.08 690.471 969.93 688.666 967.64L665.375 938C663.792 935.99 658.484 934.13 651.535 933.15L557.52 919.85C554.354 919.4 550.909 919.17 547.557 919.17C544.204 919.17 541.038 919.4 538.373 919.85L459.14 933.15C453.285 934.13 450.05 935.99 450.713 938L460.386 967.64Z" fill="#FFD545"/>
<path d="M165.153 813.16C160.357 813.7 157.098 814.71 156.644 815.81L150.126 831.71C149.625 832.92 152.186 834.05 156.807 834.66L223.014 843.35C225.366 843.66 228.089 843.82 230.871 843.82C233.653 843.82 236.435 843.66 238.903 843.35L308.241 834.66C313.084 834.05 316.04 832.92 315.982 831.71L315.19 815.81C315.132 814.71 312.245 813.7 307.636 813.16L244.862 805.81C242.732 805.56 240.288 805.43 237.785 805.43C235.283 805.43 232.792 805.56 230.58 805.81L165.153 813.16Z" fill="#FFD545"/>
<path d="M332.918 813.16C328.39 813.7 325.62 814.71 325.713 815.81L326.981 831.71C327.075 832.92 330.182 834.05 335.106 834.66L405.574 843.35C408.076 843.66 410.881 843.82 413.663 843.82C416.445 843.82 419.146 843.66 421.462 843.35L486.54 834.66C491.092 834.05 493.501 832.92 492.849 831.71L484.271 815.81C483.677 814.71 480.278 813.7 475.413 813.16L409.042 805.81C406.784 805.56 404.282 805.43 401.779 805.43C399.277 805.43 396.855 805.56 394.76 805.81L332.929 813.16H332.918Z" fill="#FFD545"/>
<path d="M494.898 815.76L503.965 831.66C504.652 832.87 508.319 834 513.533 834.61L588.249 843.3C590.903 843.61 593.79 843.77 596.56 843.77C599.331 843.77 601.961 843.61 604.126 843.3L664.933 834.61C669.181 834 671.032 832.87 669.786 831.66L653.421 815.76C652.292 814.66 648.392 813.65 643.271 813.11L573.304 805.76C570.918 805.51 568.357 805.38 565.854 805.38C563.352 805.38 560.989 805.51 559.022 805.76L500.799 813.11C496.527 813.65 494.269 814.66 494.898 815.76Z" fill="#FFD545"/>
<path d="M620.527 848.64L636.159 867.8C637.358 869.26 641.793 870.64 647.752 871.37L733.375 881.93C736.425 882.3 739.672 882.5 742.734 882.5C745.795 882.5 748.635 882.3 750.905 881.93L814.447 871.37C818.881 870.64 820.453 869.26 818.579 867.8L794.159 848.64C792.482 847.32 787.815 846.1 781.983 845.46L702.646 836.67C699.957 836.37 697.094 836.22 694.37 836.22C691.646 836.22 689.109 836.38 687.049 836.67L626.067 845.46C621.586 846.1 619.468 847.32 620.539 848.64H620.527Z" fill="#FFD545"/>
<path d="M820.36 813.11L746.796 805.76C744.293 805.51 741.663 805.38 739.16 805.38C736.658 805.38 734.364 805.51 732.514 805.76L677.9 813.11C673.895 813.65 672.126 814.66 673.29 815.76L690.145 831.66C691.425 832.87 695.639 834 701.156 834.61L780.121 843.3C782.926 843.61 785.894 843.77 788.664 843.77C791.435 843.77 793.984 843.61 796.009 843.3L852.567 834.61C856.525 834 857.817 832.87 855.978 831.66L831.825 815.76C830.16 814.66 825.761 813.65 820.371 813.11H820.36Z" fill="#FFD545"/>
<path d="M997.716 813.11L920.544 805.76C917.914 805.51 915.225 805.38 912.722 805.38C910.22 805.38 907.985 805.51 906.262 805.76L855.245 813.11C851.508 813.65 850.228 814.66 851.939 815.76L876.592 831.66C878.466 832.87 883.238 834 889.047 834.61L972.283 843.3C975.24 843.61 978.278 843.77 981.06 843.77C983.842 843.77 986.298 843.61 988.172 843.3L1040.47 834.61C1044.12 834 1044.87 832.87 1042.44 831.66L1010.49 815.76C1008.27 814.66 1003.38 813.65 997.728 813.11H997.716Z" fill="#FFD545"/>
<path d="M1025.78 867.79L991.873 848.63C989.545 847.31 984.272 846.09 978.115 845.45L894.424 836.66C891.584 836.36 888.651 836.21 885.915 836.21C883.18 836.21 880.736 836.37 878.815 836.66L822.187 845.45C818.032 846.09 816.507 847.31 818.241 848.63L843.36 867.79C845.281 869.25 850.391 870.63 856.723 871.36L947.572 881.92C950.808 882.29 954.148 882.49 957.221 882.49C960.294 882.49 963.018 882.29 965.101 881.92L1023.42 871.36C1027.49 870.63 1028.38 869.25 1025.79 867.79H1025.78Z" fill="#FFD545"/>
<path d="M1218.14 867.79L1174.96 848.63C1171.99 847.31 1166.12 846.09 1159.66 845.45L1071.71 836.66C1068.72 836.36 1065.72 836.21 1062.98 836.21C1060.25 836.21 1057.87 836.37 1056.1 836.66L1003.73 845.45C999.893 846.09 998.962 847.31 1001.32 848.63L1035.71 867.79C1038.34 869.25 1044.12 870.63 1050.79 871.36L1146.75 881.92C1150.16 882.29 1153.61 882.49 1156.67 882.49C1159.73 882.49 1162.36 882.29 1164.28 881.92L1217.49 871.36C1221.2 870.63 1221.43 869.25 1218.13 867.79H1218.14Z" fill="#FFD545"/>
<path d="M1229.76 831.66L1190.02 815.76C1187.27 814.66 1181.89 813.65 1175.97 813.11L1095.2 805.76C1092.45 805.51 1089.69 805.38 1087.19 805.38C1084.69 805.38 1082.52 805.51 1080.92 805.76L1033.51 813.11C1030.03 813.65 1029.26 814.66 1031.49 815.76L1063.94 831.66C1066.4 832.87 1071.73 834 1077.83 834.61L1165.32 843.3C1168.43 843.61 1171.55 843.77 1174.33 843.77C1177.11 843.77 1179.48 843.61 1181.21 843.3L1229.24 834.61C1232.61 834 1232.78 832.87 1229.77 831.66H1229.76Z" fill="#FFD545"/>
<path d="M1412.67 867.79L1360.1 848.63C1356.48 847.31 1350.02 846.09 1343.25 845.45L1251 836.66C1247.87 836.36 1244.78 836.21 1242.05 836.21C1239.31 836.21 1237.02 836.37 1235.39 836.66L1187.32 845.45C1183.79 846.09 1183.45 847.31 1186.47 848.63L1230.23 867.79C1233.57 869.25 1240.02 870.63 1247.07 871.36L1348.19 881.92C1351.79 882.29 1355.33 882.49 1358.4 882.49C1361.47 882.49 1364.01 882.29 1365.73 881.92L1413.77 871.36C1417.12 870.63 1416.68 869.25 1412.67 867.79Z" fill="#FFD545"/>
<path d="M1407.19 831.66L1359.65 815.76C1356.36 814.66 1350.47 813.65 1344.28 813.11L1259.9 805.76C1257.04 805.51 1254.21 805.38 1251.71 805.38C1249.21 805.38 1247.1 805.51 1245.62 805.76L1201.82 813.11C1198.61 813.65 1198.34 814.66 1201.12 815.76L1241.37 831.66C1244.43 832.87 1250.31 834 1256.71 834.61L1348.47 843.3C1351.73 843.61 1354.93 843.77 1357.71 843.77C1360.49 843.77 1362.8 843.61 1364.36 843.3L1408.14 834.61C1411.2 834 1410.83 832.87 1407.22 831.66H1407.19Z" fill="#FFD545"/>
<path d="M543.669 888.91L551.561 912.06C552.154 913.8 556.252 915.42 562.281 916.29L647.985 928.64C651.012 929.08 654.341 929.31 657.577 929.31C660.812 929.31 663.932 929.08 666.551 928.64L740.51 916.29C745.713 915.42 748.274 913.8 747.215 912.06L733.096 888.91C732.106 887.29 727.788 885.79 721.817 884.99L639.919 874.04C637.114 873.67 634.052 873.47 631.038 873.47C628.023 873.47 625.148 873.67 622.715 874.04L551.212 884.99C546.009 885.79 543.11 887.29 543.657 888.91H543.669Z" fill="#FFD545"/>
<path d="M719.186 973.38L830.172 990.11C834.153 990.71 838.32 991.03 842.196 991.03C846.072 991.03 849.576 990.71 852.311 990.11L928.308 973.38C933.569 972.23 934.989 970.07 932.056 967.78L894.249 938.13C891.677 936.12 885.461 934.26 878.035 933.28L777.478 919.97C774.091 919.52 770.529 919.28 767.177 919.28C763.825 919.28 760.764 919.52 758.319 919.97L685.582 933.28C680.204 934.26 677.876 936.12 679.517 938.13L703.705 967.78C705.579 970.07 711.492 972.23 719.174 973.38H719.186Z" fill="#FFD545"/>
<path d="M932.032 884.99L846.992 874.04C844.082 873.67 840.962 873.47 837.948 873.47C834.933 873.47 832.116 873.67 829.788 874.04L761.427 884.99C756.445 885.79 753.989 887.29 755.002 888.91L769.54 912.06C770.634 913.8 775.197 915.42 781.471 916.29L870.725 928.64C873.88 929.08 877.267 929.31 880.514 929.31C883.762 929.31 886.812 929.08 889.303 928.64L959.712 916.29C964.671 915.42 966.766 913.8 965.206 912.06L944.44 888.91C942.986 887.29 938.225 885.79 932.032 884.99Z" fill="#FFD545"/>
<path d="M991.873 912.06C993.514 913.8 998.74 915.42 1005.49 916.29L1101.56 928.64C1104.94 929.08 1108.53 929.31 1111.88 929.31C1115.23 929.31 1118.32 929.08 1120.77 928.64L1189.98 916.29C1194.86 915.42 1196.55 913.8 1194.42 912.06L1166.04 888.91C1164.05 887.29 1158.68 885.79 1152.03 884.99L1060.73 874.04C1057.6 873.67 1054.32 873.47 1051.2 873.47C1048.08 873.47 1045.22 873.67 1042.93 874.04L975.426 884.99C970.514 885.79 968.407 887.29 969.943 888.91L991.873 912.06Z" fill="#FFD545"/>
<path d="M968.174 973.38L1087.44 990.11C1091.71 990.71 1096.04 991.03 1099.91 991.03C1103.79 991.03 1107.13 990.71 1109.58 990.11L1177.3 973.38C1181.99 972.23 1182.34 970.07 1178.27 967.78L1125.78 938.13C1122.22 936.12 1115.08 934.26 1107.15 933.28L1000.01 919.97C996.389 919.52 992.723 919.28 989.37 919.28C986.018 919.28 983.085 919.52 980.862 919.97L914.712 933.28C909.824 934.26 908.415 936.12 911.058 938.13L949.935 967.78C952.938 970.07 959.933 972.23 968.174 973.38Z" fill="#FFD545"/>
<path d="M1211.66 973.38L1339.02 990.11C1343.58 990.71 1348.06 991.03 1351.94 991.03C1355.82 991.03 1359.01 990.71 1361.16 990.11L1420.78 973.38C1424.91 972.23 1424.21 970.07 1419.04 967.78L1352.2 938.13C1347.66 936.12 1339.61 934.26 1331.22 933.28L1217.63 919.97C1213.79 919.52 1210 919.28 1206.65 919.28C1203.3 919.28 1200.47 919.52 1198.47 919.97L1138.77 933.28C1134.36 934.26 1133.84 936.12 1137.46 938.13L1190.69 967.78C1194.81 970.07 1202.85 972.23 1211.64 973.38H1211.66Z" fill="#FFD545"/>
<path d="M1410.41 912.06L1375.15 888.91C1372.68 887.29 1366.87 885.79 1359.98 884.99L1265.44 874.04C1262.21 873.67 1258.86 873.47 1255.74 873.47C1252.62 873.47 1249.81 873.67 1247.62 874.04L1183.37 884.99C1178.69 885.79 1177.03 887.29 1179.05 888.91L1207.86 912.06C1210.03 913.8 1215.72 915.42 1222.74 916.29L1322.47 928.64C1325.98 929.08 1329.64 929.31 1332.99 929.31C1336.34 929.31 1339.36 929.08 1341.68 928.64L1407.23 916.29C1411.85 915.42 1413.05 913.8 1410.39 912.06H1410.41Z" fill="#FFD545"/>
<path d="M76.9809 990.87C80.8686 990.87 84.8261 990.55 88.4461 989.95L189.003 973.24C195.963 972.08 200.549 969.93 200.992 967.64L206.777 938C207.173 935.99 203.681 934.13 197.698 933.15L116.731 919.85C113.996 919.4 110.795 919.17 107.442 919.17C104.09 919.17 100.691 919.4 97.5834 919.85L5.30267 933.15C3.40538 933.42 1.64776 933.77 0.0531006 934.16V977.14L66.2955 989.96C69.3917 990.56 73.0931 990.88 76.9692 990.88L76.9809 990.87Z" fill="#FFD545"/>
<path d="M19.2239 928.72C22.4831 928.72 25.7771 928.49 28.7569 928.06L113.239 915.73C119.187 914.86 123.133 913.24 123.564 911.51L129.29 888.4C129.698 886.78 126.66 885.28 121.375 884.49L48.9172 873.56C46.4379 873.19 43.5512 872.99 40.5365 872.99C37.5217 872.99 34.4837 873.19 31.7251 873.56L0.0763564 877.82V926.38L10.2147 928.04C12.8685 928.47 15.988 928.7 19.2355 928.7L19.2239 928.72Z" fill="#FFD545"/>
<path d="M25.7073 867.71L38.837 848.56C39.745 847.24 37.4519 846.03 32.8891 845.38L0.0763564 840.74V873.09L14.568 871.27C20.4345 870.53 24.7063 869.16 25.7073 867.7V867.71Z" fill="#FFD545"/>
<path d="M50.1277 843.829C52.9213 843.829 55.773 843.669 58.392 843.359L131.933 834.669C137.077 834.059 140.581 832.929 141.105 831.719L148.019 815.819C148.496 814.719 146.087 813.709 141.745 813.169L82.533 805.819C80.5193 805.569 78.1448 805.439 75.6422 805.439C73.1397 805.439 70.5906 805.569 68.2509 805.819L0.0763564 813.069V837.409L42.5036 843.359C44.7035 843.669 47.3458 843.829 50.1277 843.829Z" fill="#FFD545"/>
<path d="M71.0445 801.6L80.24 788.19C80.4961 787.82 80.3098 787.47 79.7744 787.14H0.0763564V810.64L62.1167 804.07C66.9356 803.56 70.3461 802.61 71.0445 801.59V801.6Z" fill="#FFD545"/>
<path d="M87.0144 804.08L146.017 811.36C148.112 811.62 150.568 811.76 153.105 811.76C155.643 811.76 158.215 811.62 160.543 811.36L225.726 804.08C230.289 803.57 233.246 802.62 233.444 801.6L236.063 788.19C236.133 787.82 235.783 787.47 235.085 787.14H92.0545C91.0884 787.47 90.4249 787.82 90.1921 788.19L81.4157 801.6C80.7522 802.62 82.8939 803.57 87.0261 804.08H87.0144Z" fill="#FFD545"/>
<path d="M250.345 804.08L312.909 811.36C315.132 811.62 317.658 811.76 320.195 811.76C322.733 811.76 325.247 811.62 327.435 811.36L389.057 804.08C393.375 803.57 395.854 802.62 395.552 801.6L391.606 788.19C391.501 787.82 390.966 787.47 390.116 787.14H247.086C246.271 787.47 245.793 787.82 245.735 788.19L243.524 801.6C243.361 802.62 245.968 803.57 250.345 804.08Z" fill="#FFD545"/>
<path d="M406.179 801.6C406.517 802.62 409.578 803.57 414.211 804.08L480.36 811.36C482.711 811.62 485.295 811.76 487.833 811.76C490.37 811.76 492.814 811.62 494.875 811.36L552.923 804.08C556.985 803.57 559.01 802.62 558.207 801.6L547.673 788.19C547.382 787.82 546.684 787.47 545.671 787.14H402.641C401.989 787.47 401.686 787.82 401.802 788.19L406.179 801.6Z" fill="#FFD545"/>
<path d="M749.659 801.66C750.998 802.68 755.002 803.63 760.135 804.14L833.455 811.42C836.05 811.68 838.786 811.82 841.323 811.82C843.861 811.82 846.165 811.68 847.981 811.42L898.87 804.14C902.432 803.63 903.515 802.68 901.711 801.66L877.965 788.24C877.279 787.85 876.126 787.48 874.683 787.13H731.943C731.548 787.47 731.559 787.85 732.071 788.24L749.659 801.66Z" fill="#FFD545"/>
<path d="M572.873 801.66C573.7 802.68 577.238 803.63 582.115 804.14L651.838 811.42C654.306 811.68 656.971 811.82 659.509 811.82C662.046 811.82 664.421 811.68 666.365 811.42L720.862 804.14C724.68 803.63 726.228 802.68 724.936 801.66L707.826 788.24C707.325 787.85 706.371 787.48 705.09 787.13H562.351C561.781 787.47 561.606 787.85 561.932 788.24L572.873 801.66Z" fill="#FFD545"/>
<path d="M918.146 801.66C919.974 802.68 924.443 803.63 929.821 804.14L1006.67 811.42C1009.39 811.68 1012.18 811.82 1014.72 811.82C1017.26 811.82 1019.49 811.68 1021.18 811.42L1068.54 804.14C1071.86 803.63 1072.48 802.68 1070.19 801.66L1039.93 788.24C1039.05 787.85 1037.72 787.48 1036.12 787.13H893.377C893.144 787.47 893.33 787.85 894.04 788.24L918.123 801.66H918.146Z" fill="#FFD545"/>
<path d="M1080.3 801.66C1082.63 802.68 1087.55 803.63 1093.19 804.14L1173.59 811.42C1176.45 811.68 1179.31 811.82 1181.85 811.82C1184.38 811.82 1186.56 811.68 1188.12 811.42L1231.92 804.14C1234.99 803.63 1235.15 802.68 1232.35 801.66L1195.54 788.24C1194.46 787.85 1192.95 787.48 1191.17 787.13H1048.43C1048.36 787.47 1048.75 787.85 1049.63 788.24L1080.29 801.66H1080.3Z" fill="#FFD545"/>
<path d="M1243.68 802.06C1246.51 803.08 1251.92 804.03 1257.81 804.54L1341.92 811.84C1344.9 812.1 1347.83 812.24 1350.38 812.24C1352.93 812.24 1355.02 812.1 1356.47 811.84L1396.72 804.54C1399.53 804.03 1399.22 803.08 1395.93 802.06L1352.43 788.61C1350.69 788.07 1348.17 787.57 1345.26 787.14H1204.67C1204.32 787.57 1204.88 788.08 1206.36 788.61L1243.68 802.06Z" fill="#FFD545"/>
<path d="M1426.4 919.27C1423.06 919.27 1420.33 919.51 1418.55 919.96L1365.37 933.27C1361.44 934.25 1361.84 936.11 1366.44 938.12L1434.2 967.77C1439.44 970.06 1448.53 972.22 1457.9 973.37L1489.98 977.33V925.74L1437.7 919.95C1433.65 919.5 1429.75 919.26 1426.4 919.26V919.27Z" fill="#FFD545"/>
<path d="M1422.71 836.7C1419.99 836.7 1417.75 836.86 1416.27 837.16L1372.48 845.97C1369.27 846.62 1369.54 847.84 1373.21 849.16L1426.52 868.37C1430.59 869.84 1437.74 871.21 1445.14 871.95L1460.57 873.48C1457.62 873.5 1455 873.69 1453.01 874.05L1392.03 885C1387.58 885.8 1386.38 887.3 1388.89 888.92L1424.6 912.07C1427.27 913.81 1433.45 915.43 1440.73 916.3L1490 922.18V842.45L1431.93 837.16C1428.65 836.86 1425.48 836.7 1422.75 836.7H1422.71Z" fill="#FFD545"/>
<path d="M1418.9 805.78C1416.41 805.78 1414.35 805.91 1412.99 806.16L1372.76 813.53C1369.82 814.07 1370.04 815.09 1373.37 816.19L1421.51 832.13C1425.18 833.34 1431.63 834.48 1438.33 835.09L1489.98 839.77V811.41L1427.31 806.17C1424.3 805.92 1421.42 805.79 1418.92 805.79L1418.9 805.78Z" fill="#FFD545"/>
<path d="M1359.7 787.14C1359.56 787.57 1360.37 788.08 1362.11 788.61L1406.02 802.06C1409.35 803.08 1415.23 804.03 1421.36 804.54L1489.98 810.25V787.14H1359.7Z" fill="#FFD545"/>
<path d="M1341.88 994.23L1213.46 977.24C1209.14 976.67 1204.88 976.37 1201.1 976.37C1197.32 976.37 1194.14 976.67 1191.87 977.24L1124.09 994.23C1119.06 995.49 1118.41 997.87 1122.44 1000.46L1163.94 1027.14H1419.54L1365.78 1000.46C1360.57 997.87 1351.42 995.49 1341.88 994.23Z" fill="#FFD545"/>
<path d="M312.676 994.16L217.66 977.18C214.459 976.61 210.793 976.31 207.01 976.31C203.227 976.31 199.455 976.61 196.068 977.18L94.9179 994.16C87.4219 995.42 82.0908 997.8 81.0316 1000.38L70.0669 1027.14H325.678L324.351 1000.38C324.223 997.79 319.742 995.41 312.688 994.16H312.676Z" fill="#FFD545"/>
<path d="M569.079 994.16L465.74 977.18C462.271 976.61 458.442 976.31 454.671 976.31C450.899 976.31 447.268 976.61 444.148 977.18L351.309 994.16C344.418 995.42 340.263 997.8 340.472 1000.38L342.614 1027.14H598.213L583.78 1000.38C582.383 997.79 576.749 995.41 569.067 994.16H569.079Z" fill="#FFD545"/>
<path d="M826.168 994.08L714.507 977.099C710.759 976.529 706.79 976.229 703.007 976.229C699.224 976.229 695.744 976.529 692.915 977.099L608.433 994.08C602.171 995.34 599.179 997.719 600.646 1000.3L615.976 1027.14H871.575L843.919 1000.3C841.253 997.719 834.444 995.34 826.156 994.08H826.168Z" fill="#FFD545"/>
<path d="M1082.56 994.23L962.552 977.24C958.525 976.67 954.404 976.37 950.633 976.37C946.862 976.37 943.521 976.67 940.972 977.24L864.777 994.23C859.12 995.49 857.293 997.87 860.04 1000.46L888.336 1027.14H1143.94L1103.38 1000.46C1099.45 997.87 1091.48 995.49 1082.57 994.23H1082.56Z" fill="#FFD545"/>
<path d="M1446.04 976.37C1442.28 976.37 1439.22 976.67 1437.22 977.24L1377.66 994.23C1373.25 995.49 1373.74 997.87 1379.01 1000.46L1433.44 1027.14H1489.98V981.12L1458.82 977.25C1454.22 976.68 1449.81 976.38 1446.04 976.38V976.37Z" fill="#FFD545"/>
<path d="M0.0763564 982.6V1027.14H56.1455L67.7737 1000.38C68.9028 997.79 65.5738 995.41 59.1253 994.16L0.0763564 982.6Z" fill="#FFD545"/>
<path d="M220.523 867.71L224.26 848.56C224.516 847.24 221.641 846.03 216.752 845.38L150.347 836.6C148.089 836.3 145.47 836.15 142.734 836.15C139.999 836.15 137.252 836.31 134.749 836.6L60.8713 845.38C55.4471 846.02 51.5362 847.24 50.6748 848.56L38.1387 867.71C37.1842 869.17 39.6053 870.54 44.4824 871.28L114.566 881.83C117.069 882.21 120.013 882.4 123.075 882.4C126.136 882.4 129.255 882.2 132.084 881.83L211.13 871.28C216.636 870.54 220.232 869.17 220.512 867.71H220.523Z" stroke="#DBB10C" stroke-miterlimit="10"/>
<path d="M142.502 915.719L221.059 928.049C223.829 928.479 227.019 928.71 230.266 928.71C233.514 928.71 236.749 928.479 239.613 928.049L320.591 915.719C326.295 914.849 329.787 913.23 329.729 911.5L328.902 888.39C328.844 886.77 325.387 885.269 319.87 884.479L244.315 873.549C241.72 873.179 238.775 872.979 235.772 872.979C232.769 872.979 229.777 873.179 227.123 873.549L149.392 884.479C143.735 885.279 139.976 886.77 139.603 888.39L134.214 911.5C133.807 913.23 136.984 914.849 142.502 915.719Z" stroke="#DBB10C" stroke-miterlimit="10"/>
<path d="M407.378 871.28C412.535 870.54 415.444 869.17 415.014 867.71L409.38 848.56C408.996 847.24 405.527 846.03 400.324 845.38L329.612 836.6C327.203 836.3 324.502 836.15 321.779 836.15C319.055 836.15 316.366 836.31 314.015 836.6L244.432 845.38C239.322 846.02 236.005 847.24 235.783 848.56L232.629 867.71C232.385 869.17 235.481 870.54 240.719 871.28L315.97 881.83C318.647 882.21 321.697 882.4 324.77 882.4C327.843 882.4 330.858 882.2 333.5 881.83L407.378 871.28Z" stroke="#DBB10C" stroke-miterlimit="10"/>
<path d="M352.205 915.719L434.301 928.049C437.199 928.479 440.458 928.71 443.694 928.71C446.93 928.71 450.119 928.479 452.855 928.049L530.295 915.719C535.754 914.849 538.78 913.23 538.221 911.5L530.76 888.39C530.236 886.77 526.349 885.269 520.61 884.479L441.913 873.549C439.224 873.179 436.21 872.979 433.207 872.979C430.204 872.979 427.27 873.179 424.721 873.549L350.133 884.479C344.697 885.279 341.38 886.77 341.473 888.39L342.707 911.5C342.8 913.23 346.432 914.849 352.205 915.719Z" stroke="#DBB10C" stroke-miterlimit="10"/>
<path d="M602.101 848.56C601.065 847.24 596.991 846.03 591.474 845.38L516.455 836.6C513.906 836.3 511.124 836.15 508.4 836.15C505.676 836.15 503.069 836.31 500.857 836.6L435.593 845.38C430.797 846.02 428.085 847.24 428.516 848.56L434.766 867.71C435.244 869.17 439.003 870.54 444.614 871.28L525.057 881.83C527.92 882.21 531.074 882.4 534.136 882.4C537.197 882.4 540.13 882.2 542.586 881.83L611.285 871.28C616.069 870.54 618.315 869.17 617.174 867.71L602.124 848.56H602.101Z" stroke="#DBB10C" stroke-miterlimit="10"/>
<path d="M435.185 973.24C441.576 972.08 445.103 969.93 444.427 967.64L435.709 938C435.116 935.99 430.727 934.13 424.256 933.15L336.782 919.85C333.826 919.4 330.508 919.17 327.156 919.17C323.804 919.17 320.521 919.4 317.635 919.85L231.872 933.15C225.54 934.13 221.385 935.99 221.047 938L216.158 967.64C215.774 969.94 219.592 972.09 226.122 973.24L320.673 989.95C324.06 990.55 327.924 990.87 331.789 990.87C335.653 990.87 339.471 990.55 342.8 989.95L435.174 973.24H435.185Z" stroke="#DBB10C" stroke-miterlimit="10"/>
<path d="M460.386 967.64C461.131 969.94 465.996 972.09 473.096 973.24L575.865 989.95C579.555 990.55 583.559 990.87 587.435 990.87C591.311 990.87 594.977 990.55 598.004 989.95L682.171 973.24C688.003 972.08 690.471 969.93 688.666 967.64L665.375 938C663.792 935.99 658.484 934.13 651.535 933.15L557.52 919.85C554.354 919.4 550.909 919.17 547.557 919.17C544.204 919.17 541.038 919.4 538.373 919.85L459.14 933.15C453.285 934.13 450.05 935.99 450.713 938L460.386 967.64Z" stroke="#DBB10C" stroke-miterlimit="10"/>
<path d="M165.153 813.16C160.357 813.7 157.098 814.71 156.644 815.81L150.126 831.71C149.625 832.92 152.186 834.05 156.807 834.66L223.014 843.35C225.366 843.66 228.089 843.82 230.871 843.82C233.653 843.82 236.435 843.66 238.903 843.35L308.241 834.66C313.084 834.05 316.04 832.92 315.982 831.71L315.19 815.81C315.132 814.71 312.245 813.7 307.636 813.16L244.862 805.81C242.732 805.56 240.288 805.43 237.785 805.43C235.283 805.43 232.792 805.56 230.58 805.81L165.153 813.16Z" stroke="#DBB10C" stroke-miterlimit="10"/>
<path d="M332.918 813.16C328.39 813.7 325.62 814.71 325.713 815.81L326.981 831.71C327.075 832.92 330.182 834.05 335.106 834.66L405.574 843.35C408.076 843.66 410.881 843.82 413.663 843.82C416.445 843.82 419.146 843.66 421.462 843.35L486.54 834.66C491.092 834.05 493.501 832.92 492.849 831.71L484.271 815.81C483.677 814.71 480.278 813.7 475.413 813.16L409.042 805.81C406.784 805.56 404.282 805.43 401.779 805.43C399.277 805.43 396.855 805.56 394.76 805.81L332.929 813.16H332.918Z" stroke="#DBB10C" stroke-miterlimit="10"/>
<path d="M494.898 815.76L503.965 831.66C504.652 832.87 508.319 834 513.533 834.61L588.249 843.3C590.903 843.61 593.79 843.77 596.56 843.77C599.331 843.77 601.961 843.61 604.126 843.3L664.933 834.61C669.181 834 671.032 832.87 669.786 831.66L653.421 815.76C652.292 814.66 648.392 813.65 643.271 813.11L573.304 805.76C570.918 805.51 568.357 805.38 565.854 805.38C563.352 805.38 560.989 805.51 559.022 805.76L500.799 813.11C496.527 813.65 494.269 814.66 494.898 815.76Z" stroke="#DBB10C" stroke-miterlimit="10"/>
<path d="M620.527 848.64L636.159 867.8C637.358 869.26 641.793 870.64 647.752 871.37L733.375 881.93C736.425 882.3 739.672 882.5 742.734 882.5C745.795 882.5 748.635 882.3 750.905 881.93L814.447 871.37C818.881 870.64 820.453 869.26 818.579 867.8L794.159 848.64C792.482 847.32 787.815 846.1 781.983 845.46L702.646 836.67C699.957 836.37 697.094 836.22 694.37 836.22C691.646 836.22 689.109 836.38 687.049 836.67L626.067 845.46C621.586 846.1 619.468 847.32 620.539 848.64H620.527Z" stroke="#DBB10C" stroke-miterlimit="10"/>
<path d="M820.36 813.11L746.796 805.76C744.293 805.51 741.663 805.38 739.16 805.38C736.658 805.38 734.364 805.51 732.514 805.76L677.9 813.11C673.895 813.65 672.126 814.66 673.29 815.76L690.145 831.66C691.425 832.87 695.639 834 701.156 834.61L780.121 843.3C782.926 843.61 785.894 843.77 788.664 843.77C791.435 843.77 793.984 843.61 796.009 843.3L852.567 834.61C856.525 834 857.817 832.87 855.978 831.66L831.825 815.76C830.16 814.66 825.761 813.65 820.371 813.11H820.36Z" stroke="#DBB10C" stroke-miterlimit="10"/>
<path d="M997.716 813.11L920.544 805.76C917.914 805.51 915.225 805.38 912.722 805.38C910.22 805.38 907.985 805.51 906.262 805.76L855.245 813.11C851.508 813.65 850.228 814.66 851.939 815.76L876.592 831.66C878.466 832.87 883.238 834 889.047 834.61L972.283 843.3C975.24 843.61 978.278 843.77 981.06 843.77C983.842 843.77 986.298 843.61 988.172 843.3L1040.47 834.61C1044.12 834 1044.87 832.87 1042.44 831.66L1010.49 815.76C1008.27 814.66 1003.38 813.65 997.728 813.11H997.716Z" stroke="#DBB10C" stroke-miterlimit="10"/>
<path d="M1025.78 867.79L991.873 848.63C989.545 847.31 984.272 846.09 978.115 845.45L894.424 836.66C891.584 836.36 888.651 836.21 885.915 836.21C883.18 836.21 880.736 836.37 878.815 836.66L822.187 845.45C818.032 846.09 816.507 847.31 818.241 848.63L843.36 867.79C845.281 869.25 850.391 870.63 856.723 871.36L947.572 881.92C950.808 882.29 954.148 882.49 957.221 882.49C960.294 882.49 963.018 882.29 965.101 881.92L1023.42 871.36C1027.49 870.63 1028.38 869.25 1025.79 867.79H1025.78Z" stroke="#DBB10C" stroke-miterlimit="10"/>
<path d="M1218.14 867.79L1174.96 848.63C1171.99 847.31 1166.12 846.09 1159.66 845.45L1071.71 836.66C1068.72 836.36 1065.72 836.21 1062.98 836.21C1060.25 836.21 1057.87 836.37 1056.1 836.66L1003.73 845.45C999.893 846.09 998.962 847.31 1001.32 848.63L1035.71 867.79C1038.34 869.25 1044.12 870.63 1050.79 871.36L1146.75 881.92C1150.16 882.29 1153.61 882.49 1156.67 882.49C1159.73 882.49 1162.36 882.29 1164.28 881.92L1217.49 871.36C1221.2 870.63 1221.43 869.25 1218.13 867.79H1218.14Z" stroke="#DBB10C" stroke-miterlimit="10"/>
<path d="M1229.76 831.66L1190.02 815.76C1187.27 814.66 1181.89 813.65 1175.97 813.11L1095.2 805.76C1092.45 805.51 1089.69 805.38 1087.19 805.38C1084.69 805.38 1082.52 805.51 1080.92 805.76L1033.51 813.11C1030.03 813.65 1029.26 814.66 1031.49 815.76L1063.94 831.66C1066.4 832.87 1071.73 834 1077.83 834.61L1165.32 843.3C1168.43 843.61 1171.55 843.77 1174.33 843.77C1177.11 843.77 1179.48 843.61 1181.21 843.3L1229.24 834.61C1232.61 834 1232.78 832.87 1229.77 831.66H1229.76Z" stroke="#DBB10C" stroke-miterlimit="10"/>
<path d="M1412.67 867.79L1360.1 848.63C1356.48 847.31 1350.02 846.09 1343.25 845.45L1251 836.66C1247.87 836.36 1244.78 836.21 1242.05 836.21C1239.31 836.21 1237.02 836.37 1235.39 836.66L1187.32 845.45C1183.79 846.09 1183.45 847.31 1186.47 848.63L1230.23 867.79C1233.57 869.25 1240.02 870.63 1247.07 871.36L1348.19 881.92C1351.79 882.29 1355.33 882.49 1358.4 882.49C1361.47 882.49 1364.01 882.29 1365.73 881.92L1413.77 871.36C1417.12 870.63 1416.68 869.25 1412.67 867.79Z" stroke="#DBB10C" stroke-miterlimit="10"/>
<path d="M1407.19 831.66L1359.65 815.76C1356.36 814.66 1350.47 813.65 1344.28 813.11L1259.9 805.76C1257.04 805.51 1254.21 805.38 1251.71 805.38C1249.21 805.38 1247.1 805.51 1245.62 805.76L1201.82 813.11C1198.61 813.65 1198.34 814.66 1201.12 815.76L1241.37 831.66C1244.43 832.87 1250.31 834 1256.71 834.61L1348.47 843.3C1351.73 843.61 1354.93 843.77 1357.71 843.77C1360.49 843.77 1362.8 843.61 1364.36 843.3L1408.14 834.61C1411.2 834 1410.83 832.87 1407.22 831.66H1407.19Z" stroke="#DBB10C" stroke-miterlimit="10"/>
<path d="M543.669 888.91L551.561 912.06C552.154 913.8 556.252 915.42 562.281 916.29L647.985 928.64C651.012 929.08 654.341 929.31 657.577 929.31C660.812 929.31 663.932 929.08 666.551 928.64L740.51 916.29C745.713 915.42 748.274 913.8 747.215 912.06L733.096 888.91C732.106 887.29 727.788 885.79 721.817 884.99L639.919 874.04C637.114 873.67 634.052 873.47 631.038 873.47C628.023 873.47 625.148 873.67 622.715 874.04L551.212 884.99C546.009 885.79 543.11 887.29 543.657 888.91H543.669Z" stroke="#DBB10C" stroke-miterlimit="10"/>
<path d="M719.186 973.38L830.172 990.11C834.153 990.71 838.32 991.03 842.196 991.03C846.072 991.03 849.576 990.71 852.311 990.11L928.308 973.38C933.569 972.23 934.989 970.07 932.056 967.78L894.249 938.13C891.677 936.12 885.461 934.26 878.035 933.28L777.478 919.97C774.091 919.52 770.529 919.28 767.177 919.28C763.825 919.28 760.764 919.52 758.319 919.97L685.582 933.28C680.204 934.26 677.876 936.12 679.517 938.13L703.705 967.78C705.579 970.07 711.492 972.23 719.174 973.38H719.186Z" stroke="#DBB10C" stroke-miterlimit="10"/>
<path d="M932.032 884.99L846.992 874.04C844.082 873.67 840.962 873.47 837.948 873.47C834.933 873.47 832.116 873.67 829.788 874.04L761.427 884.99C756.445 885.79 753.989 887.29 755.002 888.91L769.54 912.06C770.634 913.8 775.197 915.42 781.471 916.29L870.725 928.64C873.88 929.08 877.267 929.31 880.514 929.31C883.762 929.31 886.812 929.08 889.303 928.64L959.712 916.29C964.671 915.42 966.766 913.8 965.206 912.06L944.44 888.91C942.986 887.29 938.225 885.79 932.032 884.99Z" stroke="#DBB10C" stroke-miterlimit="10"/>
<path d="M991.873 912.06C993.514 913.8 998.74 915.42 1005.49 916.29L1101.56 928.64C1104.94 929.08 1108.53 929.31 1111.88 929.31C1115.23 929.31 1118.32 929.08 1120.77 928.64L1189.98 916.29C1194.86 915.42 1196.55 913.8 1194.42 912.06L1166.04 888.91C1164.05 887.29 1158.68 885.79 1152.03 884.99L1060.73 874.04C1057.6 873.67 1054.32 873.47 1051.2 873.47C1048.08 873.47 1045.22 873.67 1042.93 874.04L975.426 884.99C970.514 885.79 968.407 887.29 969.943 888.91L991.873 912.06Z" stroke="#DBB10C" stroke-miterlimit="10"/>
<path d="M968.174 973.38L1087.44 990.11C1091.71 990.71 1096.04 991.03 1099.91 991.03C1103.79 991.03 1107.13 990.71 1109.58 990.11L1177.3 973.38C1181.99 972.23 1182.34 970.07 1178.27 967.78L1125.78 938.13C1122.22 936.12 1115.08 934.26 1107.15 933.28L1000.01 919.97C996.389 919.52 992.723 919.28 989.37 919.28C986.018 919.28 983.085 919.52 980.862 919.97L914.712 933.28C909.824 934.26 908.415 936.12 911.058 938.13L949.935 967.78C952.938 970.07 959.933 972.23 968.174 973.38Z" stroke="#DBB10C" stroke-miterlimit="10"/>
<path d="M1211.66 973.38L1339.02 990.11C1343.58 990.71 1348.06 991.03 1351.94 991.03C1355.82 991.03 1359.01 990.71 1361.16 990.11L1420.78 973.38C1424.91 972.23 1424.21 970.07 1419.04 967.78L1352.2 938.13C1347.66 936.12 1339.61 934.26 1331.22 933.28L1217.63 919.97C1213.79 919.52 1210 919.28 1206.65 919.28C1203.3 919.28 1200.47 919.52 1198.47 919.97L1138.77 933.28C1134.36 934.26 1133.84 936.12 1137.46 938.13L1190.69 967.78C1194.81 970.07 1202.85 972.23 1211.64 973.38H1211.66Z" stroke="#DBB10C" stroke-miterlimit="10"/>
<path d="M1410.41 912.06L1375.15 888.91C1372.68 887.29 1366.87 885.79 1359.98 884.99L1265.44 874.04C1262.21 873.67 1258.86 873.47 1255.74 873.47C1252.62 873.47 1249.81 873.67 1247.62 874.04L1183.37 884.99C1178.69 885.79 1177.03 887.29 1179.05 888.91L1207.86 912.06C1210.03 913.8 1215.72 915.42 1222.74 916.29L1322.47 928.64C1325.98 929.08 1329.64 929.31 1332.99 929.31C1336.34 929.31 1339.36 929.08 1341.68 928.64L1407.23 916.29C1411.85 915.42 1413.05 913.8 1410.39 912.06H1410.41Z" stroke="#DBB10C" stroke-miterlimit="10"/>
<path d="M76.9809 990.87C80.8686 990.87 84.8261 990.55 88.4461 989.95L189.003 973.24C195.963 972.08 200.549 969.93 200.992 967.64L206.777 938C207.173 935.99 203.681 934.13 197.698 933.15L116.731 919.85C113.996 919.4 110.795 919.17 107.442 919.17C104.09 919.17 100.691 919.4 97.5834 919.85L5.30267 933.15C3.40538 933.42 1.64776 933.77 0.0531006 934.16V977.14L66.2955 989.96C69.3917 990.56 73.0931 990.88 76.9692 990.88L76.9809 990.87Z" stroke="#DBB10C" stroke-miterlimit="10"/>
<path d="M19.2239 928.72C22.4831 928.72 25.7771 928.49 28.7569 928.06L113.239 915.73C119.187 914.86 123.133 913.24 123.564 911.51L129.29 888.4C129.698 886.78 126.66 885.28 121.375 884.49L48.9172 873.56C46.4379 873.19 43.5512 872.99 40.5365 872.99C37.5217 872.99 34.4837 873.19 31.7251 873.56L0.0763564 877.82V926.38L10.2147 928.04C12.8685 928.47 15.988 928.7 19.2355 928.7L19.2239 928.72Z" stroke="#DBB10C" stroke-miterlimit="10"/>
<path d="M25.7073 867.71L38.837 848.56C39.745 847.24 37.4519 846.03 32.8891 845.38L0.0763564 840.74V873.09L14.568 871.27C20.4345 870.53 24.7063 869.16 25.7073 867.7V867.71Z" stroke="#DBB10C" stroke-miterlimit="10"/>
<path d="M50.1277 843.829C52.9213 843.829 55.773 843.669 58.392 843.359L131.933 834.669C137.077 834.059 140.581 832.929 141.105 831.719L148.019 815.819C148.496 814.719 146.087 813.709 141.745 813.169L82.533 805.819C80.5193 805.569 78.1448 805.439 75.6422 805.439C73.1397 805.439 70.5906 805.569 68.2509 805.819L0.0763564 813.069V837.409L42.5036 843.359C44.7035 843.669 47.3458 843.829 50.1277 843.829Z" stroke="#DBB10C" stroke-miterlimit="10"/>
<path d="M71.0445 801.6L80.24 788.19C80.4961 787.82 80.3098 787.47 79.7744 787.14H0.0763564V810.64L62.1167 804.07C66.9356 803.56 70.3461 802.61 71.0445 801.59V801.6Z" stroke="#DBB10C" stroke-miterlimit="10"/>
<path d="M87.0144 804.08L146.017 811.36C148.112 811.62 150.568 811.76 153.105 811.76C155.643 811.76 158.215 811.62 160.543 811.36L225.726 804.08C230.289 803.57 233.246 802.62 233.444 801.6L236.063 788.19C236.133 787.82 235.783 787.47 235.085 787.14H92.0545C91.0884 787.47 90.4249 787.82 90.1921 788.19L81.4157 801.6C80.7522 802.62 82.8939 803.57 87.0261 804.08H87.0144Z" stroke="#DBB10C" stroke-miterlimit="10"/>
<path d="M250.345 804.08L312.909 811.36C315.132 811.62 317.658 811.76 320.195 811.76C322.733 811.76 325.247 811.62 327.435 811.36L389.057 804.08C393.375 803.57 395.854 802.62 395.552 801.6L391.606 788.19C391.501 787.82 390.966 787.47 390.116 787.14H247.086C246.271 787.47 245.793 787.82 245.735 788.19L243.524 801.6C243.361 802.62 245.968 803.57 250.345 804.08Z" stroke="#DBB10C" stroke-miterlimit="10"/>
<path d="M406.179 801.6C406.517 802.62 409.578 803.57 414.211 804.08L480.36 811.36C482.711 811.62 485.295 811.76 487.833 811.76C490.37 811.76 492.814 811.62 494.875 811.36L552.923 804.08C556.985 803.57 559.01 802.62 558.207 801.6L547.673 788.19C547.382 787.82 546.684 787.47 545.671 787.14H402.641C401.989 787.47 401.686 787.82 401.802 788.19L406.179 801.6Z" stroke="#DBB10C" stroke-miterlimit="10"/>
<path d="M749.659 801.66C750.998 802.68 755.002 803.63 760.135 804.14L833.455 811.42C836.05 811.68 838.786 811.82 841.323 811.82C843.861 811.82 846.165 811.68 847.981 811.42L898.87 804.14C902.432 803.63 903.515 802.68 901.711 801.66L877.965 788.24C877.279 787.85 876.126 787.48 874.683 787.13H731.943C731.548 787.47 731.559 787.85 732.071 788.24L749.659 801.66Z" stroke="#DBB10C" stroke-miterlimit="10"/>
<path d="M572.873 801.66C573.7 802.68 577.238 803.63 582.115 804.14L651.838 811.42C654.306 811.68 656.971 811.82 659.509 811.82C662.046 811.82 664.421 811.68 666.365 811.42L720.862 804.14C724.68 803.63 726.228 802.68 724.936 801.66L707.826 788.24C707.325 787.85 706.371 787.48 705.09 787.13H562.351C561.781 787.47 561.606 787.85 561.932 788.24L572.873 801.66Z" stroke="#DBB10C" stroke-miterlimit="10"/>
<path d="M918.146 801.66C919.974 802.68 924.443 803.63 929.821 804.14L1006.67 811.42C1009.39 811.68 1012.18 811.82 1014.72 811.82C1017.26 811.82 1019.49 811.68 1021.18 811.42L1068.54 804.14C1071.86 803.63 1072.48 802.68 1070.19 801.66L1039.93 788.24C1039.05 787.85 1037.72 787.48 1036.12 787.13H893.377C893.144 787.47 893.33 787.85 894.04 788.24L918.123 801.66H918.146Z" stroke="#DBB10C" stroke-miterlimit="10"/>
<path d="M1080.3 801.66C1082.63 802.68 1087.55 803.63 1093.19 804.14L1173.59 811.42C1176.45 811.68 1179.31 811.82 1181.85 811.82C1184.38 811.82 1186.56 811.68 1188.12 811.42L1231.92 804.14C1234.99 803.63 1235.15 802.68 1232.35 801.66L1195.54 788.24C1194.46 787.85 1192.95 787.48 1191.17 787.13H1048.43C1048.36 787.47 1048.75 787.85 1049.63 788.24L1080.29 801.66H1080.3Z" stroke="#DBB10C" stroke-miterlimit="10"/>
<path d="M1243.68 802.06C1246.51 803.08 1251.92 804.03 1257.81 804.54L1341.92 811.84C1344.9 812.1 1347.83 812.24 1350.38 812.24C1352.93 812.24 1355.02 812.1 1356.47 811.84L1396.72 804.54C1399.53 804.03 1399.22 803.08 1395.93 802.06L1352.43 788.61C1350.69 788.07 1348.17 787.57 1345.26 787.14H1204.67C1204.32 787.57 1204.88 788.08 1206.36 788.61L1243.68 802.06Z" stroke="#DBB10C" stroke-miterlimit="10"/>
<path d="M1426.4 919.27C1423.06 919.27 1420.33 919.51 1418.55 919.96L1365.37 933.27C1361.44 934.25 1361.84 936.11 1366.44 938.12L1434.2 967.77C1439.44 970.06 1448.53 972.22 1457.9 973.37L1489.98 977.33V925.74L1437.7 919.95C1433.65 919.5 1429.75 919.26 1426.4 919.26V919.27Z" stroke="#DBB10C" stroke-miterlimit="10"/>
<path d="M1422.71 836.7C1419.99 836.7 1417.75 836.86 1416.27 837.16L1372.48 845.97C1369.27 846.62 1369.54 847.84 1373.21 849.16L1426.52 868.37C1430.59 869.84 1437.74 871.21 1445.14 871.95L1460.57 873.48C1457.62 873.5 1455 873.69 1453.01 874.05L1392.03 885C1387.58 885.8 1386.38 887.3 1388.89 888.92L1424.6 912.07C1427.27 913.81 1433.45 915.43 1440.73 916.3L1490 922.18V842.45L1431.93 837.16C1428.65 836.86 1425.48 836.7 1422.75 836.7H1422.71Z" stroke="#DBB10C" stroke-miterlimit="10"/>
<path d="M1418.9 805.78C1416.41 805.78 1414.35 805.91 1412.99 806.16L1372.76 813.53C1369.82 814.07 1370.04 815.09 1373.37 816.19L1421.51 832.13C1425.18 833.34 1431.63 834.48 1438.33 835.09L1489.98 839.77V811.41L1427.31 806.17C1424.3 805.92 1421.42 805.79 1418.92 805.79L1418.9 805.78Z" stroke="#DBB10C" stroke-miterlimit="10"/>
<path d="M1359.7 787.14C1359.56 787.57 1360.37 788.08 1362.11 788.61L1406.02 802.06C1409.35 803.08 1415.23 804.03 1421.36 804.54L1489.98 810.25V787.14H1359.7Z" stroke="#DBB10C" stroke-miterlimit="10"/>
<path d="M1341.88 994.23L1213.46 977.24C1209.14 976.67 1204.88 976.37 1201.1 976.37C1197.32 976.37 1194.14 976.67 1191.87 977.24L1124.09 994.23C1119.06 995.49 1118.41 997.87 1122.44 1000.46L1163.94 1027.14H1419.54L1365.78 1000.46C1360.57 997.87 1351.42 995.49 1341.88 994.23Z" stroke="#DBB10C" stroke-miterlimit="10"/>
<path d="M312.676 994.16L217.66 977.18C214.459 976.61 210.793 976.31 207.01 976.31C203.227 976.31 199.455 976.61 196.068 977.18L94.9179 994.16C87.4219 995.42 82.0908 997.8 81.0316 1000.38L70.0669 1027.14H325.678L324.351 1000.38C324.223 997.79 319.742 995.41 312.688 994.16H312.676Z" stroke="#DBB10C" stroke-miterlimit="10"/>
<path d="M569.079 994.16L465.74 977.18C462.271 976.61 458.442 976.31 454.671 976.31C450.899 976.31 447.268 976.61 444.148 977.18L351.309 994.16C344.418 995.42 340.263 997.8 340.472 1000.38L342.614 1027.14H598.213L583.78 1000.38C582.383 997.79 576.749 995.41 569.067 994.16H569.079Z" stroke="#DBB10C" stroke-miterlimit="10"/>
<path d="M826.168 994.08L714.507 977.099C710.759 976.529 706.79 976.229 703.007 976.229C699.224 976.229 695.744 976.529 692.915 977.099L608.433 994.08C602.171 995.34 599.179 997.719 600.646 1000.3L615.976 1027.14H871.575L843.919 1000.3C841.253 997.719 834.444 995.34 826.156 994.08H826.168Z" stroke="#DBB10C" stroke-miterlimit="10"/>
<path d="M1082.56 994.23L962.552 977.24C958.525 976.67 954.404 976.37 950.633 976.37C946.862 976.37 943.521 976.67 940.972 977.24L864.777 994.23C859.12 995.49 857.293 997.87 860.04 1000.46L888.336 1027.14H1143.94L1103.38 1000.46C1099.45 997.87 1091.48 995.49 1082.57 994.23H1082.56Z" stroke="#DBB10C" stroke-miterlimit="10"/>
<path d="M1446.04 976.37C1442.28 976.37 1439.22 976.67 1437.22 977.24L1377.66 994.23C1373.25 995.49 1373.74 997.87 1379.01 1000.46L1433.44 1027.14H1489.98V981.12L1458.82 977.25C1454.22 976.68 1449.81 976.38 1446.04 976.38V976.37Z" stroke="#DBB10C" stroke-miterlimit="10"/>
<path d="M0.0763564 982.6V1027.14H56.1455L67.7737 1000.38C68.9028 997.79 65.5738 995.41 59.1253 994.16L0.0763564 982.6Z" stroke="#DBB10C" stroke-miterlimit="10"/>
</g>
<path opacity="0.7" d="M737.5 1004.3C941.569 1004.3 1107 975.162 1107 939.22C1107 903.277 941.569 874.14 737.5 874.14C533.431 874.14 368 903.277 368 939.22C368 975.162 533.431 1004.3 737.5 1004.3Z" fill="#B87813"/>
<path d="M516.81 956.44L750.24 906.24L741.68 900.97L502.25 948.16L516.81 956.44Z" fill="#6C6267"/>
<path d="M967.53 951.7L733.04 906.24L741.6 900.97L982.09 943.42L967.53 951.7Z" fill="#6C6267"/>
<path d="M860.5 927.07L753.63 512.82L748.45 514.16V172.82H737.39V514.93L729.2 512.82L622.37 927.9C622.37 928.13 624.92 928.32 628.07 928.32C631.22 928.32 633.77 928.13 633.77 927.9H633.78L737.38 525.38V906.68C737.38 906.68 737.37 906.69 737.37 906.7C737.37 906.93 739.85 907.12 742.9 907.12C745.95 907.12 748.43 906.93 748.43 906.7V537.02L849.07 927.09H849.24C849.08 927.13 848.99 927.17 848.99 927.21C848.99 927.44 851.63 927.63 854.88 927.63C858.13 927.63 860.77 927.44 860.77 927.21C860.77 927.16 860.66 927.12 860.48 927.08L860.5 927.07Z" fill="#6C6267"/>
<path d="M1083 206.62H375V744H1083V206.62Z" fill="#617376"/>
<path d="M1243.32 210.62H205.88V719H1243.32V210.62Z" fill="white"/>
<path d="M1263.34 200.74H205.66C200.325 200.74 196 205.063 196 210.395C196 215.728 200.325 220.05 205.66 220.05H1263.34C1268.68 220.05 1273 215.728 1273 210.395C1273 205.063 1268.68 200.74 1263.34 200.74Z" fill="#342B59"/>
<path d="M1258.37 204.64H212.57C210.979 204.64 209.69 205.93 209.69 207.52C209.69 209.111 210.979 210.4 212.57 210.4H1258.37C1259.96 210.4 1261.25 209.111 1261.25 207.52C1261.25 205.93 1259.96 204.64 1258.37 204.64Z" fill="#8CA3D4"/>
<path d="M1263.34 718.64H205.66C200.325 718.64 196 722.962 196 728.295C196 733.627 200.325 737.95 205.66 737.95H1263.34C1268.68 737.95 1273 733.627 1273 728.295C1273 722.962 1268.68 718.64 1263.34 718.64Z" fill="#342B59"/>
<path d="M1258.37 722.54H212.57C210.979 722.54 209.69 723.829 209.69 725.42C209.69 727.01 210.979 728.3 212.57 728.3H1258.37C1259.96 728.3 1261.25 727.01 1261.25 725.42C1261.25 723.829 1259.96 722.54 1258.37 722.54Z" fill="#8CA3D4"/>
<path opacity="0.9" d="M1339.33 73H114.67C111.539 73 109 75.5385 109 78.67V143.33C109 146.461 111.539 149 114.67 149H1339.33C1342.46 149 1345 146.461 1345 143.33V78.67C1345 75.5385 1342.46 73 1339.33 73Z" fill="white"/>
</g>
<defs>
<radialGradient id="paint0_radial_548_46" cx="0" cy="0" r="1" gradientUnits="userSpaceOnUse" gradientTransform="translate(715.345 394.562) scale(646.453 456.138)">
<stop stop-color="white"/>
<stop offset="1" stop-color="#A4D8E6"/>
</radialGradient>
<linearGradient id="paint1_linear_548_46" x1="724.006" y1="1027" x2="724.006" y2="787" gradientUnits="userSpaceOnUse">
<stop offset="0.13" stop-color="#FFDD80"/>
<stop offset="0.36" stop-color="#F6C55B"/>
<stop offset="0.64" stop-color="#EDAE36"/>
<stop offset="0.86" stop-color="#E7A020"/>
<stop offset="1" stop-color="#E69B18"/>
</linearGradient>
<clipPath id="clip0_548_46">
<rect width="1450" height="1025" fill="white"/>
</clipPath>
</defs>
</svg>
