<svg id="Home_Page" data-name="Home Page" xmlns="http://www.w3.org/2000/svg" xmlns:xlink="http://www.w3.org/1999/xlink" viewBox="0 0 1280 1024"><defs><style>.cls-1,.cls-31{fill:none;}.cls-2{fill:#b1c119;}.cls-13,.cls-3,.cls-35,.cls-4,.cls-5,.cls-6,.cls-7,.cls-8{isolation:isolate;}.cls-3{font-size:36.34px;}.cls-3,.cls-4,.cls-5,.cls-6,.cls-7,.cls-8,.cls-9{fill:#322b2e;}.cls-3,.cls-4,.cls-5,.cls-6,.cls-7,.cls-8{font-family:ArialMT, Arial;}.cls-4{font-size:36.34px;}.cls-5{font-size:36.34px;}.cls-6{font-size:36.34px;}.cls-7{font-size:36.34px;}.cls-8{font-size:36.34px;}.cls-10{fill:#fff;}.cls-11{fill:#ffe082;}.cls-12{fill:url(#Gradiente_sem_nome_14);}.cls-13{fill:#9cc;opacity:0.6;}.cls-14{fill:url(#Gradiente_sem_nome_15);}.cls-15{fill:#82b3e1;}.cls-16{fill:#96bc48;}.cls-17{fill:#89683e;}.cls-18{fill:#499a35;}.cls-19{fill:#3d8032;}.cls-20{fill:#6ab54e;}.cls-21{fill:#84bf6a;}.cls-22{fill:#ffd644;}.cls-22,.cls-23{stroke:#ddb30a;}.cls-22,.cls-23,.cls-31,.cls-34{stroke-miterlimit:10;}.cls-23{fill:#c3a550;}.cls-24{fill:#f7cb96;}.cls-25{fill:#4a5ba4;}.cls-26{fill:#6874b5;}.cls-27{fill:#a3aed8;}.cls-28{fill:#f39d2b;}.cls-29{clip-path:url(#clip-path);}.cls-30{fill:#ee7d00;}.cls-31{stroke:#ea5c1f;stroke-width:1.04px;}.cls-32{clip-path:url(#clip-path-2);}.cls-33{fill:#b83918;}.cls-34{fill:#c42218;stroke:#6a1d0b;stroke-width:0.71px;}.cls-35{fill:#7fcad4;opacity:0.3;}.cls-36{fill:#4164ac;}.cls-37{opacity:0.7;}.cls-38{fill:#ecf4fc;}</style><radialGradient id="Gradiente_sem_nome_14" cx="352.88" cy="-69.67" r="323.85" gradientTransform="translate(-67.67 735.83) scale(1.02 1)" gradientUnits="userSpaceOnUse"><stop offset="0.03" stop-color="#fff"/><stop offset="0.92" stop-color="#abcf83"/></radialGradient><radialGradient id="Gradiente_sem_nome_15" cx="253.3" cy="-66.13" r="365.4" gradientTransform="translate(836.96 732.89) scale(0.71 1)" xlink:href="#Gradiente_sem_nome_14"/><clipPath id="clip-path"><path class="cls-1" d="M683.2,224.9S566.1,248.7,561.1,263c-2.7,7.6,26,207.8,27.5,218.1,0,0,38.6.3,51.2-1.4,20.2-2.6,43.4-2.3,43.4-2.3V224.9Z"/></clipPath><clipPath id="clip-path-2"><path class="cls-1" d="M685.3,224.9S802.4,248.7,807.4,263c2.8,7.9-27.5,218.1-27.5,218.1s-34.3.1-45.6-1.1c-25.8-2.7-49-2.6-49-2.6Z"/></clipPath><symbol id="logo" data-name="logo" viewBox="0 0 380.03 157.39"><g id="logo-3" data-name="logo"><path class="cls-2" d="M348.36,156.8c-22-6.9-105-28.6-157.4-28.1-65.1.6-145.4,23-164.7,28.5-3.6,1-4.1-2.2-4.1-2.2L.36,86.1s-1.8-5.3,2.7-6.1c24.4-4.7,142.6-36.5,186.2-36.8,43.1-.3,163,29.3,187.6,38.1,4.5,1.6,2.9,6.2,2.9,6.2l-25.3,66.4S352.56,158.2,348.36,156.8Z"/><path class="cls-1" d="M25.86,129.4s108-28,164.5-26.1,171.1,28.8,171.1,28.8"/><text class="cls-3" transform="translate(22.82 129.33) rotate(-13.52)">N</text><text class="cls-4" transform="matrix(0.98, -0.22, 0.22, 0.98, 47.51, 123.42)">u</text><text class="cls-5" transform="translate(68.41 118.88) rotate(-11.66)">t</text><text class="cls-3" transform="translate(81.64 116.1) rotate(-11)">r</text><text class="cls-3" transform="matrix(0.98, -0.18, 0.18, 0.98, 94.19, 113.67)">i</text><text class="cls-3" transform="matrix(0.99, -0.16, 0.16, 0.99, 103.34, 111.94)">e</text><text class="cls-3" transform="translate(123.74 108.52) rotate(-7.75)">n</text><text class="cls-3" transform="translate(144.93 105.69) rotate(-5.84)">t</text><text class="cls-3" transform="matrix(1, -0.05, 0.05, 1, 158.13, 104.22)">e</text><text class="cls-6" transform="translate(178.51 103.17) rotate(1.32)">s</text><text class="cls-3" transform="translate(198.83 103.76) rotate(4.72)"> </text><text class="cls-7" transform="translate(206.14 104.39) rotate(6.62)">C</text><text class="cls-8" transform="matrix(0.99, 0.14, -0.14, 0.99, 231.08, 106.83)">r</text><text class="cls-3" transform="translate(243.7 108.62) rotate(8.78)">i</text><text class="cls-3" transform="translate(252.92 110) rotate(9.57)">a</text><text class="cls-3" transform="translate(272.83 113.39) rotate(10.3)">t</text><text class="cls-3" transform="matrix(0.98, 0.19, -0.19, 0.98, 286.15, 115.81)">i</text><text class="cls-3" transform="matrix(0.98, 0.19, -0.19, 0.98, 296.34, 117.53)">v</text><text class="cls-3" transform="translate(315.39 121.51) rotate(11.82)">o</text><text class="cls-3" transform="matrix(0.98, 0.21, -0.21, 0.98, 336.06, 125.84)">s</text><path class="cls-9" d="M215.56,21.2v30a6.14,6.14,0,0,1-3.1,5.3l-26.4,15.1a6,6,0,0,1-6,0l-26.3-15.1a6.14,6.14,0,0,1-3.1-5.3v-30a6.14,6.14,0,0,1,3.1-5.3L180.16.8a6,6,0,0,1,6,0l26.4,15.1a6,6,0,0,1,3,5.3Z"/><path class="cls-2" d="M207.56,47.7a4.67,4.67,0,0,1-2.2,3.9l-19.9,11.5a4.56,4.56,0,0,1-2.2.6,4,4,0,0,1-2.2-.6l-19.9-11.5a4.45,4.45,0,0,1-2.2-3.9v-23a4.67,4.67,0,0,1,2.2-3.9l19.9-11.5a4.56,4.56,0,0,1,2.2-.6,4,4,0,0,1,2.2.6l19.9,11.5a4.45,4.45,0,0,1,2.2,3.9v23Zm1.5-26.5a6.67,6.67,0,0,0-2.5-2.5L186.66,7.2a7.26,7.26,0,0,0-7,0l-19.9,11.5a6.67,6.67,0,0,0-2.5,2.5,7.3,7.3,0,0,0-.9,3.5v23a7.3,7.3,0,0,0,.9,3.5,6.67,6.67,0,0,0,2.5,2.5l19.9,11.5a6.76,6.76,0,0,0,3.5.9,7,7,0,0,0,3.5-.9l19.9-11.5a6.67,6.67,0,0,0,2.5-2.5,7.3,7.3,0,0,0,.9-3.5v-23a7.3,7.3,0,0,0-.9-3.5Z"/><path class="cls-2" d="M211.76,49.8a5.25,5.25,0,0,1-2.6,4.5l-23.5,13.6a5.34,5.34,0,0,1-5.2,0L157,54.3a5.13,5.13,0,0,1-2.6-4.5V22.7a5.25,5.25,0,0,1,2.6-4.5l23.5-13.6a5.18,5.18,0,0,1,5.2,0l23.5,13.6a5.13,5.13,0,0,1,2.6,4.5V49.8Zm.4-30.3a6.33,6.33,0,0,0-2.3-2.3L186.36,3.6a6.14,6.14,0,0,0-6.4,0l-23.5,13.5a6.33,6.33,0,0,0-2.3,2.3,6.2,6.2,0,0,0-.9,3.2V49.7a6.2,6.2,0,0,0,.9,3.2,6.33,6.33,0,0,0,2.3,2.3L180,68.8a6.14,6.14,0,0,0,6.4,0l23.5-13.6a6.33,6.33,0,0,0,2.3-2.3,6.2,6.2,0,0,0,.9-3.2v-27a6.65,6.65,0,0,0-.9-3.2Z"/><path class="cls-10" d="M195.46,40a3.33,3.33,0,0,1,3.3-3.3h2.1a3.39,3.39,0,0,1-.1,4.6l-.1.1v.2a5.7,5.7,0,0,1-5.7,5.7,3.33,3.33,0,0,1-3.3-3.3h-1a4,4,0,0,0,1.3,3,4.2,4.2,0,0,0,2.5,1.2,5.68,5.68,0,0,1-5.7,5.2,3.26,3.26,0,0,1-3.3-2.9V38.2a3.33,3.33,0,0,1,3.3-3.3,4.15,4.15,0,0,0,1.6-.3,4.19,4.19,0,0,0,1.4-.9,4.34,4.34,0,0,0,1.3-3h-1a3.3,3.3,0,0,1-6.6,0V22.3a3.33,3.33,0,0,1,3.3-3.3,5.75,5.75,0,0,1,5.7,5.2,4,4,0,0,0-2.5,1.2,4.34,4.34,0,0,0-1.3,3h1a3.33,3.33,0,0,1,3.3-3.3,5.28,5.28,0,0,1,4,1.7,5.85,5.85,0,0,1,1.7,4V31l.1.1a3.29,3.29,0,0,1,.1,4.6h-2.1a3.8,3.8,0,0,0-3,1.3,4.34,4.34,0,0,0-1.3,3Zm7.3-6.5a4.36,4.36,0,0,0-1.1-2.9,6.36,6.36,0,0,0-1.9-4.5,6.55,6.55,0,0,0-4.2-1.9,6.55,6.55,0,0,0-1.9-4.2,6.41,6.41,0,0,0-4.7-1.9,4,4,0,0,0-3,1.3,4.34,4.34,0,0,0-1.3,3v8.4a4,4,0,0,0,1.3,3,4.44,4.44,0,0,0,1.1.8,7.63,7.63,0,0,0-1.1.8,4.34,4.34,0,0,0-1.3,3V50.8a4,4,0,0,0,1.4,2.6,4.3,4.3,0,0,0,2.8,1.1,6.83,6.83,0,0,0,4.7-1.9,6.55,6.55,0,0,0,1.9-4.2,6.55,6.55,0,0,0,4.2-1.9,6.36,6.36,0,0,0,1.9-4.5,4.36,4.36,0,0,0,1.1-2.9,3.94,3.94,0,0,0-1-2.7,4.23,4.23,0,0,0,1.1-2.9Z"/><path class="cls-10" d="M173.86,19.6a5.76,5.76,0,0,1,4.4.9,5.93,5.93,0,0,1,2.5,3.7,5.76,5.76,0,0,1-.9,4.4,5.93,5.93,0,0,1-3.7,2.5l-.5.1.2.9.5-.1a6.83,6.83,0,0,0,5.4-7.5.9.9,0,0,0-.1-.5h0c0-.2-.1-.3-.1-.5a6.83,6.83,0,0,0-2.8-3.9,6.56,6.56,0,0,0-5.1-1l-.5.1.2.9Z"/><path class="cls-10" d="M173.06,47.6a6.75,6.75,0,0,1-1.4.2,5.81,5.81,0,0,0,5.8,5.5h.5v1h-.5a6.73,6.73,0,0,1-4.8-2,6.92,6.92,0,0,1-2-4.5A9.24,9.24,0,0,1,168,47a6.61,6.61,0,0,1-3.2-4.1l-.1-.5.9-.3.1.5a5.82,5.82,0,0,0,6.4,4.2l-.2-.2-.3-.3a6.62,6.62,0,0,1-1.7-4.5,7.61,7.61,0,0,1,.3-2.1,7,7,0,0,1-6.7-5.7.6.6,0,0,0-.1-.4V33a6.9,6.9,0,0,1,1.6-4.5,6.54,6.54,0,0,1,4.6-2.4h.5l.1,1h-.5a5.92,5.92,0,0,0-5.3,6.4v.1a5.76,5.76,0,0,0,6.1,5.2,7.1,7.1,0,0,1,1-1.4l.3-.3h0a5.85,5.85,0,0,0,0-8.3l-.3-.3.7-.7.3.3a6.73,6.73,0,0,1,2,4.8,6.81,6.81,0,0,1-1.7,4.5l-.3.3h0a6.57,6.57,0,0,0-1.2,1.7c0,.1-.1.2-.1.3a5.93,5.93,0,0,0,1.3,6.3,4.35,4.35,0,0,0,.7.6c.1.1.1.1.2.1a6.33,6.33,0,0,0,3.2,1,5.66,5.66,0,0,0,4.1-1.7l.3-.3.7.7-.3.3a6.73,6.73,0,0,1-4.8,2,6.83,6.83,0,0,1-3.5-1.1Z"/><path class="cls-10" d="M175.36,42.6h-.5l.1.9h.5a6.73,6.73,0,0,0,4.6-2.4,6.51,6.51,0,0,0,1.5-5v-.5l-1,.1v.5a6,6,0,0,1-1.3,4.3,5.62,5.62,0,0,1-3.9,2.1Z"/></g></symbol></defs><g id="fundo"><rect class="cls-10" x="379.52" y="252.27" width="522.72" height="273.24"/><polyline class="cls-11" points="177 1022 281 870 368.5 761.4 562.1 485.1 669 466 816 479 1098 1024 177 1022 177 1022"/><path class="cls-12" d="M551,530.3c9-16.1,43.9-42.5,33-64.3-35.9-71.5-187.9-152.7-180.8-158L0,309.9V1024H323.6c25.9-47.6,35.3-108.8,36.7-130.6,3.4-54.7,34.1-80.6,89.7-172.4C471.1,686.3,508.9,605.4,551,530.3Z"/><rect class="cls-13" width="1280" height="309.07"/><path class="cls-14" d="M838.8,309C811,347.2,728.9,453,758.2,527.3s56,39.1,103.3,102.2-24.7,33.9-18.3,93.2,27,70.3,96.8,173.2S978.3,1025,978.3,1025H1280V308Z"/><path class="cls-15" d="M0,0V74.07c12.8.11,34.4.31,52.2-.1C79.3,73.26,183.1,61.51,231,46s74,20.67,123.7,35.56,70,9.53,101.6,0S597.3,52.9,640,39.42C765.2-.1,1072.7,89.17,1147.2,108.83c37.6,9.93,89.4,4.06,132.8-5.06V0Z"/><path class="cls-16" d="M346.4,307.4s-45-22.7-64.3-24.7S185.6,255.5,176,247.5,108.5,202.1,63.5,132.3C50.2,111.8,26.7,100.6,0,95V420.2c21.9,1.3,45.8,4.5,76.3,9.9,70.7,12.5,112.5-12.5,159.9-27.9s16.9-30.7,81.2-30c31.9.4,104.1,2.3,123.6-8.8C422,329,377.2,325.3,346.4,307.4Z"/><path class="cls-16" d="M1280.1,123.4c-25.5.8-50.71,7.8-59.71,22.3-17.41,28.4-47.91,34.1-119.13,55.5-97.72,29.3-57.91,79-117.73,95.9-49.11,13.9-86,25-117.73,31.7-10.6,2.2-13,5.7-9.7,10,17.1,11.2,55.21,21.2,115.33,17.5,74.22-4.5,57.91,1.8,162.14,41,55,20.7,105.92,26.4,146.43,22.3V123.4Z"/></g><g id="arvores"><rect class="cls-17" x="1054.4" y="327.9" width="18.9" height="176"/><rect class="cls-17" x="1162.8" y="260.2" width="19.9" height="209.4"/><path class="cls-18" d="M1252.8,197.4a81.42,81.42,0,1,1-94.9-65.2A81.43,81.43,0,0,1,1252.8,197.4Z"/><path class="cls-19" d="M1241,199.6a69.47,69.47,0,1,1-81-55.6A69.5,69.5,0,0,1,1241,199.6Z"/><path class="cls-20" d="M1186.7,151.4c-.3.1-.6.1-.8.2,14.7,7.2,37.8,28.5,43.1,57.6,3.2,17.4-6.3,35.6-9.5,48.6,11-10.6,20.8-33.4,16.3-57.2C1230,169.5,1205.5,147.9,1186.7,151.4Z"/><path class="cls-10" d="M1154.5,194a12.61,12.61,0,1,1-14.7-10.1A12.56,12.56,0,0,1,1154.5,194Z"/><path class="cls-10" d="M1207.6,183a12.61,12.61,0,1,1-14.7-10.1A12.56,12.56,0,0,1,1207.6,183Z"/><path class="cls-10" d="M1163.7,243.4a12.56,12.56,0,0,1-10.1,14.7,12.69,12.69,0,0,1-14.7-10.1,12.61,12.61,0,1,1,24.8-4.6Z"/><path class="cls-10" d="M1216.8,232.3a12.61,12.61,0,1,1-14.7-10.1A12.56,12.56,0,0,1,1216.8,232.3Z"/><circle class="cls-20" cx="1065.94" cy="331.71" r="71.1"/><path class="cls-18" d="M1126.5,331.7a60.7,60.7,0,1,1-60.7-60.7A60.73,60.73,0,0,1,1126.5,331.7Z"/><path class="cls-21" d="M1087.5,281.7h-.8c11.5,8.5,23.8,30.5,23.8,56.3,0,15.4-7,29.5-11.8,40.2,11.2-7.4,23.1-25.4,23.1-46.5C1121.9,304.1,1104.2,281.7,1087.5,281.7Z"/><path class="cls-10" d="M1052.5,332.3a11.7,11.7,0,1,1-11.7-11.7A11.65,11.65,0,0,1,1052.5,332.3Z"/><path class="cls-10" d="M1102.7,331.2a11.7,11.7,0,1,1-11.7-11.7A11.65,11.65,0,0,1,1102.7,331.2Z"/></g><g id="caminho"><path class="cls-22" d="M330.65,786.9c-2.1,2.8-1.9,5.4.5,6.9l35.5,20.7a10.71,10.71,0,0,0,5.1,1.1,22.15,22.15,0,0,0,6.5-1.1l61.6-20.7c4.2-1.4,7.7-4.1,9.2-6.9l18.2-35.7c1.2-2.4.4-4.6-2.2-5.7l-34.3-15.6a11.52,11.52,0,0,0-4.4-.8,21.41,21.41,0,0,0-5.4.8l-54.1,15.6c-4,1.2-7.6,3.4-9.4,5.7Z"/><path class="cls-22" d="M338.55,886.4l42.8,29.3a10.67,10.67,0,0,0,6.1,1.6,23.11,23.11,0,0,0,7.8-1.6l72.3-29.3c4.9-2,8.9-5.7,10.4-9.6l18.9-49.3a5.9,5.9,0,0,0-3-7.8L453,798.6a11.3,11.3,0,0,0-5.1-1.1,19.79,19.79,0,0,0-6.2,1.1l-62.2,21.1c-4.6,1.6-8.8,4.6-10.8,7.8L338,876.8C335.45,880.7,335.65,884.4,338.55,886.4Z"/><path class="cls-22" d="M511.45,814.4l56.3-20.7c3.9-1.4,6.7-4.1,7.4-6.9l9.1-35.7c.6-2.4-.8-4.6-3.7-5.7l-38.3-15.6a13,13,0,0,0-4.6-.8,17.53,17.53,0,0,0-5.1.8l-50.1,15.6c-3.7,1.2-6.8,3.4-8,5.7l-17.7,35.8c-1.4,2.8-.5,5.4,2.3,6.9l40.8,20.7a12.67,12.67,0,0,0,5.4,1.1A17.47,17.47,0,0,0,511.45,814.4Z"/><path class="cls-23" d="M645,814.4l51-20.7c3.5-1.4,5.7-4.1,5.6-6.9l-.1-35.7c0-2.4-2-4.6-5.1-5.7L654,729.8a14.64,14.64,0,0,0-4.8-.8,15.72,15.72,0,0,0-4.9.8l-46.1,15.6c-3.4,1.2-5.9,3.4-6.5,5.7l-8.5,35.7c-.7,2.8.9,5.4,4,6.9l46.1,20.7a14.85,14.85,0,0,0,5.7,1.1A13.64,13.64,0,0,0,645,814.4Z"/><path class="cls-22" d="M492.05,886.4l50.4,29.3a12.54,12.54,0,0,0,6.5,1.6,18.83,18.83,0,0,0,7.3-1.6l64.6-29.3c4.4-2,7.4-5.7,7.9-9.6l6-49.3c.4-3.3-1.5-6.2-5-7.8l-46.4-21.1a13,13,0,0,0-5.4-1.1,17.13,17.13,0,0,0-5.9,1.1l-56.7,21.1c-4.2,1.6-7.6,4.6-8.8,7.8l-17.9,49.3A7.77,7.77,0,0,0,492.05,886.4Z"/><path class="cls-22" d="M642.05,886.4l57.8,29.3a14.89,14.89,0,0,0,6.9,1.6,16.25,16.25,0,0,0,6.9-1.6l57.2-29.3c3.9-2,6-5.7,5.5-9.6l-6.5-49.3c-.4-3.3-3.1-6.2-7-7.8l-51.8-21.1a15.1,15.1,0,0,0-5.6-1.1,14.71,14.71,0,0,0-5.6,1.1l-51.3,21.1c-3.8,1.6-6.5,4.6-6.8,7.8l-5.4,49.3A9.92,9.92,0,0,0,642.05,886.4Z"/><path class="cls-22" d="M778.25,814.4,824,793.7c3.1-1.4,4.6-4.1,3.9-6.9l-9.3-35.7c-.6-2.4-3.2-4.6-6.6-5.7l-46.4-15.6a16.87,16.87,0,0,0-5-.8,14,14,0,0,0-4.7.8l-42,15.6c-3.1,1.2-5,3.4-5,5.7l.7,35.7c.1,2.8,2.3,5.4,5.8,6.9l51.4,20.7a17.25,17.25,0,0,0,6,1.1A11.79,11.79,0,0,0,778.25,814.4Z"/><path class="cls-22" d="M793.85,886.4l65.4,29.3a17.63,17.63,0,0,0,7.4,1.6,13.59,13.59,0,0,0,6.5-1.6l49.6-29.3c3.4-2,4.5-5.7,3-9.6l-19.1-49.3c-1.3-3.3-4.7-6.2-9-7.8l-57.2-21.1a17.13,17.13,0,0,0-5.9-1.1,12.53,12.53,0,0,0-5.3,1.1l-45.9,21.1c-3.4,1.6-5.3,4.6-4.8,7.8l7.3,49.3C786.35,880.7,789.45,884.4,793.85,886.4Z"/><path class="cls-22" d="M927.75,745.5l-50.4-15.6a18.76,18.76,0,0,0-5.2-.8,12.07,12.07,0,0,0-4.5.8l-38,15.6c-2.8,1.2-4.2,3.4-3.5,5.7l9.9,35.7c.8,2.8,3.7,5.4,7.6,6.9l56.8,20.7a19.79,19.79,0,0,0,6.2,1.1,12.2,12.2,0,0,0,5.3-1.1l40.3-20.7c2.8-1.4,3.6-4.1,2.1-6.9l-18.5-35.7C934.65,748.9,931.55,746.7,927.75,745.5Z"/><path class="cls-22" d="M417.85,671.1c-1.2,1.6-.7,3.2,1.3,4l29.5,11.9a11.47,11.47,0,0,0,4,.7,16.41,16.41,0,0,0,4.8-.7L502,675.1c3.1-.8,5.5-2.4,6.4-4l10.8-21.2c.7-1.4-.1-2.8-2.2-3.5l-28.4-9.6a12.3,12.3,0,0,0-3.5-.5,19.15,19.15,0,0,0-4.1.5l-40.5,9.6c-3,.7-5.5,2-6.6,3.5Z"/><path class="cls-22" d="M459,689.9c-3.3.9-6.1,2.6-7.2,4.4l-16.9,27c-1.3,2.1-.7,4.1,1.7,5.1l34.3,15.4a10.54,10.54,0,0,0,4.6.8,20.17,20.17,0,0,0,5.4-.8l49.7-15.4c3.4-1.1,6.1-3,6.9-5.1l10.3-27c.7-1.8-.4-3.5-2.8-4.4l-32.7-12a12,12,0,0,0-4-.6,18.16,18.16,0,0,0-4.6.6Z"/><path class="cls-22" d="M557.85,687l41.5-11.9c2.9-.8,4.9-2.4,5.3-4l5.4-21.2c.4-1.4-.8-2.8-3.1-3.5l-30.8-9.6a13,13,0,0,0-3.6-.5,18.25,18.25,0,0,0-4,.5l-38,9.6c-2.8.7-5,2-5.7,3.5l-10.5,21.2c-.8,1.6.1,3.2,2.3,4l32.6,11.9a13,13,0,0,0,4.1.7A24.64,24.64,0,0,0,557.85,687Z"/><path class="cls-23" d="M658.55,687,697,675.1c2.7-.8,4.3-2.4,4.3-4l-.1-21.2c0-1.4-1.5-2.8-4-3.5l-33.3-9.6a14.57,14.57,0,0,0-3.8-.5,16.66,16.66,0,0,0-3.9.5l-35.6,9.6c-2.6.7-4.5,2-4.8,3.5l-5,21.2c-.4,1.6.9,3.2,3.4,4l35.6,11.9a14.89,14.89,0,0,0,4.3.7A22.23,22.23,0,0,0,658.55,687Z"/><path class="cls-22" d="M548.35,726.5l38.3,15.4a12.1,12.1,0,0,0,4.8.8,18.21,18.21,0,0,0,5.2-.8l45.7-15.4c3.2-1.1,5.3-3,5.5-5.1l3.3-27c.2-1.8-1.3-3.5-3.9-4.4l-35.8-12a13.09,13.09,0,0,0-4.1-.6,16.11,16.11,0,0,0-4.4.6l-41.7,12c-3.1.9-5.4,2.6-6.1,4.4l-9.8,27C544.65,723.5,545.75,725.4,548.35,726.5Z"/><path class="cls-22" d="M657.85,726.5l42.2,15.4a13.47,13.47,0,0,0,5,.8,15.88,15.88,0,0,0,5-.8l41.8-15.4c2.9-1.1,4.5-3,4.2-5.1l-3.6-27c-.2-1.8-2.2-3.5-5.1-4.4l-38.9-12a15.71,15.71,0,0,0-8.6,0l-38.6,12c-2.9.9-4.8,2.6-5,4.4l-3,27C653.25,723.5,655,725.4,657.85,726.5Z"/><path class="cls-22" d="M759.05,687l35.3-11.9c2.5-.8,3.7-2.4,3.3-4l-5.5-21.2c-.4-1.4-2.2-2.8-4.9-3.5l-35.8-9.6a16,16,0,0,0-3.9-.5,14.38,14.38,0,0,0-3.7.5l-33.1,9.6c-2.4.7-3.9,2-3.9,3.5l.4,21.2c0,1.6,1.7,3.2,4.4,4l38.7,11.9a16.3,16.3,0,0,0,4.5.7A19.4,19.4,0,0,0,759.05,687Z"/><path class="cls-23" d="M862.45,726.5c2.6-1.1,3.7-3,2.9-5.1l-10.5-27c-.7-1.8-3.1-3.5-6.2-4.4l-42-12a16.11,16.11,0,0,0-4.4-.6,13.09,13.09,0,0,0-4.1.6l-35.5,12c-2.6.9-4.1,2.6-3.8,4.4l4,27c.3,2.1,2.5,4.1,5.7,5.1l46.1,15.4a15.67,15.67,0,0,0,5.2.8,14.19,14.19,0,0,0,4.8-.8Z"/><path class="cls-22" d="M877.65,646.4l-38.2-9.6a18.25,18.25,0,0,0-4-.5,13,13,0,0,0-3.6.5l-30.6,9.6c-2.3.7-3.4,2-3,3.5l5.9,21.2c.5,1.6,2.5,3.2,5.4,4l41.7,11.9a18.32,18.32,0,0,0,4.6.7,10.37,10.37,0,0,0,4.1-.7l32.3-11.9c2.2-.8,3.1-2.4,2.2-4l-11-21.2C882.65,648.5,880.45,647.1,877.65,646.4Z"/><path class="cls-22" d="M519.55,576.7l-32.3,6.5c-2.4.5-4.3,1.4-5,2.3l-10.5,14c-.8,1.1-.2,2.1,1.5,2.6l25,7.7a10.38,10.38,0,0,0,3.2.4,17,17,0,0,0,3.8-.4l34.8-7.7c2.4-.5,4.3-1.5,4.8-2.6l7.2-14c.5-1-.3-1.9-2.1-2.3l-24.1-6.5a12.31,12.31,0,0,0-2.9-.3A9.82,9.82,0,0,0,519.55,576.7Z"/><path class="cls-22" d="M541.75,603.9l-34.9,7.8c-2.6.6-4.6,1.7-5.3,2.8l-10.6,17c-.8,1.3-.1,2.5,1.9,3.2l28.3,9.4a13,13,0,0,0,3.6.5,20.07,20.07,0,0,0,4.2-.5l37.8-9.4c2.6-.7,4.6-1.9,5.1-3.2l6.5-17c.4-1.2-.5-2.2-2.5-2.8l-27.1-7.8a10.38,10.38,0,0,0-3.2-.4A15.81,15.81,0,0,0,541.75,603.9Z"/><path class="cls-23" d="M561.15,583.1c-2.2.5-3.9,1.4-4.4,2.3l-6.9,14c-.5,1.1.3,2.1,2.2,2.6l27,7.7a11.49,11.49,0,0,0,3.3.4,15.53,15.53,0,0,0,3.7-.4l32.8-7.7c2.3-.5,3.9-1.5,4.1-2.6l3.6-14c.2-1-.8-1.9-2.7-2.3l-25.8-6.5a13.86,13.86,0,0,0-3-.3,18.41,18.41,0,0,0-3.3.3Z"/><path class="cls-22" d="M584.25,614.5l-6.2,17c-.5,1.3.6,2.5,2.7,3.2l30.8,9.4a14.57,14.57,0,0,0,3.8.5,16.84,16.84,0,0,0,4-.5l35.4-9.4c2.5-.7,4.1-1.9,4.2-3.2l2.1-17c.1-1.2-1.1-2.2-3.2-2.8l-29.1-7.8a11.49,11.49,0,0,0-3.3-.4,13.42,13.42,0,0,0-3.5.4l-32.9,7.8C586.45,612.2,584.65,613.3,584.25,614.5Z"/><path class="cls-22" d="M666.85,634.7l33.2,9.4a15.46,15.46,0,0,0,7.8,0l33-9.4c2.3-.7,3.6-1.9,3.4-3.2l-2.2-17c-.2-1.2-1.7-2.2-4-2.8L707,603.9a12.94,12.94,0,0,0-3.5-.4,12.2,12.2,0,0,0-3.4.4l-30.9,7.8c-2.3.6-3.8,1.7-3.9,2.8l-1.9,17C663.25,632.8,664.55,634.1,666.85,634.7Z"/><path class="cls-22" d="M666.75,609.7l30.8-7.7c2.2-.5,3.5-1.5,3.5-2.6v-14c0-1-1.3-1.9-3.3-2.3l-27.4-6.5a14.82,14.82,0,0,0-3.1-.3,16.55,16.55,0,0,0-3.2.3l-29,6.5c-2.1.5-3.6,1.4-3.8,2.3l-3.3,14c-.3,1.1.8,2.1,2.9,2.6l29,7.7a12.48,12.48,0,0,0,3.5.4A9.91,9.91,0,0,0,666.75,609.7Z"/><path class="cls-22" d="M776.25,602.1c2-.5,3.1-1.5,2.8-2.6l-3.6-14c-.3-1-1.7-1.9-3.9-2.3l-29.1-6.5a16.55,16.55,0,0,0-3.2-.3,14.82,14.82,0,0,0-3.1.3l-27.3,6.5c-2,.5-3.2,1.4-3.2,2.3l.3,14c0,1.1,1.4,2.1,3.5,2.6l31,7.7a13.7,13.7,0,0,0,3.6.4,13.42,13.42,0,0,0,3.5-.4Z"/><path class="cls-22" d="M827.85,634.7c2.1-.7,3.1-1.9,2.6-3.2l-6.6-17c-.5-1.2-2.3-2.2-4.7-2.8l-33.1-7.8a13.7,13.7,0,0,0-3.6-.4,11.06,11.06,0,0,0-3.3.4l-28.9,7.8c-2.1.6-3.3,1.7-3.2,2.8l2.5,17c.2,1.3,1.8,2.5,4.3,3.2l35.6,9.4a18.25,18.25,0,0,0,4,.5,14.57,14.57,0,0,0,3.8-.5Z"/><path class="cls-22" d="M845.55,583.1l-30.8-6.5a17.61,17.61,0,0,0-3.3-.3,13.86,13.86,0,0,0-3,.3l-25.6,6.5c-1.9.5-2.9,1.4-2.6,2.3l3.9,14c.3,1.1,1.9,2.1,4.2,2.6l33,7.7a15,15,0,0,0,3.7.4,11.06,11.06,0,0,0,3.3-.4l26.8-7.7c1.9-.5,2.7-1.5,2.1-2.6l-7.3-14C849.55,584.5,847.75,583.6,845.55,583.1Z"/><path class="cls-22" d="M509.85,552.6l21.7,5.4a11.15,11.15,0,0,0,2.7.3,16.28,16.28,0,0,0,3.1-.3l28.5-5.4c2-.4,3.5-1.1,3.9-1.8l5.1-9.9c.4-.7-.4-1.3-1.9-1.7l-20.9-4.6a9.75,9.75,0,0,0-2.5-.2,26.35,26.35,0,0,0-2.8.2L520,539.2c-2,.3-3.5,1-4,1.7l-7.5,9.9C507.75,551.5,508.35,552.2,509.85,552.6Z"/><path class="cls-22" d="M582.35,539.1c-1.9.3-3.2,1-3.6,1.7l-4.9,9.9c-.4.8.4,1.5,2,1.8l23.1,5.4a12,12,0,0,0,2.8.3,14.53,14.53,0,0,0,3-.3l27.1-5.4c1.9-.4,3.2-1.1,3.4-1.8l2.5-9.9c.2-.7-.7-1.3-2.3-1.7l-22.1-4.6a10.57,10.57,0,0,0-2.6-.2,26.35,26.35,0,0,0-2.8.2Z"/><path class="cls-23" d="M641.85,552.6l24.4,5.4a13.58,13.58,0,0,0,2.9.3,14.53,14.53,0,0,0,3-.3l25.7-5.4c1.8-.4,2.9-1.1,2.9-1.8v-9.9c0-.7-1.1-1.3-2.8-1.7l-23.3-4.6a11,11,0,0,0-2.6-.2,22.82,22.82,0,0,0-2.7.2L645,539.2c-1.8.3-3,1-3.2,1.7l-2.4,9.9C639.25,551.5,640.15,552.2,641.85,552.6Z"/><path class="cls-22" d="M763.85,552.6c1.7-.4,2.6-1.1,2.4-1.8l-2.6-9.9c-.2-.7-1.4-1.3-3.2-1.7L736,534.6a11.84,11.84,0,0,0-2.7-.2,21.12,21.12,0,0,0-2.6.2l-23.2,4.6c-1.7.3-2.7,1-2.7,1.7l.2,9.9c0,.8,1.1,1.5,3,1.8l25.8,5.4a13.86,13.86,0,0,0,3,.3,13.58,13.58,0,0,0,2.9-.3Z"/><path class="cls-22" d="M807.05,558l22.9-5.4c1.6-.4,2.4-1.1,2-1.8l-5.2-9.9c-.4-.7-1.8-1.3-3.6-1.7l-25.7-4.6a12.74,12.74,0,0,0-2.8-.2,21.12,21.12,0,0,0-2.6.2l-22,4.6c-1.6.3-2.5,1-2.3,1.7l2.8,9.9c.2.8,1.5,1.5,3.4,1.8l27.2,5.4a15.26,15.26,0,0,0,3,.3A12.31,12.31,0,0,0,807.05,558Z"/><path class="cls-22" d="M539,559.3c-2.1.4-3.7,1.1-4.2,2l-7.3,11.7c-.6.9.1,1.7,1.8,2.2l24.1,6.4a13.86,13.86,0,0,0,3,.3,19.53,19.53,0,0,0,3.4-.3l30.5-6.4c2.1-.4,3.7-1.3,4-2.2l4.5-11.7c.3-.8-.5-1.6-2.2-2l-23.1-5.4a11.15,11.15,0,0,0-2.7-.3,14.53,14.53,0,0,0-3,.3Z"/><path class="cls-22" d="M634.55,553.9l-27.2,5.4c-2,.4-3.4,1.1-3.7,2l-4.3,11.7c-.3.9.6,1.7,2.4,2.2l25.7,6.4a14.82,14.82,0,0,0,3.1.3,17.61,17.61,0,0,0,3.3-.3l28.8-6.4c2-.4,3.3-1.3,3.4-2.2l1.4-11.7c.1-.8-1-1.6-2.8-2l-24.5-5.4a12,12,0,0,0-2.8-.3A13.33,13.33,0,0,0,634.55,553.9Z"/><path class="cls-22" d="M733.65,575.2c1.9-.4,3-1.3,2.9-2.2l-1.5-11.7c-.1-.8-1.4-1.6-3.3-2l-25.9-5.4a14.17,14.17,0,0,0-5.8,0l-25.8,5.4c-1.9.4-3.1,1.1-3.2,2l-1.3,11.7c-.1.9,1,1.7,2.9,2.2l27.3,6.4a17.22,17.22,0,0,0,6.4,0Z"/><path class="cls-22" d="M805.35,575.2c1.8-.4,2.7-1.3,2.3-2.2l-4.6-11.7c-.3-.8-1.8-1.6-3.8-2L772,553.9a14.53,14.53,0,0,0-3-.3,12,12,0,0,0-2.8.3l-24.4,5.4c-1.8.4-2.8,1.1-2.7,2l1.7,11.7c.1.9,1.5,1.7,3.5,2.2l29,6.4a17.61,17.61,0,0,0,3.3.3,14.82,14.82,0,0,0,3.1-.3Z"/><path class="cls-22" d="M554.85,533.2l20.9,4.6a10.17,10.17,0,0,0,2.6.2,26.35,26.35,0,0,0,2.8-.2l25.5-4.6c1.8-.3,3.1-.9,3.3-1.6l3.3-8.5c.2-.6-.5-1.1-2-1.4l-20.1-4a16.59,16.59,0,0,0-2.4-.2,21.12,21.12,0,0,0-2.6.2l-24.2,4c-1.8.3-3.1.8-3.5,1.4l-5.3,8.5C552.75,532.3,553.35,532.9,554.85,533.2Z"/><path class="cls-22" d="M643.65,517.7l-23.1,4c-1.7.3-2.9.8-3.1,1.4l-3.1,8.5c-.2.6.6,1.2,2.1,1.6l22.1,4.6a11,11,0,0,0,2.6.2,26.35,26.35,0,0,0,2.8-.2l24.3-4.6c1.7-.3,2.8-.9,2.9-1.6l1-8.5c.1-.6-.8-1.1-2.4-1.4l-21.2-4a17.91,17.91,0,0,0-2.4-.2A21.05,21.05,0,0,0,643.65,517.7Z"/><path class="cls-22" d="M728.55,533.2c1.6-.3,2.6-.9,2.5-1.6l-1.1-8.5c-.1-.6-1.1-1.1-2.8-1.4l-22.2-4a15.72,15.72,0,0,0-5,0l-22.1,4c-1.6.3-2.7.8-2.7,1.4l-.9,8.5c-.1.6.9,1.2,2.5,1.6l23.2,4.6a11.84,11.84,0,0,0,2.7.2,22.82,22.82,0,0,0,2.7-.2Z"/><path class="cls-22" d="M785.15,521.7l-23.2-4a21.05,21.05,0,0,0-2.5-.2,16.59,16.59,0,0,0-2.4.2l-21.1,4c-1.5.3-2.4.8-2.4,1.4l1.3,8.5c.1.6,1.2,1.2,2.9,1.6l24.4,4.6a12.74,12.74,0,0,0,2.8.2,19.66,19.66,0,0,0,2.6-.2l22-4.6c1.5-.3,2.3-.9,2.1-1.6l-3.3-8.5C788.05,522.5,786.85,522,785.15,521.7Z"/><path class="cls-22" d="M567.75,503.1l-22.9,3.5c-1.7.3-2.9.7-3.3,1.3l-5.5,7.4c-.4.6.2,1.1,1.5,1.4l19.1,4a16.59,16.59,0,0,0,2.4.2,21.12,21.12,0,0,0,2.6-.2l24.1-4c1.7-.3,2.9-.8,3.2-1.4l3.8-7.4c.3-.5-.4-1-1.8-1.3l-18.5-3.5a13.79,13.79,0,0,0-2.2-.2A19.48,19.48,0,0,0,567.75,503.1Z"/><path class="cls-22" d="M645,506.6l-19.4-3.5a15,15,0,0,0-2.2-.2,19.42,19.42,0,0,0-2.4.2l-22,3.5c-1.6.3-2.8.7-3,1.3l-3.6,7.4c-.3.6.4,1.1,1.8,1.4l20.1,4a17.91,17.91,0,0,0,2.4.2,21.12,21.12,0,0,0,2.6-.2l23-4c1.6-.3,2.7-.8,2.8-1.4l1.9-7.4C647.15,507.3,646.35,506.9,645,506.6Z"/><path class="cls-22" d="M699.15,506.6l-20.3-3.5a13.32,13.32,0,0,0-4.6,0l-21.1,3.5c-1.5.3-2.6.7-2.7,1.3l-1.7,7.4c-.1.6.7,1.1,2.2,1.4l21.1,4a15.72,15.72,0,0,0,5,0l22-4c1.5-.3,2.5-.8,2.5-1.4l-.1-7.4C701.55,507.3,700.65,506.9,699.15,506.6Z"/><path class="cls-22" d="M755.85,516.6c1.5-.3,2.3-.8,2.2-1.4l-2-7.4c-.1-.5-1.2-1-2.7-1.3l-21.2-3.5a13.33,13.33,0,0,0-4.6,0l-20.2,3.5c-1.5.3-2.4.7-2.4,1.3l.2,7.4c0,.6,1,1.1,2.5,1.4l22.1,4a21.05,21.05,0,0,0,2.5.2,19.48,19.48,0,0,0,2.5-.2Z"/><path class="cls-22" d="M807.65,506.6l-22.1-3.5a19.42,19.42,0,0,0-2.4-.2,13.79,13.79,0,0,0-2.2.2l-19.3,3.5c-1.4.3-2.2.7-2,1.3l2.1,7.4c.2.6,1.3,1.1,2.9,1.4l23.2,4a21.12,21.12,0,0,0,2.6.2,16.59,16.59,0,0,0,2.4-.2l20-4c1.4-.3,2.1-.8,1.8-1.4l-3.9-7.4C810.35,507.3,809.25,506.9,807.65,506.6Z"/><path class="cls-22" d="M557.25,489.7l17,3.1a12.48,12.48,0,0,0,2.1.2,16.41,16.41,0,0,0,2.3-.2l20.9-3.1c1.5-.2,2.5-.6,2.7-1l2.9-5.7c.2-.4-.4-.8-1.6-1l-16.5-2.7a12.12,12.12,0,0,0-2-.1,14.08,14.08,0,0,0-2.1.1L563,482a4.75,4.75,0,0,0-2.8,1l-4.3,5.7C555.55,489.1,556.15,489.5,557.25,489.7Z"/><path class="cls-22" d="M651.35,481.9l-17.2-2.7a12.75,12.75,0,0,0-2-.1,14.77,14.77,0,0,0-2.1.1l-19.3,2.7c-1.4.2-2.4.6-2.6,1l-2.8,5.7c-.2.4.4.8,1.7,1l17.8,3.1a13.61,13.61,0,0,0,2.1.2,16.41,16.41,0,0,0,2.3-.2l20.1-3.1c1.4-.2,2.4-.6,2.5-1l1.4-5.7C653.35,482.5,652.65,482.1,651.35,481.9Z"/><path class="cls-22" d="M699.25,481.9l-17.9-2.7a12.75,12.75,0,0,0-2-.1,14.77,14.77,0,0,0-2.1.1l-18.6,2.7c-1.3.2-2.2.6-2.3,1l-1.3,5.7c-.1.4.6.8,2,1l18.6,3.1a12.2,12.2,0,0,0,4.4,0l19.3-3.1c1.4-.2,2.2-.6,2.2-1v-5.7C701.35,482.5,700.55,482.1,699.25,481.9Z"/><path class="cls-22" d="M749.05,489.7c1.3-.2,2-.6,1.9-1l-1.5-5.7c-.1-.4-1-.8-2.4-1l-18.6-2.7a14.08,14.08,0,0,0-2.1-.1,12.75,12.75,0,0,0-2,.1l-17.9,2.7c-1.3.2-2.1.6-2.1,1l.1,5.7c0,.4.9.8,2.2,1l19.4,3.1a16.35,16.35,0,0,0,2.2.2,15,15,0,0,0,2.2-.2Z"/><path class="cls-22" d="M754.45,481.9c-1.2.2-2,.6-1.8,1l1.6,5.7c.1.4,1.1.8,2.5,1l20.2,3.1a16.41,16.41,0,0,0,2.3.2,12.48,12.48,0,0,0,2.1-.2l17.7-3.1c1.2-.2,1.9-.6,1.7-1l-3-5.7c-.2-.4-1.2-.8-2.6-1l-19.3-2.7a14.77,14.77,0,0,0-2.1-.1,12.75,12.75,0,0,0-2,.1Z"/><path class="cls-22" d="M618,468.5l16,2.4a11.48,11.48,0,0,0,1.9.1,12.75,12.75,0,0,0,2-.1l17.8-2.4c1.3-.2,2.1-.5,2.2-.8l1.1-4.6c.1-.3-.6-.6-1.7-.8l-15.5-2.2a10.28,10.28,0,0,0-1.8-.1,12.1,12.1,0,0,0-1.9.1L621,462.3a4.4,4.4,0,0,0-2.3.8l-2.2,4.6C616.25,468,616.85,468.3,618,468.5Z"/><path class="cls-22" d="M662.35,468.5l16.6,2.4a12.1,12.1,0,0,0,1.9.1,12.75,12.75,0,0,0,2-.1l17.1-2.4c1.2-.2,2-.5,2-.8v-4.6c0-.3-.7-.6-1.9-.8L684,460.1a10.87,10.87,0,0,0-1.8-.1,10.28,10.28,0,0,0-1.8.1l-16.6,2.2c-1.2.2-2,.5-2.1.8l-1.1,4.6C660.55,468,661.25,468.3,662.35,468.5Z"/><path class="cls-22" d="M706.65,468.5l17.2,2.4a12.75,12.75,0,0,0,2,.1,10.89,10.89,0,0,0,1.9-.1l16.5-2.4c1.2-.2,1.8-.5,1.7-.8l-1.2-4.6c-.1-.3-.9-.6-2.1-.8l-16.6-2.2a11.48,11.48,0,0,0-1.9-.1,10.28,10.28,0,0,0-1.8.1l-16,2.2c-1.2.2-1.9.5-1.9.8l.1,4.6A3.51,3.51,0,0,0,706.65,468.5Z"/><path class="cls-22" d="M601,490.4l-20.9,3.1c-1.5.2-2.6.6-2.9,1.1l-4,6.5c-.3.5.3.9,1.6,1.2l18.4,3.5a15.16,15.16,0,0,0,2.3.2,17.91,17.91,0,0,0,2.4-.2l21.9-3.5c1.5-.2,2.6-.7,2.8-1.2l2.5-6.5c.2-.5-.5-.9-1.8-1.1l-17.8-3.1a12.48,12.48,0,0,0-2.1-.2C602.45,490.3,601.65,490.3,601,490.4Z"/><path class="cls-22" d="M651.45,490.4l-20.1,3.1c-1.5.2-2.5.6-2.6,1.1l-2.3,6.5c-.2.5.6.9,1.9,1.2l19.3,3.5a16.41,16.41,0,0,0,2.3.2,19.42,19.42,0,0,0,2.4-.2l21-3.5c1.5-.2,2.4-.7,2.5-1.2l.8-6.5c.1-.5-.8-.9-2.1-1.1l-18.8-3.1a13.61,13.61,0,0,0-2.1-.2C652.85,490.3,652.15,490.3,651.45,490.4Z"/><path class="cls-22" d="M700.85,490.4l-19.3,3.1c-1.4.2-2.3.6-2.4,1.1l-.7,6.5c-.1.5.8.9,2.2,1.2l20.2,3.5a13.32,13.32,0,0,0,4.6,0l20.1-3.5c1.4-.2,2.3-.7,2.2-1.2l-.9-6.5c-.1-.5-1-.9-2.4-1.1l-19.4-3.1a15,15,0,0,0-2.2-.2C702.25,490.3,701.55,490.3,700.85,490.4Z"/><path class="cls-22" d="M778.75,502.3c1.4-.2,2.1-.7,1.9-1.2l-2.5-6.5c-.2-.5-1.2-.9-2.7-1.1l-20.2-3.1a16.35,16.35,0,0,0-2.2-.2,12.48,12.48,0,0,0-2.1.2l-18.5,3.1c-1.3.2-2.1.6-2.1,1.1l1,6.5c.1.5,1,.9,2.5,1.2l21.1,3.5a17.91,17.91,0,0,0,2.4.2,16.41,16.41,0,0,0,2.3-.2Z"/><path class="cls-22" d="M589.15,478.5l16.5,2.7a12.75,12.75,0,0,0,2,.1c.7,0,1.5-.1,2.1-.1l19.2-2.7c1.4-.2,2.3-.5,2.4-.9l1.9-5.1c.1-.4-.5-.7-1.7-.9l-16-2.4a10.89,10.89,0,0,0-1.9-.1,12.75,12.75,0,0,0-2,.1l-18.4,2.4c-1.3.2-2.3.5-2.5.9l-3.2,5.1C587.35,477.9,588,478.3,589.15,478.5Z"/><path class="cls-22" d="M639,471.6c-1.3.2-2.2.5-2.3.9l-1.8,5.1c-.1.4.5.7,1.7.9l17.2,2.7a12.75,12.75,0,0,0,2,.1c.7,0,1.5-.1,2.1-.1l18.5-2.7c1.3-.2,2.1-.5,2.2-.9l.6-5.1c0-.4-.7-.7-1.9-.9l-16.6-2.4a11.48,11.48,0,0,0-1.9-.1,12.75,12.75,0,0,0-2,.1Z"/><path class="cls-22" d="M683.55,471.6c-1.2.2-2,.5-2.1.9l-.5,5.1c0,.4.7.7,2,.9l17.9,2.7a13.42,13.42,0,0,0,2.1.1c.7,0,1.4-.1,2.1-.1l17.8-2.7c1.3-.2,2-.5,2-.9l-.7-5.1c0-.4-.9-.7-2.1-.9l-17.3-2.4a12.1,12.1,0,0,0-1.9-.1,11.48,11.48,0,0,0-1.9.1Z"/><path class="cls-22" d="M728.65,471.6c-1.2.2-1.9.5-1.9.9l.8,5.1c.1.4.9.7,2.2.9l18.6,2.7a14.77,14.77,0,0,0,2.1.1c.7,0,1.4-.1,2-.1l17.1-2.7c1.2-.2,1.9-.5,1.7-.9l-2-5.1c-.1-.4-1-.7-2.3-.9l-17.9-2.4a12.75,12.75,0,0,0-2-.1,11.48,11.48,0,0,0-1.9.1Z"/><path class="cls-22" d="M325.15,1019.9a33.32,33.32,0,0,0,10.4-11.5l37.2-72.7c2.4-4.7,1.9-9-1.4-11.3l-42.9-30.1a9.85,9.85,0,0,0-5.7-1.5,21.8,21.8,0,0,0-7.6,1.5l-80.9,30.1a36.28,36.28,0,0,0-15.6,11.3l-54.8,72.7c-3.2,4.3-4.7,8.4-4.1,11.5Z"/><path class="cls-22" d="M511.25,1019.9a22.7,22.7,0,0,0,7.5-11.5l18.5-72.7c1.2-4.7-.5-9-4.3-11.3l-50.6-30.1a12,12,0,0,0-6.1-1.5,19.86,19.86,0,0,0-7.3,1.5l-73.2,30.1c-5.5,2.3-10.4,6.6-12.7,11.3L347,1008.4c-2.1,4.3-2.5,8.4-1.2,11.5Z"/><path class="cls-23" d="M697.65,1019.9a16.79,16.79,0,0,0,4.5-11.5l-.2-72.7a12.9,12.9,0,0,0-7.2-11.3l-58.4-30.1a14.13,14.13,0,0,0-6.5-1.5,16.83,16.83,0,0,0-6.9,1.5l-65.4,30.1c-4.9,2.3-8.7,6.6-9.8,11.3l-17.3,72.7a14.49,14.49,0,0,0,1.8,11.5Z"/><path class="cls-22" d="M718.35,1019.9h165.4a13.69,13.69,0,0,0,1.5-11.5l-18.9-72.7c-1.2-4.7-5.1-9-10.1-11.3l-66.1-30.1a16.83,16.83,0,0,0-6.9-1.5,14.13,14.13,0,0,0-6.5,1.5l-57.6,30.1a12.43,12.43,0,0,0-6.9,11.3l1.4,72.7A16.53,16.53,0,0,0,718.35,1019.9Z"/><path class="cls-22" d="M897.35,1008.4a23.76,23.76,0,0,0,7.7,11.5h165.4c1.3-3.1.8-7.2-1.4-11.5l-37.7-72.7c-2.4-4.7-7.4-9-13-11.3l-73.9-30.1a19.46,19.46,0,0,0-7.3-1.5,12,12,0,0,0-6.1,1.5l-49.8,30.1c-3.8,2.3-5.3,6.6-4,11.3Z"/></g><g id="casa"><path class="cls-24" d="M876.8,490.6S732.3,477.1,684,477c-48.7-.1-194.2,13.1-194.2,13.1L457.3,207.7s100.1-51.1,123-74.9S679.5,26.6,679.5,26.6s113,118.4,129.7,130,91.1,46.5,91.1,46.5Z"/><path class="cls-25" d="M467.5,186l-87.9,35.4,61.8,252s1.8,2.5,2.7,2.9c10.1,5.4,35.5,9.4,45.8,4.4.8-.4,2.3-2.9,2.3-2.9Z"/><path class="cls-26" d="M396.4,214.3s39.4,211.3,60.1,254c3.5,7.3,25.9,4.3,25.9,4.3l-25.1-276Z"/><path class="cls-27" d="M465,408c-1.9-15.6-5.1-6.5-9.3-3.2a16.23,16.23,0,0,0-5.4,6.5,16.66,16.66,0,0,0,.1,8.6c1.3,4.8,6.8,31.8,10.4,39.3s5.5,11.3,8.8,7.5S466.9,423.6,465,408Z"/><path class="cls-27" d="M458,380.9c-2.5-13.6-5.9-39.1-9.1-45.2s-8.9-1.3-15.2-.1,11.6,67,15,63.4S460.4,394.6,458,380.9Z"/><path class="cls-27" d="M433,331.7c4.3-4.5,14.2-5.4,11.4-22.8s-6.5-49.9-10.3-57.7-10.7-1.8-18.3-.5S428.8,336.2,433,331.7Z"/><path class="cls-27" d="M429.6,236.8c.4-4.9.2-18-1.6-21.1s-20.6,5.7-20.6,5.7-3.6,1.8-3.6,4.1,5.3,16.2,8,18.8S429.2,241.7,429.6,236.8Z"/><path class="cls-25" d="M893.1,196.4l87.8,35.4-61.8,252s-1.8,2.5-2.7,2.9c-10.1,5.4-35.5,9.4-45.8,4.4-.8-.4-2.3-2.9-2.3-2.9Z"/><path class="cls-26" d="M964.1,224.7s-39.4,211.2-60.1,254c-3.5,7.3-25.9,4.3-25.9,4.3l25.1-276Z"/><path class="cls-27" d="M895.5,418.4c1.9-15.6,5.1-6.5,9.3-3.2a16.23,16.23,0,0,1,5.4,6.5,16.66,16.66,0,0,1-.1,8.6c-1.3,4.8-6.8,31.8-10.4,39.3s-5.5,11.3-8.8,7.5S893.6,434,895.5,418.4Z"/><path class="cls-27" d="M902.6,391.4c2.5-13.6,5.9-39.1,9.1-45.2s8.9-1.3,15.2-.1-11.6,67-15,63.4C908.3,405.8,900.1,405,902.6,391.4Z"/><path class="cls-27" d="M927.5,342.1c-4.3-4.5-14.2-5.4-11.4-22.8s6.5-49.9,10.3-57.7,10.7-1.8,18.3-.5S931.8,346.7,927.5,342.1Z"/><path class="cls-27" d="M931,247.3c-.4-4.9-.2-18,1.6-21.1s20.6,5.7,20.6,5.7,3.6,1.8,3.6,4.1-5.3,16.2-8,18.8S931.3,252.1,931,247.3Z"/><path id="SVGID" class="cls-28" d="M683.2,224.9S566.1,248.7,561.1,263c-2.7,7.6,26,207.8,27.5,218.1,0,0,38.6.3,51.2-1.4,20.2-2.6,43.4-2.3,43.4-2.3V224.9Z"/><g class="cls-29"><rect class="cls-30" x="659.9" y="222" width="4.4" height="266.6"/><rect class="cls-30" x="638.1" y="228.6" width="4.4" height="257.6"/><rect class="cls-30" x="616.2" y="236.5" width="4.4" height="249.1"/><rect class="cls-30" x="594.3" y="240.8" width="4.4" height="245.9"/><rect class="cls-30" x="572.5" y="252.6" width="4.4" height="155.4"/></g><path id="SVGID-2" data-name="SVGID" class="cls-31" d="M683.2,224.9S566.1,248.7,561.1,263c-2.7,7.6,26,207.8,27.5,218.1,0,0,38.6.3,51.2-1.4,20.2-2.6,43.4-2.3,43.4-2.3V224.9Z"/><path id="SVGID-3" data-name="SVGID" class="cls-28" d="M685.3,224.9S802.4,248.7,807.4,263c2.8,7.9-27.5,218.1-27.5,218.1s-34.3.1-45.6-1.1c-25.8-2.7-49-2.6-49-2.6Z"/><g class="cls-32"><rect class="cls-30" x="704.2" y="222" width="4.4" height="266.6"/><rect class="cls-30" x="726" y="228.6" width="4.4" height="257.6"/><rect class="cls-30" x="747.9" y="236.5" width="4.4" height="249.1"/><rect class="cls-30" x="769.7" y="240.8" width="4.4" height="245.9"/><rect class="cls-30" x="791.6" y="252.6" width="4.4" height="155.4"/></g><path id="SVGID-4" data-name="SVGID" class="cls-31" d="M685.3,224.9S802.4,248.7,807.4,263c2.8,7.9-27.5,218.1-27.5,218.1s-34.3.1-45.6-1.1c-25.8-2.7-49-2.6-49-2.6Z"/><path class="cls-33" d="M353.6,244.8l-10.3-7.1c45.7-10.9,152.5-47.6,204.5-86.8C656.1,69.1,681.4,18,681.6,17.5l5.3,5.4c-1,2.1-25.8,49.8-135.6,132.6C498.6,195.3,399.7,233.8,353.6,244.8Z"/><path class="cls-34" d="M418.7,217.4,410,203.2l-6.5,3.2c-22.3,10.9-72.5,19.3-72.5,19.3l12.9,15.1C343.9,240.6,389.9,227.8,418.7,217.4Z"/><path class="cls-34" d="M483.7,187.5,474.3,176s-2.9.2-9.2,3.8c-21.5,12.5-68.8,23.2-68.8,23.2l13.3,17.6a391.35,391.35,0,0,0,63.2-25.2C480.7,191.4,483.7,187.5,483.7,187.5Z"/><path class="cls-34" d="M541.8,155.2l-9-9.2-6,4c-20.7,13.7-69.4,28.6-69.4,28.6l15.8,14.2S500.6,187.7,541.8,155.2Z"/><path class="cls-34" d="M592,117.9l-9.9-9.3-5.4,4.8c-18.6,16.5-64.8,37.9-64.8,37.9l17.6,11.9C529.6,163.1,554,153.5,592,117.9Z"/><path class="cls-34" d="M612.1,101.7c10.8-9.8,20-18.8,28-27L628,65.9l-4.8,5.4C606.8,90,563.7,117,563.7,117l19,9.6Z"/><path class="cls-34" d="M658,55.1l2.2-2.6C676.8,32.8,683,21.1,684.1,19l-9.6-4.8s-2.8-1.4-6.7,4.7C654.6,40,616.5,73.7,616.5,73.7l18.8,5.9C644.3,70.5,651.8,62.3,658,55.1Z"/><path class="cls-33" d="M1006.9,245.9l10.4-7.1c-45.7-10.9-152.5-47.6-204.5-86.8C704.4,70.2,679.2,19.1,679,18.6L673.7,24c1,2.1,25.8,49.8,135.6,132.6C861.9,196.4,960.8,234.9,1006.9,245.9Z"/><path class="cls-34" d="M941.9,218.5l8.7-14.2,6.5,3.2c22.3,10.9,72.5,19.3,72.5,19.3l-12.9,15.1C1016.6,241.7,970.7,228.9,941.9,218.5Z"/><path class="cls-34" d="M876.8,188.6l9.4-11.5s2.9.2,9.2,3.8c21.5,12.4,68.8,23.2,68.8,23.2L951,221.7a391.35,391.35,0,0,1-63.2-25.2C879.9,192.5,876.8,188.6,876.8,188.6Z"/><path class="cls-34" d="M818.8,156.3l9-9.2,6,4c20.7,13.7,69.4,28.6,69.4,28.6l-15.8,14.2S859.9,188.9,818.8,156.3Z"/><path class="cls-34" d="M768.5,119l9.9-9.3,5.4,4.8c18.6,16.5,64.8,37.9,64.8,37.9L831,164.3S806.6,154.6,768.5,119Z"/><path class="cls-34" d="M748.5,102.8c-10.8-9.8-20-18.8-28-27L732.6,67l4.8,5.4c16.4,18.6,59.5,45.7,59.5,45.7l-19,9.6Z"/><path class="cls-34" d="M702.6,56.2l-2.2-2.6c-16.6-19.7-22.8-31.4-23.9-33.5l9.6-4.8s2.8-1.4,6.7,4.7c13.2,21.1,51.3,54.8,51.3,54.8l-18.8,5.9C716.2,71.6,708.8,63.4,702.6,56.2Z"/><path class="cls-33" d="M693.1,21.7a9.75,9.75,0,0,1-9.9,9.7h-6a9.75,9.75,0,0,1-9.9-9.7h0a9.75,9.75,0,0,1,9.9-9.7h6a9.82,9.82,0,0,1,9.9,9.7Z"/><circle class="cls-24" cx="685" cy="318" r="52"/><path class="cls-9" d="M724.4,297.9v36.9a7.32,7.32,0,0,1-3.8,6.5l-32.5,18.5a7.87,7.87,0,0,1-3.7,1,6.86,6.86,0,0,1-3.7-1l-32.5-18.5a7.52,7.52,0,0,1-3.8-6.5V297.9a7.32,7.32,0,0,1,3.8-6.5l32.5-18.5a7.87,7.87,0,0,1,3.7-1,6.86,6.86,0,0,1,3.7,1l32.5,18.5a7.44,7.44,0,0,1,3.8,6.5Z"/><path class="cls-2" d="M714.5,330.5a5.59,5.59,0,0,1-2.8,4.8l-24.5,14.1a5.3,5.3,0,0,1-2.8.7,5.55,5.55,0,0,1-2.8-.7l-24.5-14.1a5.59,5.59,0,0,1-2.8-4.8V302.2a5.59,5.59,0,0,1,2.8-4.8l24.5-14.1a6,6,0,0,1,5.6,0l24.5,14.1a5.59,5.59,0,0,1,2.8,4.8v28.3Zm1.8-32.5a7.71,7.71,0,0,0-3.1-3.1l-24.5-14.1a9,9,0,0,0-8.6,0l-24.5,14.1a7.71,7.71,0,0,0-3.1,3.1,9.16,9.16,0,0,0-1.1,4.3v28.3a9.16,9.16,0,0,0,1.1,4.3,7.71,7.71,0,0,0,3.1,3.1l24.5,14.1a9,9,0,0,0,8.6,0L713.2,338a7.71,7.71,0,0,0,3.1-3.1,9.16,9.16,0,0,0,1.1-4.3V302.3a7.12,7.12,0,0,0-1.1-4.3Z"/><path class="cls-2" d="M719.7,333.1a6.22,6.22,0,0,1-3.2,5.5l-28.9,16.7a6.62,6.62,0,0,1-6.4,0l-28.9-16.7a6.22,6.22,0,0,1-3.2-5.5V299.8a6.22,6.22,0,0,1,3.2-5.5l28.9-16.7a6.14,6.14,0,0,1,6.4,0l28.9,16.7a6.22,6.22,0,0,1,3.2,5.5v33.3Zm.4-37.3a8.06,8.06,0,0,0-2.9-2.9l-28.9-16.7a7.94,7.94,0,0,0-3.9-1.1,7.65,7.65,0,0,0-3.9,1.1l-28.9,16.7a8.06,8.06,0,0,0-2.9,2.9,7.94,7.94,0,0,0-1.1,3.9V333a7.65,7.65,0,0,0,1.1,3.9,8.06,8.06,0,0,0,2.9,2.9l28.9,16.7a7.94,7.94,0,0,0,3.9,1.1,7.65,7.65,0,0,0,3.9-1.1l28.9-16.7a8.06,8.06,0,0,0,2.9-2.9,7.94,7.94,0,0,0,1.1-3.9V299.7a7.65,7.65,0,0,0-1.1-3.9Z"/><path class="cls-10" d="M699.7,321.1a4.06,4.06,0,0,1,4.1-4.1h2.6a4,4,0,0,1-.2,5.6l-.2.2v.2a7,7,0,0,1-7,7,4.06,4.06,0,0,1-4.1-4.1h-1.2a5.14,5.14,0,0,0,1.5,3.7,5.07,5.07,0,0,0,3.1,1.5,7.07,7.07,0,0,1-7,6.5,4.18,4.18,0,0,1-4.1-3.5V319a4.06,4.06,0,0,1,4.1-4.1,4.48,4.48,0,0,0,2-.4,6.19,6.19,0,0,0,1.7-1.1,5.14,5.14,0,0,0,1.5-3.7h-1.2a4.1,4.1,0,1,1-8.2,0V299.4a4.06,4.06,0,0,1,4.1-4.1,7,7,0,0,1,7,6.5,5.07,5.07,0,0,0-3.1,1.5,5.14,5.14,0,0,0-1.5,3.7h1.2a4.06,4.06,0,0,1,4.1-4.1,6.72,6.72,0,0,1,4.9,2.1,6.8,6.8,0,0,1,2,4.9v.2l.2.2a4.15,4.15,0,0,1,.2,5.6h-2.6a5.58,5.58,0,0,0-3.7,1.5,5.14,5.14,0,0,0-1.5,3.7Zm8.9-8a5.43,5.43,0,0,0-1.4-3.6,8,8,0,0,0-2.4-5.5,8.4,8.4,0,0,0-5.2-2.4,7.9,7.9,0,0,0-2.4-5.2,8.25,8.25,0,0,0-5.8-2.4,5.12,5.12,0,0,0-5.2,5.2v10.3a5.14,5.14,0,0,0,1.5,3.7,6.42,6.42,0,0,0,1.3,1,4.12,4.12,0,0,0-1.3,1,5.14,5.14,0,0,0-1.5,3.7v15.2a5.17,5.17,0,0,0,5.2,4.5,8,8,0,0,0,5.8-2.4,8.4,8.4,0,0,0,2.4-5.2,7.9,7.9,0,0,0,5.2-2.4,8.17,8.17,0,0,0,2.4-5.5,5.24,5.24,0,0,0,1.4-3.6,5,5,0,0,0-1.2-3.3,4.14,4.14,0,0,0,1.2-3.1Z"/><path class="cls-10" d="M673,295.9a6.9,6.9,0,0,1,5.4,1.1,7.38,7.38,0,0,1,3.1,4.6,6.9,6.9,0,0,1-1.1,5.4,7.38,7.38,0,0,1-4.6,3.1l-.6.1.2,1.2.6-.1a7.93,7.93,0,0,0,5.3-3.6,8.23,8.23,0,0,0,1.3-5.7c0-.2-.1-.4-.1-.6h0c0-.2-.1-.4-.1-.6a8.22,8.22,0,0,0-9.7-6l-.6.1.2,1.1.7-.1Z"/><path class="cls-10" d="M672.1,330.4a12.23,12.23,0,0,1-1.7.3,7.14,7.14,0,0,0,7.2,6.7h.6v1.2h-.6a8.67,8.67,0,0,1-5.9-2.4,8.17,8.17,0,0,1-2.4-5.5,7.9,7.9,0,0,1-3.3-1,8.28,8.28,0,0,1-4-5l-.2-.6,1.1-.3.2.6a7.26,7.26,0,0,0,7.8,5.2l-.2-.2-.4-.4a8.56,8.56,0,0,1-2.1-5.5,7.83,7.83,0,0,1,.4-2.6,8.32,8.32,0,0,1-5.2-1.9,8,8,0,0,1-2.9-5.1.9.9,0,0,0-.1-.5v-.7a8.37,8.37,0,0,1,1.9-5.5,8.25,8.25,0,0,1,5.7-3l.6-.1.1,1.2-.6.1a7.17,7.17,0,0,0-6.5,7.8v.1a7.16,7.16,0,0,0,7.5,6.4,9.39,9.39,0,0,1,1.2-1.8l.4-.4h0a7.24,7.24,0,0,0,0-10.2l-.4-.4.8-.8.4.4a8.34,8.34,0,0,1,2.5,5.9,8.05,8.05,0,0,1-2.1,5.5l-.4.4h0a8,8,0,0,0-1.5,2.1c-.1.1-.1.3-.2.4a7.16,7.16,0,0,0,1.6,7.7c.3.3.6.5.8.7s.2.1.3.2a7.21,7.21,0,0,0,4,1.2,7.54,7.54,0,0,0,5.1-2.1l.4-.4.8.8-.4.4a8.34,8.34,0,0,1-5.9,2.5,8.79,8.79,0,0,1-4.4-1.4Z"/><path class="cls-10" d="M675,324.2l-.6.1.1,1.2.6-.1a8.67,8.67,0,0,0,5.7-3,8.43,8.43,0,0,0,1.9-6.1l-.1-.6-1.2.1.1.6a7.29,7.29,0,0,1-1.6,5.3,7.77,7.77,0,0,1-4.9,2.5Z"/><path class="cls-35" d="M736,318a51.8,51.8,0,1,1-51.8-51.8A51.81,51.81,0,0,1,736,318Z"/><path class="cls-36" d="M684.2,372.8a54.9,54.9,0,1,1,54.9-54.9A54.93,54.93,0,0,1,684.2,372.8Zm0-103.6a48.7,48.7,0,1,0,48.7,48.7A48.7,48.7,0,0,0,684.2,269.2Z"/><g class="cls-37"><path class="cls-38" d="M719.9,298.6a20.76,20.76,0,0,0-10.5-3.2c-5.8,0-9.1,6.4-2.5,8.8s1.6,11.2,6.3,26.4,8.8-.8,12.9-13.2C730,305,723.9,302.6,719.9,298.6Z"/><path class="cls-38" d="M705.7,291.1c4.7-5.5,8.9-1.6.8-7.2l-11.9-6.4s-9.2.8-5.8,13.7C692.2,303.9,701,296.6,705.7,291.1Z"/></g></g><use width="380.03" height="157.39" transform="translate(494.54 63.5)" xlink:href="#logo"/></svg>