<svg xmlns="http://www.w3.org/2000/svg" xmlns:xlink="http://www.w3.org/1999/xlink" viewBox="0 0 750 1334"><defs><style>.cls-1,.cls-26{fill:none;}.cls-2{fill:#b1c119;}.cls-13,.cls-3,.cls-30,.cls-4,.cls-5,.cls-6,.cls-7,.cls-8{isolation:isolate;}.cls-3{font-size:36.34px;}.cls-3,.cls-4,.cls-5,.cls-6,.cls-7,.cls-8,.cls-9{fill:#322b2e;}.cls-3,.cls-4,.cls-5,.cls-6,.cls-7,.cls-8{font-family:ArialMT, Arial;}.cls-4{font-size:36.34px;}.cls-5{font-size:36.34px;}.cls-6{font-size:36.34px;}.cls-7{font-size:36.34px;}.cls-8{font-size:36.34px;}.cls-10{fill:#fff;}.cls-11{fill:#ffe082;}.cls-12{fill:url(#Gradiente_sem_nome_14);}.cls-13{fill:#95d0d6;opacity:0.6;}.cls-14{fill:url(#Gradiente_sem_nome_15);}.cls-15{fill:#82b3e1;}.cls-16{fill:#96bc48;}.cls-17{fill:#ffd644;}.cls-17,.cls-18{stroke:#ddb30a;stroke-width:1.3px;}.cls-17,.cls-18,.cls-26,.cls-29{stroke-miterlimit:10;}.cls-18{fill:#c3a550;}.cls-19{fill:#f7cb96;}.cls-20{fill:#4a5ba4;}.cls-21{fill:#6874b5;}.cls-22{fill:#a3aed8;}.cls-23{fill:#f39d2b;}.cls-24{clip-path:url(#clip-path);}.cls-25{fill:#ee7d00;}.cls-26{stroke:#ea5c1f;stroke-width:0.77px;}.cls-27{clip-path:url(#clip-path-2);}.cls-28{fill:#b83918;}.cls-29{fill:#c42218;stroke:#6a1d0b;stroke-width:0.52px;}.cls-30{fill:#7fcad4;opacity:0.3;}.cls-31{fill:#4164ac;}.cls-32{opacity:0.7;}.cls-33{fill:#ecf4fc;}</style><radialGradient id="Gradiente_sem_nome_14" cx="106.2" cy="-70.59" r="323.85" gradientTransform="translate(110.14 959.28) scale(0.6 1.3)" gradientUnits="userSpaceOnUse"><stop offset="0.03" stop-color="#fff"/><stop offset="0.92" stop-color="#abcf83"/></radialGradient><radialGradient id="Gradiente_sem_nome_15" cx="-103.47" cy="-68.82" r="365.4" gradientTransform="translate(640.67 957.78) scale(0.41 1.31)" xlink:href="#Gradiente_sem_nome_14"/><clipPath id="clip-path"><path class="cls-1" d="M412.56,414.88s-86,17.48-89.68,28c-2,5.58,19.09,152.63,20.2,160.19,0,0,28.35.22,37.6-1a265.92,265.92,0,0,1,31.88-1.69V414.88Z"/></clipPath><clipPath id="clip-path-2"><path class="cls-1" d="M414.1,414.88s86,17.48,89.68,28c2.06,5.8-20.2,160.19-20.2,160.19s-25.19.08-33.49-.81c-18.95-2-36-1.91-36-1.91Z"/></clipPath><symbol id="logo" data-name="logo" viewBox="0 0 380.03 157.39"><g id="logo-3" data-name="logo"><path class="cls-2" d="M348.36,156.8c-22-6.9-105-28.6-157.4-28.1-65.1.6-145.4,23-164.7,28.5-3.6,1-4.1-2.2-4.1-2.2L.36,86.1s-1.8-5.3,2.7-6.1c24.4-4.7,142.6-36.5,186.2-36.8,43.1-.3,163,29.3,187.6,38.1,4.5,1.6,2.9,6.2,2.9,6.2l-25.3,66.4S352.56,158.2,348.36,156.8Z"/><path class="cls-1" d="M25.86,129.4s108-28,164.5-26.1,171.1,28.8,171.1,28.8"/><text class="cls-3" transform="translate(22.82 129.33) rotate(-13.52)">N</text><text class="cls-4" transform="matrix(0.98, -0.22, 0.22, 0.98, 47.51, 123.42)">u</text><text class="cls-5" transform="translate(68.41 118.88) rotate(-11.66)">t</text><text class="cls-3" transform="translate(81.64 116.1) rotate(-11)">r</text><text class="cls-3" transform="matrix(0.98, -0.18, 0.18, 0.98, 94.19, 113.67)">i</text><text class="cls-3" transform="matrix(0.99, -0.16, 0.16, 0.99, 103.34, 111.94)">e</text><text class="cls-3" transform="translate(123.74 108.52) rotate(-7.75)">n</text><text class="cls-3" transform="translate(144.93 105.69) rotate(-5.84)">t</text><text class="cls-3" transform="matrix(1, -0.05, 0.05, 1, 158.13, 104.22)">e</text><text class="cls-6" transform="translate(178.51 103.17) rotate(1.32)">s</text><text class="cls-3" transform="translate(198.83 103.76) rotate(4.72)"> </text><text class="cls-7" transform="translate(206.14 104.39) rotate(6.62)">C</text><text class="cls-8" transform="matrix(0.99, 0.14, -0.14, 0.99, 231.08, 106.83)">r</text><text class="cls-3" transform="translate(243.7 108.62) rotate(8.78)">i</text><text class="cls-3" transform="translate(252.92 110) rotate(9.57)">a</text><text class="cls-3" transform="translate(272.83 113.39) rotate(10.3)">t</text><text class="cls-3" transform="matrix(0.98, 0.19, -0.19, 0.98, 286.15, 115.81)">i</text><text class="cls-3" transform="matrix(0.98, 0.19, -0.19, 0.98, 296.34, 117.53)">v</text><text class="cls-3" transform="translate(315.39 121.51) rotate(11.82)">o</text><text class="cls-3" transform="matrix(0.98, 0.21, -0.21, 0.98, 336.06, 125.84)">s</text><path class="cls-9" d="M215.56,21.2v30a6.14,6.14,0,0,1-3.1,5.3l-26.4,15.1a6,6,0,0,1-6,0l-26.3-15.1a6.14,6.14,0,0,1-3.1-5.3v-30a6.14,6.14,0,0,1,3.1-5.3L180.16.8a6,6,0,0,1,6,0l26.4,15.1a6,6,0,0,1,3,5.3Z"/><path class="cls-2" d="M207.56,47.7a4.67,4.67,0,0,1-2.2,3.9l-19.9,11.5a4.56,4.56,0,0,1-2.2.6,4,4,0,0,1-2.2-.6l-19.9-11.5a4.45,4.45,0,0,1-2.2-3.9v-23a4.67,4.67,0,0,1,2.2-3.9l19.9-11.5a4.56,4.56,0,0,1,2.2-.6,4,4,0,0,1,2.2.6l19.9,11.5a4.45,4.45,0,0,1,2.2,3.9v23Zm1.5-26.5a6.67,6.67,0,0,0-2.5-2.5L186.66,7.2a7.26,7.26,0,0,0-7,0l-19.9,11.5a6.67,6.67,0,0,0-2.5,2.5,7.3,7.3,0,0,0-.9,3.5v23a7.3,7.3,0,0,0,.9,3.5,6.67,6.67,0,0,0,2.5,2.5l19.9,11.5a6.76,6.76,0,0,0,3.5.9,7,7,0,0,0,3.5-.9l19.9-11.5a6.67,6.67,0,0,0,2.5-2.5,7.3,7.3,0,0,0,.9-3.5v-23a7.3,7.3,0,0,0-.9-3.5Z"/><path class="cls-2" d="M211.76,49.8a5.25,5.25,0,0,1-2.6,4.5l-23.5,13.6a5.34,5.34,0,0,1-5.2,0L157,54.3a5.13,5.13,0,0,1-2.6-4.5V22.7a5.25,5.25,0,0,1,2.6-4.5l23.5-13.6a5.18,5.18,0,0,1,5.2,0l23.5,13.6a5.13,5.13,0,0,1,2.6,4.5V49.8Zm.4-30.3a6.33,6.33,0,0,0-2.3-2.3L186.36,3.6a6.14,6.14,0,0,0-6.4,0l-23.5,13.5a6.33,6.33,0,0,0-2.3,2.3,6.2,6.2,0,0,0-.9,3.2V49.7a6.2,6.2,0,0,0,.9,3.2,6.33,6.33,0,0,0,2.3,2.3L180,68.8a6.14,6.14,0,0,0,6.4,0l23.5-13.6a6.33,6.33,0,0,0,2.3-2.3,6.2,6.2,0,0,0,.9-3.2v-27a6.65,6.65,0,0,0-.9-3.2Z"/><path class="cls-10" d="M195.46,40a3.33,3.33,0,0,1,3.3-3.3h2.1a3.39,3.39,0,0,1-.1,4.6l-.1.1v.2a5.7,5.7,0,0,1-5.7,5.7,3.33,3.33,0,0,1-3.3-3.3h-1a4,4,0,0,0,1.3,3,4.2,4.2,0,0,0,2.5,1.2,5.68,5.68,0,0,1-5.7,5.2,3.26,3.26,0,0,1-3.3-2.9V38.2a3.33,3.33,0,0,1,3.3-3.3,4.15,4.15,0,0,0,1.6-.3,4.19,4.19,0,0,0,1.4-.9,4.34,4.34,0,0,0,1.3-3h-1a3.3,3.3,0,0,1-6.6,0V22.3a3.33,3.33,0,0,1,3.3-3.3,5.75,5.75,0,0,1,5.7,5.2,4,4,0,0,0-2.5,1.2,4.34,4.34,0,0,0-1.3,3h1a3.33,3.33,0,0,1,3.3-3.3,5.28,5.28,0,0,1,4,1.7,5.85,5.85,0,0,1,1.7,4V31l.1.1a3.29,3.29,0,0,1,.1,4.6h-2.1a3.8,3.8,0,0,0-3,1.3,4.34,4.34,0,0,0-1.3,3Zm7.3-6.5a4.36,4.36,0,0,0-1.1-2.9,6.36,6.36,0,0,0-1.9-4.5,6.55,6.55,0,0,0-4.2-1.9,6.55,6.55,0,0,0-1.9-4.2,6.41,6.41,0,0,0-4.7-1.9,4,4,0,0,0-3,1.3,4.34,4.34,0,0,0-1.3,3v8.4a4,4,0,0,0,1.3,3,4.44,4.44,0,0,0,1.1.8,7.63,7.63,0,0,0-1.1.8,4.34,4.34,0,0,0-1.3,3V50.8a4,4,0,0,0,1.4,2.6,4.3,4.3,0,0,0,2.8,1.1,6.83,6.83,0,0,0,4.7-1.9,6.55,6.55,0,0,0,1.9-4.2,6.55,6.55,0,0,0,4.2-1.9,6.36,6.36,0,0,0,1.9-4.5,4.36,4.36,0,0,0,1.1-2.9,3.94,3.94,0,0,0-1-2.7,4.23,4.23,0,0,0,1.1-2.9Z"/><path class="cls-10" d="M173.86,19.6a5.76,5.76,0,0,1,4.4.9,5.93,5.93,0,0,1,2.5,3.7,5.76,5.76,0,0,1-.9,4.4,5.93,5.93,0,0,1-3.7,2.5l-.5.1.2.9.5-.1a6.83,6.83,0,0,0,5.4-7.5.9.9,0,0,0-.1-.5h0c0-.2-.1-.3-.1-.5a6.83,6.83,0,0,0-2.8-3.9,6.56,6.56,0,0,0-5.1-1l-.5.1.2.9Z"/><path class="cls-10" d="M173.06,47.6a6.75,6.75,0,0,1-1.4.2,5.81,5.81,0,0,0,5.8,5.5h.5v1h-.5a6.73,6.73,0,0,1-4.8-2,6.92,6.92,0,0,1-2-4.5A9.24,9.24,0,0,1,168,47a6.61,6.61,0,0,1-3.2-4.1l-.1-.5.9-.3.1.5a5.82,5.82,0,0,0,6.4,4.2l-.2-.2-.3-.3a6.62,6.62,0,0,1-1.7-4.5,7.61,7.61,0,0,1,.3-2.1,7,7,0,0,1-6.7-5.7.6.6,0,0,0-.1-.4V33a6.9,6.9,0,0,1,1.6-4.5,6.54,6.54,0,0,1,4.6-2.4h.5l.1,1h-.5a5.92,5.92,0,0,0-5.3,6.4v.1a5.76,5.76,0,0,0,6.1,5.2,7.1,7.1,0,0,1,1-1.4l.3-.3h0a5.85,5.85,0,0,0,0-8.3l-.3-.3.7-.7.3.3a6.73,6.73,0,0,1,2,4.8,6.81,6.81,0,0,1-1.7,4.5l-.3.3h0a6.57,6.57,0,0,0-1.2,1.7c0,.1-.1.2-.1.3a5.93,5.93,0,0,0,1.3,6.3,4.35,4.35,0,0,0,.7.6c.1.1.1.1.2.1a6.33,6.33,0,0,0,3.2,1,5.66,5.66,0,0,0,4.1-1.7l.3-.3.7.7-.3.3a6.73,6.73,0,0,1-4.8,2,6.83,6.83,0,0,1-3.5-1.1Z"/><path class="cls-10" d="M175.36,42.6h-.5l.1.9h.5a6.73,6.73,0,0,0,4.6-2.4,6.51,6.51,0,0,0,1.5-5v-.5l-1,.1v.5a6,6,0,0,1-1.3,4.3,5.62,5.62,0,0,1-3.9,2.1Z"/></g></symbol></defs><g id="homepage_mobile"><g id="fundo"><rect class="cls-10" x="224.52" y="329.46" width="306.56" height="355.21"/><polyline class="cls-11" points="105.75 1330.1 166.74 1132.5 218.06 991.32 331.6 632.13 394.29 607.3 480.5 624.2 645.88 1332.7 105.75 1330.1 105.75 1330.1"/><path class="cls-12" d="M325.09,690.89c5.27-20.93,25.74-55.25,19.35-83.59-21.05-92.95-110.2-198.51-106-205.4L2,404.37V1332.7H191.72c15.19-61.88,20.71-141.44,21.53-169.78,2-71.11,20-104.78,52.6-224.12C278.23,893.69,300.4,788.52,325.09,690.89Z"/><rect class="cls-13" x="3.41" y="1.5" width="749.03" height="399.1"/><path class="cls-14" d="M493.87,403.2C477.57,452.86,429.42,590.4,446.6,687s32.84,50.83,60.58,132.86S492.7,863.92,496.45,941s15.84,91.39,56.77,225.16S575.68,1334,575.68,1334H752.62V401.9Z"/><path class="cls-15" d="M2,3.45v95c7.5.13,20.17.39,30.61-.13,15.89-.91,76.77-16,104.86-35.88S180.82,89,210,108.1s41.06,12.22,59.59,0S352.24,71.31,377.28,54c73.43-50.7,253.77,63.83,297.46,89,22,12.74,52.43,5.2,77.88-6.5V3.45Z"/><path class="cls-16" d="M205.1,401.12S178.71,371.61,167.39,369s-56.6-35.36-62.23-45.76-39.58-59-66-149.76C31.39,146.84,17.6,132.28,2,125V547.76c12.84,1.69,26.86,5.85,44.74,12.87,41.47,16.25,66-16.25,93.78-36.27s9.91-39.91,47.62-39c18.71.52,61,3,72.49-11.44C249.43,429.2,223.16,424.39,205.1,401.12Z"/><path class="cls-16" d="M752.62,161.92c-15,1-29.73,10.14-35,29-10.21,36.92-28.09,44.33-69.85,72.15-57.3,38.09-34,102.7-69,124.67-28.79,18.07-50.43,32.5-69,41.21-6.22,2.86-7.63,7.41-5.69,13,10,14.56,32.37,27.56,67.62,22.75,43.51-5.85,34,2.34,95.06,53.3,32.26,26.91,62.11,34.32,85.86,29V161.92Z"/></g><g id="caminho"><path class="cls-17" d="M62.58,1132.31c-2.14,4.63-1.94,8.92.51,11.4l36.21,34.23a7.64,7.64,0,0,0,5.2,1.82,15,15,0,0,0,6.63-1.82L174,1143.71a20.87,20.87,0,0,0,9.38-11.4l18.56-59c1.23-4,.41-7.61-2.24-9.43l-35-25.79a8,8,0,0,0-4.49-1.32,14.18,14.18,0,0,0-5.51,1.32L99.5,1063.85a21.6,21.6,0,0,0-9.59,9.43Z"/><path class="cls-17" d="M145.6,1334l56.61-37.19c5-3.31,9.08-9.42,10.61-15.87l19.27-81.52c1.23-5.45.11-10.25-3.06-12.89l-41.71-34.89a8,8,0,0,0-5.2-1.82,13.51,13.51,0,0,0-6.33,1.82l-63.44,34.89a26.34,26.34,0,0,0-11,12.89L70,1281c-2.55,6.45-2.34,12.56.62,15.87l33.5,37.18"/><path class="cls-17" d="M247,1177.77l57.42-34.22a16.37,16.37,0,0,0,7.55-11.41l9.28-59c.61-4-.82-7.6-3.77-9.42L278.4,1037.9a8.89,8.89,0,0,0-4.69-1.33,11.74,11.74,0,0,0-5.2,1.33l-51.1,25.79a17.14,17.14,0,0,0-8.16,9.42l-18.06,59.2c-1.42,4.63-.51,8.92,2.35,11.4l41.61,34.23a8.92,8.92,0,0,0,5.51,1.82A12.07,12.07,0,0,0,247,1177.77Z"/><path class="cls-18" d="M383.15,1177.77l52-34.22a13.38,13.38,0,0,0,5.71-11.41l-.1-59a10.86,10.86,0,0,0-5.2-9.42l-43.25-25.79a9.9,9.9,0,0,0-4.9-1.33,10.58,10.58,0,0,0-5,1.33l-47,25.79a13.7,13.7,0,0,0-6.63,9.42l-8.67,59a12,12,0,0,0,4.08,11.41l47,34.22a10.28,10.28,0,0,0,5.81,1.82A9.36,9.36,0,0,0,383.15,1177.77Z"/><path class="cls-17" d="M308,1334l50.62-37.22c4.49-3.31,7.55-9.42,8.06-15.87l6.12-81.52c.4-5.45-1.53-10.25-5.1-12.89l-47.33-34.89a9.13,9.13,0,0,0-5.51-1.82,11.71,11.71,0,0,0-6,1.82L251,1186.54a21.17,21.17,0,0,0-9,12.89L223.73,1281c-1.32,6.45,0,12.56,3.47,15.87L266.66,1334"/><path class="cls-17" d="M466.79,1334l44.77-37.18c4-3.31,6.12-9.42,5.61-15.87l-6.63-81.52a17,17,0,0,0-7.14-12.89l-52.83-34.89a10.46,10.46,0,0,0-5.71-1.82,10.21,10.21,0,0,0-5.71,1.82l-52.33,34.89a17,17,0,0,0-6.93,12.89L374.38,1281c-.31,6.45,1.83,12.56,5.81,15.87L425.44,1334"/><path class="cls-17" d="M519.11,1177.77l46.61-34.22c3.16-2.32,4.69-6.78,4-11.41l-9.49-59a13.18,13.18,0,0,0-6.73-9.42l-47.32-25.79a11.33,11.33,0,0,0-5.1-1.33,9.53,9.53,0,0,0-4.8,1.33l-42.83,25.79a11.15,11.15,0,0,0-5.1,9.42l.71,59a14.29,14.29,0,0,0,5.92,11.41l52.42,34.22a11.84,11.84,0,0,0,6.12,1.82A8.2,8.2,0,0,0,519.11,1177.77Z"/><path class="cls-17" d="M627.67,1334l38.82-37.18c3.47-3.31,4.59-9.42,3.06-15.87l-19.48-81.52a21,21,0,0,0-9.18-12.89l-58.34-34.89a11.78,11.78,0,0,0-6-1.82,8.81,8.81,0,0,0-5.4,1.82l-46.82,34.89c-3.47,2.64-5.4,7.6-4.89,12.89l7.44,81.52c.51,6.45,3.67,12.56,8.16,15.87l51.2,37.18"/><path class="cls-17" d="M671.59,1063.85l-51.4-25.79a12.53,12.53,0,0,0-5.31-1.32,8.29,8.29,0,0,0-4.59,1.32l-38.75,25.79a9.24,9.24,0,0,0-3.57,9.43l10.09,59a17.3,17.3,0,0,0,7.76,11.4l57.93,34.23a13.44,13.44,0,0,0,6.32,1.82,8.63,8.63,0,0,0,5.41-1.82l41.1-34.23c2.86-2.31,3.67-6.77,2.14-11.4l-18.86-59A17,17,0,0,0,671.59,1063.85Z"/><path class="cls-17" d="M151.52,940.84c-1.23,2.65-.72,5.29,1.32,6.61l30.09,19.68a7.87,7.87,0,0,0,4.08,1.16,10.9,10.9,0,0,0,4.9-1.16l45.39-19.68a11.78,11.78,0,0,0,6.52-6.61l11-35.05A4.75,4.75,0,0,0,252.6,900l-29-15.87a8.13,8.13,0,0,0-3.57-.83,12.38,12.38,0,0,0-4.18.83L174.57,900a12,12,0,0,0-6.73,5.79Z"/><path class="cls-17" d="M193.44,971.92a14,14,0,0,0-7.35,7.28l-17.23,44.64c-1.33,3.47-.72,6.78,1.73,8.43l35,25.47a7.25,7.25,0,0,0,4.69,1.32,13.6,13.6,0,0,0,5.51-1.32l50.69-25.47a13.55,13.55,0,0,0,7-8.43L284,979.2a6.5,6.5,0,0,0-2.86-7.28L247.8,952.08a8.08,8.08,0,0,0-4.08-1,12,12,0,0,0-4.69,1Z"/><path class="cls-17" d="M294.31,967.13l42.33-19.68a9.15,9.15,0,0,0,5.41-6.61l5.5-35.05a5.42,5.42,0,0,0-3.16-5.79L313,884.13a8.61,8.61,0,0,0-3.67-.83,11.84,11.84,0,0,0-4.08.83L266.47,900a9.62,9.62,0,0,0-5.82,5.79l-10.71,35.05a5.56,5.56,0,0,0,2.35,6.61l33.25,19.68a8.86,8.86,0,0,0,4.18,1.16A16.65,16.65,0,0,0,294.31,967.13Z"/><path class="cls-18" d="M397,967.13l39.17-19.68a7.48,7.48,0,0,0,4.38-6.61l-.1-35.05a6.58,6.58,0,0,0-4.08-5.79l-34-15.87a9.57,9.57,0,0,0-3.88-.83,10.94,10.94,0,0,0-4,.83L358.26,900c-2.65,1.16-4.59,3.31-4.89,5.79l-5.1,35.05a6.34,6.34,0,0,0,3.47,6.61l36.31,19.68a10,10,0,0,0,4.38,1.16A15,15,0,0,0,397,967.13Z"/><path class="cls-17" d="M284.62,1032.44l39.07,25.46a8.24,8.24,0,0,0,4.89,1.32,12.18,12.18,0,0,0,5.31-1.32l46.61-25.46a10.54,10.54,0,0,0,5.61-8.43l3.36-44.64a7.71,7.71,0,0,0-4-7.28L349,952.25a8.75,8.75,0,0,0-4.18-1,10.7,10.7,0,0,0-4.49,1l-42.53,19.84a11.32,11.32,0,0,0-6.22,7.28l-10,44.64A7.9,7.9,0,0,0,284.62,1032.44Z"/><path class="cls-17" d="M396.31,1032.44l43,25.46a9.12,9.12,0,0,0,5.1,1.32,10.66,10.66,0,0,0,5.1-1.32l42.63-25.46a8.85,8.85,0,0,0,4.29-8.43l-3.67-44.64a9.18,9.18,0,0,0-5.21-7.28l-39.67-19.84a10.21,10.21,0,0,0-8.77,0l-39.37,19.84a9,9,0,0,0-5.1,7.28L391.62,1024A9.79,9.79,0,0,0,396.31,1032.44Z"/><path class="cls-17" d="M499.53,967.13l36-19.68a6.27,6.27,0,0,0,3.37-6.61l-5.61-35.05a8.16,8.16,0,0,0-5-5.79l-36.51-15.87a10.49,10.49,0,0,0-4-.83,9.49,9.49,0,0,0-3.78.83L450.26,900a6.47,6.47,0,0,0-4,5.79l.4,35.05a7.6,7.6,0,0,0,4.49,6.61l39.47,19.68a11,11,0,0,0,4.59,1.16A13.28,13.28,0,0,0,499.53,967.13Z"/><path class="cls-18" d="M605,1032.44a7.69,7.69,0,0,0,3-8.43l-10.71-44.64a11.48,11.48,0,0,0-6.32-7.28l-42.84-19.84a10.7,10.7,0,0,0-4.49-1,8.75,8.75,0,0,0-4.18,1L503.2,972.09a7.48,7.48,0,0,0-3.88,7.28L503.4,1024a10.73,10.73,0,0,0,5.82,8.43l47,25.46a10.52,10.52,0,0,0,5.3,1.32,9.62,9.62,0,0,0,4.9-1.32Z"/><path class="cls-17" d="M620.49,900l-39-15.87a11.84,11.84,0,0,0-4.08-.83,8.61,8.61,0,0,0-3.67.83L542.57,900a5.25,5.25,0,0,0-3.06,5.79l6,35.05a9.52,9.52,0,0,0,5.51,6.61l42.53,19.68a12.26,12.26,0,0,0,4.69,1.16,7.06,7.06,0,0,0,4.18-1.16l32.95-19.68a5.39,5.39,0,0,0,2.24-6.61l-11.22-35.05A10.52,10.52,0,0,0,620.49,900Z"/><path class="cls-17" d="M255.25,784.76,222.3,795.51c-2.44.82-4.38,2.31-5.1,3.8l-10.71,23.15a3.06,3.06,0,0,0,1.53,4.3l25.5,12.73a6.94,6.94,0,0,0,3.27.66,11.09,11.09,0,0,0,3.87-.66l35.5-12.73c2.44-.83,4.38-2.49,4.89-4.3l7.35-23.15a3,3,0,0,0-2.15-3.8l-24.58-10.75a8,8,0,0,0-2.95-.5A6.38,6.38,0,0,0,255.25,784.76Z"/><path class="cls-17" d="M277.89,829.73l-35.6,12.9c-2.65,1-4.69,2.81-5.4,4.63l-10.81,28.11a4.07,4.07,0,0,0,1.94,5.29l28.86,15.54a8.76,8.76,0,0,0,3.67.83,13.32,13.32,0,0,0,4.29-.83l38.55-15.54c2.65-1.16,4.69-3.15,5.2-5.29l6.63-28.11c.41-2-.51-3.64-2.55-4.63L285,829.73a6.92,6.92,0,0,0-3.26-.66A10.39,10.39,0,0,0,277.89,829.73Z"/><path class="cls-18" d="M297.68,795.34c-2.25.83-4,2.32-4.49,3.8l-7,23.15a3.48,3.48,0,0,0,2.25,4.3l27.54,12.73a7.48,7.48,0,0,0,3.36.66,10,10,0,0,0,3.77-.66l33.46-12.73c2.35-.83,4-2.48,4.18-4.3l3.67-23.15a3.58,3.58,0,0,0-2.75-3.8l-26.32-10.75a8.93,8.93,0,0,0-3.06-.49,11.83,11.83,0,0,0-3.36.49Z"/><path class="cls-17" d="M321.24,847.26l-6.32,28.11c-.51,2.14.61,4.13,2.75,5.29l31.41,15.54A9.77,9.77,0,0,0,353,897a11.16,11.16,0,0,0,4.08-.83l36.11-15.54c2.55-1.16,4.18-3.15,4.28-5.29l2.14-28.11c.1-2-1.12-3.64-3.26-4.63l-29.68-12.9a7.63,7.63,0,0,0-3.37-.66,8.88,8.88,0,0,0-3.57.66l-33.56,12.9C323.48,843.45,321.65,845.27,321.24,847.26Z"/><path class="cls-17" d="M405.49,880.66l33.86,15.54a10,10,0,0,0,8,0L481,880.66c2.35-1.16,3.68-3.15,3.47-5.29l-2.24-28.11c-.21-2-1.74-3.64-4.08-4.63l-31.72-12.9a8.57,8.57,0,0,0-3.57-.66,8.08,8.08,0,0,0-3.47.66l-31.52,12.9c-2.34,1-3.87,2.81-4,4.63l-1.94,28.11A5.58,5.58,0,0,0,405.49,880.66Z"/><path class="cls-17" d="M405.39,839.32l31.41-12.73c2.24-.83,3.57-2.48,3.57-4.3V799.14c0-1.65-1.33-3.14-3.37-3.8l-27.94-10.75a9.61,9.61,0,0,0-3.16-.49,10.7,10.7,0,0,0-3.27.49l-29.58,10.75c-2.14.83-3.67,2.32-3.87,3.8l-3.37,23.15c-.3,1.82.82,3.47,3,4.3l29.58,12.73a8.1,8.1,0,0,0,3.57.66A6.45,6.45,0,0,0,405.39,839.32Z"/><path class="cls-17" d="M517.07,826.76c2-.83,3.16-2.48,2.86-4.3l-3.68-23.15a5.24,5.24,0,0,0-4-3.8L482.6,784.76a10.75,10.75,0,0,0-3.27-.5,9.61,9.61,0,0,0-3.16.5l-27.84,10.75c-2,.82-3.27,2.31-3.27,3.8l.31,23.15c0,1.82,1.43,3.47,3.57,4.3l31.62,12.73a9,9,0,0,0,3.67.66,8.88,8.88,0,0,0,3.57-.66Z"/><path class="cls-17" d="M569.7,880.66a4.68,4.68,0,0,0,2.65-5.29l-6.73-28.11c-.51-2-2.35-3.64-4.79-4.63l-33.76-12.9a9.09,9.09,0,0,0-3.68-.66,7.34,7.34,0,0,0-3.36.66l-29.48,12.9a5,5,0,0,0-3.26,4.63l2.55,28.11c.2,2.14,1.83,4.13,4.38,5.29l36.31,15.54a12.17,12.17,0,0,0,4.08.83,9.73,9.73,0,0,0,3.88-.83Z"/><path class="cls-17" d="M587.75,795.34l-31.41-10.75a11.4,11.4,0,0,0-3.37-.49,9,9,0,0,0-3.06.49L523.8,795.34c-1.94.83-3,2.32-2.65,3.8l4,23.15c.3,1.82,1.94,3.47,4.28,4.3l33.66,12.73a9.67,9.67,0,0,0,3.77.66,7.23,7.23,0,0,0,3.37-.66l27.34-12.73a3.34,3.34,0,0,0,2.14-4.3l-7.45-23.15C591.83,797.66,590,796.17,587.75,795.34Z"/><path class="cls-17" d="M245.35,744.91l22.14,8.93a7.25,7.25,0,0,0,2.75.5,10.53,10.53,0,0,0,3.16-.5l29.07-8.93c2-.66,3.57-1.82,4-3l5.2-16.37c.41-1.16-.41-2.15-1.94-2.81l-21.31-7.61a6.32,6.32,0,0,0-2.55-.33,16.39,16.39,0,0,0-2.86.33l-27.33,7.61a5.94,5.94,0,0,0-4.08,2.81l-7.65,16.37C243.21,743.09,243.82,744.25,245.35,744.91Z"/><path class="cls-17" d="M319.3,722.59a5.09,5.09,0,0,0-3.67,2.81l-5,16.37c-.41,1.32.41,2.48,2,3l23.56,8.92a7.67,7.67,0,0,0,2.86.5,9.18,9.18,0,0,0,3.06-.5l27.64-8.92c1.94-.67,3.26-1.82,3.47-3l2.55-16.37c.2-1.16-.72-2.15-2.35-2.81L350.92,715a6.8,6.8,0,0,0-2.65-.33,17.41,17.41,0,0,0-2.86.33Z"/><path class="cls-18" d="M380,744.91l24.89,8.93a8.74,8.74,0,0,0,2.95.5,9.39,9.39,0,0,0,3.06-.5l26.22-8.93c1.83-.66,2.95-1.82,2.95-3V725.57c0-1.16-1.12-2.15-2.85-2.81l-23.77-7.61a7,7,0,0,0-2.65-.33,14.08,14.08,0,0,0-2.75.33l-24.89,7.61c-1.84.49-3.06,1.65-3.26,2.81l-2.45,16.37C377.34,743.09,378.25,744.25,380,744.91Z"/><path class="cls-17" d="M504.42,744.91c1.74-.66,2.65-1.82,2.45-3l-2.65-16.37c-.2-1.16-1.43-2.15-3.26-2.81l-25-7.61a7.65,7.65,0,0,0-2.76-.33,13.16,13.16,0,0,0-2.65.33l-23.66,7.61c-1.74.49-2.76,1.65-2.76,2.81l.21,16.37c0,1.32,1.12,2.48,3.06,3l26.31,8.93a9,9,0,0,0,3.06.5,8.85,8.85,0,0,0,3-.5Z"/><path class="cls-17" d="M548.49,753.84l23.35-8.93c1.63-.66,2.45-1.82,2-3l-5.3-16.37c-.41-1.16-1.84-2.15-3.67-2.81l-26.22-7.61a8.12,8.12,0,0,0-2.85-.33,13.07,13.07,0,0,0-2.65.33l-22.44,7.61c-1.64.49-2.55,1.65-2.35,2.81l2.86,16.37c.2,1.32,1.53,2.48,3.46,3l27.75,8.93a9.9,9.9,0,0,0,3.06.5A8,8,0,0,0,548.49,753.84Z"/><path class="cls-17" d="M275,756c-2.14.66-3.77,1.82-4.28,3.31l-7.44,19.34c-.62,1.49.1,2.81,1.83,3.64l24.58,10.58a9,9,0,0,0,3.06.5,12.6,12.6,0,0,0,3.47-.5l31.11-10.58c2.14-.66,3.77-2.15,4.08-3.64L336,759.3c.3-1.33-.51-2.65-2.25-3.31l-23.56-8.93a7.25,7.25,0,0,0-2.75-.5,9.44,9.44,0,0,0-3.06.5Z"/><path class="cls-17" d="M372.54,747.06,344.8,756c-2,.66-3.47,1.82-3.77,3.31l-4.39,19.34c-.31,1.49.61,2.81,2.45,3.64l26.21,10.58a9.61,9.61,0,0,0,3.16.5,11.41,11.41,0,0,0,3.37-.5l29.37-10.58c2-.66,3.37-2.15,3.47-3.64l1.43-19.34c.1-1.33-1-2.65-2.86-3.31l-25-8.93a7.78,7.78,0,0,0-2.85-.5A8.7,8.7,0,0,0,372.54,747.06Z"/><path class="cls-17" d="M473.62,782.28c1.94-.66,3.06-2.15,3-3.64l-1.53-19.34c-.1-1.33-1.43-2.65-3.37-3.31l-26.41-8.93a9,9,0,0,0-5.92,0L413,756c-1.94.66-3.17,1.82-3.27,3.31l-1.32,19.34c-.11,1.49,1,2.81,2.95,3.64l27.85,10.58a10.91,10.91,0,0,0,6.53,0Z"/><path class="cls-17" d="M546.75,782.28c1.84-.66,2.76-2.15,2.35-3.64l-4.69-19.34c-.31-1.33-1.84-2.65-3.88-3.31l-27.85-8.93a9.39,9.39,0,0,0-3.06-.5,7.78,7.78,0,0,0-2.85.5L481.88,756c-1.83.66-2.85,1.82-2.75,3.31l1.73,19.34c.1,1.49,1.53,2.81,3.57,3.64L514,792.86a11.36,11.36,0,0,0,3.37.5,9.61,9.61,0,0,0,3.16-.5Z"/><path class="cls-17" d="M291.25,712.84l21.32,7.6a6.53,6.53,0,0,0,2.65.33,16.39,16.39,0,0,0,2.86-.33l26-7.6c1.83-.5,3.16-1.49,3.36-2.65l3.37-14.05c.2-1-.51-1.82-2-2.32l-20.5-6.61a10.44,10.44,0,0,0-2.45-.33,13.07,13.07,0,0,0-2.65.33l-24.69,6.61c-1.83.5-3.16,1.32-3.57,2.32l-5.4,14.05C289.11,711.35,289.72,712.34,291.25,712.84Z"/><path class="cls-17" d="M381.82,687.21l-23.56,6.61c-1.73.5-2.95,1.32-3.16,2.32l-3.16,14.05c-.2,1,.61,2,2.14,2.65l22.54,7.6a7.08,7.08,0,0,0,2.65.33,16.39,16.39,0,0,0,2.86-.33l24.79-7.6c1.73-.5,2.85-1.49,2.95-2.65l1-14.05c.11-1-.81-1.82-2.44-2.32l-21.63-6.61a11.15,11.15,0,0,0-2.45-.33A13.2,13.2,0,0,0,381.82,687.21Z"/><path class="cls-17" d="M468.42,712.84c1.63-.5,2.65-1.49,2.55-2.65l-1.12-14.05c-.11-1-1.13-1.82-2.86-2.32l-22.64-6.61a10,10,0,0,0-5.1,0l-22.54,6.61c-1.64.5-2.76,1.32-2.76,2.32L413,710.19c-.11,1,.91,2,2.54,2.65l23.67,7.6a7.57,7.57,0,0,0,2.75.33,14.28,14.28,0,0,0,2.76-.33Z"/><path class="cls-17" d="M526.15,693.82l-23.66-6.61a13.2,13.2,0,0,0-2.55-.33,10.37,10.37,0,0,0-2.45.33L476,693.82c-1.53.5-2.45,1.32-2.45,2.32l1.32,14.05c.11,1,1.23,2,3,2.65l24.89,7.6a8.2,8.2,0,0,0,2.86.33,12.38,12.38,0,0,0,2.65-.33l22.44-7.6c1.53-.5,2.34-1.49,2.14-2.65l-3.37-14.05C529.11,695.14,527.88,694.32,526.15,693.82Z"/><path class="cls-17" d="M304.41,663.07l-23.36,5.78c-1.73.5-3,1.16-3.36,2.15l-5.61,12.24c-.41,1,.2,1.82,1.53,2.31l19.48,6.62a10.92,10.92,0,0,0,2.45.33,14,14,0,0,0,2.65-.33l24.58-6.62c1.73-.49,3-1.32,3.26-2.31L329.91,671c.3-.82-.41-1.65-1.84-2.15l-18.87-5.78a8.6,8.6,0,0,0-2.24-.33A12.17,12.17,0,0,0,304.41,663.07Z"/><path class="cls-17" d="M383.15,668.85l-19.79-5.78a9.3,9.3,0,0,0-2.24-.33,12.12,12.12,0,0,0-2.45.33l-22.44,5.78c-1.63.5-2.85,1.16-3.06,2.15l-3.67,12.24c-.31,1,.41,1.82,1.84,2.31l20.5,6.62a11.78,11.78,0,0,0,2.45.33,14,14,0,0,0,2.65-.33l23.46-6.62c1.63-.49,2.75-1.32,2.85-2.31L385.19,671C385.39,670,384.58,669.35,383.15,668.85Z"/><path class="cls-17" d="M438.43,668.85l-20.7-5.78a8.5,8.5,0,0,0-4.69,0l-21.53,5.78c-1.53.5-2.65,1.16-2.75,2.15L387,683.24c-.11,1,.71,1.82,2.24,2.31l21.52,6.62a10,10,0,0,0,5.1,0l22.44-6.62c1.53-.49,2.55-1.32,2.55-2.31l-.1-12.24C440.88,670,440,669.35,438.43,668.85Z"/><path class="cls-17" d="M496.26,685.39c1.53-.5,2.35-1.32,2.25-2.32l-2-12.23c-.1-.83-1.23-1.65-2.76-2.15l-21.62-5.79a8.5,8.5,0,0,0-4.69,0l-20.6,5.79c-1.53.5-2.45,1.16-2.45,2.15l.2,12.23c0,1,1,1.82,2.55,2.32L469.64,692a13.2,13.2,0,0,0,2.55.33,12.09,12.09,0,0,0,2.55-.33Z"/><path class="cls-17" d="M549.1,668.85l-22.54-5.78a12.22,12.22,0,0,0-2.45-.33,8.75,8.75,0,0,0-2.25.33l-19.68,5.78c-1.43.5-2.24,1.16-2,2.15l2.14,12.24c.21,1,1.33,1.82,3,2.31l23.66,6.62a14,14,0,0,0,2.65.33,10.92,10.92,0,0,0,2.45-.33l20.4-6.62c1.43-.49,2.14-1.32,1.84-2.31l-4-12.24C551.85,670,550.73,669.35,549.1,668.85Z"/><path class="cls-17" d="M293.7,640.91,311,646a8.29,8.29,0,0,0,2.14.33,10.92,10.92,0,0,0,2.35-.33l21.31-5.13c1.53-.33,2.55-1,2.76-1.65l3-9.43c.2-.66-.41-1.32-1.64-1.65l-16.83-4.46a7.43,7.43,0,0,0-2-.17,8.77,8.77,0,0,0-2.15.17l-20.4,4.46a4,4,0,0,0-2.85,1.65l-4.39,9.43C292,639.92,292.58,640.58,293.7,640.91Z"/><path class="cls-17" d="M389.68,628l-17.55-4.47a8.32,8.32,0,0,0-2-.16,9.7,9.7,0,0,0-2.14.16L348.27,628c-1.43.33-2.45,1-2.65,1.65l-2.86,9.42c-.2.66.41,1.33,1.73,1.66l18.16,5.12a8.56,8.56,0,0,0,2.14.33,10.33,10.33,0,0,0,2.35-.33l20.5-5.12c1.43-.33,2.45-1,2.55-1.66l1.43-9.42C391.72,629,391,628.35,389.68,628Z"/><path class="cls-17" d="M438.53,628l-18.25-4.47a8.4,8.4,0,0,0-2-.16,9.74,9.74,0,0,0-2.15.16l-19,4.47c-1.32.33-2.24,1-2.34,1.65l-1.33,9.42c-.1.66.61,1.33,2,1.66l19,5.12a7.8,7.8,0,0,0,4.49,0l19.69-5.12c1.42-.33,2.24-1,2.24-1.66v-9.42A3.06,3.06,0,0,0,438.53,628Z"/><path class="cls-17" d="M489.33,640.91c1.32-.33,2-1,1.94-1.65l-1.53-9.43c-.11-.66-1-1.32-2.45-1.65l-19-4.46a8.77,8.77,0,0,0-2.15-.17,7.92,7.92,0,0,0-2,.17l-18.25,4.46c-1.33.33-2.14,1-2.14,1.65l.1,9.43c0,.66.92,1.32,2.24,1.65L465.87,646a10.82,10.82,0,0,0,2.24.33,10,10,0,0,0,2.25-.33Z"/><path class="cls-17" d="M494.84,628c-1.23.33-2,1-1.84,1.65l1.63,9.42c.1.66,1.12,1.33,2.55,1.66l20.6,5.12a10.33,10.33,0,0,0,2.35.33,7.82,7.82,0,0,0,2.14-.33l18.06-5.12c1.22-.33,1.93-1,1.73-1.66L539,629.67c-.2-.66-1.22-1.32-2.65-1.65l-19.69-4.47a9.65,9.65,0,0,0-2.14-.16,8.36,8.36,0,0,0-2,.16Z"/><path class="cls-17" d="M355.61,605.86l16.32,4a7.52,7.52,0,0,0,1.94.16,8.36,8.36,0,0,0,2-.16l18.15-4c1.33-.33,2.15-.83,2.25-1.32l1.12-7.61c.1-.5-.61-1-1.73-1.32L379.89,592a6.79,6.79,0,0,0-1.84-.16,8,8,0,0,0-1.94.16l-17.44,3.64c-1.22.33-2.14.82-2.34,1.32l-2.25,7.61C353.88,605,354.49,605.53,355.61,605.86Z"/><path class="cls-17" d="M400.9,605.86l16.93,4a7.91,7.91,0,0,0,1.94.16,8.4,8.4,0,0,0,2-.16l17.44-4c1.22-.33,2-.83,2-1.32v-7.61c0-.5-.72-1-1.94-1.32L422.93,592a7.16,7.16,0,0,0-1.84-.16,6.71,6.71,0,0,0-1.83.16l-16.93,3.64c-1.23.33-2,.82-2.15,1.32l-1.12,7.61C399.06,605,399.78,605.53,400.9,605.86Z"/><path class="cls-17" d="M446.08,605.86l17.54,4a8.4,8.4,0,0,0,2,.16,7.14,7.14,0,0,0,1.94-.16l16.83-4c1.23-.33,1.84-.83,1.74-1.32l-1.23-7.61c-.1-.5-.92-1-2.14-1.32L465.87,592a7.56,7.56,0,0,0-1.94-.16,6.68,6.68,0,0,0-1.83.16l-16.32,3.64c-1.23.33-1.94.82-1.94,1.32l.1,7.61C444.14,605,444.86,605.53,446.08,605.86Z"/><path class="cls-17" d="M338.27,642.07,317,647.19c-1.53.34-2.66,1-3,1.82l-4.08,10.75c-.31.83.3,1.49,1.63,2l18.77,5.79a9.42,9.42,0,0,0,2.34.33,11.15,11.15,0,0,0,2.45-.33l22.34-5.79c1.53-.33,2.65-1.15,2.85-2L362.85,649c.21-.82-.51-1.48-1.83-1.82l-18.16-5.12a7.82,7.82,0,0,0-2.14-.33C339.8,641.9,339,641.9,338.27,642.07Z"/><path class="cls-17" d="M389.78,642.07l-20.5,5.12c-1.53.34-2.55,1-2.65,1.82l-2.35,10.75c-.2.83.61,1.49,1.94,2l19.68,5.79a10.33,10.33,0,0,0,2.35.33,12.12,12.12,0,0,0,2.45-.33l21.42-5.79c1.53-.33,2.45-1.15,2.55-2l.81-10.75c.1-.82-.81-1.48-2.14-1.82l-19.17-5.12a8.64,8.64,0,0,0-2.15-.33C391.21,641.9,390.49,641.9,389.78,642.07Z"/><path class="cls-17" d="M440.17,642.07l-19.69,5.12c-1.43.34-2.35,1-2.45,1.82l-.71,10.75c-.1.83.81,1.49,2.24,2l20.61,5.79a8.5,8.5,0,0,0,4.69,0l20.5-5.79c1.43-.33,2.34-1.15,2.24-2L466.68,649c-.1-.82-1-1.48-2.44-1.82l-19.79-5.12a9.38,9.38,0,0,0-2.24-.33C441.59,641.9,440.88,641.9,440.17,642.07Z"/><path class="cls-17" d="M519.62,661.74c1.43-.33,2.14-1.15,1.94-2L519,649c-.21-.82-1.23-1.48-2.76-1.82l-20.6-5.12a10.19,10.19,0,0,0-2.24-.33,7.82,7.82,0,0,0-2.14.33l-18.87,5.12c-1.33.34-2.15,1-2.15,1.82l1,10.75c.11.83,1,1.49,2.55,2l21.53,5.79a11.14,11.14,0,0,0,2.44.33,10.25,10.25,0,0,0,2.35-.33Z"/><path class="cls-17" d="M326.24,622.39l16.83,4.47a8.32,8.32,0,0,0,2,.16c.71,0,1.53-.16,2.14-.16l19.58-4.47c1.43-.33,2.35-.82,2.45-1.48l1.94-8.44c.1-.66-.51-1.15-1.74-1.49l-16.32-4a6.7,6.7,0,0,0-1.93-.17,7.85,7.85,0,0,0-2,.17l-18.77,4c-1.33.34-2.35.83-2.55,1.49l-3.27,8.44C324.4,621.4,325,622.06,326.24,622.39Z"/><path class="cls-17" d="M377,611c-1.33.34-2.24.83-2.35,1.49l-1.83,8.44c-.1.66.51,1.15,1.73,1.48l17.55,4.47a8.32,8.32,0,0,0,2,.16c.71,0,1.53-.16,2.14-.16l18.87-4.47c1.32-.33,2.14-.82,2.24-1.48l.61-8.44c0-.66-.71-1.15-1.94-1.49l-16.93-4a7.05,7.05,0,0,0-1.93-.17,7.85,7.85,0,0,0-2,.17Z"/><path class="cls-17" d="M422.52,611c-1.22.34-2,.83-2.14,1.49l-.51,8.44c0,.66.71,1.15,2,1.48l18.26,4.47a8.75,8.75,0,0,0,2.14.16c.71,0,1.43-.16,2.14-.16l18.15-4.47c1.33-.33,2-.82,2-1.48l-.71-8.44c0-.66-.92-1.15-2.14-1.49l-17.65-4a7.42,7.42,0,0,0-1.93-.17,7.09,7.09,0,0,0-1.94.17Z"/><path class="cls-17" d="M468.52,611c-1.22.34-1.94.83-1.94,1.49l.82,8.44c.1.66.92,1.15,2.24,1.48l19,4.47a9.74,9.74,0,0,0,2.15.16c.71,0,1.42-.16,2-.16l17.44-4.47c1.22-.33,1.93-.82,1.73-1.48l-2-8.44c-.1-.66-1-1.15-2.35-1.49l-18.25-4a7.89,7.89,0,0,0-2-.17,7.09,7.09,0,0,0-1.94.17Z"/><path class="cls-17" d="M81.54,1334l-21.21-24.12a7.41,7.41,0,0,0-5.81-2.48,15.11,15.11,0,0,0-7.75,2.48L6.78,1334l-.37.23"/><path class="cls-17" d="M242.4,1334.08l-25.09-24.2a8.85,8.85,0,0,0-6.23-2.48,13.9,13.9,0,0,0-7.44,2.48L167.45,1334"/><path class="cls-18" d="M403.24,1334l-28.86-24.11a10.22,10.22,0,0,0-6.63-2.48,12,12,0,0,0-7,2.48L328.4,1334"/><path class="cls-17" d="M563.92,1334l-32.67-24.12a12,12,0,0,0-7-2.48,10.2,10.2,0,0,0-6.63,2.48L489.11,1334"/><path class="cls-17" d="M725.15,1334l-36.52-24.12a13.64,13.64,0,0,0-7.45-2.48,8.83,8.83,0,0,0-6.22,2.48L650.34,1334"/></g><g id="casa"><g id="casa-2" data-name="casa"><path class="cls-19" d="M554.76,610s-106.14-9.92-141.61-10c-35.77-.07-142.64,9.62-142.64,9.62L246.64,402.24s73.52-37.53,90.34-55,72.86-78,72.86-78,83,87,95.26,95.48S572,398.86,572,398.86Z"/><path class="cls-20" d="M254.13,386.3l-64.56,26L235,597.4a9.85,9.85,0,0,0,2,2.13c7.42,4,26.08,6.9,33.64,3.23a8.75,8.75,0,0,0,1.69-2.13Z"/><path class="cls-21" d="M201.91,407.09s28.94,155.2,44.14,186.56c2.57,5.36,19,3.16,19,3.16L246.64,394.09Z"/><path class="cls-22" d="M252.29,549.36c-1.39-11.46-3.74-4.77-6.83-2.35a11.92,11.92,0,0,0-4,4.77,12.17,12.17,0,0,0,.07,6.32c1,3.53,5,23.36,7.64,28.87s4,8.3,6.46,5.51S253.69,560.82,252.29,549.36Z"/><path class="cls-22" d="M247.15,529.46c-1.83-10-4.33-28.72-6.68-33.2s-6.54-1-11.17-.08,8.52,49.21,11,46.57S248.91,539.52,247.15,529.46Z"/><path class="cls-22" d="M228.79,493.32c3.16-3.31,10.43-4,8.37-16.75s-4.77-36.65-7.56-42.38-7.86-1.32-13.44-.36S225.7,496.62,228.79,493.32Z"/><path class="cls-22" d="M226.29,423.62c.3-3.6.15-13.22-1.17-15.5S210,412.31,210,412.31s-2.65,1.32-2.65,3,3.9,11.9,5.88,13.81S226,427.22,226.29,423.62Z"/><path class="cls-20" d="M566.73,393.94l64.49,26L585.82,605a9.85,9.85,0,0,1-2,2.13c-7.42,4-26.07,6.9-33.64,3.23a8.75,8.75,0,0,1-1.69-2.13Z"/><path class="cls-21" d="M618.88,414.73s-28.94,155.12-44.15,186.56c-2.57,5.36-19,3.16-19,3.16l18.44-202.72Z"/><path class="cls-22" d="M568.49,557c1.4-11.46,3.75-4.77,6.83-2.35a11.9,11.9,0,0,1,4,4.77,12.22,12.22,0,0,1-.08,6.32c-1,3.53-5,23.36-7.64,28.87s-4,8.29-6.46,5.5S567.09,568.46,568.49,557Z"/><path class="cls-22" d="M573.7,537.17c1.84-10,4.34-28.72,6.69-33.2s6.54-1,11.16-.07-8.52,49.21-11,46.56C577.89,547.74,571.87,547.16,573.7,537.17Z"/><path class="cls-22" d="M592,501c-3.15-3.31-10.43-4-8.37-16.75s4.77-36.65,7.57-42.38,7.85-1.32,13.44-.37S595.15,504.34,592,501Z"/><path class="cls-22" d="M594.56,431.33c-.29-3.6-.14-13.22,1.18-15.5S610.87,420,610.87,420s2.64,1.32,2.64,3-3.89,11.9-5.87,13.81S594.78,434.85,594.56,431.33Z"/><path id="SVGID" class="cls-23" d="M412.56,414.88s-86,17.48-89.68,28c-2,5.58,19.09,152.63,20.2,160.19,0,0,28.35.22,37.6-1a265.92,265.92,0,0,1,31.88-1.69V414.88Z"/><g class="cls-24"><rect class="cls-25" x="395.44" y="412.75" width="3.23" height="195.81"/><rect class="cls-25" x="379.43" y="417.59" width="3.23" height="189.2"/><rect class="cls-25" x="363.35" y="423.4" width="3.23" height="182.96"/><rect class="cls-25" x="347.26" y="426.55" width="3.23" height="180.61"/><rect class="cls-25" x="331.25" y="435.22" width="3.23" height="114.14"/></g><path id="SVGID-2" data-name="SVGID" class="cls-26" d="M412.56,414.88s-86,17.48-89.68,28c-2,5.58,19.09,152.63,20.2,160.19,0,0,28.35.22,37.6-1a265.92,265.92,0,0,1,31.88-1.69V414.88Z"/><path id="SVGID-3" data-name="SVGID" class="cls-23" d="M414.1,414.88s86,17.48,89.68,28c2.06,5.8-20.2,160.19-20.2,160.19s-25.19.08-33.49-.81c-18.95-2-36-1.91-36-1.91Z"/><g class="cls-27"><rect class="cls-25" x="427.98" y="412.75" width="3.23" height="195.81"/><rect class="cls-25" x="443.99" y="417.59" width="3.23" height="189.2"/><rect class="cls-25" x="460.08" y="423.4" width="3.23" height="182.96"/><rect class="cls-25" x="476.09" y="426.55" width="3.23" height="180.61"/><rect class="cls-25" x="492.18" y="435.22" width="3.23" height="114.14"/></g><path id="SVGID-4" data-name="SVGID" class="cls-26" d="M414.1,414.88s86,17.48,89.68,28c2.06,5.8-20.2,160.19-20.2,160.19s-25.19.08-33.49-.81c-18.95-2-36-1.91-36-1.91Z"/><path class="cls-28" d="M170.47,429.49l-7.56-5.21c33.56-8,112-35,150.2-63.76,79.54-60.08,98.13-97.61,98.27-98l3.9,4c-.74,1.54-18.95,36.58-99.6,97.39C277,393.14,204.33,421.41,170.47,429.49Z"/><path class="cls-29" d="M218.29,409.37l-6.39-10.43-4.78,2.35c-16.38,8-53.25,14.17-53.25,14.17l9.48,11.09C163.35,426.41,197.13,417,218.29,409.37Z"/><path class="cls-29" d="M266,387.41,259.12,379s-2.13.15-6.75,2.79c-15.8,9.18-50.54,17-50.54,17l9.77,12.93A288.08,288.08,0,0,0,258,393.21C263.82,390.27,266,387.41,266,387.41Z"/><path class="cls-29" d="M308.7,363.68l-6.61-6.75-4.41,2.93c-15.2,10.07-51,21-51,21l11.61,10.43S278.44,387.55,308.7,363.68Z"/><path class="cls-29" d="M345.57,336.29l-7.27-6.83-4,3.52c-13.67,12.12-47.6,27.84-47.6,27.84l12.93,8.74C299.74,369.48,317.66,362.43,345.57,336.29Z"/><path class="cls-29" d="M360.34,324.39c7.93-7.2,14.69-13.81,20.56-19.83L372,298.09l-3.52,4c-12.05,13.73-43.7,33.56-43.7,33.56l13.95,7.06Z"/><path class="cls-29" d="M394.05,290.16l1.62-1.91c12.19-14.47,16.74-23.06,17.55-24.6l-7.05-3.53s-2.06-1-4.92,3.45c-9.7,15.5-37.68,40.25-37.68,40.25l13.81,4.34C384,301.47,389.5,295.45,394.05,290.16Z"/><path class="cls-28" d="M650.31,430.3l7.64-5.21c-33.57-8-112-35-150.2-63.76-79.62-60.08-98.13-97.61-98.28-98l-3.89,4c.74,1.54,18.95,36.57,99.6,97.39C543.81,393.94,616.45,422.22,650.31,430.3Z"/><path class="cls-29" d="M602.57,410.18,609,399.75l4.77,2.35c16.38,8,53.25,14.17,53.25,14.17l-9.47,11.09C657.44,427.22,623.72,417.81,602.57,410.18Z"/><path class="cls-29" d="M554.76,388.21l6.9-8.44s2.13.14,6.76,2.79c15.79,9.11,50.53,17,50.53,17l-9.7,12.93A288.08,288.08,0,0,1,562.83,394C557,391.08,554.76,388.21,554.76,388.21Z"/><path class="cls-29" d="M512.15,364.49l6.62-6.76,4.4,2.94c15.21,10.06,51,21,51,21l-11.61,10.43S542.34,388.43,512.15,364.49Z"/><path class="cls-29" d="M475.21,337.09l7.27-6.83,4,3.53C500.11,345.91,534,361.63,534,361.63l-12.92,8.74S503.19,363.24,475.21,337.09Z"/><path class="cls-29" d="M460.52,325.2c-7.93-7.2-14.69-13.81-20.57-19.84l8.89-6.46,3.53,4c12,13.66,43.7,33.56,43.7,33.56l-14,7.05Z"/><path class="cls-29" d="M426.81,291l-1.62-1.91C413,274.59,408.45,266,407.64,264.45l7.05-3.52s2.05-1,4.92,3.45c9.69,15.5,37.68,40.25,37.68,40.25L443.48,309C436.8,302.28,431.36,296.26,426.81,291Z"/><path class="cls-28" d="M419.83,265.63a7.16,7.16,0,0,1-7.27,7.12h-4.41a7.16,7.16,0,0,1-7.27-7.12h0a7.16,7.16,0,0,1,7.27-7.13h4.41a7.22,7.22,0,0,1,7.27,7.13Z"/><circle class="cls-19" cx="413.88" cy="483.26" r="38.19"/><path class="cls-9" d="M442.82,468.49V495.6a5.37,5.37,0,0,1-2.79,4.77L416.16,514a5.82,5.82,0,0,1-2.72.73,5.07,5.07,0,0,1-2.72-.73l-23.87-13.59a5.51,5.51,0,0,1-2.79-4.77V468.49a5.37,5.37,0,0,1,2.79-4.77l23.87-13.59a5.79,5.79,0,0,1,2.72-.73,5.1,5.1,0,0,1,2.72.73L440,463.72a5.47,5.47,0,0,1,2.79,4.77Z"/><path class="cls-2" d="M435.55,492.44a4.09,4.09,0,0,1-2.06,3.52l-18,10.36a3.89,3.89,0,0,1-2.06.51,4.06,4.06,0,0,1-2.06-.51l-18-10.36a4.09,4.09,0,0,1-2.06-3.52V471.65a4.09,4.09,0,0,1,2.06-3.52l18-10.36a4.42,4.42,0,0,1,4.12,0l18,10.36a4.09,4.09,0,0,1,2.06,3.52v20.79Zm1.32-23.87a5.56,5.56,0,0,0-2.28-2.28l-18-10.36a6.64,6.64,0,0,0-6.32,0l-18,10.36a5.56,5.56,0,0,0-2.28,2.28,6.75,6.75,0,0,0-.81,3.16v20.78a6.81,6.81,0,0,0,.81,3.16,5.69,5.69,0,0,0,2.28,2.28l18,10.35a6.57,6.57,0,0,0,6.32,0l18-10.35a5.69,5.69,0,0,0,2.28-2.28,6.81,6.81,0,0,0,.81-3.16V471.73a5.22,5.22,0,0,0-.81-3.16Z"/><path class="cls-2" d="M439.37,494.35a4.57,4.57,0,0,1-2.35,4l-21.23,12.26a4.85,4.85,0,0,1-4.7,0l-21.23-12.26a4.57,4.57,0,0,1-2.35-4V469.89a4.57,4.57,0,0,1,2.35-4l21.23-12.27a4.51,4.51,0,0,1,4.7,0L437,465.85a4.57,4.57,0,0,1,2.35,4v24.46Zm.29-27.4a6,6,0,0,0-2.13-2.13L416.3,452.56a5.77,5.77,0,0,0-2.86-.81,5.54,5.54,0,0,0-2.86.81l-21.23,12.26a6,6,0,0,0-2.13,2.13,5.77,5.77,0,0,0-.81,2.87v24.45a5.58,5.58,0,0,0,.81,2.87,6,6,0,0,0,2.13,2.13l21.23,12.26a5.74,5.74,0,0,0,2.86.81,5.54,5.54,0,0,0,2.86-.81l21.23-12.26a6,6,0,0,0,2.13-2.13,5.88,5.88,0,0,0,.81-2.87V469.82a5.68,5.68,0,0,0-.81-2.87Z"/><path class="cls-10" d="M424.68,485.53a3,3,0,0,1,3-3h1.91a3,3,0,0,1-.15,4.12l-.15.14v.15a5.11,5.11,0,0,1-5.14,5.14,3,3,0,0,1-3-3h-.88a3.8,3.8,0,0,0,1.1,2.72,3.76,3.76,0,0,0,2.28,1.1,5.19,5.19,0,0,1-5.14,4.77,3.07,3.07,0,0,1-3-2.57V484a3,3,0,0,1,3-3,3.3,3.3,0,0,0,1.47-.29,4.54,4.54,0,0,0,1.25-.81,3.8,3.8,0,0,0,1.1-2.72h-.88a3,3,0,0,1-6,0V469.6a3,3,0,0,1,3-3,5.15,5.15,0,0,1,5.15,4.78,3.68,3.68,0,0,0-2.28,1.1,3.74,3.74,0,0,0-1.1,2.72h.88a3,3,0,0,1,3-3,4.9,4.9,0,0,1,3.6,1.54,5,5,0,0,1,1.47,3.6v.14l.14.15a3,3,0,0,1,.15,4.11h-1.91a4.13,4.13,0,0,0-2.72,1.11,3.78,3.78,0,0,0-1.1,2.71Zm6.53-5.87a4,4,0,0,0-1-2.65,5.91,5.91,0,0,0-1.77-4,6.23,6.23,0,0,0-3.82-1.76,5.78,5.78,0,0,0-1.76-3.82,6.05,6.05,0,0,0-4.26-1.76,3.76,3.76,0,0,0-3.82,3.82V477a3.78,3.78,0,0,0,1.1,2.72,4.64,4.64,0,0,0,1,.74,3,3,0,0,0-1,.73,3.78,3.78,0,0,0-1.1,2.72v11.16a3.81,3.81,0,0,0,3.82,3.31,5.86,5.86,0,0,0,4.26-1.77,6.1,6.1,0,0,0,1.76-3.81,5.84,5.84,0,0,0,3.82-1.77,6,6,0,0,0,1.77-4,3.82,3.82,0,0,0,1-2.64,3.67,3.67,0,0,0-.88-2.43,3,3,0,0,0,.88-2.27Z"/><path class="cls-10" d="M405.07,467a5.07,5.07,0,0,1,4,.81,5.42,5.42,0,0,1,2.28,3.38,5.09,5.09,0,0,1-.81,4,5.41,5.41,0,0,1-3.38,2.27l-.44.08.15.88.44-.07a5.82,5.82,0,0,0,3.89-2.65,6,6,0,0,0,1-4.18c0-.15-.08-.3-.08-.45h0c0-.14-.07-.29-.07-.44a6,6,0,0,0-7.12-4.4l-.44.07.14.81.52-.08Z"/><path class="cls-10" d="M404.41,492.36a8.48,8.48,0,0,1-1.25.22,5.24,5.24,0,0,0,5.29,4.93h.44v.88h-.44a6.36,6.36,0,0,1-4.34-1.77,6,6,0,0,1-1.76-4,5.8,5.8,0,0,1-2.43-.73,6.1,6.1,0,0,1-2.93-3.67l-.15-.44.81-.22.14.44a5.35,5.35,0,0,0,5.73,3.82l-.14-.15-.3-.29a6.32,6.32,0,0,1-1.54-4,5.76,5.76,0,0,1,.29-1.91A6.1,6.1,0,0,1,398,484a5.89,5.89,0,0,1-2.13-3.74.62.62,0,0,0-.08-.37v-.52a6.16,6.16,0,0,1,1.4-4,6.08,6.08,0,0,1,4.18-2.2l.44-.07.08.88-.44.07a5.28,5.28,0,0,0-4.78,5.73v.07a5.27,5.27,0,0,0,5.51,4.71,7,7,0,0,1,.88-1.33l.3-.29h0a5.33,5.33,0,0,0,0-7.49l-.3-.3.59-.58.29.29a6.12,6.12,0,0,1,1.84,4.33,5.9,5.9,0,0,1-1.54,4l-.3.3h0a6,6,0,0,0-1.1,1.54c-.07.07-.07.22-.14.29a5.26,5.26,0,0,0,1.17,5.66c.22.22.44.37.59.51s.15.08.22.15a5.28,5.28,0,0,0,2.94.88,5.56,5.56,0,0,0,3.74-1.54l.3-.29.58.58-.29.3a6.13,6.13,0,0,1-4.33,1.83,6.32,6.32,0,0,1-3.23-1Z"/><path class="cls-10" d="M406.54,487.81l-.45.07.08.89.44-.08a6.37,6.37,0,0,0,4.19-2.2,6.22,6.22,0,0,0,1.39-4.48l-.07-.44-.88.07.07.44a5.29,5.29,0,0,1-1.18,3.89,5.7,5.7,0,0,1-3.59,1.84Z"/><path class="cls-30" d="M451.34,483.26a38,38,0,1,1-38-38.05A38.05,38.05,0,0,1,451.34,483.26Z"/><path class="cls-31" d="M413.29,523.51a40.33,40.33,0,1,1,40.33-40.33A40.35,40.35,0,0,1,413.29,523.51Zm0-76.1a35.77,35.77,0,1,0,35.77,35.77A35.77,35.77,0,0,0,413.29,447.41Z"/><g class="cls-32"><path class="cls-33" d="M439.51,469a15.24,15.24,0,0,0-7.71-2.35c-4.26,0-6.68,4.7-1.83,6.46s1.17,8.23,4.62,19.39,6.47-.59,9.48-9.69S442.45,472,439.51,469Z"/><path class="cls-33" d="M429.08,463.5c3.46-4,6.54-1.18.59-5.29l-8.74-4.7s-6.76.59-4.26,10.06S425.63,467.54,429.08,463.5Z"/></g></g><use width="380.03" height="157.39" transform="translate(275.2 305.35) scale(0.73)" xlink:href="#logo"/></g></g></svg>