<svg width="1450" height="1027" viewBox="0 0 1450 1027" fill="none" xmlns="http://www.w3.org/2000/svg">
<path d="M0 20C0 8.95432 8.95431 0 20 0H1430C1441.05 0 1450 8.95431 1450 20V1007C1450 1018.05 1441.05 1027 1430 1027H20C8.95432 1027 0 1018.05 0 1007V20Z" fill="white"/>
<g clip-path="url(#clip0_548_35)">
<path d="M1450.21 0H0V785.294H1450.21V0Z" fill="url(#paint0_radial_548_35)"/>
<path d="M1450.21 786.297H0V1027H1450.21V786.297Z" fill="url(#paint1_linear_548_35)"/>
<g opacity="0.7">
<path opacity="0.7" d="M214.77 864.436L218.406 844.908C218.656 843.565 215.857 842.321 211.1 841.669L146.473 832.713C144.275 832.412 141.726 832.251 139.064 832.251C136.402 832.251 133.729 832.412 131.293 832.713L59.3934 841.669C54.1145 842.331 50.3082 843.565 49.4699 844.908L37.2695 864.436C36.3406 865.93 38.6969 867.324 43.4434 868.076L111.65 878.838C114.086 879.219 116.952 879.419 119.931 879.419C122.91 879.419 125.946 879.219 128.699 878.838L205.628 868.076C210.986 867.324 214.487 865.93 214.759 864.436H214.77Z" fill="#FFD545" stroke="#DBB10C" stroke-miterlimit="10"/>
<path opacity="0.7" d="M138.837 913.399L215.291 925.965C217.987 926.407 221.091 926.647 224.252 926.647C227.412 926.647 230.561 926.407 233.348 925.965L312.158 913.399C317.709 912.516 321.107 910.861 321.05 909.096L320.246 885.527C320.189 883.872 316.825 882.348 311.455 881.536L237.925 870.383C235.398 870.002 232.532 869.801 229.61 869.801C226.687 869.801 223.776 870.002 221.193 870.383L145.544 881.536C140.038 882.348 136.379 883.872 136.017 885.527L130.772 909.096C130.375 910.861 133.468 912.516 138.837 913.399V913.399Z" fill="#FFD545" stroke="#DBB10C" stroke-miterlimit="10"/>
<path opacity="0.7" d="M396.62 868.076C401.639 867.324 404.471 865.93 404.052 864.436L398.569 844.908C398.195 843.565 394.819 842.321 389.756 841.669L320.937 832.713C318.592 832.412 315.964 832.251 313.313 832.251C310.663 832.251 308.046 832.412 305.757 832.713L238.038 841.669C233.065 842.331 229.836 843.565 229.621 844.908L226.551 864.436C226.313 865.93 229.327 867.324 234.424 868.076L307.661 878.838C310.266 879.219 313.234 879.419 316.225 879.419C319.215 879.419 322.149 879.219 324.721 878.838L396.62 868.076V868.076Z" fill="#FFD545" stroke="#DBB10C" stroke-miterlimit="10"/>
<path opacity="0.7" d="M342.925 913.399L422.822 925.965C425.643 926.407 428.815 926.647 431.964 926.647C435.113 926.647 438.217 926.407 440.879 925.965L516.245 913.399C521.558 912.516 524.504 910.861 523.96 909.096L516.698 885.527C516.189 883.872 512.405 882.348 506.82 881.536L430.231 870.383C427.614 870.002 424.68 869.801 421.757 869.801C418.835 869.801 415.98 870.002 413.499 870.383L340.909 881.536C335.618 882.348 332.39 883.872 332.48 885.527L333.681 909.096C333.772 910.861 337.306 912.516 342.925 913.399V913.399Z" fill="#FFD545" stroke="#DBB10C" stroke-miterlimit="10"/>
<path opacity="0.7" d="M586.128 844.918C585.12 843.574 581.155 842.331 575.786 841.679L502.776 832.723C500.295 832.422 497.588 832.261 494.937 832.261C492.286 832.261 489.749 832.422 487.596 832.723L424.08 841.679C419.412 842.341 416.773 843.574 417.192 844.918L423.275 864.445C423.74 865.94 427.399 867.334 432.859 868.086L511.148 878.847C513.934 879.228 517.004 879.429 519.983 879.429C522.963 879.429 525.817 879.228 528.208 878.847L595.066 868.086C599.722 867.334 601.909 865.94 600.798 864.445L586.151 844.918H586.128Z" fill="#FFD545" stroke="#DBB10C" stroke-miterlimit="10"/>
<path opacity="0.7" d="M423.683 972.039C429.902 970.856 433.335 968.67 432.678 966.323L424.193 936.105C423.615 934.048 419.345 932.163 413.046 931.16L327.915 917.59C325.038 917.129 321.809 916.898 318.547 916.898C315.284 916.898 312.09 917.139 309.28 917.59L225.815 931.16C219.652 932.163 215.608 934.059 215.28 936.105L210.522 966.323C210.148 968.66 213.864 970.856 220.219 972.039L312.237 989.079C315.534 989.691 319.295 990.012 323.055 990.012C326.816 990.012 330.532 989.691 333.772 989.079L423.672 972.039H423.683Z" fill="#FFD545" stroke="#DBB10C" stroke-miterlimit="10"/>
<path opacity="0.7" d="M448.209 966.333C448.934 968.67 453.669 970.866 460.579 972.05L560.595 989.09C564.186 989.701 568.083 990.022 571.855 990.022C575.627 990.022 579.196 989.701 582.141 989.09L664.055 972.05C669.73 970.866 672.132 968.68 670.376 966.333L647.708 936.115C646.168 934.059 641.002 932.173 634.239 931.17L542.742 917.601C539.66 917.139 536.307 916.909 533.045 916.909C529.782 916.909 526.701 917.149 524.107 917.601L446.996 931.17C441.298 932.173 438.149 934.069 438.795 936.115L448.209 966.333V966.333Z" fill="#FFD545" stroke="#DBB10C" stroke-miterlimit="10"/>
<path opacity="0.7" d="M160.882 808.813C156.215 809.365 153.043 810.398 152.601 811.521L146.257 827.738C145.77 828.972 148.263 830.125 152.76 830.747L217.194 839.603C219.482 839.914 222.133 840.084 224.841 840.084C227.548 840.084 230.255 839.914 232.657 839.603L300.139 830.747C304.851 830.125 307.729 828.972 307.672 827.738L306.902 811.521C306.845 810.398 304.036 809.365 299.55 808.813L238.457 801.311C236.384 801.06 234.005 800.92 231.57 800.92C229.134 800.92 226.71 801.05 224.557 801.311L160.882 808.813V808.813Z" fill="#FFD545" stroke="#DBB10C" stroke-miterlimit="10"/>
<path opacity="0.7" d="M324.166 808.813C319.759 809.365 317.063 810.398 317.154 811.521L318.388 827.738C318.479 828.972 321.504 830.125 326.295 830.747L394.876 839.603C397.311 839.914 400.041 840.084 402.749 840.084C405.456 840.084 408.084 839.914 410.339 839.603L473.674 830.747C478.104 830.125 480.449 828.972 479.814 827.738L471.465 811.521C470.888 810.398 467.58 809.365 462.845 808.813L398.252 801.311C396.054 801.06 393.618 800.92 391.183 800.92C388.747 800.92 386.391 801.05 384.352 801.311L324.177 808.813H324.166Z" fill="#FFD545" stroke="#DBB10C" stroke-miterlimit="10"/>
<path opacity="0.7" d="M481.808 811.471L490.632 827.678C491.301 828.912 494.869 830.065 499.944 830.687L572.659 839.543C575.242 839.854 578.052 840.024 580.748 840.024C583.444 840.024 586.004 839.854 588.111 839.543L647.289 830.687C651.424 830.065 653.225 828.912 652.013 827.678L636.086 811.471C634.987 810.348 631.192 809.315 626.207 808.763L558.114 801.271C555.792 801.02 553.3 800.88 550.864 800.88C548.429 800.88 546.129 801.01 544.214 801.271L487.551 808.763C483.394 809.315 481.196 810.348 481.808 811.471V811.471Z" fill="#FFD545" stroke="#DBB10C" stroke-miterlimit="10"/>
<path opacity="0.7" d="M604.061 844.999L619.275 864.536C620.441 866.03 624.757 867.424 630.557 868.176L713.887 878.938C716.855 879.319 720.016 879.52 722.995 879.52C725.974 879.52 728.738 879.319 730.947 878.938L792.787 868.176C797.103 867.424 798.633 866.03 796.809 864.536L773.043 844.999C771.411 843.655 766.869 842.411 761.193 841.759L683.981 832.803C681.364 832.502 678.577 832.342 675.926 832.342C673.276 832.342 670.806 832.502 668.801 832.803L609.453 841.759C605.092 842.421 603.03 843.655 604.072 844.999H604.061Z" fill="#FFD545" stroke="#DBB10C" stroke-miterlimit="10"/>
<path opacity="0.7" d="M798.542 808.773L726.948 801.281C724.513 801.03 721.953 800.89 719.517 800.89C717.082 800.89 714.85 801.02 713.049 801.281L659.897 808.773C656 809.324 654.278 810.357 655.411 811.481L671.814 827.688C673.06 828.922 677.161 830.075 682.531 830.697L759.381 839.553C762.111 839.864 765 840.034 767.696 840.034C770.392 840.034 772.873 839.864 774.844 839.553L829.887 830.697C833.739 830.075 834.996 828.922 833.206 827.688L809.7 811.481C808.08 810.357 803.798 809.324 798.553 808.773H798.542Z" fill="#FFD545" stroke="#DBB10C" stroke-miterlimit="10"/>
<path opacity="0.7" d="M971.16 808.773L896.055 801.281C893.494 801.03 890.878 800.89 888.442 800.89C886.007 800.89 883.832 801.02 882.155 801.281L832.504 808.773C828.868 809.324 827.621 810.357 829.287 811.481L853.28 827.688C855.103 828.922 859.748 830.075 865.401 830.697L946.408 839.553C949.285 839.864 952.242 840.034 954.95 840.034C957.657 840.034 960.047 839.864 961.871 839.553L1012.77 830.697C1016.33 830.075 1017.05 828.922 1014.68 827.688L983.587 811.481C981.435 810.357 976.677 809.324 971.171 808.773H971.16Z" fill="#FFD545" stroke="#DBB10C" stroke-miterlimit="10"/>
<path opacity="0.7" d="M998.461 864.526L965.462 844.989C963.197 843.645 958.065 842.401 952.072 841.749L870.623 832.793C867.859 832.492 865.004 832.332 862.342 832.332C859.68 832.332 857.301 832.492 855.432 832.793L800.321 841.749C796.277 842.411 794.793 843.645 796.481 844.989L820.927 864.526C822.796 866.02 827.769 867.414 833.931 868.166L922.347 878.928C925.497 879.309 928.748 879.509 931.738 879.509C934.729 879.509 937.38 879.309 939.407 878.928L996.161 868.166C1000.13 867.414 1000.99 866.02 998.472 864.526H998.461Z" fill="#FFD545" stroke="#DBB10C" stroke-miterlimit="10"/>
<path opacity="0.7" d="M1185.67 864.526L1143.64 844.989C1140.75 843.645 1135.04 842.401 1128.76 841.749L1043.16 832.793C1040.25 832.492 1037.33 832.332 1034.67 832.332C1032 832.332 1029.69 832.492 1027.97 832.793L977.005 841.749C973.267 842.411 972.361 843.645 974.66 844.989L1008.12 864.526C1010.68 866.02 1016.31 867.414 1022.81 868.166L1116.19 878.928C1119.51 879.309 1122.87 879.509 1125.85 879.509C1128.82 879.509 1131.39 879.309 1133.25 878.928L1185.04 868.166C1188.65 867.414 1188.88 866.02 1185.66 864.526H1185.67Z" fill="#FFD545" stroke="#DBB10C" stroke-miterlimit="10"/>
<path opacity="0.7" d="M1196.99 827.688L1158.31 811.481C1155.64 810.357 1150.41 809.324 1144.64 808.773L1066.03 801.281C1063.36 801.03 1060.68 800.89 1058.24 800.89C1055.8 800.89 1053.7 801.02 1052.13 801.281L1005.99 808.773C1002.61 809.324 1001.86 810.357 1004.03 811.481L1035.61 827.688C1038.01 828.922 1043.2 830.075 1049.13 830.697L1134.27 839.553C1137.3 839.864 1140.33 840.034 1143.04 840.034C1145.75 840.034 1148.06 839.864 1149.74 839.553L1196.49 830.697C1199.76 830.075 1199.93 828.922 1197 827.688H1196.99Z" fill="#FFD545" stroke="#DBB10C" stroke-miterlimit="10"/>
<path opacity="0.7" d="M1374.99 864.526L1323.83 844.989C1320.3 843.645 1314.02 842.401 1307.42 841.749L1217.65 832.793C1214.6 832.492 1211.6 832.332 1208.94 832.332C1206.28 832.332 1204.04 832.492 1202.46 832.793L1155.67 841.749C1152.24 842.411 1151.91 843.645 1154.85 844.989L1197.44 864.526C1200.69 866.02 1206.97 867.414 1213.82 868.166L1312.24 878.928C1315.74 879.309 1319.18 879.509 1322.17 879.509C1325.16 879.509 1327.63 879.309 1329.31 878.928L1376.06 868.166C1379.32 867.414 1378.89 866.02 1374.99 864.526V864.526Z" fill="#FFD545" stroke="#DBB10C" stroke-miterlimit="10"/>
<path opacity="0.7" d="M1369.66 827.688L1323.39 811.481C1320.19 810.357 1314.46 809.324 1308.43 808.773L1226.31 801.281C1223.53 801.03 1220.78 800.89 1218.34 800.89C1215.9 800.89 1213.85 801.02 1212.42 801.281L1169.79 808.773C1166.66 809.324 1166.4 810.357 1169.11 811.481L1208.28 827.688C1211.26 828.922 1216.98 830.075 1223.21 830.697L1312.51 839.553C1315.68 839.864 1318.8 840.034 1321.5 840.034C1324.21 840.034 1326.46 839.864 1327.97 839.553L1370.58 830.697C1373.56 830.075 1373.2 828.922 1369.68 827.688H1369.66Z" fill="#FFD545" stroke="#DBB10C" stroke-miterlimit="10"/>
<path opacity="0.7" d="M529.261 886.059L536.942 909.667C537.52 911.443 541.507 913.097 547.375 913.98L630.784 926.567C633.729 927.008 636.969 927.249 640.118 927.249C643.268 927.249 646.304 927.018 648.852 926.567L720.831 913.98C725.895 913.097 728.387 911.443 727.356 909.667L713.615 886.059C712.652 884.404 708.45 882.869 702.638 882.057L622.934 870.894C620.204 870.513 617.224 870.312 614.29 870.312C611.356 870.312 608.558 870.513 606.191 870.894L536.602 882.057C531.538 882.869 528.718 884.404 529.25 886.059H529.261Z" fill="#FFD545" stroke="#DBB10C" stroke-miterlimit="10"/>
<path opacity="0.7" d="M700.078 972.19L808.092 989.24C811.966 989.852 816.021 990.173 819.794 990.173C823.566 990.173 826.976 989.852 829.638 989.24L903.599 972.19C908.72 971.017 910.102 968.81 907.247 966.474L870.453 936.235C867.95 934.179 861.9 932.284 854.673 931.291L756.809 917.721C753.513 917.26 750.047 917.019 746.784 917.019C743.522 917.019 740.542 917.26 738.163 917.721L667.374 931.291C662.14 932.294 659.875 934.189 661.472 936.235L685.012 966.474C686.836 968.81 692.59 971.007 700.067 972.19H700.078Z" fill="#FFD545" stroke="#DBB10C" stroke-miterlimit="10"/>
<path opacity="0.7" d="M907.224 882.067L824.461 870.904C821.629 870.523 818.593 870.323 815.659 870.323C812.725 870.323 809.984 870.523 807.718 870.904L741.188 882.067C736.34 882.879 733.949 884.414 734.935 886.069L749.084 909.678C750.148 911.453 754.589 913.108 760.695 913.99L847.559 926.577C850.629 927.018 853.925 927.259 857.086 927.259C860.247 927.259 863.214 927.028 865.639 926.577L934.163 913.99C938.988 913.108 941.027 911.453 939.509 909.678L919.3 886.069C917.884 884.414 913.251 882.879 907.224 882.067V882.067Z" fill="#FFD545" stroke="#DBB10C" stroke-miterlimit="10"/>
<path opacity="0.7" d="M965.462 909.667C967.059 911.443 972.146 913.097 978.716 913.98L1072.21 926.567C1075.5 927.008 1078.99 927.249 1082.25 927.249C1085.52 927.249 1088.52 927.018 1090.91 926.567L1158.27 913.98C1163.01 913.097 1164.66 911.443 1162.58 909.667L1134.96 886.059C1133.03 884.404 1127.81 882.869 1121.33 882.057L1032.48 870.894C1029.43 870.513 1026.24 870.312 1023.2 870.312C1020.17 870.312 1017.38 870.513 1015.15 870.894L949.455 882.057C944.675 882.869 942.624 884.404 944.12 886.059L965.462 909.667Z" fill="#FFD545" stroke="#DBB10C" stroke-miterlimit="10"/>
<path opacity="0.7" d="M942.398 972.19L1058.47 989.24C1062.62 989.852 1066.84 990.173 1070.61 990.173C1074.38 990.173 1077.63 989.852 1080.01 989.24L1145.92 972.19C1150.48 971.017 1150.82 968.81 1146.87 966.474L1095.78 936.235C1092.31 934.179 1085.37 932.284 1077.66 931.291L973.38 917.721C969.857 917.26 966.289 917.019 963.027 917.019C959.764 917.019 956.909 917.26 954.746 917.721L890.368 931.291C885.61 932.294 884.239 934.189 886.811 936.235L924.647 966.474C927.569 968.81 934.378 971.007 942.398 972.19Z" fill="#FFD545" stroke="#DBB10C" stroke-miterlimit="10"/>
<path opacity="0.7" d="M1179.36 972.19L1303.31 989.24C1307.75 989.852 1312.11 990.173 1315.89 990.173C1319.66 990.173 1322.76 989.852 1324.86 989.24L1382.88 972.19C1386.9 971.017 1386.22 968.81 1381.19 966.474L1316.14 936.235C1311.72 934.179 1303.89 932.284 1295.72 931.291L1185.17 917.721C1181.43 917.26 1177.75 917.019 1174.49 917.019C1171.23 917.019 1168.47 917.26 1166.53 917.721L1108.42 931.291C1104.13 932.294 1103.63 934.189 1107.15 936.235L1158.96 966.474C1162.97 968.81 1170.78 971.007 1179.35 972.19H1179.36Z" fill="#FFD545" stroke="#DBB10C" stroke-miterlimit="10"/>
<path opacity="0.7" d="M1372.79 909.667L1338.47 886.059C1336.07 884.404 1330.42 882.869 1323.71 882.057L1231.71 870.894C1228.56 870.513 1225.3 870.312 1222.26 870.312C1219.22 870.312 1216.49 870.513 1214.36 870.894L1151.83 882.057C1147.28 882.869 1145.66 884.404 1147.63 886.059L1175.67 909.667C1177.77 911.443 1183.31 913.097 1190.14 913.98L1287.2 926.567C1290.62 927.008 1294.18 927.249 1297.44 927.249C1300.71 927.249 1303.64 927.018 1305.91 926.567L1369.7 913.98C1374.19 913.097 1375.36 911.443 1372.78 909.667H1372.79Z" fill="#FFD545" stroke="#DBB10C" stroke-miterlimit="10"/>
<path opacity="0.7" d="M75.0828 990.022C78.8664 990.022 82.7179 989.701 86.241 989.09L184.105 972.05C190.879 970.866 195.342 968.68 195.773 966.333L201.403 936.115C201.788 934.059 198.389 932.173 192.567 931.17L113.768 917.601C111.106 917.139 107.991 916.909 104.728 916.909C101.466 916.909 98.1582 917.149 95.1336 917.601L5.32419 931.17C3.47771 931.451 1.76716 931.802 0.21521 932.203V976.021L64.6836 989.09C67.6969 989.701 71.2992 990.022 75.0715 990.022H75.0828Z" fill="#FFD545" stroke="#DBB10C" stroke-miterlimit="10"/>
<path opacity="0.7" d="M18.8726 926.647C22.0445 926.647 25.2504 926.407 28.1504 925.965L110.37 913.399C116.159 912.516 119.999 910.861 120.418 909.096L125.991 885.527C126.388 883.872 123.431 882.348 118.288 881.536L47.7707 870.383C45.3578 870.002 42.5484 869.801 39.6144 869.801C36.6804 869.801 33.7238 870.002 31.039 870.383L0.21521 874.756V924.27L10.082 925.965C12.6648 926.407 15.7008 926.647 18.8613 926.647H18.8726Z" fill="#FFD545" stroke="#DBB10C" stroke-miterlimit="10"/>
<path opacity="0.7" d="M25.171 864.435L37.9491 844.908C38.8327 843.564 36.601 842.321 32.1604 841.669L0.22644 836.935V869.921L14.33 868.066C20.0393 867.314 24.1968 865.92 25.171 864.425V864.435Z" fill="#FFD545" stroke="#DBB10C" stroke-miterlimit="10"/>
<path opacity="0.7" d="M48.9374 840.084C51.6561 840.084 54.4315 839.914 56.9803 839.603L128.551 830.747C133.558 830.125 136.968 828.972 137.478 827.738L144.207 811.521C144.671 810.398 142.326 809.365 138.101 808.813L80.4749 801.311C78.5151 801.06 76.2042 800.92 73.7686 800.92C71.3331 800.92 68.8522 801.05 66.5753 801.311L0.22644 808.723V833.535L41.5175 839.593C43.6585 839.904 46.23 840.074 48.9374 840.074V840.084Z" fill="#FFD545" stroke="#DBB10C" stroke-miterlimit="10"/>
<path opacity="0.7" d="M69.294 797.029L78.2432 783.349C78.4925 782.977 78.3112 782.606 77.7901 782.275H0.22644V806.245L60.6054 799.546C65.2952 799.024 68.6143 798.062 69.294 797.018V797.029Z" fill="#FFD545" stroke="#DBB10C" stroke-miterlimit="10"/>
<path opacity="0.7" d="M84.8363 799.556L142.259 806.978C144.298 807.238 146.688 807.379 149.157 807.379C151.627 807.379 154.13 807.238 156.396 806.978L219.834 799.556C224.274 799.034 227.152 798.072 227.344 797.029L229.893 783.349C229.961 782.977 229.621 782.606 228.941 782.275H89.7414C88.8012 782.606 88.1555 782.967 87.9289 783.349L79.3875 797.029C78.7418 798.062 80.8262 799.034 84.8476 799.556H84.8363Z" fill="#FFD545" stroke="#DBB10C" stroke-miterlimit="10"/>
<path opacity="0.7" d="M243.793 799.556L304.681 806.978C306.845 807.238 309.303 807.379 311.773 807.379C314.242 807.379 316.689 807.238 318.819 806.978L378.79 799.556C382.993 799.034 385.405 798.072 385.111 797.029L381.271 783.349C381.169 782.977 380.648 782.606 379.821 782.275H240.621C239.828 782.606 239.363 782.967 239.307 783.349L237.154 797.029C236.996 798.062 239.533 799.034 243.793 799.556V799.556Z" fill="#FFD545" stroke="#DBB10C" stroke-miterlimit="10"/>
<path opacity="0.7" d="M395.454 797.029C395.782 798.062 398.761 799.034 403.27 799.556L467.648 806.978C469.936 807.238 472.451 807.379 474.92 807.379C477.39 807.379 479.769 807.238 481.774 806.978L538.267 799.556C542.221 799.034 544.192 798.072 543.41 797.029L533.158 783.349C532.875 782.977 532.195 782.606 531.21 782.275H392.01C391.375 782.606 391.081 782.967 391.194 783.349L395.454 797.029V797.029Z" fill="#FFD545" stroke="#DBB10C" stroke-miterlimit="10"/>
<path opacity="0.7" d="M729.735 797.099C731.038 798.132 734.935 799.105 739.93 799.626L811.286 807.048C813.812 807.308 816.474 807.449 818.944 807.449C821.414 807.449 823.657 807.308 825.424 807.048L874.95 799.626C878.417 799.105 879.47 798.142 877.714 797.099L854.605 783.419C853.937 783.018 852.815 782.636 851.41 782.295H712.494C712.109 782.646 712.12 783.028 712.618 783.419L729.735 797.099V797.099Z" fill="#FFD545" stroke="#DBB10C" stroke-miterlimit="10"/>
<path opacity="0.7" d="M557.684 797.099C558.488 798.132 561.932 799.105 566.678 799.626L634.534 807.048C636.935 807.308 639.529 807.449 641.999 807.449C644.468 807.449 646.779 807.308 648.671 807.048L701.709 799.626C705.425 799.105 706.932 798.142 705.674 797.099L689.022 783.419C688.535 783.018 687.606 782.636 686.36 782.295H547.443C546.888 782.646 546.718 783.028 547.035 783.419L557.684 797.099Z" fill="#FFD545" stroke="#DBB10C" stroke-miterlimit="10"/>
<path opacity="0.7" d="M893.721 797.099C895.5 798.132 899.85 799.105 905.083 799.626L979.871 807.048C982.522 807.308 985.241 807.449 987.711 807.449C990.18 807.449 992.355 807.308 993.998 807.048L1040.09 799.626C1043.32 799.105 1043.92 798.142 1041.69 797.099L1012.25 783.419C1011.39 783.018 1010.09 782.636 1008.53 782.295H869.615C869.388 782.646 869.57 783.028 870.261 783.419L893.699 797.099H893.721Z" fill="#FFD545" stroke="#DBB10C" stroke-miterlimit="10"/>
<path opacity="0.7" d="M1051.52 797.099C1053.79 798.132 1058.58 799.105 1064.06 799.626L1142.32 807.048C1145.09 807.308 1147.88 807.449 1150.35 807.449C1152.82 807.449 1154.94 807.308 1156.45 807.048L1199.08 799.626C1202.07 799.105 1202.22 798.142 1199.5 797.099L1163.67 783.419C1162.63 783.018 1161.16 782.636 1159.42 782.295H1020.51C1020.44 782.646 1020.81 783.028 1021.67 783.419L1051.51 797.099H1051.52Z" fill="#FFD545" stroke="#DBB10C" stroke-miterlimit="10"/>
<path opacity="0.7" d="M1210.52 797.5C1213.28 798.543 1218.54 799.506 1224.28 800.027L1306.13 807.469C1309.03 807.73 1311.89 807.87 1314.37 807.87C1316.85 807.87 1318.89 807.73 1320.29 807.469L1359.47 800.027C1362.21 799.506 1361.9 798.533 1358.7 797.5L1316.36 783.79C1314.67 783.248 1312.22 782.727 1309.38 782.295H1172.56C1172.22 782.727 1172.77 783.248 1174.21 783.79L1210.52 797.5Z" fill="#FFD545" stroke="#DBB10C" stroke-miterlimit="10"/>
<path opacity="0.7" d="M1388.35 917.019C1385.1 917.019 1382.45 917.26 1380.72 917.721L1328.96 931.29C1325.13 932.293 1325.53 934.189 1330 936.235L1395.94 966.473C1401.04 968.81 1409.89 971.007 1419.01 972.19L1450.23 976.222V923.618L1399.35 917.711C1395.41 917.25 1391.61 917.009 1388.35 917.009V917.019Z" fill="#FFD545" stroke="#DBB10C" stroke-miterlimit="10"/>
<path opacity="0.7" d="M1384.76 832.823C1382.11 832.823 1379.94 832.984 1378.5 833.285L1335.88 842.271C1332.75 842.933 1333.01 844.176 1336.58 845.52L1388.47 865.108C1392.43 866.602 1399.39 868.006 1406.59 868.758L1421.61 870.323C1418.73 870.343 1416.19 870.533 1414.25 870.904L1354.9 882.067C1350.57 882.879 1349.41 884.414 1351.84 886.069L1386.6 909.678C1389.2 911.453 1395.22 913.108 1402.3 913.99L1450.25 919.988V838.69L1393.73 833.295C1390.54 832.994 1387.46 832.833 1384.8 832.833L1384.76 832.823Z" fill="#FFD545" stroke="#DBB10C" stroke-miterlimit="10"/>
<path opacity="0.7" d="M1381.06 801.301C1378.63 801.301 1376.63 801.431 1375.3 801.692L1336.15 809.204C1333.29 809.755 1333.5 810.789 1336.74 811.912L1383.59 828.169C1387.16 829.403 1393.44 830.566 1399.96 831.188L1450.23 835.962V807.048L1389.24 801.702C1386.31 801.451 1383.5 801.311 1381.07 801.311L1381.06 801.301Z" fill="#FFD545" stroke="#DBB10C" stroke-miterlimit="10"/>
<path opacity="0.7" d="M1323.44 782.285C1323.31 782.717 1324.09 783.238 1325.79 783.78L1368.52 797.49C1371.76 798.533 1377.48 799.496 1383.45 800.017L1450.23 805.844V782.275H1323.44V782.285Z" fill="#FFD545" stroke="#DBB10C" stroke-miterlimit="10"/>
<path opacity="0.7" d="M1306.1 993.452L1181.12 976.132C1176.91 975.55 1172.77 975.239 1169.09 975.239C1165.4 975.239 1162.31 975.54 1160.1 976.132L1094.14 993.452C1089.24 994.736 1088.61 997.163 1092.53 999.801L1132.93 1027.01H1381.68L1329.36 999.801C1324.28 997.163 1315.38 994.736 1306.1 993.452V993.452Z" fill="#FFD545" stroke="#DBB10C" stroke-miterlimit="10"/>
<path opacity="0.7" d="M304.455 993.372L211.983 976.062C208.868 975.48 205.3 975.169 201.618 975.169C197.936 975.169 194.266 975.47 190.969 976.062L92.5281 993.372C85.2328 994.656 80.0445 997.083 79.0136 999.721L68.3425 1027.01H317.108L315.817 999.721C315.692 997.083 311.331 994.656 304.466 993.372H304.455Z" fill="#FFD545" stroke="#DBB10C" stroke-miterlimit="10"/>
<path opacity="0.7" d="M554.002 993.372L453.431 976.062C450.055 975.48 446.328 975.169 442.658 975.169C438.988 975.169 435.453 975.47 432.417 976.062L342.064 993.372C335.358 994.656 331.314 997.083 331.518 999.721L333.602 1027.01H582.356L568.309 999.721C566.95 997.083 561.467 994.656 553.991 993.372H554.002Z" fill="#FFD545" stroke="#DBB10C" stroke-miterlimit="10"/>
<path opacity="0.7" d="M804.195 993.292L695.524 975.981C691.877 975.4 688.014 975.099 684.332 975.099C680.65 975.099 677.263 975.4 674.51 975.981L592.291 993.292C586.196 994.576 583.285 997.003 584.712 999.64L599.632 1027.01H848.386L821.47 999.64C818.876 997.003 812.249 994.576 804.184 993.292H804.195Z" fill="#FFD545" stroke="#DBB10C" stroke-miterlimit="10"/>
<path opacity="0.7" d="M1053.72 993.452L936.927 976.132C933.007 975.55 928.997 975.239 925.327 975.239C921.656 975.239 918.405 975.54 915.924 976.132L841.77 993.452C836.265 994.736 834.486 997.163 837.16 999.801L864.698 1027.01H1113.45L1073.99 999.801C1070.16 997.163 1062.4 994.736 1053.73 993.452H1053.72Z" fill="#FFD545" stroke="#DBB10C" stroke-miterlimit="10"/>
<path opacity="0.7" d="M1407.46 975.239C1403.8 975.239 1400.82 975.54 1398.89 976.132L1340.92 993.452C1336.63 994.736 1337.1 997.163 1342.24 999.801L1395.21 1027.01H1450.23V980.083L1419.9 976.132C1415.43 975.55 1411.13 975.239 1407.46 975.239Z" fill="#FFD545" stroke="#DBB10C" stroke-miterlimit="10"/>
<path opacity="0.7" d="M0.22644 981.587V1027H54.794L66.1108 999.71C67.2096 997.073 63.9698 994.646 57.694 993.362L0.22644 981.587Z" fill="#FFD545" stroke="#DBB10C" stroke-miterlimit="10"/>
</g>
<path opacity="0.7" d="M1408.67 72H41.3306C37.8343 72 35 74.5385 35 77.67V142.33C35 145.461 37.8343 148 41.3306 148H1408.67C1412.17 148 1415 145.461 1415 142.33V77.67C1415 74.5385 1412.17 72 1408.67 72Z" fill="white" fill-opacity="0.75"/>
<path opacity="0.5" d="M1385 155H65C48.4315 155 35 168.431 35 185V962C35 978.569 48.4315 992 65 992H1385C1401.57 992 1415 978.569 1415 962V185C1415 168.431 1401.57 155 1385 155Z" fill="white" fill-opacity="0.75"/>
</g>
<defs>
<radialGradient id="paint0_radial_548_35" cx="0" cy="0" r="1" gradientUnits="userSpaceOnUse" gradientTransform="translate(716.911 393.205) scale(646.554 454.571)">
<stop stop-color="white"/>
<stop offset="1" stop-color="#FDD490"/>
</radialGradient>
<linearGradient id="paint1_linear_548_35" x1="725.113" y1="1027" x2="725.113" y2="786.297" gradientUnits="userSpaceOnUse">
<stop offset="0.13" stop-color="#FFDD80"/>
<stop offset="0.36" stop-color="#F6C55B"/>
<stop offset="0.64" stop-color="#EDAE36"/>
<stop offset="0.86" stop-color="#E7A020"/>
<stop offset="1" stop-color="#E69B18"/>
</linearGradient>
<clipPath id="clip0_548_35">
<rect width="1450" height="1027" fill="white"/>
</clipPath>
</defs>
</svg>
